G75*
%MOIN*%
%OFA0B0*%
%FSLAX25Y25*%
%IPPOS*%
%LPD*%
%AMOC8*
5,1,8,0,0,1.08239X$1,22.5*
%
%ADD10C,0.00500*%
D10*
X0077169Y0102546D02*
X0077169Y0110026D01*
X0085831Y0110026D01*
X0085831Y0102546D01*
X0077169Y0102546D01*
X0179169Y0102546D02*
X0179169Y0110026D01*
X0187831Y0110026D01*
X0187831Y0102546D01*
X0179169Y0102546D01*
X0281169Y0102546D02*
X0281169Y0110026D01*
X0289831Y0110026D01*
X0289831Y0102546D01*
X0281169Y0102546D01*
X0281169Y0204546D02*
X0281169Y0212026D01*
X0289831Y0212026D01*
X0289831Y0204546D01*
X0281169Y0204546D01*
X0187831Y0204546D02*
X0179169Y0204546D01*
X0179169Y0212026D01*
X0187831Y0212026D01*
X0187831Y0204546D01*
X0085831Y0204546D02*
X0077169Y0204546D01*
X0077169Y0212026D01*
X0085831Y0212026D01*
X0085831Y0204546D01*
X0085831Y0306546D02*
X0077169Y0306546D01*
X0077169Y0314026D01*
X0085831Y0314026D01*
X0085831Y0306546D01*
X0179169Y0306546D02*
X0179169Y0314026D01*
X0187831Y0314026D01*
X0187831Y0306546D01*
X0179169Y0306546D01*
X0281169Y0306546D02*
X0281169Y0314026D01*
X0289831Y0314026D01*
X0289831Y0306546D01*
X0281169Y0306546D01*
M02*
