G75*
%MOIN*%
%OFA0B0*%
%FSLAX25Y25*%
%IPPOS*%
%LPD*%
%AMOC8*
5,1,8,0,0,1.08239X$1,22.5*
%
%ADD10C,0.13800*%
%ADD11C,0.03300*%
%ADD12R,0.04737X0.05131*%
%ADD13R,0.03300X0.05800*%
%ADD14R,0.08674X0.05524*%
%ADD15R,0.06115X0.03162*%
%ADD16C,0.08200*%
%ADD17R,0.05131X0.04737*%
%ADD18C,0.04000*%
%ADD19R,0.04343X0.02296*%
D10*
X0041500Y0143333D03*
X0121500Y0143333D03*
X0143500Y0143333D03*
X0223500Y0143333D03*
X0245500Y0143333D03*
X0325500Y0143333D03*
X0325500Y0245333D03*
X0245500Y0245333D03*
X0223500Y0245333D03*
X0143500Y0245333D03*
X0121500Y0245333D03*
X0041500Y0245333D03*
X0041500Y0347333D03*
X0121500Y0347333D03*
X0143500Y0347333D03*
X0223500Y0347333D03*
X0245500Y0347333D03*
X0325500Y0347333D03*
D11*
X0238500Y0354333D03*
X0136500Y0354333D03*
X0034500Y0354333D03*
X0128000Y0260833D03*
X0136500Y0252333D03*
X0230000Y0260833D03*
X0238500Y0252333D03*
X0332000Y0260833D03*
X0332000Y0158833D03*
X0238500Y0150333D03*
X0230000Y0158833D03*
X0136500Y0150333D03*
X0128000Y0158833D03*
X0034500Y0150333D03*
X0128000Y0056833D03*
X0230000Y0056833D03*
X0332000Y0056833D03*
X0034500Y0252333D03*
D12*
X0066500Y0223680D03*
X0066500Y0216987D03*
X0059000Y0208680D03*
X0059000Y0201987D03*
X0099000Y0201987D03*
X0104000Y0201987D03*
X0104000Y0208680D03*
X0099000Y0208680D03*
X0096500Y0216987D03*
X0096500Y0223680D03*
X0101500Y0188680D03*
X0101500Y0181987D03*
X0161000Y0201987D03*
X0161000Y0208680D03*
X0168500Y0216987D03*
X0168500Y0223680D03*
X0198500Y0223680D03*
X0198500Y0216987D03*
X0201000Y0208680D03*
X0206000Y0208680D03*
X0206000Y0201987D03*
X0201000Y0201987D03*
X0203500Y0188680D03*
X0203500Y0181987D03*
X0263000Y0201987D03*
X0263000Y0208680D03*
X0270500Y0216987D03*
X0270500Y0223680D03*
X0300500Y0223680D03*
X0300500Y0216987D03*
X0303000Y0208680D03*
X0308000Y0208680D03*
X0308000Y0201987D03*
X0303000Y0201987D03*
X0305500Y0188680D03*
X0305500Y0181987D03*
X0300500Y0121680D03*
X0300500Y0114987D03*
X0303000Y0106680D03*
X0308000Y0106680D03*
X0308000Y0099987D03*
X0303000Y0099987D03*
X0305500Y0086680D03*
X0305500Y0079987D03*
X0263000Y0099987D03*
X0263000Y0106680D03*
X0270500Y0114987D03*
X0270500Y0121680D03*
X0206000Y0106680D03*
X0201000Y0106680D03*
X0201000Y0099987D03*
X0206000Y0099987D03*
X0203500Y0086680D03*
X0203500Y0079987D03*
X0198500Y0114987D03*
X0198500Y0121680D03*
X0168500Y0121680D03*
X0168500Y0114987D03*
X0161000Y0106680D03*
X0161000Y0099987D03*
X0104000Y0099987D03*
X0099000Y0099987D03*
X0099000Y0106680D03*
X0104000Y0106680D03*
X0096500Y0114987D03*
X0096500Y0121680D03*
X0066500Y0121680D03*
X0066500Y0114987D03*
X0059000Y0106680D03*
X0059000Y0099987D03*
X0101500Y0086680D03*
X0101500Y0079987D03*
X0101500Y0283987D03*
X0101500Y0290680D03*
X0099000Y0303987D03*
X0104000Y0303987D03*
X0104000Y0310680D03*
X0099000Y0310680D03*
X0096500Y0318987D03*
X0096500Y0325680D03*
X0066500Y0325680D03*
X0066500Y0318987D03*
X0059000Y0310680D03*
X0059000Y0303987D03*
X0161000Y0303987D03*
X0161000Y0310680D03*
X0168500Y0318987D03*
X0168500Y0325680D03*
X0198500Y0325680D03*
X0198500Y0318987D03*
X0201000Y0310680D03*
X0206000Y0310680D03*
X0206000Y0303987D03*
X0201000Y0303987D03*
X0203500Y0290680D03*
X0203500Y0283987D03*
X0263000Y0303987D03*
X0263000Y0310680D03*
X0270500Y0318987D03*
X0270500Y0325680D03*
X0300500Y0325680D03*
X0300500Y0318987D03*
X0303000Y0310680D03*
X0308000Y0310680D03*
X0308000Y0303987D03*
X0303000Y0303987D03*
X0305500Y0290680D03*
X0305500Y0283987D03*
D13*
X0288700Y0322333D03*
X0285500Y0322333D03*
X0282300Y0322333D03*
X0186700Y0322333D03*
X0183500Y0322333D03*
X0180300Y0322333D03*
X0084700Y0322333D03*
X0081500Y0322333D03*
X0078300Y0322333D03*
X0078300Y0220333D03*
X0081500Y0220333D03*
X0084700Y0220333D03*
X0180300Y0220333D03*
X0183500Y0220333D03*
X0186700Y0220333D03*
X0282300Y0220333D03*
X0285500Y0220333D03*
X0288700Y0220333D03*
X0288700Y0118333D03*
X0285500Y0118333D03*
X0282300Y0118333D03*
X0186700Y0118333D03*
X0183500Y0118333D03*
X0180300Y0118333D03*
X0084700Y0118333D03*
X0081500Y0118333D03*
X0078300Y0118333D03*
D14*
X0037031Y0114357D03*
X0037031Y0092310D03*
X0125969Y0092310D03*
X0139031Y0092310D03*
X0139031Y0114357D03*
X0125969Y0114357D03*
X0125969Y0194310D03*
X0139031Y0194310D03*
X0139031Y0216357D03*
X0125969Y0216357D03*
X0037031Y0216357D03*
X0037031Y0194310D03*
X0037031Y0296310D03*
X0037031Y0318357D03*
X0125969Y0318357D03*
X0139031Y0318357D03*
X0139031Y0296310D03*
X0125969Y0296310D03*
X0227969Y0296310D03*
X0241031Y0296310D03*
X0241031Y0318357D03*
X0227969Y0318357D03*
X0329969Y0318357D03*
X0329969Y0296310D03*
X0329969Y0216357D03*
X0329969Y0194310D03*
X0241031Y0194310D03*
X0227969Y0194310D03*
X0227969Y0216357D03*
X0241031Y0216357D03*
X0241031Y0114357D03*
X0227969Y0114357D03*
X0227969Y0092310D03*
X0241031Y0092310D03*
X0329969Y0092310D03*
X0329969Y0114357D03*
D15*
X0315500Y0109239D03*
X0315500Y0105302D03*
X0315500Y0101365D03*
X0315500Y0097428D03*
X0255500Y0097428D03*
X0255500Y0101365D03*
X0255500Y0105302D03*
X0255500Y0109239D03*
X0213500Y0109239D03*
X0213500Y0105302D03*
X0213500Y0101365D03*
X0213500Y0097428D03*
X0153500Y0097428D03*
X0153500Y0101365D03*
X0153500Y0105302D03*
X0153500Y0109239D03*
X0111500Y0109239D03*
X0111500Y0105302D03*
X0111500Y0101365D03*
X0111500Y0097428D03*
X0051500Y0097428D03*
X0051500Y0101365D03*
X0051500Y0105302D03*
X0051500Y0109239D03*
X0051500Y0199428D03*
X0051500Y0203365D03*
X0051500Y0207302D03*
X0051500Y0211239D03*
X0111500Y0211239D03*
X0111500Y0207302D03*
X0111500Y0203365D03*
X0111500Y0199428D03*
X0153500Y0199428D03*
X0153500Y0203365D03*
X0153500Y0207302D03*
X0153500Y0211239D03*
X0213500Y0211239D03*
X0213500Y0207302D03*
X0213500Y0203365D03*
X0213500Y0199428D03*
X0255500Y0199428D03*
X0255500Y0203365D03*
X0255500Y0207302D03*
X0255500Y0211239D03*
X0315500Y0211239D03*
X0315500Y0207302D03*
X0315500Y0203365D03*
X0315500Y0199428D03*
X0315500Y0301428D03*
X0315500Y0305365D03*
X0315500Y0309302D03*
X0315500Y0313239D03*
X0255500Y0313239D03*
X0255500Y0309302D03*
X0255500Y0305365D03*
X0255500Y0301428D03*
X0213500Y0301428D03*
X0213500Y0305365D03*
X0213500Y0309302D03*
X0213500Y0313239D03*
X0153500Y0313239D03*
X0153500Y0309302D03*
X0153500Y0305365D03*
X0153500Y0301428D03*
X0111500Y0301428D03*
X0111500Y0305365D03*
X0111500Y0309302D03*
X0111500Y0313239D03*
X0051500Y0313239D03*
X0051500Y0309302D03*
X0051500Y0305365D03*
X0051500Y0301428D03*
D16*
X0061500Y0058333D03*
X0071500Y0058333D03*
X0081500Y0058333D03*
X0091500Y0058333D03*
X0163500Y0058333D03*
X0173500Y0058333D03*
X0183500Y0058333D03*
X0193500Y0058333D03*
X0265500Y0058333D03*
X0275500Y0058333D03*
X0285500Y0058333D03*
X0295500Y0058333D03*
X0295500Y0160333D03*
X0285500Y0160333D03*
X0275500Y0160333D03*
X0265500Y0160333D03*
X0193500Y0160333D03*
X0183500Y0160333D03*
X0173500Y0160333D03*
X0163500Y0160333D03*
X0091500Y0160333D03*
X0081500Y0160333D03*
X0071500Y0160333D03*
X0061500Y0160333D03*
X0061500Y0262333D03*
X0071500Y0262333D03*
X0081500Y0262333D03*
X0091500Y0262333D03*
X0163500Y0262333D03*
X0173500Y0262333D03*
X0183500Y0262333D03*
X0193500Y0262333D03*
X0265500Y0262333D03*
X0275500Y0262333D03*
X0285500Y0262333D03*
X0295500Y0262333D03*
D17*
X0292154Y0292333D03*
X0298846Y0292333D03*
X0278846Y0292333D03*
X0272154Y0292333D03*
X0196846Y0292333D03*
X0190154Y0292333D03*
X0176846Y0292333D03*
X0170154Y0292333D03*
X0094846Y0292333D03*
X0088154Y0292333D03*
X0074846Y0292333D03*
X0068154Y0292333D03*
X0068154Y0190333D03*
X0074846Y0190333D03*
X0088154Y0190333D03*
X0094846Y0190333D03*
X0170154Y0190333D03*
X0176846Y0190333D03*
X0190154Y0190333D03*
X0196846Y0190333D03*
X0272154Y0190333D03*
X0278846Y0190333D03*
X0292154Y0190333D03*
X0298846Y0190333D03*
X0298846Y0088333D03*
X0292154Y0088333D03*
X0278846Y0088333D03*
X0272154Y0088333D03*
X0196846Y0088333D03*
X0190154Y0088333D03*
X0176846Y0088333D03*
X0170154Y0088333D03*
X0094846Y0088333D03*
X0088154Y0088333D03*
X0074846Y0088333D03*
X0068154Y0088333D03*
D18*
X0101500Y0058333D03*
X0203500Y0058333D03*
X0305500Y0058333D03*
X0305500Y0160333D03*
X0203500Y0160333D03*
X0101500Y0160333D03*
X0101500Y0262333D03*
X0203500Y0262333D03*
X0305500Y0262333D03*
D19*
X0294654Y0302215D03*
X0294654Y0304774D03*
X0294654Y0307333D03*
X0294654Y0309892D03*
X0294654Y0312451D03*
X0276346Y0312451D03*
X0276346Y0309892D03*
X0276346Y0307333D03*
X0276346Y0304774D03*
X0276346Y0302215D03*
X0192654Y0302215D03*
X0192654Y0304774D03*
X0192654Y0307333D03*
X0192654Y0309892D03*
X0192654Y0312451D03*
X0174346Y0312451D03*
X0174346Y0309892D03*
X0174346Y0307333D03*
X0174346Y0304774D03*
X0174346Y0302215D03*
X0090654Y0302215D03*
X0090654Y0304774D03*
X0090654Y0307333D03*
X0090654Y0309892D03*
X0090654Y0312451D03*
X0072346Y0312451D03*
X0072346Y0309892D03*
X0072346Y0307333D03*
X0072346Y0304774D03*
X0072346Y0302215D03*
X0072346Y0210451D03*
X0072346Y0207892D03*
X0072346Y0205333D03*
X0072346Y0202774D03*
X0072346Y0200215D03*
X0090654Y0200215D03*
X0090654Y0202774D03*
X0090654Y0205333D03*
X0090654Y0207892D03*
X0090654Y0210451D03*
X0174346Y0210451D03*
X0174346Y0207892D03*
X0174346Y0205333D03*
X0174346Y0202774D03*
X0174346Y0200215D03*
X0192654Y0200215D03*
X0192654Y0202774D03*
X0192654Y0205333D03*
X0192654Y0207892D03*
X0192654Y0210451D03*
X0276346Y0210451D03*
X0276346Y0207892D03*
X0276346Y0205333D03*
X0276346Y0202774D03*
X0276346Y0200215D03*
X0294654Y0200215D03*
X0294654Y0202774D03*
X0294654Y0205333D03*
X0294654Y0207892D03*
X0294654Y0210451D03*
X0294654Y0108451D03*
X0294654Y0105892D03*
X0294654Y0103333D03*
X0294654Y0100774D03*
X0294654Y0098215D03*
X0276346Y0098215D03*
X0276346Y0100774D03*
X0276346Y0103333D03*
X0276346Y0105892D03*
X0276346Y0108451D03*
X0192654Y0108451D03*
X0192654Y0105892D03*
X0192654Y0103333D03*
X0192654Y0100774D03*
X0192654Y0098215D03*
X0174346Y0098215D03*
X0174346Y0100774D03*
X0174346Y0103333D03*
X0174346Y0105892D03*
X0174346Y0108451D03*
X0090654Y0108451D03*
X0090654Y0105892D03*
X0090654Y0103333D03*
X0090654Y0100774D03*
X0090654Y0098215D03*
X0072346Y0098215D03*
X0072346Y0100774D03*
X0072346Y0103333D03*
X0072346Y0105892D03*
X0072346Y0108451D03*
M02*
