%
M48
M72
T01C0.0150
T02C0.0400
T03C0.1300
%
T01
X9150Y7833
X9480Y8333
X10150Y7533
X10900Y8833
X11380Y8833
X11900Y10333
X12400Y10833
X11650Y11833
X12000Y12333
X10650Y12833
X9500Y11033
X9480Y9983
X7150Y11583
X6650Y10833
X5650Y11533
X9150Y18033
X9480Y18533
X10150Y17733
X10900Y19033
X11380Y19033
X11900Y20533
X12400Y21033
X11650Y22033
X12000Y22533
X10650Y23033
X9500Y21233
X9480Y20183
X7150Y21783
X6650Y21033
X5650Y21733
X10150Y27933
X9480Y28733
X9150Y28233
X10900Y29233
X11380Y29233
X11900Y30733
X12400Y31233
X11650Y32233
X12000Y32733
X10650Y33233
X9500Y31433
X9480Y30383
X7150Y31983
X6650Y31233
X5650Y31933
X15850Y31933
X16850Y31233
X17350Y31983
X19700Y31433
X19680Y30383
X21100Y29233
X21580Y29233
X20350Y27933
X19680Y28733
X19350Y28233
X22100Y30733
X22600Y31233
X21850Y32233
X22200Y32733
X20850Y33233
X26050Y31933
X27050Y31233
X27550Y31983
X29900Y31433
X29880Y30383
X29880Y28733
X29550Y28233
X30550Y27933
X31300Y29233
X31780Y29233
X32300Y30733
X32800Y31233
X32050Y32233
X32400Y32733
X31050Y33233
X31050Y23033
X32050Y22033
X32400Y22533
X32800Y21033
X32300Y20533
X31780Y19033
X31300Y19033
X30550Y17733
X29880Y18533
X29550Y18033
X29880Y20183
X29900Y21233
X27550Y21783
X27050Y21033
X26050Y21733
X22600Y21033
X22100Y20533
X21850Y22033
X22200Y22533
X20850Y23033
X19700Y21233
X19680Y20183
X21100Y19033
X21580Y19033
X20350Y17733
X19680Y18533
X19350Y18033
X16850Y21033
X17350Y21783
X15850Y21733
X20850Y12833
X21850Y11833
X22200Y12333
X22600Y10833
X22100Y10333
X21580Y8833
X21100Y8833
X20350Y7533
X19680Y8333
X19350Y7833
X19680Y9983
X19700Y11033
X17350Y11583
X16850Y10833
X15850Y11533
X26050Y11533
X27050Y10833
X27550Y11583
X29900Y11033
X29880Y9983
X29880Y8333
X29550Y7833
X30550Y7533
X31300Y8833
X31780Y8833
X32300Y10333
X32800Y10833
X32050Y11833
X32400Y12333
X31050Y12833
T02
X6150Y5833
X7150Y5833
X8150Y5833
X9150Y5833
X10150Y5833
X16350Y5833
X17350Y5833
X18350Y5833
X19350Y5833
X20350Y5833
X26550Y5833
X27550Y5833
X28550Y5833
X29550Y5833
X30550Y5833
X30550Y16033
X29550Y16033
X28550Y16033
X27550Y16033
X26550Y16033
X20350Y16033
X19350Y16033
X18350Y16033
X17350Y16033
X16350Y16033
X10150Y16033
X9150Y16033
X8150Y16033
X7150Y16033
X6150Y16033
X6150Y26233
X7150Y26233
X8150Y26233
X9150Y26233
X10150Y26233
X16350Y26233
X17350Y26233
X18350Y26233
X19350Y26233
X20350Y26233
X26550Y26233
X27550Y26233
X28550Y26233
X29550Y26233
X30550Y26233
T03
X32550Y24533
X24550Y24533
X22350Y24533
X14350Y24533
X12150Y24533
X4150Y24533
X4150Y14333
X12150Y14333
X14350Y14333
X22350Y14333
X24550Y14333
X32550Y14333
X32550Y34733
X24550Y34733
X22350Y34733
X14350Y34733
X12150Y34733
X4150Y34733
M30
