G75*
%MOIN*%
%OFA0B0*%
%FSLAX25Y25*%
%IPPOS*%
%LPD*%
%AMOC8*
5,1,8,0,0,1.08239X$1,22.5*
%
%ADD10C,0.13800*%
%ADD11C,0.08200*%
%ADD12C,0.07400*%
%ADD13R,0.05800X0.03300*%
%ADD14C,0.00500*%
D10*
X0041500Y0143333D03*
X0121500Y0143333D03*
X0143500Y0143333D03*
X0223500Y0143333D03*
X0245500Y0143333D03*
X0325500Y0143333D03*
X0325500Y0245333D03*
X0245500Y0245333D03*
X0223500Y0245333D03*
X0143500Y0245333D03*
X0121500Y0245333D03*
X0041500Y0245333D03*
X0041500Y0347333D03*
X0121500Y0347333D03*
X0143500Y0347333D03*
X0223500Y0347333D03*
X0245500Y0347333D03*
X0325500Y0347333D03*
D11*
X0061500Y0058333D03*
X0071500Y0058333D03*
X0081500Y0058333D03*
X0091500Y0058333D03*
X0163500Y0058333D03*
X0173500Y0058333D03*
X0183500Y0058333D03*
X0193500Y0058333D03*
X0265500Y0058333D03*
X0275500Y0058333D03*
X0285500Y0058333D03*
X0295500Y0058333D03*
X0295500Y0160333D03*
X0285500Y0160333D03*
X0275500Y0160333D03*
X0265500Y0160333D03*
X0193500Y0160333D03*
X0183500Y0160333D03*
X0173500Y0160333D03*
X0163500Y0160333D03*
X0091500Y0160333D03*
X0081500Y0160333D03*
X0071500Y0160333D03*
X0061500Y0160333D03*
X0061500Y0262333D03*
X0071500Y0262333D03*
X0081500Y0262333D03*
X0091500Y0262333D03*
X0163500Y0262333D03*
X0173500Y0262333D03*
X0183500Y0262333D03*
X0193500Y0262333D03*
X0265500Y0262333D03*
X0275500Y0262333D03*
X0285500Y0262333D03*
X0295500Y0262333D03*
D12*
X0305500Y0262333D03*
X0203500Y0262333D03*
X0101500Y0262333D03*
X0101500Y0160333D03*
X0203500Y0160333D03*
X0305500Y0160333D03*
X0305500Y0058333D03*
X0203500Y0058333D03*
X0101500Y0058333D03*
D13*
X0101500Y0091333D03*
X0101500Y0095333D03*
X0096500Y0116733D03*
X0096500Y0119933D03*
X0106500Y0119933D03*
X0106500Y0116733D03*
X0101500Y0193333D03*
X0101500Y0197333D03*
X0096500Y0218733D03*
X0096500Y0221933D03*
X0106500Y0221933D03*
X0106500Y0218733D03*
X0101500Y0295333D03*
X0101500Y0299333D03*
X0096500Y0320733D03*
X0096500Y0323933D03*
X0106500Y0323933D03*
X0106500Y0320733D03*
X0198500Y0320733D03*
X0198500Y0323933D03*
X0208500Y0323933D03*
X0208500Y0320733D03*
X0203500Y0299333D03*
X0203500Y0295333D03*
X0198500Y0221933D03*
X0198500Y0218733D03*
X0208500Y0218733D03*
X0208500Y0221933D03*
X0203500Y0197333D03*
X0203500Y0193333D03*
X0198500Y0119933D03*
X0198500Y0116733D03*
X0208500Y0116733D03*
X0208500Y0119933D03*
X0203500Y0095333D03*
X0203500Y0091333D03*
X0300500Y0116733D03*
X0300500Y0119933D03*
X0310500Y0119933D03*
X0310500Y0116733D03*
X0305500Y0095333D03*
X0305500Y0091333D03*
X0305500Y0193333D03*
X0305500Y0197333D03*
X0300500Y0218733D03*
X0300500Y0221933D03*
X0310500Y0221933D03*
X0310500Y0218733D03*
X0305500Y0295333D03*
X0305500Y0299333D03*
X0300500Y0320733D03*
X0300500Y0323933D03*
X0310500Y0323933D03*
X0310500Y0320733D03*
D14*
X0306000Y0298083D02*
X0305000Y0298083D01*
X0305000Y0296583D01*
X0306000Y0296583D01*
X0306000Y0298083D01*
X0306000Y0297604D02*
X0305000Y0297604D01*
X0305000Y0297105D02*
X0306000Y0297105D01*
X0306000Y0296607D02*
X0305000Y0296607D01*
X0204000Y0296607D02*
X0203000Y0296607D01*
X0203000Y0296583D02*
X0204000Y0296583D01*
X0204000Y0298083D01*
X0203000Y0298083D01*
X0203000Y0296583D01*
X0203000Y0297105D02*
X0204000Y0297105D01*
X0204000Y0297604D02*
X0203000Y0297604D01*
X0102000Y0297604D02*
X0101000Y0297604D01*
X0101000Y0298083D02*
X0101000Y0296583D01*
X0102000Y0296583D01*
X0102000Y0298083D01*
X0101000Y0298083D01*
X0101000Y0297105D02*
X0102000Y0297105D01*
X0102000Y0296607D02*
X0101000Y0296607D01*
X0101000Y0196083D02*
X0101000Y0194583D01*
X0102000Y0194583D01*
X0102000Y0196083D01*
X0101000Y0196083D01*
X0101000Y0195908D02*
X0102000Y0195908D01*
X0102000Y0195409D02*
X0101000Y0195409D01*
X0101000Y0194911D02*
X0102000Y0194911D01*
X0203000Y0194911D02*
X0204000Y0194911D01*
X0204000Y0194583D02*
X0203000Y0194583D01*
X0203000Y0196083D01*
X0204000Y0196083D01*
X0204000Y0194583D01*
X0204000Y0195409D02*
X0203000Y0195409D01*
X0203000Y0195908D02*
X0204000Y0195908D01*
X0305000Y0195908D02*
X0306000Y0195908D01*
X0306000Y0196083D02*
X0305000Y0196083D01*
X0305000Y0194583D01*
X0306000Y0194583D01*
X0306000Y0196083D01*
X0306000Y0195409D02*
X0305000Y0195409D01*
X0305000Y0194911D02*
X0306000Y0194911D01*
X0306000Y0094083D02*
X0305000Y0094083D01*
X0305000Y0092583D01*
X0306000Y0092583D01*
X0306000Y0094083D01*
X0306000Y0093713D02*
X0305000Y0093713D01*
X0305000Y0093214D02*
X0306000Y0093214D01*
X0306000Y0092716D02*
X0305000Y0092716D01*
X0204000Y0092716D02*
X0203000Y0092716D01*
X0203000Y0092583D02*
X0204000Y0092583D01*
X0204000Y0094083D01*
X0203000Y0094083D01*
X0203000Y0092583D01*
X0203000Y0093214D02*
X0204000Y0093214D01*
X0204000Y0093713D02*
X0203000Y0093713D01*
X0102000Y0093713D02*
X0101000Y0093713D01*
X0101000Y0094083D02*
X0101000Y0092583D01*
X0102000Y0092583D01*
X0102000Y0094083D01*
X0101000Y0094083D01*
X0101000Y0093214D02*
X0102000Y0093214D01*
X0102000Y0092716D02*
X0101000Y0092716D01*
M02*
