G75*
%MOIN*%
%OFA0B0*%
%FSLAX25Y25*%
%IPPOS*%
%LPD*%
%AMOC8*
5,1,8,0,0,1.08239X$1,22.5*
%
%ADD10C,0.01000*%
%ADD11C,0.01100*%
%ADD12C,0.00800*%
%ADD13C,0.00200*%
%ADD14C,0.00000*%
%ADD15C,0.00500*%
D10*
X0049333Y0109500D02*
X0369333Y0109500D01*
X0369333Y0211500D02*
X0049333Y0211500D01*
X0157333Y0321500D02*
X0157333Y0001500D01*
X0259333Y0002500D02*
X0259333Y0322500D01*
D11*
X0260649Y0326050D02*
X0259665Y0327034D01*
X0259665Y0329003D01*
X0260649Y0329987D01*
X0262618Y0329987D01*
X0263602Y0329003D01*
X0263602Y0327034D01*
X0262618Y0326050D01*
X0260649Y0326050D01*
X0257157Y0326050D02*
X0254204Y0326050D01*
X0253220Y0327034D01*
X0253220Y0329003D01*
X0254204Y0329987D01*
X0257157Y0329987D01*
X0250711Y0329987D02*
X0247758Y0329987D01*
X0246774Y0329003D01*
X0247758Y0328018D01*
X0249727Y0328018D01*
X0250711Y0327034D01*
X0249727Y0326050D01*
X0246774Y0326050D01*
X0244266Y0329003D02*
X0240329Y0329003D01*
X0237820Y0328018D02*
X0237820Y0331955D01*
X0237820Y0328018D02*
X0235852Y0326050D01*
X0233883Y0328018D01*
X0233883Y0331955D01*
X0266111Y0329987D02*
X0266111Y0326050D01*
X0266111Y0328018D02*
X0268079Y0329987D01*
X0269063Y0329987D01*
X0271482Y0329003D02*
X0272466Y0329987D01*
X0274435Y0329987D01*
X0275419Y0329003D01*
X0275419Y0328018D01*
X0271482Y0328018D01*
X0271482Y0327034D02*
X0271482Y0329003D01*
X0271482Y0327034D02*
X0272466Y0326050D01*
X0274435Y0326050D01*
X0183419Y0327018D02*
X0179482Y0327018D01*
X0179482Y0326034D02*
X0179482Y0328003D01*
X0180466Y0328987D01*
X0182435Y0328987D01*
X0183419Y0328003D01*
X0183419Y0327018D01*
X0182435Y0325050D02*
X0180466Y0325050D01*
X0179482Y0326034D01*
X0177063Y0328987D02*
X0176079Y0328987D01*
X0174111Y0327018D01*
X0174111Y0325050D02*
X0174111Y0328987D01*
X0171602Y0328003D02*
X0170618Y0328987D01*
X0168649Y0328987D01*
X0167665Y0328003D01*
X0167665Y0326034D01*
X0168649Y0325050D01*
X0170618Y0325050D01*
X0171602Y0326034D01*
X0171602Y0328003D01*
X0165157Y0328987D02*
X0162204Y0328987D01*
X0161220Y0328003D01*
X0161220Y0326034D01*
X0162204Y0325050D01*
X0165157Y0325050D01*
X0158711Y0326034D02*
X0157727Y0325050D01*
X0154774Y0325050D01*
X0155758Y0327018D02*
X0154774Y0328003D01*
X0155758Y0328987D01*
X0158711Y0328987D01*
X0157727Y0327018D02*
X0155758Y0327018D01*
X0157727Y0327018D02*
X0158711Y0326034D01*
X0152266Y0328003D02*
X0148329Y0328003D01*
X0145820Y0327018D02*
X0145820Y0330955D01*
X0145820Y0327018D02*
X0143852Y0325050D01*
X0141883Y0327018D01*
X0141883Y0330955D01*
X0044435Y0214987D02*
X0045419Y0214003D01*
X0045419Y0213018D01*
X0041482Y0213018D01*
X0041482Y0212034D02*
X0041482Y0214003D01*
X0042466Y0214987D01*
X0044435Y0214987D01*
X0041482Y0212034D02*
X0042466Y0211050D01*
X0044435Y0211050D01*
X0039063Y0214987D02*
X0038079Y0214987D01*
X0036111Y0213018D01*
X0036111Y0211050D02*
X0036111Y0214987D01*
X0033602Y0214003D02*
X0032618Y0214987D01*
X0030649Y0214987D01*
X0029665Y0214003D01*
X0029665Y0212034D01*
X0030649Y0211050D01*
X0032618Y0211050D01*
X0033602Y0212034D01*
X0033602Y0214003D01*
X0027157Y0214987D02*
X0024204Y0214987D01*
X0023220Y0214003D01*
X0023220Y0212034D01*
X0024204Y0211050D01*
X0027157Y0211050D01*
X0020711Y0212034D02*
X0019727Y0211050D01*
X0016774Y0211050D01*
X0017758Y0213018D02*
X0016774Y0214003D01*
X0017758Y0214987D01*
X0020711Y0214987D01*
X0019727Y0213018D02*
X0017758Y0213018D01*
X0019727Y0213018D02*
X0020711Y0212034D01*
X0014266Y0214003D02*
X0010329Y0214003D01*
X0007820Y0213018D02*
X0007820Y0216955D01*
X0007820Y0213018D02*
X0005852Y0211050D01*
X0003883Y0213018D01*
X0003883Y0216955D01*
X0003883Y0113955D02*
X0003883Y0110018D01*
X0005852Y0108050D01*
X0007820Y0110018D01*
X0007820Y0113955D01*
X0010329Y0111003D02*
X0014266Y0111003D01*
X0016774Y0111003D02*
X0017758Y0110018D01*
X0019727Y0110018D01*
X0020711Y0109034D01*
X0019727Y0108050D01*
X0016774Y0108050D01*
X0016774Y0111003D02*
X0017758Y0111987D01*
X0020711Y0111987D01*
X0023220Y0111003D02*
X0023220Y0109034D01*
X0024204Y0108050D01*
X0027157Y0108050D01*
X0029665Y0109034D02*
X0030649Y0108050D01*
X0032618Y0108050D01*
X0033602Y0109034D01*
X0033602Y0111003D01*
X0032618Y0111987D01*
X0030649Y0111987D01*
X0029665Y0111003D01*
X0029665Y0109034D01*
X0027157Y0111987D02*
X0024204Y0111987D01*
X0023220Y0111003D01*
X0036111Y0111987D02*
X0036111Y0108050D01*
X0036111Y0110018D02*
X0038079Y0111987D01*
X0039063Y0111987D01*
X0041482Y0111003D02*
X0041482Y0109034D01*
X0042466Y0108050D01*
X0044435Y0108050D01*
X0045419Y0110018D02*
X0041482Y0110018D01*
X0041482Y0111003D02*
X0042466Y0111987D01*
X0044435Y0111987D01*
X0045419Y0111003D01*
X0045419Y0110018D01*
D12*
X0056333Y0008500D02*
X0156333Y0008500D01*
X0156333Y0108500D01*
X0056333Y0108500D01*
X0056333Y0008500D01*
X0158333Y0008500D02*
X0258333Y0008500D01*
X0258333Y0108500D01*
X0158333Y0108500D01*
X0158333Y0008500D01*
X0260333Y0008500D02*
X0360333Y0008500D01*
X0360333Y0108500D01*
X0260333Y0108500D01*
X0260333Y0008500D01*
X0260333Y0110500D02*
X0360333Y0110500D01*
X0360333Y0210500D01*
X0260333Y0210500D01*
X0260333Y0110500D01*
X0258333Y0110500D02*
X0158333Y0110500D01*
X0158333Y0210500D01*
X0258333Y0210500D01*
X0258333Y0110500D01*
X0156333Y0110500D02*
X0056333Y0110500D01*
X0056333Y0210500D01*
X0156333Y0210500D01*
X0156333Y0110500D01*
X0156333Y0212500D02*
X0056333Y0212500D01*
X0056333Y0312500D01*
X0156333Y0312500D01*
X0156333Y0212500D01*
X0158333Y0212500D02*
X0258333Y0212500D01*
X0258333Y0312500D01*
X0158333Y0312500D01*
X0158333Y0212500D01*
X0260333Y0212500D02*
X0360333Y0212500D01*
X0360333Y0312500D01*
X0260333Y0312500D01*
X0260333Y0212500D01*
D13*
X0307433Y0217600D02*
X0307433Y0218401D01*
X0307700Y0218134D01*
X0307967Y0218401D01*
X0307967Y0217600D01*
X0308354Y0217600D02*
X0308621Y0217600D01*
X0308488Y0217600D02*
X0308488Y0218134D01*
X0308354Y0218134D01*
X0308488Y0218401D02*
X0308488Y0218534D01*
X0308968Y0218401D02*
X0309101Y0218401D01*
X0309101Y0217600D01*
X0308968Y0217600D02*
X0309235Y0217600D01*
X0309582Y0217600D02*
X0309849Y0217600D01*
X0309715Y0217600D02*
X0309715Y0218401D01*
X0309582Y0218401D01*
X0311116Y0218000D02*
X0311116Y0217733D01*
X0311250Y0217600D01*
X0311517Y0217600D01*
X0311650Y0217733D01*
X0311650Y0218000D01*
X0311517Y0218134D01*
X0311250Y0218134D01*
X0311116Y0218000D01*
X0312037Y0218134D02*
X0312037Y0217733D01*
X0312171Y0217600D01*
X0312571Y0217600D01*
X0312571Y0218134D01*
X0312958Y0218134D02*
X0313225Y0218134D01*
X0313091Y0218267D02*
X0313091Y0217733D01*
X0313225Y0217600D01*
X0313091Y0204267D02*
X0313091Y0203733D01*
X0313225Y0203600D01*
X0313225Y0204134D02*
X0312958Y0204134D01*
X0312571Y0204134D02*
X0312571Y0203600D01*
X0312171Y0203600D01*
X0312037Y0203733D01*
X0312037Y0204134D01*
X0311650Y0204000D02*
X0311517Y0204134D01*
X0311250Y0204134D01*
X0311116Y0204000D01*
X0311116Y0203733D01*
X0311250Y0203600D01*
X0311517Y0203600D01*
X0311650Y0203733D01*
X0311650Y0204000D01*
X0309849Y0203600D02*
X0309582Y0203600D01*
X0309715Y0203600D02*
X0309715Y0204401D01*
X0309582Y0204401D01*
X0309101Y0204401D02*
X0309101Y0203600D01*
X0308968Y0203600D02*
X0309235Y0203600D01*
X0308621Y0203600D02*
X0308354Y0203600D01*
X0308488Y0203600D02*
X0308488Y0204134D01*
X0308354Y0204134D01*
X0308488Y0204401D02*
X0308488Y0204534D01*
X0308968Y0204401D02*
X0309101Y0204401D01*
X0307967Y0204401D02*
X0307967Y0203600D01*
X0307433Y0203600D02*
X0307433Y0204401D01*
X0307700Y0204134D01*
X0307967Y0204401D01*
X0267233Y0165321D02*
X0267016Y0165104D01*
X0266149Y0165104D01*
X0266366Y0164887D02*
X0266366Y0165321D01*
X0266366Y0164373D02*
X0267233Y0164373D01*
X0267233Y0163723D01*
X0267016Y0163506D01*
X0266366Y0163506D01*
X0266583Y0162992D02*
X0266366Y0162775D01*
X0266366Y0162342D01*
X0266583Y0162125D01*
X0267016Y0162125D01*
X0267233Y0162342D01*
X0267233Y0162775D01*
X0267016Y0162992D01*
X0266583Y0162992D01*
X0267233Y0160256D02*
X0267233Y0159823D01*
X0267233Y0160040D02*
X0265932Y0160040D01*
X0265932Y0159823D01*
X0265932Y0159119D02*
X0267233Y0159119D01*
X0267233Y0158902D02*
X0267233Y0159336D01*
X0267233Y0158415D02*
X0267233Y0157981D01*
X0267233Y0158198D02*
X0266366Y0158198D01*
X0266366Y0157981D01*
X0265932Y0158198D02*
X0265715Y0158198D01*
X0265932Y0158902D02*
X0265932Y0159119D01*
X0265932Y0157467D02*
X0267233Y0157467D01*
X0267233Y0156600D02*
X0265932Y0156600D01*
X0266366Y0157034D01*
X0265932Y0157467D01*
X0253233Y0157600D02*
X0252433Y0157600D01*
X0252700Y0157867D01*
X0252433Y0158134D01*
X0253233Y0158134D01*
X0253233Y0158521D02*
X0253233Y0158788D01*
X0253233Y0158654D02*
X0252700Y0158654D01*
X0252700Y0158521D01*
X0252433Y0158654D02*
X0252299Y0158654D01*
X0252433Y0159135D02*
X0252433Y0159268D01*
X0253233Y0159268D01*
X0253233Y0159135D02*
X0253233Y0159402D01*
X0253233Y0159748D02*
X0253233Y0160015D01*
X0253233Y0159882D02*
X0252433Y0159882D01*
X0252433Y0159748D01*
X0252833Y0161283D02*
X0253100Y0161283D01*
X0253233Y0161417D01*
X0253233Y0161683D01*
X0253100Y0161817D01*
X0252833Y0161817D01*
X0252700Y0161683D01*
X0252700Y0161417D01*
X0252833Y0161283D01*
X0252700Y0162204D02*
X0253100Y0162204D01*
X0253233Y0162337D01*
X0253233Y0162738D01*
X0252700Y0162738D01*
X0252700Y0163125D02*
X0252700Y0163392D01*
X0252566Y0163258D02*
X0253100Y0163258D01*
X0253233Y0163392D01*
X0211225Y0160134D02*
X0210958Y0160134D01*
X0211091Y0160267D02*
X0211091Y0159733D01*
X0211225Y0159600D01*
X0210571Y0159600D02*
X0210571Y0160134D01*
X0210037Y0160134D02*
X0210037Y0159733D01*
X0210171Y0159600D01*
X0210571Y0159600D01*
X0209650Y0159733D02*
X0209650Y0160000D01*
X0209517Y0160134D01*
X0209250Y0160134D01*
X0209116Y0160000D01*
X0209116Y0159733D01*
X0209250Y0159600D01*
X0209517Y0159600D01*
X0209650Y0159733D01*
X0207849Y0159600D02*
X0207582Y0159600D01*
X0207715Y0159600D02*
X0207715Y0160401D01*
X0207582Y0160401D01*
X0207101Y0160401D02*
X0207101Y0159600D01*
X0206968Y0159600D02*
X0207235Y0159600D01*
X0206621Y0159600D02*
X0206354Y0159600D01*
X0206488Y0159600D02*
X0206488Y0160134D01*
X0206354Y0160134D01*
X0206488Y0160401D02*
X0206488Y0160534D01*
X0206968Y0160401D02*
X0207101Y0160401D01*
X0205967Y0160401D02*
X0205967Y0159600D01*
X0205433Y0159600D02*
X0205433Y0160401D01*
X0205700Y0160134D01*
X0205967Y0160401D01*
X0165233Y0160256D02*
X0165233Y0159823D01*
X0165233Y0160040D02*
X0163932Y0160040D01*
X0163932Y0159823D01*
X0163932Y0159119D02*
X0165233Y0159119D01*
X0165233Y0158902D02*
X0165233Y0159336D01*
X0165233Y0158415D02*
X0165233Y0157981D01*
X0165233Y0158198D02*
X0164366Y0158198D01*
X0164366Y0157981D01*
X0163932Y0158198D02*
X0163715Y0158198D01*
X0163932Y0158902D02*
X0163932Y0159119D01*
X0163932Y0157467D02*
X0165233Y0157467D01*
X0165233Y0156600D02*
X0163932Y0156600D01*
X0164366Y0157034D01*
X0163932Y0157467D01*
X0164583Y0162125D02*
X0165016Y0162125D01*
X0165233Y0162342D01*
X0165233Y0162775D01*
X0165016Y0162992D01*
X0164583Y0162992D01*
X0164366Y0162775D01*
X0164366Y0162342D01*
X0164583Y0162125D01*
X0164366Y0163506D02*
X0165016Y0163506D01*
X0165233Y0163723D01*
X0165233Y0164373D01*
X0164366Y0164373D01*
X0164366Y0164887D02*
X0164366Y0165321D01*
X0164149Y0165104D02*
X0165016Y0165104D01*
X0165233Y0165321D01*
X0151233Y0163392D02*
X0151100Y0163258D01*
X0150566Y0163258D01*
X0150700Y0163125D02*
X0150700Y0163392D01*
X0150700Y0162738D02*
X0151233Y0162738D01*
X0151233Y0162337D01*
X0151100Y0162204D01*
X0150700Y0162204D01*
X0150833Y0161817D02*
X0150700Y0161683D01*
X0150700Y0161417D01*
X0150833Y0161283D01*
X0151100Y0161283D01*
X0151233Y0161417D01*
X0151233Y0161683D01*
X0151100Y0161817D01*
X0150833Y0161817D01*
X0151233Y0160015D02*
X0151233Y0159748D01*
X0151233Y0159882D02*
X0150433Y0159882D01*
X0150433Y0159748D01*
X0150433Y0159268D02*
X0151233Y0159268D01*
X0151233Y0159135D02*
X0151233Y0159402D01*
X0151233Y0158788D02*
X0151233Y0158521D01*
X0151233Y0158654D02*
X0150700Y0158654D01*
X0150700Y0158521D01*
X0150433Y0158654D02*
X0150299Y0158654D01*
X0150433Y0159135D02*
X0150433Y0159268D01*
X0150433Y0158134D02*
X0151233Y0158134D01*
X0151233Y0157600D02*
X0150433Y0157600D01*
X0150700Y0157867D01*
X0150433Y0158134D01*
X0109225Y0159600D02*
X0109091Y0159733D01*
X0109091Y0160267D01*
X0108958Y0160134D02*
X0109225Y0160134D01*
X0108571Y0160134D02*
X0108571Y0159600D01*
X0108171Y0159600D01*
X0108037Y0159733D01*
X0108037Y0160134D01*
X0107650Y0160000D02*
X0107517Y0160134D01*
X0107250Y0160134D01*
X0107116Y0160000D01*
X0107116Y0159733D01*
X0107250Y0159600D01*
X0107517Y0159600D01*
X0107650Y0159733D01*
X0107650Y0160000D01*
X0105849Y0159600D02*
X0105582Y0159600D01*
X0105715Y0159600D02*
X0105715Y0160401D01*
X0105582Y0160401D01*
X0105101Y0160401D02*
X0105101Y0159600D01*
X0104968Y0159600D02*
X0105235Y0159600D01*
X0104621Y0159600D02*
X0104354Y0159600D01*
X0104488Y0159600D02*
X0104488Y0160134D01*
X0104354Y0160134D01*
X0104488Y0160401D02*
X0104488Y0160534D01*
X0104968Y0160401D02*
X0105101Y0160401D01*
X0103967Y0160401D02*
X0103967Y0159600D01*
X0103433Y0159600D02*
X0103433Y0160401D01*
X0103700Y0160134D01*
X0103967Y0160401D01*
X0063233Y0160256D02*
X0063233Y0159823D01*
X0063233Y0160040D02*
X0061932Y0160040D01*
X0061932Y0159823D01*
X0061932Y0159119D02*
X0063233Y0159119D01*
X0063233Y0158902D02*
X0063233Y0159336D01*
X0063233Y0158415D02*
X0063233Y0157981D01*
X0063233Y0158198D02*
X0062366Y0158198D01*
X0062366Y0157981D01*
X0061932Y0158198D02*
X0061715Y0158198D01*
X0061932Y0158902D02*
X0061932Y0159119D01*
X0061932Y0157467D02*
X0063233Y0157467D01*
X0063233Y0156600D02*
X0061932Y0156600D01*
X0062366Y0157034D01*
X0061932Y0157467D01*
X0062583Y0162125D02*
X0063016Y0162125D01*
X0063233Y0162342D01*
X0063233Y0162775D01*
X0063016Y0162992D01*
X0062583Y0162992D01*
X0062366Y0162775D01*
X0062366Y0162342D01*
X0062583Y0162125D01*
X0062366Y0163506D02*
X0063016Y0163506D01*
X0063233Y0163723D01*
X0063233Y0164373D01*
X0062366Y0164373D01*
X0062366Y0164887D02*
X0062366Y0165321D01*
X0062149Y0165104D02*
X0063016Y0165104D01*
X0063233Y0165321D01*
X0103433Y0203600D02*
X0103433Y0204401D01*
X0103700Y0204134D01*
X0103967Y0204401D01*
X0103967Y0203600D01*
X0104354Y0203600D02*
X0104621Y0203600D01*
X0104488Y0203600D02*
X0104488Y0204134D01*
X0104354Y0204134D01*
X0104488Y0204401D02*
X0104488Y0204534D01*
X0104968Y0204401D02*
X0105101Y0204401D01*
X0105101Y0203600D01*
X0104968Y0203600D02*
X0105235Y0203600D01*
X0105582Y0203600D02*
X0105849Y0203600D01*
X0105715Y0203600D02*
X0105715Y0204401D01*
X0105582Y0204401D01*
X0107116Y0204000D02*
X0107116Y0203733D01*
X0107250Y0203600D01*
X0107517Y0203600D01*
X0107650Y0203733D01*
X0107650Y0204000D01*
X0107517Y0204134D01*
X0107250Y0204134D01*
X0107116Y0204000D01*
X0108037Y0204134D02*
X0108037Y0203733D01*
X0108171Y0203600D01*
X0108571Y0203600D01*
X0108571Y0204134D01*
X0108958Y0204134D02*
X0109225Y0204134D01*
X0109091Y0204267D02*
X0109091Y0203733D01*
X0109225Y0203600D01*
X0109225Y0217600D02*
X0109091Y0217733D01*
X0109091Y0218267D01*
X0108958Y0218134D02*
X0109225Y0218134D01*
X0108571Y0218134D02*
X0108571Y0217600D01*
X0108171Y0217600D01*
X0108037Y0217733D01*
X0108037Y0218134D01*
X0107650Y0218000D02*
X0107517Y0218134D01*
X0107250Y0218134D01*
X0107116Y0218000D01*
X0107116Y0217733D01*
X0107250Y0217600D01*
X0107517Y0217600D01*
X0107650Y0217733D01*
X0107650Y0218000D01*
X0105849Y0217600D02*
X0105582Y0217600D01*
X0105715Y0217600D02*
X0105715Y0218401D01*
X0105582Y0218401D01*
X0105101Y0218401D02*
X0105101Y0217600D01*
X0104968Y0217600D02*
X0105235Y0217600D01*
X0104621Y0217600D02*
X0104354Y0217600D01*
X0104488Y0217600D02*
X0104488Y0218134D01*
X0104354Y0218134D01*
X0104488Y0218401D02*
X0104488Y0218534D01*
X0104968Y0218401D02*
X0105101Y0218401D01*
X0103967Y0218401D02*
X0103967Y0217600D01*
X0103433Y0217600D02*
X0103433Y0218401D01*
X0103700Y0218134D01*
X0103967Y0218401D01*
X0103967Y0261600D02*
X0103967Y0262401D01*
X0103700Y0262134D01*
X0103433Y0262401D01*
X0103433Y0261600D01*
X0104354Y0261600D02*
X0104621Y0261600D01*
X0104488Y0261600D02*
X0104488Y0262134D01*
X0104354Y0262134D01*
X0104488Y0262401D02*
X0104488Y0262534D01*
X0104968Y0262401D02*
X0105101Y0262401D01*
X0105101Y0261600D01*
X0104968Y0261600D02*
X0105235Y0261600D01*
X0105582Y0261600D02*
X0105849Y0261600D01*
X0105715Y0261600D02*
X0105715Y0262401D01*
X0105582Y0262401D01*
X0107116Y0262000D02*
X0107116Y0261733D01*
X0107250Y0261600D01*
X0107517Y0261600D01*
X0107650Y0261733D01*
X0107650Y0262000D01*
X0107517Y0262134D01*
X0107250Y0262134D01*
X0107116Y0262000D01*
X0108037Y0262134D02*
X0108037Y0261733D01*
X0108171Y0261600D01*
X0108571Y0261600D01*
X0108571Y0262134D01*
X0108958Y0262134D02*
X0109225Y0262134D01*
X0109091Y0262267D02*
X0109091Y0261733D01*
X0109225Y0261600D01*
X0150299Y0260654D02*
X0150433Y0260654D01*
X0150700Y0260654D02*
X0151233Y0260654D01*
X0151233Y0260521D02*
X0151233Y0260788D01*
X0151233Y0261135D02*
X0151233Y0261402D01*
X0151233Y0261268D02*
X0150433Y0261268D01*
X0150433Y0261135D01*
X0150700Y0260654D02*
X0150700Y0260521D01*
X0150433Y0260134D02*
X0151233Y0260134D01*
X0151233Y0259600D02*
X0150433Y0259600D01*
X0150700Y0259867D01*
X0150433Y0260134D01*
X0150433Y0261748D02*
X0150433Y0261882D01*
X0151233Y0261882D01*
X0151233Y0262015D02*
X0151233Y0261748D01*
X0151100Y0263283D02*
X0151233Y0263417D01*
X0151233Y0263683D01*
X0151100Y0263817D01*
X0150833Y0263817D01*
X0150700Y0263683D01*
X0150700Y0263417D01*
X0150833Y0263283D01*
X0151100Y0263283D01*
X0151100Y0264204D02*
X0151233Y0264337D01*
X0151233Y0264738D01*
X0150700Y0264738D01*
X0150700Y0265125D02*
X0150700Y0265392D01*
X0150566Y0265258D02*
X0151100Y0265258D01*
X0151233Y0265392D01*
X0151100Y0264204D02*
X0150700Y0264204D01*
X0163932Y0262040D02*
X0163932Y0261823D01*
X0163932Y0262040D02*
X0165233Y0262040D01*
X0165233Y0262256D02*
X0165233Y0261823D01*
X0165233Y0261336D02*
X0165233Y0260902D01*
X0165233Y0261119D02*
X0163932Y0261119D01*
X0163932Y0260902D01*
X0163932Y0260198D02*
X0163715Y0260198D01*
X0164366Y0260198D02*
X0165233Y0260198D01*
X0165233Y0259981D02*
X0165233Y0260415D01*
X0164366Y0260198D02*
X0164366Y0259981D01*
X0163932Y0259467D02*
X0165233Y0259467D01*
X0165233Y0258600D02*
X0163932Y0258600D01*
X0164366Y0259034D01*
X0163932Y0259467D01*
X0164583Y0264125D02*
X0165016Y0264125D01*
X0165233Y0264342D01*
X0165233Y0264775D01*
X0165016Y0264992D01*
X0164583Y0264992D01*
X0164366Y0264775D01*
X0164366Y0264342D01*
X0164583Y0264125D01*
X0164366Y0265506D02*
X0165016Y0265506D01*
X0165233Y0265723D01*
X0165233Y0266373D01*
X0164366Y0266373D01*
X0164366Y0266887D02*
X0164366Y0267321D01*
X0164149Y0267104D02*
X0165016Y0267104D01*
X0165233Y0267321D01*
X0205433Y0262401D02*
X0205433Y0261600D01*
X0205967Y0261600D02*
X0205967Y0262401D01*
X0205700Y0262134D01*
X0205433Y0262401D01*
X0206354Y0262134D02*
X0206488Y0262134D01*
X0206488Y0261600D01*
X0206621Y0261600D02*
X0206354Y0261600D01*
X0206968Y0261600D02*
X0207235Y0261600D01*
X0207101Y0261600D02*
X0207101Y0262401D01*
X0206968Y0262401D01*
X0206488Y0262401D02*
X0206488Y0262534D01*
X0207582Y0262401D02*
X0207715Y0262401D01*
X0207715Y0261600D01*
X0207582Y0261600D02*
X0207849Y0261600D01*
X0209116Y0261733D02*
X0209250Y0261600D01*
X0209517Y0261600D01*
X0209650Y0261733D01*
X0209650Y0262000D01*
X0209517Y0262134D01*
X0209250Y0262134D01*
X0209116Y0262000D01*
X0209116Y0261733D01*
X0210037Y0261733D02*
X0210171Y0261600D01*
X0210571Y0261600D01*
X0210571Y0262134D01*
X0210958Y0262134D02*
X0211225Y0262134D01*
X0211091Y0262267D02*
X0211091Y0261733D01*
X0211225Y0261600D01*
X0210037Y0261733D02*
X0210037Y0262134D01*
X0252299Y0260654D02*
X0252433Y0260654D01*
X0252700Y0260654D02*
X0253233Y0260654D01*
X0253233Y0260521D02*
X0253233Y0260788D01*
X0253233Y0261135D02*
X0253233Y0261402D01*
X0253233Y0261268D02*
X0252433Y0261268D01*
X0252433Y0261135D01*
X0252700Y0260654D02*
X0252700Y0260521D01*
X0252433Y0260134D02*
X0253233Y0260134D01*
X0253233Y0259600D02*
X0252433Y0259600D01*
X0252700Y0259867D01*
X0252433Y0260134D01*
X0252433Y0261748D02*
X0252433Y0261882D01*
X0253233Y0261882D01*
X0253233Y0262015D02*
X0253233Y0261748D01*
X0253100Y0263283D02*
X0253233Y0263417D01*
X0253233Y0263683D01*
X0253100Y0263817D01*
X0252833Y0263817D01*
X0252700Y0263683D01*
X0252700Y0263417D01*
X0252833Y0263283D01*
X0253100Y0263283D01*
X0253100Y0264204D02*
X0253233Y0264337D01*
X0253233Y0264738D01*
X0252700Y0264738D01*
X0252700Y0265125D02*
X0252700Y0265392D01*
X0252566Y0265258D02*
X0253100Y0265258D01*
X0253233Y0265392D01*
X0253100Y0264204D02*
X0252700Y0264204D01*
X0265932Y0262040D02*
X0265932Y0261823D01*
X0265932Y0262040D02*
X0267233Y0262040D01*
X0267233Y0262256D02*
X0267233Y0261823D01*
X0267233Y0261336D02*
X0267233Y0260902D01*
X0267233Y0261119D02*
X0265932Y0261119D01*
X0265932Y0260902D01*
X0265932Y0260198D02*
X0265715Y0260198D01*
X0266366Y0260198D02*
X0267233Y0260198D01*
X0267233Y0259981D02*
X0267233Y0260415D01*
X0266366Y0260198D02*
X0266366Y0259981D01*
X0265932Y0259467D02*
X0267233Y0259467D01*
X0267233Y0258600D02*
X0265932Y0258600D01*
X0266366Y0259034D01*
X0265932Y0259467D01*
X0266583Y0264125D02*
X0267016Y0264125D01*
X0267233Y0264342D01*
X0267233Y0264775D01*
X0267016Y0264992D01*
X0266583Y0264992D01*
X0266366Y0264775D01*
X0266366Y0264342D01*
X0266583Y0264125D01*
X0266366Y0265506D02*
X0267016Y0265506D01*
X0267233Y0265723D01*
X0267233Y0266373D01*
X0266366Y0266373D01*
X0266366Y0266887D02*
X0266366Y0267321D01*
X0266149Y0267104D02*
X0267016Y0267104D01*
X0267233Y0267321D01*
X0307433Y0262401D02*
X0307433Y0261600D01*
X0307967Y0261600D02*
X0307967Y0262401D01*
X0307700Y0262134D01*
X0307433Y0262401D01*
X0308354Y0262134D02*
X0308488Y0262134D01*
X0308488Y0261600D01*
X0308621Y0261600D02*
X0308354Y0261600D01*
X0308968Y0261600D02*
X0309235Y0261600D01*
X0309101Y0261600D02*
X0309101Y0262401D01*
X0308968Y0262401D01*
X0308488Y0262401D02*
X0308488Y0262534D01*
X0309582Y0262401D02*
X0309715Y0262401D01*
X0309715Y0261600D01*
X0309582Y0261600D02*
X0309849Y0261600D01*
X0311116Y0261733D02*
X0311250Y0261600D01*
X0311517Y0261600D01*
X0311650Y0261733D01*
X0311650Y0262000D01*
X0311517Y0262134D01*
X0311250Y0262134D01*
X0311116Y0262000D01*
X0311116Y0261733D01*
X0312037Y0261733D02*
X0312037Y0262134D01*
X0312037Y0261733D02*
X0312171Y0261600D01*
X0312571Y0261600D01*
X0312571Y0262134D01*
X0312958Y0262134D02*
X0313225Y0262134D01*
X0313091Y0262267D02*
X0313091Y0261733D01*
X0313225Y0261600D01*
X0354299Y0260654D02*
X0354433Y0260654D01*
X0354700Y0260654D02*
X0355233Y0260654D01*
X0355233Y0260521D02*
X0355233Y0260788D01*
X0355233Y0261135D02*
X0355233Y0261402D01*
X0355233Y0261268D02*
X0354433Y0261268D01*
X0354433Y0261135D01*
X0354700Y0260654D02*
X0354700Y0260521D01*
X0354433Y0260134D02*
X0355233Y0260134D01*
X0355233Y0259600D02*
X0354433Y0259600D01*
X0354700Y0259867D01*
X0354433Y0260134D01*
X0354433Y0261748D02*
X0354433Y0261882D01*
X0355233Y0261882D01*
X0355233Y0262015D02*
X0355233Y0261748D01*
X0355100Y0263283D02*
X0355233Y0263417D01*
X0355233Y0263683D01*
X0355100Y0263817D01*
X0354833Y0263817D01*
X0354700Y0263683D01*
X0354700Y0263417D01*
X0354833Y0263283D01*
X0355100Y0263283D01*
X0355100Y0264204D02*
X0355233Y0264337D01*
X0355233Y0264738D01*
X0354700Y0264738D01*
X0354700Y0265125D02*
X0354700Y0265392D01*
X0354566Y0265258D02*
X0355100Y0265258D01*
X0355233Y0265392D01*
X0355100Y0264204D02*
X0354700Y0264204D01*
X0313225Y0305600D02*
X0313091Y0305733D01*
X0313091Y0306267D01*
X0312958Y0306134D02*
X0313225Y0306134D01*
X0312571Y0306134D02*
X0312571Y0305600D01*
X0312171Y0305600D01*
X0312037Y0305733D01*
X0312037Y0306134D01*
X0311650Y0306000D02*
X0311517Y0306134D01*
X0311250Y0306134D01*
X0311116Y0306000D01*
X0311116Y0305733D01*
X0311250Y0305600D01*
X0311517Y0305600D01*
X0311650Y0305733D01*
X0311650Y0306000D01*
X0309849Y0305600D02*
X0309582Y0305600D01*
X0309715Y0305600D02*
X0309715Y0306401D01*
X0309582Y0306401D01*
X0309101Y0306401D02*
X0309101Y0305600D01*
X0308968Y0305600D02*
X0309235Y0305600D01*
X0308621Y0305600D02*
X0308354Y0305600D01*
X0308488Y0305600D02*
X0308488Y0306134D01*
X0308354Y0306134D01*
X0308488Y0306401D02*
X0308488Y0306534D01*
X0308968Y0306401D02*
X0309101Y0306401D01*
X0307967Y0306401D02*
X0307967Y0305600D01*
X0307433Y0305600D02*
X0307433Y0306401D01*
X0307700Y0306134D01*
X0307967Y0306401D01*
X0211225Y0306134D02*
X0210958Y0306134D01*
X0211091Y0306267D02*
X0211091Y0305733D01*
X0211225Y0305600D01*
X0210571Y0305600D02*
X0210571Y0306134D01*
X0210037Y0306134D02*
X0210037Y0305733D01*
X0210171Y0305600D01*
X0210571Y0305600D01*
X0209650Y0305733D02*
X0209517Y0305600D01*
X0209250Y0305600D01*
X0209116Y0305733D01*
X0209116Y0306000D01*
X0209250Y0306134D01*
X0209517Y0306134D01*
X0209650Y0306000D01*
X0209650Y0305733D01*
X0207849Y0305600D02*
X0207582Y0305600D01*
X0207715Y0305600D02*
X0207715Y0306401D01*
X0207582Y0306401D01*
X0207101Y0306401D02*
X0207101Y0305600D01*
X0206968Y0305600D02*
X0207235Y0305600D01*
X0206621Y0305600D02*
X0206354Y0305600D01*
X0206488Y0305600D02*
X0206488Y0306134D01*
X0206354Y0306134D01*
X0206488Y0306401D02*
X0206488Y0306534D01*
X0206968Y0306401D02*
X0207101Y0306401D01*
X0205967Y0306401D02*
X0205967Y0305600D01*
X0205433Y0305600D02*
X0205433Y0306401D01*
X0205700Y0306134D01*
X0205967Y0306401D01*
X0206488Y0218534D02*
X0206488Y0218401D01*
X0206488Y0218134D02*
X0206488Y0217600D01*
X0206621Y0217600D02*
X0206354Y0217600D01*
X0205967Y0217600D02*
X0205967Y0218401D01*
X0205700Y0218134D01*
X0205433Y0218401D01*
X0205433Y0217600D01*
X0206354Y0218134D02*
X0206488Y0218134D01*
X0206968Y0218401D02*
X0207101Y0218401D01*
X0207101Y0217600D01*
X0206968Y0217600D02*
X0207235Y0217600D01*
X0207582Y0217600D02*
X0207849Y0217600D01*
X0207715Y0217600D02*
X0207715Y0218401D01*
X0207582Y0218401D01*
X0209116Y0218000D02*
X0209116Y0217733D01*
X0209250Y0217600D01*
X0209517Y0217600D01*
X0209650Y0217733D01*
X0209650Y0218000D01*
X0209517Y0218134D01*
X0209250Y0218134D01*
X0209116Y0218000D01*
X0210037Y0218134D02*
X0210037Y0217733D01*
X0210171Y0217600D01*
X0210571Y0217600D01*
X0210571Y0218134D01*
X0210958Y0218134D02*
X0211225Y0218134D01*
X0211091Y0218267D02*
X0211091Y0217733D01*
X0211225Y0217600D01*
X0211091Y0204267D02*
X0211091Y0203733D01*
X0211225Y0203600D01*
X0211225Y0204134D02*
X0210958Y0204134D01*
X0210571Y0204134D02*
X0210571Y0203600D01*
X0210171Y0203600D01*
X0210037Y0203733D01*
X0210037Y0204134D01*
X0209650Y0204000D02*
X0209517Y0204134D01*
X0209250Y0204134D01*
X0209116Y0204000D01*
X0209116Y0203733D01*
X0209250Y0203600D01*
X0209517Y0203600D01*
X0209650Y0203733D01*
X0209650Y0204000D01*
X0207849Y0203600D02*
X0207582Y0203600D01*
X0207715Y0203600D02*
X0207715Y0204401D01*
X0207582Y0204401D01*
X0207101Y0204401D02*
X0207101Y0203600D01*
X0206968Y0203600D02*
X0207235Y0203600D01*
X0206621Y0203600D02*
X0206354Y0203600D01*
X0206488Y0203600D02*
X0206488Y0204134D01*
X0206354Y0204134D01*
X0206488Y0204401D02*
X0206488Y0204534D01*
X0206968Y0204401D02*
X0207101Y0204401D01*
X0205967Y0204401D02*
X0205967Y0203600D01*
X0205433Y0203600D02*
X0205433Y0204401D01*
X0205700Y0204134D01*
X0205967Y0204401D01*
X0206488Y0116534D02*
X0206488Y0116401D01*
X0206488Y0116134D02*
X0206488Y0115600D01*
X0206621Y0115600D02*
X0206354Y0115600D01*
X0205967Y0115600D02*
X0205967Y0116401D01*
X0205700Y0116134D01*
X0205433Y0116401D01*
X0205433Y0115600D01*
X0206354Y0116134D02*
X0206488Y0116134D01*
X0206968Y0116401D02*
X0207101Y0116401D01*
X0207101Y0115600D01*
X0206968Y0115600D02*
X0207235Y0115600D01*
X0207582Y0115600D02*
X0207849Y0115600D01*
X0207715Y0115600D02*
X0207715Y0116401D01*
X0207582Y0116401D01*
X0209116Y0116000D02*
X0209116Y0115733D01*
X0209250Y0115600D01*
X0209517Y0115600D01*
X0209650Y0115733D01*
X0209650Y0116000D01*
X0209517Y0116134D01*
X0209250Y0116134D01*
X0209116Y0116000D01*
X0210037Y0116134D02*
X0210037Y0115733D01*
X0210171Y0115600D01*
X0210571Y0115600D01*
X0210571Y0116134D01*
X0210958Y0116134D02*
X0211225Y0116134D01*
X0211091Y0116267D02*
X0211091Y0115733D01*
X0211225Y0115600D01*
X0211091Y0102267D02*
X0211091Y0101733D01*
X0211225Y0101600D01*
X0211225Y0102134D02*
X0210958Y0102134D01*
X0210571Y0102134D02*
X0210571Y0101600D01*
X0210171Y0101600D01*
X0210037Y0101733D01*
X0210037Y0102134D01*
X0209650Y0102000D02*
X0209517Y0102134D01*
X0209250Y0102134D01*
X0209116Y0102000D01*
X0209116Y0101733D01*
X0209250Y0101600D01*
X0209517Y0101600D01*
X0209650Y0101733D01*
X0209650Y0102000D01*
X0207849Y0101600D02*
X0207582Y0101600D01*
X0207715Y0101600D02*
X0207715Y0102401D01*
X0207582Y0102401D01*
X0207101Y0102401D02*
X0207101Y0101600D01*
X0206968Y0101600D02*
X0207235Y0101600D01*
X0206621Y0101600D02*
X0206354Y0101600D01*
X0206488Y0101600D02*
X0206488Y0102134D01*
X0206354Y0102134D01*
X0206488Y0102401D02*
X0206488Y0102534D01*
X0206968Y0102401D02*
X0207101Y0102401D01*
X0205967Y0102401D02*
X0205967Y0101600D01*
X0205433Y0101600D02*
X0205433Y0102401D01*
X0205700Y0102134D01*
X0205967Y0102401D01*
X0165233Y0063321D02*
X0165016Y0063104D01*
X0164149Y0063104D01*
X0164366Y0062887D02*
X0164366Y0063321D01*
X0164366Y0062373D02*
X0165233Y0062373D01*
X0165233Y0061723D01*
X0165016Y0061506D01*
X0164366Y0061506D01*
X0164583Y0060992D02*
X0164366Y0060775D01*
X0164366Y0060342D01*
X0164583Y0060125D01*
X0165016Y0060125D01*
X0165233Y0060342D01*
X0165233Y0060775D01*
X0165016Y0060992D01*
X0164583Y0060992D01*
X0165233Y0058256D02*
X0165233Y0057823D01*
X0165233Y0058040D02*
X0163932Y0058040D01*
X0163932Y0057823D01*
X0163932Y0057119D02*
X0165233Y0057119D01*
X0165233Y0056902D02*
X0165233Y0057336D01*
X0165233Y0056415D02*
X0165233Y0055981D01*
X0165233Y0056198D02*
X0164366Y0056198D01*
X0164366Y0055981D01*
X0163932Y0056198D02*
X0163715Y0056198D01*
X0163932Y0056902D02*
X0163932Y0057119D01*
X0163932Y0055467D02*
X0165233Y0055467D01*
X0165233Y0054600D02*
X0163932Y0054600D01*
X0164366Y0055034D01*
X0163932Y0055467D01*
X0151233Y0055600D02*
X0150433Y0055600D01*
X0150700Y0055867D01*
X0150433Y0056134D01*
X0151233Y0056134D01*
X0151233Y0056521D02*
X0151233Y0056788D01*
X0151233Y0056654D02*
X0150700Y0056654D01*
X0150700Y0056521D01*
X0150433Y0056654D02*
X0150299Y0056654D01*
X0150433Y0057135D02*
X0150433Y0057268D01*
X0151233Y0057268D01*
X0151233Y0057135D02*
X0151233Y0057402D01*
X0151233Y0057748D02*
X0151233Y0058015D01*
X0151233Y0057882D02*
X0150433Y0057882D01*
X0150433Y0057748D01*
X0150833Y0059283D02*
X0151100Y0059283D01*
X0151233Y0059417D01*
X0151233Y0059683D01*
X0151100Y0059817D01*
X0150833Y0059817D01*
X0150700Y0059683D01*
X0150700Y0059417D01*
X0150833Y0059283D01*
X0150700Y0060204D02*
X0151100Y0060204D01*
X0151233Y0060337D01*
X0151233Y0060738D01*
X0150700Y0060738D01*
X0150700Y0061125D02*
X0150700Y0061392D01*
X0150566Y0061258D02*
X0151100Y0061258D01*
X0151233Y0061392D01*
X0109225Y0058134D02*
X0108958Y0058134D01*
X0109091Y0058267D02*
X0109091Y0057733D01*
X0109225Y0057600D01*
X0108571Y0057600D02*
X0108571Y0058134D01*
X0108037Y0058134D02*
X0108037Y0057733D01*
X0108171Y0057600D01*
X0108571Y0057600D01*
X0107650Y0057733D02*
X0107650Y0058000D01*
X0107517Y0058134D01*
X0107250Y0058134D01*
X0107116Y0058000D01*
X0107116Y0057733D01*
X0107250Y0057600D01*
X0107517Y0057600D01*
X0107650Y0057733D01*
X0105849Y0057600D02*
X0105582Y0057600D01*
X0105715Y0057600D02*
X0105715Y0058401D01*
X0105582Y0058401D01*
X0105101Y0058401D02*
X0105101Y0057600D01*
X0104968Y0057600D02*
X0105235Y0057600D01*
X0104621Y0057600D02*
X0104354Y0057600D01*
X0104488Y0057600D02*
X0104488Y0058134D01*
X0104354Y0058134D01*
X0104488Y0058401D02*
X0104488Y0058534D01*
X0104968Y0058401D02*
X0105101Y0058401D01*
X0103967Y0058401D02*
X0103967Y0057600D01*
X0103433Y0057600D02*
X0103433Y0058401D01*
X0103700Y0058134D01*
X0103967Y0058401D01*
X0063233Y0058256D02*
X0063233Y0057823D01*
X0063233Y0058040D02*
X0061932Y0058040D01*
X0061932Y0057823D01*
X0061932Y0057119D02*
X0063233Y0057119D01*
X0063233Y0056902D02*
X0063233Y0057336D01*
X0063233Y0056415D02*
X0063233Y0055981D01*
X0063233Y0056198D02*
X0062366Y0056198D01*
X0062366Y0055981D01*
X0061932Y0056198D02*
X0061715Y0056198D01*
X0061932Y0056902D02*
X0061932Y0057119D01*
X0061932Y0055467D02*
X0063233Y0055467D01*
X0063233Y0054600D02*
X0061932Y0054600D01*
X0062366Y0055034D01*
X0061932Y0055467D01*
X0062583Y0060125D02*
X0063016Y0060125D01*
X0063233Y0060342D01*
X0063233Y0060775D01*
X0063016Y0060992D01*
X0062583Y0060992D01*
X0062366Y0060775D01*
X0062366Y0060342D01*
X0062583Y0060125D01*
X0062366Y0061506D02*
X0063016Y0061506D01*
X0063233Y0061723D01*
X0063233Y0062373D01*
X0062366Y0062373D01*
X0062366Y0062887D02*
X0062366Y0063321D01*
X0062149Y0063104D02*
X0063016Y0063104D01*
X0063233Y0063321D01*
X0103433Y0101600D02*
X0103433Y0102401D01*
X0103700Y0102134D01*
X0103967Y0102401D01*
X0103967Y0101600D01*
X0104354Y0101600D02*
X0104621Y0101600D01*
X0104488Y0101600D02*
X0104488Y0102134D01*
X0104354Y0102134D01*
X0104488Y0102401D02*
X0104488Y0102534D01*
X0104968Y0102401D02*
X0105101Y0102401D01*
X0105101Y0101600D01*
X0104968Y0101600D02*
X0105235Y0101600D01*
X0105582Y0101600D02*
X0105849Y0101600D01*
X0105715Y0101600D02*
X0105715Y0102401D01*
X0105582Y0102401D01*
X0107116Y0102000D02*
X0107116Y0101733D01*
X0107250Y0101600D01*
X0107517Y0101600D01*
X0107650Y0101733D01*
X0107650Y0102000D01*
X0107517Y0102134D01*
X0107250Y0102134D01*
X0107116Y0102000D01*
X0108037Y0102134D02*
X0108037Y0101733D01*
X0108171Y0101600D01*
X0108571Y0101600D01*
X0108571Y0102134D01*
X0108958Y0102134D02*
X0109225Y0102134D01*
X0109091Y0102267D02*
X0109091Y0101733D01*
X0109225Y0101600D01*
X0109225Y0115600D02*
X0109091Y0115733D01*
X0109091Y0116267D01*
X0108958Y0116134D02*
X0109225Y0116134D01*
X0108571Y0116134D02*
X0108571Y0115600D01*
X0108171Y0115600D01*
X0108037Y0115733D01*
X0108037Y0116134D01*
X0107650Y0116000D02*
X0107517Y0116134D01*
X0107250Y0116134D01*
X0107116Y0116000D01*
X0107116Y0115733D01*
X0107250Y0115600D01*
X0107517Y0115600D01*
X0107650Y0115733D01*
X0107650Y0116000D01*
X0105849Y0115600D02*
X0105582Y0115600D01*
X0105715Y0115600D02*
X0105715Y0116401D01*
X0105582Y0116401D01*
X0105101Y0116401D02*
X0105101Y0115600D01*
X0104968Y0115600D02*
X0105235Y0115600D01*
X0104621Y0115600D02*
X0104354Y0115600D01*
X0104488Y0115600D02*
X0104488Y0116134D01*
X0104354Y0116134D01*
X0104488Y0116401D02*
X0104488Y0116534D01*
X0104968Y0116401D02*
X0105101Y0116401D01*
X0103967Y0116401D02*
X0103967Y0115600D01*
X0103433Y0115600D02*
X0103433Y0116401D01*
X0103700Y0116134D01*
X0103967Y0116401D01*
X0205433Y0058401D02*
X0205700Y0058134D01*
X0205967Y0058401D01*
X0205967Y0057600D01*
X0206354Y0057600D02*
X0206621Y0057600D01*
X0206488Y0057600D02*
X0206488Y0058134D01*
X0206354Y0058134D01*
X0206488Y0058401D02*
X0206488Y0058534D01*
X0206968Y0058401D02*
X0207101Y0058401D01*
X0207101Y0057600D01*
X0206968Y0057600D02*
X0207235Y0057600D01*
X0207582Y0057600D02*
X0207849Y0057600D01*
X0207715Y0057600D02*
X0207715Y0058401D01*
X0207582Y0058401D01*
X0209116Y0058000D02*
X0209116Y0057733D01*
X0209250Y0057600D01*
X0209517Y0057600D01*
X0209650Y0057733D01*
X0209650Y0058000D01*
X0209517Y0058134D01*
X0209250Y0058134D01*
X0209116Y0058000D01*
X0210037Y0058134D02*
X0210037Y0057733D01*
X0210171Y0057600D01*
X0210571Y0057600D01*
X0210571Y0058134D01*
X0210958Y0058134D02*
X0211225Y0058134D01*
X0211091Y0058267D02*
X0211091Y0057733D01*
X0211225Y0057600D01*
X0205433Y0057600D02*
X0205433Y0058401D01*
X0206488Y0014534D02*
X0206488Y0014401D01*
X0206488Y0014134D02*
X0206488Y0013600D01*
X0206621Y0013600D02*
X0206354Y0013600D01*
X0205967Y0013600D02*
X0205967Y0014401D01*
X0205700Y0014134D01*
X0205433Y0014401D01*
X0205433Y0013600D01*
X0206354Y0014134D02*
X0206488Y0014134D01*
X0206968Y0014401D02*
X0207101Y0014401D01*
X0207101Y0013600D01*
X0206968Y0013600D02*
X0207235Y0013600D01*
X0207582Y0013600D02*
X0207849Y0013600D01*
X0207715Y0013600D02*
X0207715Y0014401D01*
X0207582Y0014401D01*
X0209116Y0014000D02*
X0209116Y0013733D01*
X0209250Y0013600D01*
X0209517Y0013600D01*
X0209650Y0013733D01*
X0209650Y0014000D01*
X0209517Y0014134D01*
X0209250Y0014134D01*
X0209116Y0014000D01*
X0210037Y0014134D02*
X0210037Y0013733D01*
X0210171Y0013600D01*
X0210571Y0013600D01*
X0210571Y0014134D01*
X0210958Y0014134D02*
X0211225Y0014134D01*
X0211091Y0014267D02*
X0211091Y0013733D01*
X0211225Y0013600D01*
X0252433Y0055600D02*
X0252700Y0055867D01*
X0252433Y0056134D01*
X0253233Y0056134D01*
X0253233Y0056521D02*
X0253233Y0056788D01*
X0253233Y0056654D02*
X0252700Y0056654D01*
X0252700Y0056521D01*
X0252433Y0056654D02*
X0252299Y0056654D01*
X0252433Y0057135D02*
X0252433Y0057268D01*
X0253233Y0057268D01*
X0253233Y0057135D02*
X0253233Y0057402D01*
X0253233Y0057748D02*
X0253233Y0058015D01*
X0253233Y0057882D02*
X0252433Y0057882D01*
X0252433Y0057748D01*
X0252833Y0059283D02*
X0253100Y0059283D01*
X0253233Y0059417D01*
X0253233Y0059683D01*
X0253100Y0059817D01*
X0252833Y0059817D01*
X0252700Y0059683D01*
X0252700Y0059417D01*
X0252833Y0059283D01*
X0252700Y0060204D02*
X0253100Y0060204D01*
X0253233Y0060337D01*
X0253233Y0060738D01*
X0252700Y0060738D01*
X0252700Y0061125D02*
X0252700Y0061392D01*
X0252566Y0061258D02*
X0253100Y0061258D01*
X0253233Y0061392D01*
X0253233Y0055600D02*
X0252433Y0055600D01*
X0265715Y0056198D02*
X0265932Y0056198D01*
X0266366Y0056198D02*
X0267233Y0056198D01*
X0267233Y0055981D02*
X0267233Y0056415D01*
X0267233Y0056902D02*
X0267233Y0057336D01*
X0267233Y0057119D02*
X0265932Y0057119D01*
X0265932Y0056902D01*
X0266366Y0056198D02*
X0266366Y0055981D01*
X0265932Y0055467D02*
X0267233Y0055467D01*
X0267233Y0054600D02*
X0265932Y0054600D01*
X0266366Y0055034D01*
X0265932Y0055467D01*
X0265932Y0057823D02*
X0265932Y0058040D01*
X0267233Y0058040D01*
X0267233Y0058256D02*
X0267233Y0057823D01*
X0267016Y0060125D02*
X0267233Y0060342D01*
X0267233Y0060775D01*
X0267016Y0060992D01*
X0266583Y0060992D01*
X0266366Y0060775D01*
X0266366Y0060342D01*
X0266583Y0060125D01*
X0267016Y0060125D01*
X0267016Y0061506D02*
X0266366Y0061506D01*
X0267016Y0061506D02*
X0267233Y0061723D01*
X0267233Y0062373D01*
X0266366Y0062373D01*
X0266366Y0062887D02*
X0266366Y0063321D01*
X0266149Y0063104D02*
X0267016Y0063104D01*
X0267233Y0063321D01*
X0307433Y0058401D02*
X0307700Y0058134D01*
X0307967Y0058401D01*
X0307967Y0057600D01*
X0308354Y0057600D02*
X0308621Y0057600D01*
X0308488Y0057600D02*
X0308488Y0058134D01*
X0308354Y0058134D01*
X0308488Y0058401D02*
X0308488Y0058534D01*
X0308968Y0058401D02*
X0309101Y0058401D01*
X0309101Y0057600D01*
X0308968Y0057600D02*
X0309235Y0057600D01*
X0309582Y0057600D02*
X0309849Y0057600D01*
X0309715Y0057600D02*
X0309715Y0058401D01*
X0309582Y0058401D01*
X0311116Y0058000D02*
X0311116Y0057733D01*
X0311250Y0057600D01*
X0311517Y0057600D01*
X0311650Y0057733D01*
X0311650Y0058000D01*
X0311517Y0058134D01*
X0311250Y0058134D01*
X0311116Y0058000D01*
X0312037Y0058134D02*
X0312037Y0057733D01*
X0312171Y0057600D01*
X0312571Y0057600D01*
X0312571Y0058134D01*
X0312958Y0058134D02*
X0313225Y0058134D01*
X0313091Y0058267D02*
X0313091Y0057733D01*
X0313225Y0057600D01*
X0307433Y0057600D02*
X0307433Y0058401D01*
X0307433Y0101600D02*
X0307433Y0102401D01*
X0307700Y0102134D01*
X0307967Y0102401D01*
X0307967Y0101600D01*
X0308354Y0101600D02*
X0308621Y0101600D01*
X0308488Y0101600D02*
X0308488Y0102134D01*
X0308354Y0102134D01*
X0308488Y0102401D02*
X0308488Y0102534D01*
X0308968Y0102401D02*
X0309101Y0102401D01*
X0309101Y0101600D01*
X0308968Y0101600D02*
X0309235Y0101600D01*
X0309582Y0101600D02*
X0309849Y0101600D01*
X0309715Y0101600D02*
X0309715Y0102401D01*
X0309582Y0102401D01*
X0311116Y0102000D02*
X0311116Y0101733D01*
X0311250Y0101600D01*
X0311517Y0101600D01*
X0311650Y0101733D01*
X0311650Y0102000D01*
X0311517Y0102134D01*
X0311250Y0102134D01*
X0311116Y0102000D01*
X0312037Y0102134D02*
X0312037Y0101733D01*
X0312171Y0101600D01*
X0312571Y0101600D01*
X0312571Y0102134D01*
X0312958Y0102134D02*
X0313225Y0102134D01*
X0313091Y0102267D02*
X0313091Y0101733D01*
X0313225Y0101600D01*
X0313225Y0115600D02*
X0313091Y0115733D01*
X0313091Y0116267D01*
X0312958Y0116134D02*
X0313225Y0116134D01*
X0312571Y0116134D02*
X0312571Y0115600D01*
X0312171Y0115600D01*
X0312037Y0115733D01*
X0312037Y0116134D01*
X0311650Y0116000D02*
X0311517Y0116134D01*
X0311250Y0116134D01*
X0311116Y0116000D01*
X0311116Y0115733D01*
X0311250Y0115600D01*
X0311517Y0115600D01*
X0311650Y0115733D01*
X0311650Y0116000D01*
X0309849Y0115600D02*
X0309582Y0115600D01*
X0309715Y0115600D02*
X0309715Y0116401D01*
X0309582Y0116401D01*
X0309101Y0116401D02*
X0309101Y0115600D01*
X0308968Y0115600D02*
X0309235Y0115600D01*
X0308621Y0115600D02*
X0308354Y0115600D01*
X0308488Y0115600D02*
X0308488Y0116134D01*
X0308354Y0116134D01*
X0308488Y0116401D02*
X0308488Y0116534D01*
X0308968Y0116401D02*
X0309101Y0116401D01*
X0307967Y0116401D02*
X0307967Y0115600D01*
X0307433Y0115600D02*
X0307433Y0116401D01*
X0307700Y0116134D01*
X0307967Y0116401D01*
X0354433Y0157600D02*
X0354700Y0157867D01*
X0354433Y0158134D01*
X0355233Y0158134D01*
X0355233Y0158521D02*
X0355233Y0158788D01*
X0355233Y0158654D02*
X0354700Y0158654D01*
X0354700Y0158521D01*
X0354433Y0158654D02*
X0354299Y0158654D01*
X0354433Y0159135D02*
X0354433Y0159268D01*
X0355233Y0159268D01*
X0355233Y0159135D02*
X0355233Y0159402D01*
X0355233Y0159748D02*
X0355233Y0160015D01*
X0355233Y0159882D02*
X0354433Y0159882D01*
X0354433Y0159748D01*
X0354833Y0161283D02*
X0355100Y0161283D01*
X0355233Y0161417D01*
X0355233Y0161683D01*
X0355100Y0161817D01*
X0354833Y0161817D01*
X0354700Y0161683D01*
X0354700Y0161417D01*
X0354833Y0161283D01*
X0354700Y0162204D02*
X0355100Y0162204D01*
X0355233Y0162337D01*
X0355233Y0162738D01*
X0354700Y0162738D01*
X0354700Y0163125D02*
X0354700Y0163392D01*
X0354566Y0163258D02*
X0355100Y0163258D01*
X0355233Y0163392D01*
X0355233Y0157600D02*
X0354433Y0157600D01*
X0313225Y0159600D02*
X0313091Y0159733D01*
X0313091Y0160267D01*
X0312958Y0160134D02*
X0313225Y0160134D01*
X0312571Y0160134D02*
X0312571Y0159600D01*
X0312171Y0159600D01*
X0312037Y0159733D01*
X0312037Y0160134D01*
X0311650Y0160000D02*
X0311517Y0160134D01*
X0311250Y0160134D01*
X0311116Y0160000D01*
X0311116Y0159733D01*
X0311250Y0159600D01*
X0311517Y0159600D01*
X0311650Y0159733D01*
X0311650Y0160000D01*
X0309849Y0159600D02*
X0309582Y0159600D01*
X0309715Y0159600D02*
X0309715Y0160401D01*
X0309582Y0160401D01*
X0309101Y0160401D02*
X0309101Y0159600D01*
X0308968Y0159600D02*
X0309235Y0159600D01*
X0308621Y0159600D02*
X0308354Y0159600D01*
X0308488Y0159600D02*
X0308488Y0160134D01*
X0308354Y0160134D01*
X0308488Y0160401D02*
X0308488Y0160534D01*
X0308968Y0160401D02*
X0309101Y0160401D01*
X0307967Y0160401D02*
X0307967Y0159600D01*
X0307433Y0159600D02*
X0307433Y0160401D01*
X0307700Y0160134D01*
X0307967Y0160401D01*
X0354700Y0061392D02*
X0354700Y0061125D01*
X0354566Y0061258D02*
X0355100Y0061258D01*
X0355233Y0061392D01*
X0355233Y0060738D02*
X0354700Y0060738D01*
X0355233Y0060738D02*
X0355233Y0060337D01*
X0355100Y0060204D01*
X0354700Y0060204D01*
X0354833Y0059817D02*
X0354700Y0059683D01*
X0354700Y0059417D01*
X0354833Y0059283D01*
X0355100Y0059283D01*
X0355233Y0059417D01*
X0355233Y0059683D01*
X0355100Y0059817D01*
X0354833Y0059817D01*
X0355233Y0058015D02*
X0355233Y0057748D01*
X0355233Y0057882D02*
X0354433Y0057882D01*
X0354433Y0057748D01*
X0354433Y0057268D02*
X0355233Y0057268D01*
X0355233Y0057135D02*
X0355233Y0057402D01*
X0355233Y0056788D02*
X0355233Y0056521D01*
X0355233Y0056654D02*
X0354700Y0056654D01*
X0354700Y0056521D01*
X0354433Y0056654D02*
X0354299Y0056654D01*
X0354433Y0057135D02*
X0354433Y0057268D01*
X0354433Y0056134D02*
X0355233Y0056134D01*
X0355233Y0055600D02*
X0354433Y0055600D01*
X0354700Y0055867D01*
X0354433Y0056134D01*
X0313091Y0014267D02*
X0313091Y0013733D01*
X0313225Y0013600D01*
X0313225Y0014134D02*
X0312958Y0014134D01*
X0312571Y0014134D02*
X0312571Y0013600D01*
X0312171Y0013600D01*
X0312037Y0013733D01*
X0312037Y0014134D01*
X0311650Y0014000D02*
X0311517Y0014134D01*
X0311250Y0014134D01*
X0311116Y0014000D01*
X0311116Y0013733D01*
X0311250Y0013600D01*
X0311517Y0013600D01*
X0311650Y0013733D01*
X0311650Y0014000D01*
X0309849Y0013600D02*
X0309582Y0013600D01*
X0309715Y0013600D02*
X0309715Y0014401D01*
X0309582Y0014401D01*
X0309101Y0014401D02*
X0309101Y0013600D01*
X0308968Y0013600D02*
X0309235Y0013600D01*
X0308621Y0013600D02*
X0308354Y0013600D01*
X0308488Y0013600D02*
X0308488Y0014134D01*
X0308354Y0014134D01*
X0308488Y0014401D02*
X0308488Y0014534D01*
X0308968Y0014401D02*
X0309101Y0014401D01*
X0307967Y0014401D02*
X0307967Y0013600D01*
X0307433Y0013600D02*
X0307433Y0014401D01*
X0307700Y0014134D01*
X0307967Y0014401D01*
X0109225Y0014134D02*
X0108958Y0014134D01*
X0109091Y0014267D02*
X0109091Y0013733D01*
X0109225Y0013600D01*
X0108571Y0013600D02*
X0108571Y0014134D01*
X0108037Y0014134D02*
X0108037Y0013733D01*
X0108171Y0013600D01*
X0108571Y0013600D01*
X0107650Y0013733D02*
X0107650Y0014000D01*
X0107517Y0014134D01*
X0107250Y0014134D01*
X0107116Y0014000D01*
X0107116Y0013733D01*
X0107250Y0013600D01*
X0107517Y0013600D01*
X0107650Y0013733D01*
X0105849Y0013600D02*
X0105582Y0013600D01*
X0105715Y0013600D02*
X0105715Y0014401D01*
X0105582Y0014401D01*
X0105101Y0014401D02*
X0105101Y0013600D01*
X0104968Y0013600D02*
X0105235Y0013600D01*
X0104621Y0013600D02*
X0104354Y0013600D01*
X0104488Y0013600D02*
X0104488Y0014134D01*
X0104354Y0014134D01*
X0104488Y0014401D02*
X0104488Y0014534D01*
X0104968Y0014401D02*
X0105101Y0014401D01*
X0103967Y0014401D02*
X0103967Y0013600D01*
X0103433Y0013600D02*
X0103433Y0014401D01*
X0103700Y0014134D01*
X0103967Y0014401D01*
X0063233Y0258600D02*
X0061932Y0258600D01*
X0062366Y0259034D01*
X0061932Y0259467D01*
X0063233Y0259467D01*
X0063233Y0259981D02*
X0063233Y0260415D01*
X0063233Y0260198D02*
X0062366Y0260198D01*
X0062366Y0259981D01*
X0061932Y0260198D02*
X0061715Y0260198D01*
X0061932Y0260902D02*
X0061932Y0261119D01*
X0063233Y0261119D01*
X0063233Y0260902D02*
X0063233Y0261336D01*
X0063233Y0261823D02*
X0063233Y0262256D01*
X0063233Y0262040D02*
X0061932Y0262040D01*
X0061932Y0261823D01*
X0062583Y0264125D02*
X0063016Y0264125D01*
X0063233Y0264342D01*
X0063233Y0264775D01*
X0063016Y0264992D01*
X0062583Y0264992D01*
X0062366Y0264775D01*
X0062366Y0264342D01*
X0062583Y0264125D01*
X0062366Y0265506D02*
X0063016Y0265506D01*
X0063233Y0265723D01*
X0063233Y0266373D01*
X0062366Y0266373D01*
X0062366Y0266887D02*
X0062366Y0267321D01*
X0062149Y0267104D02*
X0063016Y0267104D01*
X0063233Y0267321D01*
X0103433Y0305600D02*
X0103433Y0306401D01*
X0103700Y0306134D01*
X0103967Y0306401D01*
X0103967Y0305600D01*
X0104354Y0305600D02*
X0104621Y0305600D01*
X0104488Y0305600D02*
X0104488Y0306134D01*
X0104354Y0306134D01*
X0104488Y0306401D02*
X0104488Y0306534D01*
X0104968Y0306401D02*
X0105101Y0306401D01*
X0105101Y0305600D01*
X0104968Y0305600D02*
X0105235Y0305600D01*
X0105582Y0305600D02*
X0105849Y0305600D01*
X0105715Y0305600D02*
X0105715Y0306401D01*
X0105582Y0306401D01*
X0107116Y0306000D02*
X0107116Y0305733D01*
X0107250Y0305600D01*
X0107517Y0305600D01*
X0107650Y0305733D01*
X0107650Y0306000D01*
X0107517Y0306134D01*
X0107250Y0306134D01*
X0107116Y0306000D01*
X0108037Y0306134D02*
X0108037Y0305733D01*
X0108171Y0305600D01*
X0108571Y0305600D01*
X0108571Y0306134D01*
X0108958Y0306134D02*
X0109225Y0306134D01*
X0109091Y0306267D02*
X0109091Y0305733D01*
X0109225Y0305600D01*
D14*
X0134833Y0297500D02*
X0134835Y0297661D01*
X0134841Y0297821D01*
X0134851Y0297982D01*
X0134865Y0298142D01*
X0134883Y0298302D01*
X0134904Y0298461D01*
X0134930Y0298620D01*
X0134960Y0298778D01*
X0134993Y0298935D01*
X0135031Y0299092D01*
X0135072Y0299247D01*
X0135117Y0299401D01*
X0135166Y0299554D01*
X0135219Y0299706D01*
X0135275Y0299857D01*
X0135336Y0300006D01*
X0135399Y0300154D01*
X0135467Y0300300D01*
X0135538Y0300444D01*
X0135612Y0300586D01*
X0135690Y0300727D01*
X0135772Y0300865D01*
X0135857Y0301002D01*
X0135945Y0301136D01*
X0136037Y0301268D01*
X0136132Y0301398D01*
X0136230Y0301526D01*
X0136331Y0301651D01*
X0136435Y0301773D01*
X0136542Y0301893D01*
X0136652Y0302010D01*
X0136765Y0302125D01*
X0136881Y0302236D01*
X0137000Y0302345D01*
X0137121Y0302450D01*
X0137245Y0302553D01*
X0137371Y0302653D01*
X0137499Y0302749D01*
X0137630Y0302842D01*
X0137764Y0302932D01*
X0137899Y0303019D01*
X0138037Y0303102D01*
X0138176Y0303182D01*
X0138318Y0303258D01*
X0138461Y0303331D01*
X0138606Y0303400D01*
X0138753Y0303466D01*
X0138901Y0303528D01*
X0139051Y0303586D01*
X0139202Y0303641D01*
X0139355Y0303692D01*
X0139509Y0303739D01*
X0139664Y0303782D01*
X0139820Y0303821D01*
X0139976Y0303857D01*
X0140134Y0303888D01*
X0140292Y0303916D01*
X0140451Y0303940D01*
X0140611Y0303960D01*
X0140771Y0303976D01*
X0140931Y0303988D01*
X0141092Y0303996D01*
X0141253Y0304000D01*
X0141413Y0304000D01*
X0141574Y0303996D01*
X0141735Y0303988D01*
X0141895Y0303976D01*
X0142055Y0303960D01*
X0142215Y0303940D01*
X0142374Y0303916D01*
X0142532Y0303888D01*
X0142690Y0303857D01*
X0142846Y0303821D01*
X0143002Y0303782D01*
X0143157Y0303739D01*
X0143311Y0303692D01*
X0143464Y0303641D01*
X0143615Y0303586D01*
X0143765Y0303528D01*
X0143913Y0303466D01*
X0144060Y0303400D01*
X0144205Y0303331D01*
X0144348Y0303258D01*
X0144490Y0303182D01*
X0144629Y0303102D01*
X0144767Y0303019D01*
X0144902Y0302932D01*
X0145036Y0302842D01*
X0145167Y0302749D01*
X0145295Y0302653D01*
X0145421Y0302553D01*
X0145545Y0302450D01*
X0145666Y0302345D01*
X0145785Y0302236D01*
X0145901Y0302125D01*
X0146014Y0302010D01*
X0146124Y0301893D01*
X0146231Y0301773D01*
X0146335Y0301651D01*
X0146436Y0301526D01*
X0146534Y0301398D01*
X0146629Y0301268D01*
X0146721Y0301136D01*
X0146809Y0301002D01*
X0146894Y0300865D01*
X0146976Y0300727D01*
X0147054Y0300586D01*
X0147128Y0300444D01*
X0147199Y0300300D01*
X0147267Y0300154D01*
X0147330Y0300006D01*
X0147391Y0299857D01*
X0147447Y0299706D01*
X0147500Y0299554D01*
X0147549Y0299401D01*
X0147594Y0299247D01*
X0147635Y0299092D01*
X0147673Y0298935D01*
X0147706Y0298778D01*
X0147736Y0298620D01*
X0147762Y0298461D01*
X0147783Y0298302D01*
X0147801Y0298142D01*
X0147815Y0297982D01*
X0147825Y0297821D01*
X0147831Y0297661D01*
X0147833Y0297500D01*
X0147831Y0297339D01*
X0147825Y0297179D01*
X0147815Y0297018D01*
X0147801Y0296858D01*
X0147783Y0296698D01*
X0147762Y0296539D01*
X0147736Y0296380D01*
X0147706Y0296222D01*
X0147673Y0296065D01*
X0147635Y0295908D01*
X0147594Y0295753D01*
X0147549Y0295599D01*
X0147500Y0295446D01*
X0147447Y0295294D01*
X0147391Y0295143D01*
X0147330Y0294994D01*
X0147267Y0294846D01*
X0147199Y0294700D01*
X0147128Y0294556D01*
X0147054Y0294414D01*
X0146976Y0294273D01*
X0146894Y0294135D01*
X0146809Y0293998D01*
X0146721Y0293864D01*
X0146629Y0293732D01*
X0146534Y0293602D01*
X0146436Y0293474D01*
X0146335Y0293349D01*
X0146231Y0293227D01*
X0146124Y0293107D01*
X0146014Y0292990D01*
X0145901Y0292875D01*
X0145785Y0292764D01*
X0145666Y0292655D01*
X0145545Y0292550D01*
X0145421Y0292447D01*
X0145295Y0292347D01*
X0145167Y0292251D01*
X0145036Y0292158D01*
X0144902Y0292068D01*
X0144767Y0291981D01*
X0144629Y0291898D01*
X0144490Y0291818D01*
X0144348Y0291742D01*
X0144205Y0291669D01*
X0144060Y0291600D01*
X0143913Y0291534D01*
X0143765Y0291472D01*
X0143615Y0291414D01*
X0143464Y0291359D01*
X0143311Y0291308D01*
X0143157Y0291261D01*
X0143002Y0291218D01*
X0142846Y0291179D01*
X0142690Y0291143D01*
X0142532Y0291112D01*
X0142374Y0291084D01*
X0142215Y0291060D01*
X0142055Y0291040D01*
X0141895Y0291024D01*
X0141735Y0291012D01*
X0141574Y0291004D01*
X0141413Y0291000D01*
X0141253Y0291000D01*
X0141092Y0291004D01*
X0140931Y0291012D01*
X0140771Y0291024D01*
X0140611Y0291040D01*
X0140451Y0291060D01*
X0140292Y0291084D01*
X0140134Y0291112D01*
X0139976Y0291143D01*
X0139820Y0291179D01*
X0139664Y0291218D01*
X0139509Y0291261D01*
X0139355Y0291308D01*
X0139202Y0291359D01*
X0139051Y0291414D01*
X0138901Y0291472D01*
X0138753Y0291534D01*
X0138606Y0291600D01*
X0138461Y0291669D01*
X0138318Y0291742D01*
X0138176Y0291818D01*
X0138037Y0291898D01*
X0137899Y0291981D01*
X0137764Y0292068D01*
X0137630Y0292158D01*
X0137499Y0292251D01*
X0137371Y0292347D01*
X0137245Y0292447D01*
X0137121Y0292550D01*
X0137000Y0292655D01*
X0136881Y0292764D01*
X0136765Y0292875D01*
X0136652Y0292990D01*
X0136542Y0293107D01*
X0136435Y0293227D01*
X0136331Y0293349D01*
X0136230Y0293474D01*
X0136132Y0293602D01*
X0136037Y0293732D01*
X0135945Y0293864D01*
X0135857Y0293998D01*
X0135772Y0294135D01*
X0135690Y0294273D01*
X0135612Y0294414D01*
X0135538Y0294556D01*
X0135467Y0294700D01*
X0135399Y0294846D01*
X0135336Y0294994D01*
X0135275Y0295143D01*
X0135219Y0295294D01*
X0135166Y0295446D01*
X0135117Y0295599D01*
X0135072Y0295753D01*
X0135031Y0295908D01*
X0134993Y0296065D01*
X0134960Y0296222D01*
X0134930Y0296380D01*
X0134904Y0296539D01*
X0134883Y0296698D01*
X0134865Y0296858D01*
X0134851Y0297018D01*
X0134841Y0297179D01*
X0134835Y0297339D01*
X0134833Y0297500D01*
X0166833Y0297500D02*
X0166835Y0297661D01*
X0166841Y0297821D01*
X0166851Y0297982D01*
X0166865Y0298142D01*
X0166883Y0298302D01*
X0166904Y0298461D01*
X0166930Y0298620D01*
X0166960Y0298778D01*
X0166993Y0298935D01*
X0167031Y0299092D01*
X0167072Y0299247D01*
X0167117Y0299401D01*
X0167166Y0299554D01*
X0167219Y0299706D01*
X0167275Y0299857D01*
X0167336Y0300006D01*
X0167399Y0300154D01*
X0167467Y0300300D01*
X0167538Y0300444D01*
X0167612Y0300586D01*
X0167690Y0300727D01*
X0167772Y0300865D01*
X0167857Y0301002D01*
X0167945Y0301136D01*
X0168037Y0301268D01*
X0168132Y0301398D01*
X0168230Y0301526D01*
X0168331Y0301651D01*
X0168435Y0301773D01*
X0168542Y0301893D01*
X0168652Y0302010D01*
X0168765Y0302125D01*
X0168881Y0302236D01*
X0169000Y0302345D01*
X0169121Y0302450D01*
X0169245Y0302553D01*
X0169371Y0302653D01*
X0169499Y0302749D01*
X0169630Y0302842D01*
X0169764Y0302932D01*
X0169899Y0303019D01*
X0170037Y0303102D01*
X0170176Y0303182D01*
X0170318Y0303258D01*
X0170461Y0303331D01*
X0170606Y0303400D01*
X0170753Y0303466D01*
X0170901Y0303528D01*
X0171051Y0303586D01*
X0171202Y0303641D01*
X0171355Y0303692D01*
X0171509Y0303739D01*
X0171664Y0303782D01*
X0171820Y0303821D01*
X0171976Y0303857D01*
X0172134Y0303888D01*
X0172292Y0303916D01*
X0172451Y0303940D01*
X0172611Y0303960D01*
X0172771Y0303976D01*
X0172931Y0303988D01*
X0173092Y0303996D01*
X0173253Y0304000D01*
X0173413Y0304000D01*
X0173574Y0303996D01*
X0173735Y0303988D01*
X0173895Y0303976D01*
X0174055Y0303960D01*
X0174215Y0303940D01*
X0174374Y0303916D01*
X0174532Y0303888D01*
X0174690Y0303857D01*
X0174846Y0303821D01*
X0175002Y0303782D01*
X0175157Y0303739D01*
X0175311Y0303692D01*
X0175464Y0303641D01*
X0175615Y0303586D01*
X0175765Y0303528D01*
X0175913Y0303466D01*
X0176060Y0303400D01*
X0176205Y0303331D01*
X0176348Y0303258D01*
X0176490Y0303182D01*
X0176629Y0303102D01*
X0176767Y0303019D01*
X0176902Y0302932D01*
X0177036Y0302842D01*
X0177167Y0302749D01*
X0177295Y0302653D01*
X0177421Y0302553D01*
X0177545Y0302450D01*
X0177666Y0302345D01*
X0177785Y0302236D01*
X0177901Y0302125D01*
X0178014Y0302010D01*
X0178124Y0301893D01*
X0178231Y0301773D01*
X0178335Y0301651D01*
X0178436Y0301526D01*
X0178534Y0301398D01*
X0178629Y0301268D01*
X0178721Y0301136D01*
X0178809Y0301002D01*
X0178894Y0300865D01*
X0178976Y0300727D01*
X0179054Y0300586D01*
X0179128Y0300444D01*
X0179199Y0300300D01*
X0179267Y0300154D01*
X0179330Y0300006D01*
X0179391Y0299857D01*
X0179447Y0299706D01*
X0179500Y0299554D01*
X0179549Y0299401D01*
X0179594Y0299247D01*
X0179635Y0299092D01*
X0179673Y0298935D01*
X0179706Y0298778D01*
X0179736Y0298620D01*
X0179762Y0298461D01*
X0179783Y0298302D01*
X0179801Y0298142D01*
X0179815Y0297982D01*
X0179825Y0297821D01*
X0179831Y0297661D01*
X0179833Y0297500D01*
X0179831Y0297339D01*
X0179825Y0297179D01*
X0179815Y0297018D01*
X0179801Y0296858D01*
X0179783Y0296698D01*
X0179762Y0296539D01*
X0179736Y0296380D01*
X0179706Y0296222D01*
X0179673Y0296065D01*
X0179635Y0295908D01*
X0179594Y0295753D01*
X0179549Y0295599D01*
X0179500Y0295446D01*
X0179447Y0295294D01*
X0179391Y0295143D01*
X0179330Y0294994D01*
X0179267Y0294846D01*
X0179199Y0294700D01*
X0179128Y0294556D01*
X0179054Y0294414D01*
X0178976Y0294273D01*
X0178894Y0294135D01*
X0178809Y0293998D01*
X0178721Y0293864D01*
X0178629Y0293732D01*
X0178534Y0293602D01*
X0178436Y0293474D01*
X0178335Y0293349D01*
X0178231Y0293227D01*
X0178124Y0293107D01*
X0178014Y0292990D01*
X0177901Y0292875D01*
X0177785Y0292764D01*
X0177666Y0292655D01*
X0177545Y0292550D01*
X0177421Y0292447D01*
X0177295Y0292347D01*
X0177167Y0292251D01*
X0177036Y0292158D01*
X0176902Y0292068D01*
X0176767Y0291981D01*
X0176629Y0291898D01*
X0176490Y0291818D01*
X0176348Y0291742D01*
X0176205Y0291669D01*
X0176060Y0291600D01*
X0175913Y0291534D01*
X0175765Y0291472D01*
X0175615Y0291414D01*
X0175464Y0291359D01*
X0175311Y0291308D01*
X0175157Y0291261D01*
X0175002Y0291218D01*
X0174846Y0291179D01*
X0174690Y0291143D01*
X0174532Y0291112D01*
X0174374Y0291084D01*
X0174215Y0291060D01*
X0174055Y0291040D01*
X0173895Y0291024D01*
X0173735Y0291012D01*
X0173574Y0291004D01*
X0173413Y0291000D01*
X0173253Y0291000D01*
X0173092Y0291004D01*
X0172931Y0291012D01*
X0172771Y0291024D01*
X0172611Y0291040D01*
X0172451Y0291060D01*
X0172292Y0291084D01*
X0172134Y0291112D01*
X0171976Y0291143D01*
X0171820Y0291179D01*
X0171664Y0291218D01*
X0171509Y0291261D01*
X0171355Y0291308D01*
X0171202Y0291359D01*
X0171051Y0291414D01*
X0170901Y0291472D01*
X0170753Y0291534D01*
X0170606Y0291600D01*
X0170461Y0291669D01*
X0170318Y0291742D01*
X0170176Y0291818D01*
X0170037Y0291898D01*
X0169899Y0291981D01*
X0169764Y0292068D01*
X0169630Y0292158D01*
X0169499Y0292251D01*
X0169371Y0292347D01*
X0169245Y0292447D01*
X0169121Y0292550D01*
X0169000Y0292655D01*
X0168881Y0292764D01*
X0168765Y0292875D01*
X0168652Y0292990D01*
X0168542Y0293107D01*
X0168435Y0293227D01*
X0168331Y0293349D01*
X0168230Y0293474D01*
X0168132Y0293602D01*
X0168037Y0293732D01*
X0167945Y0293864D01*
X0167857Y0293998D01*
X0167772Y0294135D01*
X0167690Y0294273D01*
X0167612Y0294414D01*
X0167538Y0294556D01*
X0167467Y0294700D01*
X0167399Y0294846D01*
X0167336Y0294994D01*
X0167275Y0295143D01*
X0167219Y0295294D01*
X0167166Y0295446D01*
X0167117Y0295599D01*
X0167072Y0295753D01*
X0167031Y0295908D01*
X0166993Y0296065D01*
X0166960Y0296222D01*
X0166930Y0296380D01*
X0166904Y0296539D01*
X0166883Y0296698D01*
X0166865Y0296858D01*
X0166851Y0297018D01*
X0166841Y0297179D01*
X0166835Y0297339D01*
X0166833Y0297500D01*
X0236833Y0297500D02*
X0236835Y0297661D01*
X0236841Y0297821D01*
X0236851Y0297982D01*
X0236865Y0298142D01*
X0236883Y0298302D01*
X0236904Y0298461D01*
X0236930Y0298620D01*
X0236960Y0298778D01*
X0236993Y0298935D01*
X0237031Y0299092D01*
X0237072Y0299247D01*
X0237117Y0299401D01*
X0237166Y0299554D01*
X0237219Y0299706D01*
X0237275Y0299857D01*
X0237336Y0300006D01*
X0237399Y0300154D01*
X0237467Y0300300D01*
X0237538Y0300444D01*
X0237612Y0300586D01*
X0237690Y0300727D01*
X0237772Y0300865D01*
X0237857Y0301002D01*
X0237945Y0301136D01*
X0238037Y0301268D01*
X0238132Y0301398D01*
X0238230Y0301526D01*
X0238331Y0301651D01*
X0238435Y0301773D01*
X0238542Y0301893D01*
X0238652Y0302010D01*
X0238765Y0302125D01*
X0238881Y0302236D01*
X0239000Y0302345D01*
X0239121Y0302450D01*
X0239245Y0302553D01*
X0239371Y0302653D01*
X0239499Y0302749D01*
X0239630Y0302842D01*
X0239764Y0302932D01*
X0239899Y0303019D01*
X0240037Y0303102D01*
X0240176Y0303182D01*
X0240318Y0303258D01*
X0240461Y0303331D01*
X0240606Y0303400D01*
X0240753Y0303466D01*
X0240901Y0303528D01*
X0241051Y0303586D01*
X0241202Y0303641D01*
X0241355Y0303692D01*
X0241509Y0303739D01*
X0241664Y0303782D01*
X0241820Y0303821D01*
X0241976Y0303857D01*
X0242134Y0303888D01*
X0242292Y0303916D01*
X0242451Y0303940D01*
X0242611Y0303960D01*
X0242771Y0303976D01*
X0242931Y0303988D01*
X0243092Y0303996D01*
X0243253Y0304000D01*
X0243413Y0304000D01*
X0243574Y0303996D01*
X0243735Y0303988D01*
X0243895Y0303976D01*
X0244055Y0303960D01*
X0244215Y0303940D01*
X0244374Y0303916D01*
X0244532Y0303888D01*
X0244690Y0303857D01*
X0244846Y0303821D01*
X0245002Y0303782D01*
X0245157Y0303739D01*
X0245311Y0303692D01*
X0245464Y0303641D01*
X0245615Y0303586D01*
X0245765Y0303528D01*
X0245913Y0303466D01*
X0246060Y0303400D01*
X0246205Y0303331D01*
X0246348Y0303258D01*
X0246490Y0303182D01*
X0246629Y0303102D01*
X0246767Y0303019D01*
X0246902Y0302932D01*
X0247036Y0302842D01*
X0247167Y0302749D01*
X0247295Y0302653D01*
X0247421Y0302553D01*
X0247545Y0302450D01*
X0247666Y0302345D01*
X0247785Y0302236D01*
X0247901Y0302125D01*
X0248014Y0302010D01*
X0248124Y0301893D01*
X0248231Y0301773D01*
X0248335Y0301651D01*
X0248436Y0301526D01*
X0248534Y0301398D01*
X0248629Y0301268D01*
X0248721Y0301136D01*
X0248809Y0301002D01*
X0248894Y0300865D01*
X0248976Y0300727D01*
X0249054Y0300586D01*
X0249128Y0300444D01*
X0249199Y0300300D01*
X0249267Y0300154D01*
X0249330Y0300006D01*
X0249391Y0299857D01*
X0249447Y0299706D01*
X0249500Y0299554D01*
X0249549Y0299401D01*
X0249594Y0299247D01*
X0249635Y0299092D01*
X0249673Y0298935D01*
X0249706Y0298778D01*
X0249736Y0298620D01*
X0249762Y0298461D01*
X0249783Y0298302D01*
X0249801Y0298142D01*
X0249815Y0297982D01*
X0249825Y0297821D01*
X0249831Y0297661D01*
X0249833Y0297500D01*
X0249831Y0297339D01*
X0249825Y0297179D01*
X0249815Y0297018D01*
X0249801Y0296858D01*
X0249783Y0296698D01*
X0249762Y0296539D01*
X0249736Y0296380D01*
X0249706Y0296222D01*
X0249673Y0296065D01*
X0249635Y0295908D01*
X0249594Y0295753D01*
X0249549Y0295599D01*
X0249500Y0295446D01*
X0249447Y0295294D01*
X0249391Y0295143D01*
X0249330Y0294994D01*
X0249267Y0294846D01*
X0249199Y0294700D01*
X0249128Y0294556D01*
X0249054Y0294414D01*
X0248976Y0294273D01*
X0248894Y0294135D01*
X0248809Y0293998D01*
X0248721Y0293864D01*
X0248629Y0293732D01*
X0248534Y0293602D01*
X0248436Y0293474D01*
X0248335Y0293349D01*
X0248231Y0293227D01*
X0248124Y0293107D01*
X0248014Y0292990D01*
X0247901Y0292875D01*
X0247785Y0292764D01*
X0247666Y0292655D01*
X0247545Y0292550D01*
X0247421Y0292447D01*
X0247295Y0292347D01*
X0247167Y0292251D01*
X0247036Y0292158D01*
X0246902Y0292068D01*
X0246767Y0291981D01*
X0246629Y0291898D01*
X0246490Y0291818D01*
X0246348Y0291742D01*
X0246205Y0291669D01*
X0246060Y0291600D01*
X0245913Y0291534D01*
X0245765Y0291472D01*
X0245615Y0291414D01*
X0245464Y0291359D01*
X0245311Y0291308D01*
X0245157Y0291261D01*
X0245002Y0291218D01*
X0244846Y0291179D01*
X0244690Y0291143D01*
X0244532Y0291112D01*
X0244374Y0291084D01*
X0244215Y0291060D01*
X0244055Y0291040D01*
X0243895Y0291024D01*
X0243735Y0291012D01*
X0243574Y0291004D01*
X0243413Y0291000D01*
X0243253Y0291000D01*
X0243092Y0291004D01*
X0242931Y0291012D01*
X0242771Y0291024D01*
X0242611Y0291040D01*
X0242451Y0291060D01*
X0242292Y0291084D01*
X0242134Y0291112D01*
X0241976Y0291143D01*
X0241820Y0291179D01*
X0241664Y0291218D01*
X0241509Y0291261D01*
X0241355Y0291308D01*
X0241202Y0291359D01*
X0241051Y0291414D01*
X0240901Y0291472D01*
X0240753Y0291534D01*
X0240606Y0291600D01*
X0240461Y0291669D01*
X0240318Y0291742D01*
X0240176Y0291818D01*
X0240037Y0291898D01*
X0239899Y0291981D01*
X0239764Y0292068D01*
X0239630Y0292158D01*
X0239499Y0292251D01*
X0239371Y0292347D01*
X0239245Y0292447D01*
X0239121Y0292550D01*
X0239000Y0292655D01*
X0238881Y0292764D01*
X0238765Y0292875D01*
X0238652Y0292990D01*
X0238542Y0293107D01*
X0238435Y0293227D01*
X0238331Y0293349D01*
X0238230Y0293474D01*
X0238132Y0293602D01*
X0238037Y0293732D01*
X0237945Y0293864D01*
X0237857Y0293998D01*
X0237772Y0294135D01*
X0237690Y0294273D01*
X0237612Y0294414D01*
X0237538Y0294556D01*
X0237467Y0294700D01*
X0237399Y0294846D01*
X0237336Y0294994D01*
X0237275Y0295143D01*
X0237219Y0295294D01*
X0237166Y0295446D01*
X0237117Y0295599D01*
X0237072Y0295753D01*
X0237031Y0295908D01*
X0236993Y0296065D01*
X0236960Y0296222D01*
X0236930Y0296380D01*
X0236904Y0296539D01*
X0236883Y0296698D01*
X0236865Y0296858D01*
X0236851Y0297018D01*
X0236841Y0297179D01*
X0236835Y0297339D01*
X0236833Y0297500D01*
X0268833Y0297500D02*
X0268835Y0297661D01*
X0268841Y0297821D01*
X0268851Y0297982D01*
X0268865Y0298142D01*
X0268883Y0298302D01*
X0268904Y0298461D01*
X0268930Y0298620D01*
X0268960Y0298778D01*
X0268993Y0298935D01*
X0269031Y0299092D01*
X0269072Y0299247D01*
X0269117Y0299401D01*
X0269166Y0299554D01*
X0269219Y0299706D01*
X0269275Y0299857D01*
X0269336Y0300006D01*
X0269399Y0300154D01*
X0269467Y0300300D01*
X0269538Y0300444D01*
X0269612Y0300586D01*
X0269690Y0300727D01*
X0269772Y0300865D01*
X0269857Y0301002D01*
X0269945Y0301136D01*
X0270037Y0301268D01*
X0270132Y0301398D01*
X0270230Y0301526D01*
X0270331Y0301651D01*
X0270435Y0301773D01*
X0270542Y0301893D01*
X0270652Y0302010D01*
X0270765Y0302125D01*
X0270881Y0302236D01*
X0271000Y0302345D01*
X0271121Y0302450D01*
X0271245Y0302553D01*
X0271371Y0302653D01*
X0271499Y0302749D01*
X0271630Y0302842D01*
X0271764Y0302932D01*
X0271899Y0303019D01*
X0272037Y0303102D01*
X0272176Y0303182D01*
X0272318Y0303258D01*
X0272461Y0303331D01*
X0272606Y0303400D01*
X0272753Y0303466D01*
X0272901Y0303528D01*
X0273051Y0303586D01*
X0273202Y0303641D01*
X0273355Y0303692D01*
X0273509Y0303739D01*
X0273664Y0303782D01*
X0273820Y0303821D01*
X0273976Y0303857D01*
X0274134Y0303888D01*
X0274292Y0303916D01*
X0274451Y0303940D01*
X0274611Y0303960D01*
X0274771Y0303976D01*
X0274931Y0303988D01*
X0275092Y0303996D01*
X0275253Y0304000D01*
X0275413Y0304000D01*
X0275574Y0303996D01*
X0275735Y0303988D01*
X0275895Y0303976D01*
X0276055Y0303960D01*
X0276215Y0303940D01*
X0276374Y0303916D01*
X0276532Y0303888D01*
X0276690Y0303857D01*
X0276846Y0303821D01*
X0277002Y0303782D01*
X0277157Y0303739D01*
X0277311Y0303692D01*
X0277464Y0303641D01*
X0277615Y0303586D01*
X0277765Y0303528D01*
X0277913Y0303466D01*
X0278060Y0303400D01*
X0278205Y0303331D01*
X0278348Y0303258D01*
X0278490Y0303182D01*
X0278629Y0303102D01*
X0278767Y0303019D01*
X0278902Y0302932D01*
X0279036Y0302842D01*
X0279167Y0302749D01*
X0279295Y0302653D01*
X0279421Y0302553D01*
X0279545Y0302450D01*
X0279666Y0302345D01*
X0279785Y0302236D01*
X0279901Y0302125D01*
X0280014Y0302010D01*
X0280124Y0301893D01*
X0280231Y0301773D01*
X0280335Y0301651D01*
X0280436Y0301526D01*
X0280534Y0301398D01*
X0280629Y0301268D01*
X0280721Y0301136D01*
X0280809Y0301002D01*
X0280894Y0300865D01*
X0280976Y0300727D01*
X0281054Y0300586D01*
X0281128Y0300444D01*
X0281199Y0300300D01*
X0281267Y0300154D01*
X0281330Y0300006D01*
X0281391Y0299857D01*
X0281447Y0299706D01*
X0281500Y0299554D01*
X0281549Y0299401D01*
X0281594Y0299247D01*
X0281635Y0299092D01*
X0281673Y0298935D01*
X0281706Y0298778D01*
X0281736Y0298620D01*
X0281762Y0298461D01*
X0281783Y0298302D01*
X0281801Y0298142D01*
X0281815Y0297982D01*
X0281825Y0297821D01*
X0281831Y0297661D01*
X0281833Y0297500D01*
X0281831Y0297339D01*
X0281825Y0297179D01*
X0281815Y0297018D01*
X0281801Y0296858D01*
X0281783Y0296698D01*
X0281762Y0296539D01*
X0281736Y0296380D01*
X0281706Y0296222D01*
X0281673Y0296065D01*
X0281635Y0295908D01*
X0281594Y0295753D01*
X0281549Y0295599D01*
X0281500Y0295446D01*
X0281447Y0295294D01*
X0281391Y0295143D01*
X0281330Y0294994D01*
X0281267Y0294846D01*
X0281199Y0294700D01*
X0281128Y0294556D01*
X0281054Y0294414D01*
X0280976Y0294273D01*
X0280894Y0294135D01*
X0280809Y0293998D01*
X0280721Y0293864D01*
X0280629Y0293732D01*
X0280534Y0293602D01*
X0280436Y0293474D01*
X0280335Y0293349D01*
X0280231Y0293227D01*
X0280124Y0293107D01*
X0280014Y0292990D01*
X0279901Y0292875D01*
X0279785Y0292764D01*
X0279666Y0292655D01*
X0279545Y0292550D01*
X0279421Y0292447D01*
X0279295Y0292347D01*
X0279167Y0292251D01*
X0279036Y0292158D01*
X0278902Y0292068D01*
X0278767Y0291981D01*
X0278629Y0291898D01*
X0278490Y0291818D01*
X0278348Y0291742D01*
X0278205Y0291669D01*
X0278060Y0291600D01*
X0277913Y0291534D01*
X0277765Y0291472D01*
X0277615Y0291414D01*
X0277464Y0291359D01*
X0277311Y0291308D01*
X0277157Y0291261D01*
X0277002Y0291218D01*
X0276846Y0291179D01*
X0276690Y0291143D01*
X0276532Y0291112D01*
X0276374Y0291084D01*
X0276215Y0291060D01*
X0276055Y0291040D01*
X0275895Y0291024D01*
X0275735Y0291012D01*
X0275574Y0291004D01*
X0275413Y0291000D01*
X0275253Y0291000D01*
X0275092Y0291004D01*
X0274931Y0291012D01*
X0274771Y0291024D01*
X0274611Y0291040D01*
X0274451Y0291060D01*
X0274292Y0291084D01*
X0274134Y0291112D01*
X0273976Y0291143D01*
X0273820Y0291179D01*
X0273664Y0291218D01*
X0273509Y0291261D01*
X0273355Y0291308D01*
X0273202Y0291359D01*
X0273051Y0291414D01*
X0272901Y0291472D01*
X0272753Y0291534D01*
X0272606Y0291600D01*
X0272461Y0291669D01*
X0272318Y0291742D01*
X0272176Y0291818D01*
X0272037Y0291898D01*
X0271899Y0291981D01*
X0271764Y0292068D01*
X0271630Y0292158D01*
X0271499Y0292251D01*
X0271371Y0292347D01*
X0271245Y0292447D01*
X0271121Y0292550D01*
X0271000Y0292655D01*
X0270881Y0292764D01*
X0270765Y0292875D01*
X0270652Y0292990D01*
X0270542Y0293107D01*
X0270435Y0293227D01*
X0270331Y0293349D01*
X0270230Y0293474D01*
X0270132Y0293602D01*
X0270037Y0293732D01*
X0269945Y0293864D01*
X0269857Y0293998D01*
X0269772Y0294135D01*
X0269690Y0294273D01*
X0269612Y0294414D01*
X0269538Y0294556D01*
X0269467Y0294700D01*
X0269399Y0294846D01*
X0269336Y0294994D01*
X0269275Y0295143D01*
X0269219Y0295294D01*
X0269166Y0295446D01*
X0269117Y0295599D01*
X0269072Y0295753D01*
X0269031Y0295908D01*
X0268993Y0296065D01*
X0268960Y0296222D01*
X0268930Y0296380D01*
X0268904Y0296539D01*
X0268883Y0296698D01*
X0268865Y0296858D01*
X0268851Y0297018D01*
X0268841Y0297179D01*
X0268835Y0297339D01*
X0268833Y0297500D01*
X0338833Y0297500D02*
X0338835Y0297661D01*
X0338841Y0297821D01*
X0338851Y0297982D01*
X0338865Y0298142D01*
X0338883Y0298302D01*
X0338904Y0298461D01*
X0338930Y0298620D01*
X0338960Y0298778D01*
X0338993Y0298935D01*
X0339031Y0299092D01*
X0339072Y0299247D01*
X0339117Y0299401D01*
X0339166Y0299554D01*
X0339219Y0299706D01*
X0339275Y0299857D01*
X0339336Y0300006D01*
X0339399Y0300154D01*
X0339467Y0300300D01*
X0339538Y0300444D01*
X0339612Y0300586D01*
X0339690Y0300727D01*
X0339772Y0300865D01*
X0339857Y0301002D01*
X0339945Y0301136D01*
X0340037Y0301268D01*
X0340132Y0301398D01*
X0340230Y0301526D01*
X0340331Y0301651D01*
X0340435Y0301773D01*
X0340542Y0301893D01*
X0340652Y0302010D01*
X0340765Y0302125D01*
X0340881Y0302236D01*
X0341000Y0302345D01*
X0341121Y0302450D01*
X0341245Y0302553D01*
X0341371Y0302653D01*
X0341499Y0302749D01*
X0341630Y0302842D01*
X0341764Y0302932D01*
X0341899Y0303019D01*
X0342037Y0303102D01*
X0342176Y0303182D01*
X0342318Y0303258D01*
X0342461Y0303331D01*
X0342606Y0303400D01*
X0342753Y0303466D01*
X0342901Y0303528D01*
X0343051Y0303586D01*
X0343202Y0303641D01*
X0343355Y0303692D01*
X0343509Y0303739D01*
X0343664Y0303782D01*
X0343820Y0303821D01*
X0343976Y0303857D01*
X0344134Y0303888D01*
X0344292Y0303916D01*
X0344451Y0303940D01*
X0344611Y0303960D01*
X0344771Y0303976D01*
X0344931Y0303988D01*
X0345092Y0303996D01*
X0345253Y0304000D01*
X0345413Y0304000D01*
X0345574Y0303996D01*
X0345735Y0303988D01*
X0345895Y0303976D01*
X0346055Y0303960D01*
X0346215Y0303940D01*
X0346374Y0303916D01*
X0346532Y0303888D01*
X0346690Y0303857D01*
X0346846Y0303821D01*
X0347002Y0303782D01*
X0347157Y0303739D01*
X0347311Y0303692D01*
X0347464Y0303641D01*
X0347615Y0303586D01*
X0347765Y0303528D01*
X0347913Y0303466D01*
X0348060Y0303400D01*
X0348205Y0303331D01*
X0348348Y0303258D01*
X0348490Y0303182D01*
X0348629Y0303102D01*
X0348767Y0303019D01*
X0348902Y0302932D01*
X0349036Y0302842D01*
X0349167Y0302749D01*
X0349295Y0302653D01*
X0349421Y0302553D01*
X0349545Y0302450D01*
X0349666Y0302345D01*
X0349785Y0302236D01*
X0349901Y0302125D01*
X0350014Y0302010D01*
X0350124Y0301893D01*
X0350231Y0301773D01*
X0350335Y0301651D01*
X0350436Y0301526D01*
X0350534Y0301398D01*
X0350629Y0301268D01*
X0350721Y0301136D01*
X0350809Y0301002D01*
X0350894Y0300865D01*
X0350976Y0300727D01*
X0351054Y0300586D01*
X0351128Y0300444D01*
X0351199Y0300300D01*
X0351267Y0300154D01*
X0351330Y0300006D01*
X0351391Y0299857D01*
X0351447Y0299706D01*
X0351500Y0299554D01*
X0351549Y0299401D01*
X0351594Y0299247D01*
X0351635Y0299092D01*
X0351673Y0298935D01*
X0351706Y0298778D01*
X0351736Y0298620D01*
X0351762Y0298461D01*
X0351783Y0298302D01*
X0351801Y0298142D01*
X0351815Y0297982D01*
X0351825Y0297821D01*
X0351831Y0297661D01*
X0351833Y0297500D01*
X0351831Y0297339D01*
X0351825Y0297179D01*
X0351815Y0297018D01*
X0351801Y0296858D01*
X0351783Y0296698D01*
X0351762Y0296539D01*
X0351736Y0296380D01*
X0351706Y0296222D01*
X0351673Y0296065D01*
X0351635Y0295908D01*
X0351594Y0295753D01*
X0351549Y0295599D01*
X0351500Y0295446D01*
X0351447Y0295294D01*
X0351391Y0295143D01*
X0351330Y0294994D01*
X0351267Y0294846D01*
X0351199Y0294700D01*
X0351128Y0294556D01*
X0351054Y0294414D01*
X0350976Y0294273D01*
X0350894Y0294135D01*
X0350809Y0293998D01*
X0350721Y0293864D01*
X0350629Y0293732D01*
X0350534Y0293602D01*
X0350436Y0293474D01*
X0350335Y0293349D01*
X0350231Y0293227D01*
X0350124Y0293107D01*
X0350014Y0292990D01*
X0349901Y0292875D01*
X0349785Y0292764D01*
X0349666Y0292655D01*
X0349545Y0292550D01*
X0349421Y0292447D01*
X0349295Y0292347D01*
X0349167Y0292251D01*
X0349036Y0292158D01*
X0348902Y0292068D01*
X0348767Y0291981D01*
X0348629Y0291898D01*
X0348490Y0291818D01*
X0348348Y0291742D01*
X0348205Y0291669D01*
X0348060Y0291600D01*
X0347913Y0291534D01*
X0347765Y0291472D01*
X0347615Y0291414D01*
X0347464Y0291359D01*
X0347311Y0291308D01*
X0347157Y0291261D01*
X0347002Y0291218D01*
X0346846Y0291179D01*
X0346690Y0291143D01*
X0346532Y0291112D01*
X0346374Y0291084D01*
X0346215Y0291060D01*
X0346055Y0291040D01*
X0345895Y0291024D01*
X0345735Y0291012D01*
X0345574Y0291004D01*
X0345413Y0291000D01*
X0345253Y0291000D01*
X0345092Y0291004D01*
X0344931Y0291012D01*
X0344771Y0291024D01*
X0344611Y0291040D01*
X0344451Y0291060D01*
X0344292Y0291084D01*
X0344134Y0291112D01*
X0343976Y0291143D01*
X0343820Y0291179D01*
X0343664Y0291218D01*
X0343509Y0291261D01*
X0343355Y0291308D01*
X0343202Y0291359D01*
X0343051Y0291414D01*
X0342901Y0291472D01*
X0342753Y0291534D01*
X0342606Y0291600D01*
X0342461Y0291669D01*
X0342318Y0291742D01*
X0342176Y0291818D01*
X0342037Y0291898D01*
X0341899Y0291981D01*
X0341764Y0292068D01*
X0341630Y0292158D01*
X0341499Y0292251D01*
X0341371Y0292347D01*
X0341245Y0292447D01*
X0341121Y0292550D01*
X0341000Y0292655D01*
X0340881Y0292764D01*
X0340765Y0292875D01*
X0340652Y0292990D01*
X0340542Y0293107D01*
X0340435Y0293227D01*
X0340331Y0293349D01*
X0340230Y0293474D01*
X0340132Y0293602D01*
X0340037Y0293732D01*
X0339945Y0293864D01*
X0339857Y0293998D01*
X0339772Y0294135D01*
X0339690Y0294273D01*
X0339612Y0294414D01*
X0339538Y0294556D01*
X0339467Y0294700D01*
X0339399Y0294846D01*
X0339336Y0294994D01*
X0339275Y0295143D01*
X0339219Y0295294D01*
X0339166Y0295446D01*
X0339117Y0295599D01*
X0339072Y0295753D01*
X0339031Y0295908D01*
X0338993Y0296065D01*
X0338960Y0296222D01*
X0338930Y0296380D01*
X0338904Y0296539D01*
X0338883Y0296698D01*
X0338865Y0296858D01*
X0338851Y0297018D01*
X0338841Y0297179D01*
X0338835Y0297339D01*
X0338833Y0297500D01*
X0338833Y0195500D02*
X0338835Y0195661D01*
X0338841Y0195821D01*
X0338851Y0195982D01*
X0338865Y0196142D01*
X0338883Y0196302D01*
X0338904Y0196461D01*
X0338930Y0196620D01*
X0338960Y0196778D01*
X0338993Y0196935D01*
X0339031Y0197092D01*
X0339072Y0197247D01*
X0339117Y0197401D01*
X0339166Y0197554D01*
X0339219Y0197706D01*
X0339275Y0197857D01*
X0339336Y0198006D01*
X0339399Y0198154D01*
X0339467Y0198300D01*
X0339538Y0198444D01*
X0339612Y0198586D01*
X0339690Y0198727D01*
X0339772Y0198865D01*
X0339857Y0199002D01*
X0339945Y0199136D01*
X0340037Y0199268D01*
X0340132Y0199398D01*
X0340230Y0199526D01*
X0340331Y0199651D01*
X0340435Y0199773D01*
X0340542Y0199893D01*
X0340652Y0200010D01*
X0340765Y0200125D01*
X0340881Y0200236D01*
X0341000Y0200345D01*
X0341121Y0200450D01*
X0341245Y0200553D01*
X0341371Y0200653D01*
X0341499Y0200749D01*
X0341630Y0200842D01*
X0341764Y0200932D01*
X0341899Y0201019D01*
X0342037Y0201102D01*
X0342176Y0201182D01*
X0342318Y0201258D01*
X0342461Y0201331D01*
X0342606Y0201400D01*
X0342753Y0201466D01*
X0342901Y0201528D01*
X0343051Y0201586D01*
X0343202Y0201641D01*
X0343355Y0201692D01*
X0343509Y0201739D01*
X0343664Y0201782D01*
X0343820Y0201821D01*
X0343976Y0201857D01*
X0344134Y0201888D01*
X0344292Y0201916D01*
X0344451Y0201940D01*
X0344611Y0201960D01*
X0344771Y0201976D01*
X0344931Y0201988D01*
X0345092Y0201996D01*
X0345253Y0202000D01*
X0345413Y0202000D01*
X0345574Y0201996D01*
X0345735Y0201988D01*
X0345895Y0201976D01*
X0346055Y0201960D01*
X0346215Y0201940D01*
X0346374Y0201916D01*
X0346532Y0201888D01*
X0346690Y0201857D01*
X0346846Y0201821D01*
X0347002Y0201782D01*
X0347157Y0201739D01*
X0347311Y0201692D01*
X0347464Y0201641D01*
X0347615Y0201586D01*
X0347765Y0201528D01*
X0347913Y0201466D01*
X0348060Y0201400D01*
X0348205Y0201331D01*
X0348348Y0201258D01*
X0348490Y0201182D01*
X0348629Y0201102D01*
X0348767Y0201019D01*
X0348902Y0200932D01*
X0349036Y0200842D01*
X0349167Y0200749D01*
X0349295Y0200653D01*
X0349421Y0200553D01*
X0349545Y0200450D01*
X0349666Y0200345D01*
X0349785Y0200236D01*
X0349901Y0200125D01*
X0350014Y0200010D01*
X0350124Y0199893D01*
X0350231Y0199773D01*
X0350335Y0199651D01*
X0350436Y0199526D01*
X0350534Y0199398D01*
X0350629Y0199268D01*
X0350721Y0199136D01*
X0350809Y0199002D01*
X0350894Y0198865D01*
X0350976Y0198727D01*
X0351054Y0198586D01*
X0351128Y0198444D01*
X0351199Y0198300D01*
X0351267Y0198154D01*
X0351330Y0198006D01*
X0351391Y0197857D01*
X0351447Y0197706D01*
X0351500Y0197554D01*
X0351549Y0197401D01*
X0351594Y0197247D01*
X0351635Y0197092D01*
X0351673Y0196935D01*
X0351706Y0196778D01*
X0351736Y0196620D01*
X0351762Y0196461D01*
X0351783Y0196302D01*
X0351801Y0196142D01*
X0351815Y0195982D01*
X0351825Y0195821D01*
X0351831Y0195661D01*
X0351833Y0195500D01*
X0351831Y0195339D01*
X0351825Y0195179D01*
X0351815Y0195018D01*
X0351801Y0194858D01*
X0351783Y0194698D01*
X0351762Y0194539D01*
X0351736Y0194380D01*
X0351706Y0194222D01*
X0351673Y0194065D01*
X0351635Y0193908D01*
X0351594Y0193753D01*
X0351549Y0193599D01*
X0351500Y0193446D01*
X0351447Y0193294D01*
X0351391Y0193143D01*
X0351330Y0192994D01*
X0351267Y0192846D01*
X0351199Y0192700D01*
X0351128Y0192556D01*
X0351054Y0192414D01*
X0350976Y0192273D01*
X0350894Y0192135D01*
X0350809Y0191998D01*
X0350721Y0191864D01*
X0350629Y0191732D01*
X0350534Y0191602D01*
X0350436Y0191474D01*
X0350335Y0191349D01*
X0350231Y0191227D01*
X0350124Y0191107D01*
X0350014Y0190990D01*
X0349901Y0190875D01*
X0349785Y0190764D01*
X0349666Y0190655D01*
X0349545Y0190550D01*
X0349421Y0190447D01*
X0349295Y0190347D01*
X0349167Y0190251D01*
X0349036Y0190158D01*
X0348902Y0190068D01*
X0348767Y0189981D01*
X0348629Y0189898D01*
X0348490Y0189818D01*
X0348348Y0189742D01*
X0348205Y0189669D01*
X0348060Y0189600D01*
X0347913Y0189534D01*
X0347765Y0189472D01*
X0347615Y0189414D01*
X0347464Y0189359D01*
X0347311Y0189308D01*
X0347157Y0189261D01*
X0347002Y0189218D01*
X0346846Y0189179D01*
X0346690Y0189143D01*
X0346532Y0189112D01*
X0346374Y0189084D01*
X0346215Y0189060D01*
X0346055Y0189040D01*
X0345895Y0189024D01*
X0345735Y0189012D01*
X0345574Y0189004D01*
X0345413Y0189000D01*
X0345253Y0189000D01*
X0345092Y0189004D01*
X0344931Y0189012D01*
X0344771Y0189024D01*
X0344611Y0189040D01*
X0344451Y0189060D01*
X0344292Y0189084D01*
X0344134Y0189112D01*
X0343976Y0189143D01*
X0343820Y0189179D01*
X0343664Y0189218D01*
X0343509Y0189261D01*
X0343355Y0189308D01*
X0343202Y0189359D01*
X0343051Y0189414D01*
X0342901Y0189472D01*
X0342753Y0189534D01*
X0342606Y0189600D01*
X0342461Y0189669D01*
X0342318Y0189742D01*
X0342176Y0189818D01*
X0342037Y0189898D01*
X0341899Y0189981D01*
X0341764Y0190068D01*
X0341630Y0190158D01*
X0341499Y0190251D01*
X0341371Y0190347D01*
X0341245Y0190447D01*
X0341121Y0190550D01*
X0341000Y0190655D01*
X0340881Y0190764D01*
X0340765Y0190875D01*
X0340652Y0190990D01*
X0340542Y0191107D01*
X0340435Y0191227D01*
X0340331Y0191349D01*
X0340230Y0191474D01*
X0340132Y0191602D01*
X0340037Y0191732D01*
X0339945Y0191864D01*
X0339857Y0191998D01*
X0339772Y0192135D01*
X0339690Y0192273D01*
X0339612Y0192414D01*
X0339538Y0192556D01*
X0339467Y0192700D01*
X0339399Y0192846D01*
X0339336Y0192994D01*
X0339275Y0193143D01*
X0339219Y0193294D01*
X0339166Y0193446D01*
X0339117Y0193599D01*
X0339072Y0193753D01*
X0339031Y0193908D01*
X0338993Y0194065D01*
X0338960Y0194222D01*
X0338930Y0194380D01*
X0338904Y0194539D01*
X0338883Y0194698D01*
X0338865Y0194858D01*
X0338851Y0195018D01*
X0338841Y0195179D01*
X0338835Y0195339D01*
X0338833Y0195500D01*
X0268833Y0195500D02*
X0268835Y0195661D01*
X0268841Y0195821D01*
X0268851Y0195982D01*
X0268865Y0196142D01*
X0268883Y0196302D01*
X0268904Y0196461D01*
X0268930Y0196620D01*
X0268960Y0196778D01*
X0268993Y0196935D01*
X0269031Y0197092D01*
X0269072Y0197247D01*
X0269117Y0197401D01*
X0269166Y0197554D01*
X0269219Y0197706D01*
X0269275Y0197857D01*
X0269336Y0198006D01*
X0269399Y0198154D01*
X0269467Y0198300D01*
X0269538Y0198444D01*
X0269612Y0198586D01*
X0269690Y0198727D01*
X0269772Y0198865D01*
X0269857Y0199002D01*
X0269945Y0199136D01*
X0270037Y0199268D01*
X0270132Y0199398D01*
X0270230Y0199526D01*
X0270331Y0199651D01*
X0270435Y0199773D01*
X0270542Y0199893D01*
X0270652Y0200010D01*
X0270765Y0200125D01*
X0270881Y0200236D01*
X0271000Y0200345D01*
X0271121Y0200450D01*
X0271245Y0200553D01*
X0271371Y0200653D01*
X0271499Y0200749D01*
X0271630Y0200842D01*
X0271764Y0200932D01*
X0271899Y0201019D01*
X0272037Y0201102D01*
X0272176Y0201182D01*
X0272318Y0201258D01*
X0272461Y0201331D01*
X0272606Y0201400D01*
X0272753Y0201466D01*
X0272901Y0201528D01*
X0273051Y0201586D01*
X0273202Y0201641D01*
X0273355Y0201692D01*
X0273509Y0201739D01*
X0273664Y0201782D01*
X0273820Y0201821D01*
X0273976Y0201857D01*
X0274134Y0201888D01*
X0274292Y0201916D01*
X0274451Y0201940D01*
X0274611Y0201960D01*
X0274771Y0201976D01*
X0274931Y0201988D01*
X0275092Y0201996D01*
X0275253Y0202000D01*
X0275413Y0202000D01*
X0275574Y0201996D01*
X0275735Y0201988D01*
X0275895Y0201976D01*
X0276055Y0201960D01*
X0276215Y0201940D01*
X0276374Y0201916D01*
X0276532Y0201888D01*
X0276690Y0201857D01*
X0276846Y0201821D01*
X0277002Y0201782D01*
X0277157Y0201739D01*
X0277311Y0201692D01*
X0277464Y0201641D01*
X0277615Y0201586D01*
X0277765Y0201528D01*
X0277913Y0201466D01*
X0278060Y0201400D01*
X0278205Y0201331D01*
X0278348Y0201258D01*
X0278490Y0201182D01*
X0278629Y0201102D01*
X0278767Y0201019D01*
X0278902Y0200932D01*
X0279036Y0200842D01*
X0279167Y0200749D01*
X0279295Y0200653D01*
X0279421Y0200553D01*
X0279545Y0200450D01*
X0279666Y0200345D01*
X0279785Y0200236D01*
X0279901Y0200125D01*
X0280014Y0200010D01*
X0280124Y0199893D01*
X0280231Y0199773D01*
X0280335Y0199651D01*
X0280436Y0199526D01*
X0280534Y0199398D01*
X0280629Y0199268D01*
X0280721Y0199136D01*
X0280809Y0199002D01*
X0280894Y0198865D01*
X0280976Y0198727D01*
X0281054Y0198586D01*
X0281128Y0198444D01*
X0281199Y0198300D01*
X0281267Y0198154D01*
X0281330Y0198006D01*
X0281391Y0197857D01*
X0281447Y0197706D01*
X0281500Y0197554D01*
X0281549Y0197401D01*
X0281594Y0197247D01*
X0281635Y0197092D01*
X0281673Y0196935D01*
X0281706Y0196778D01*
X0281736Y0196620D01*
X0281762Y0196461D01*
X0281783Y0196302D01*
X0281801Y0196142D01*
X0281815Y0195982D01*
X0281825Y0195821D01*
X0281831Y0195661D01*
X0281833Y0195500D01*
X0281831Y0195339D01*
X0281825Y0195179D01*
X0281815Y0195018D01*
X0281801Y0194858D01*
X0281783Y0194698D01*
X0281762Y0194539D01*
X0281736Y0194380D01*
X0281706Y0194222D01*
X0281673Y0194065D01*
X0281635Y0193908D01*
X0281594Y0193753D01*
X0281549Y0193599D01*
X0281500Y0193446D01*
X0281447Y0193294D01*
X0281391Y0193143D01*
X0281330Y0192994D01*
X0281267Y0192846D01*
X0281199Y0192700D01*
X0281128Y0192556D01*
X0281054Y0192414D01*
X0280976Y0192273D01*
X0280894Y0192135D01*
X0280809Y0191998D01*
X0280721Y0191864D01*
X0280629Y0191732D01*
X0280534Y0191602D01*
X0280436Y0191474D01*
X0280335Y0191349D01*
X0280231Y0191227D01*
X0280124Y0191107D01*
X0280014Y0190990D01*
X0279901Y0190875D01*
X0279785Y0190764D01*
X0279666Y0190655D01*
X0279545Y0190550D01*
X0279421Y0190447D01*
X0279295Y0190347D01*
X0279167Y0190251D01*
X0279036Y0190158D01*
X0278902Y0190068D01*
X0278767Y0189981D01*
X0278629Y0189898D01*
X0278490Y0189818D01*
X0278348Y0189742D01*
X0278205Y0189669D01*
X0278060Y0189600D01*
X0277913Y0189534D01*
X0277765Y0189472D01*
X0277615Y0189414D01*
X0277464Y0189359D01*
X0277311Y0189308D01*
X0277157Y0189261D01*
X0277002Y0189218D01*
X0276846Y0189179D01*
X0276690Y0189143D01*
X0276532Y0189112D01*
X0276374Y0189084D01*
X0276215Y0189060D01*
X0276055Y0189040D01*
X0275895Y0189024D01*
X0275735Y0189012D01*
X0275574Y0189004D01*
X0275413Y0189000D01*
X0275253Y0189000D01*
X0275092Y0189004D01*
X0274931Y0189012D01*
X0274771Y0189024D01*
X0274611Y0189040D01*
X0274451Y0189060D01*
X0274292Y0189084D01*
X0274134Y0189112D01*
X0273976Y0189143D01*
X0273820Y0189179D01*
X0273664Y0189218D01*
X0273509Y0189261D01*
X0273355Y0189308D01*
X0273202Y0189359D01*
X0273051Y0189414D01*
X0272901Y0189472D01*
X0272753Y0189534D01*
X0272606Y0189600D01*
X0272461Y0189669D01*
X0272318Y0189742D01*
X0272176Y0189818D01*
X0272037Y0189898D01*
X0271899Y0189981D01*
X0271764Y0190068D01*
X0271630Y0190158D01*
X0271499Y0190251D01*
X0271371Y0190347D01*
X0271245Y0190447D01*
X0271121Y0190550D01*
X0271000Y0190655D01*
X0270881Y0190764D01*
X0270765Y0190875D01*
X0270652Y0190990D01*
X0270542Y0191107D01*
X0270435Y0191227D01*
X0270331Y0191349D01*
X0270230Y0191474D01*
X0270132Y0191602D01*
X0270037Y0191732D01*
X0269945Y0191864D01*
X0269857Y0191998D01*
X0269772Y0192135D01*
X0269690Y0192273D01*
X0269612Y0192414D01*
X0269538Y0192556D01*
X0269467Y0192700D01*
X0269399Y0192846D01*
X0269336Y0192994D01*
X0269275Y0193143D01*
X0269219Y0193294D01*
X0269166Y0193446D01*
X0269117Y0193599D01*
X0269072Y0193753D01*
X0269031Y0193908D01*
X0268993Y0194065D01*
X0268960Y0194222D01*
X0268930Y0194380D01*
X0268904Y0194539D01*
X0268883Y0194698D01*
X0268865Y0194858D01*
X0268851Y0195018D01*
X0268841Y0195179D01*
X0268835Y0195339D01*
X0268833Y0195500D01*
X0236833Y0195500D02*
X0236835Y0195661D01*
X0236841Y0195821D01*
X0236851Y0195982D01*
X0236865Y0196142D01*
X0236883Y0196302D01*
X0236904Y0196461D01*
X0236930Y0196620D01*
X0236960Y0196778D01*
X0236993Y0196935D01*
X0237031Y0197092D01*
X0237072Y0197247D01*
X0237117Y0197401D01*
X0237166Y0197554D01*
X0237219Y0197706D01*
X0237275Y0197857D01*
X0237336Y0198006D01*
X0237399Y0198154D01*
X0237467Y0198300D01*
X0237538Y0198444D01*
X0237612Y0198586D01*
X0237690Y0198727D01*
X0237772Y0198865D01*
X0237857Y0199002D01*
X0237945Y0199136D01*
X0238037Y0199268D01*
X0238132Y0199398D01*
X0238230Y0199526D01*
X0238331Y0199651D01*
X0238435Y0199773D01*
X0238542Y0199893D01*
X0238652Y0200010D01*
X0238765Y0200125D01*
X0238881Y0200236D01*
X0239000Y0200345D01*
X0239121Y0200450D01*
X0239245Y0200553D01*
X0239371Y0200653D01*
X0239499Y0200749D01*
X0239630Y0200842D01*
X0239764Y0200932D01*
X0239899Y0201019D01*
X0240037Y0201102D01*
X0240176Y0201182D01*
X0240318Y0201258D01*
X0240461Y0201331D01*
X0240606Y0201400D01*
X0240753Y0201466D01*
X0240901Y0201528D01*
X0241051Y0201586D01*
X0241202Y0201641D01*
X0241355Y0201692D01*
X0241509Y0201739D01*
X0241664Y0201782D01*
X0241820Y0201821D01*
X0241976Y0201857D01*
X0242134Y0201888D01*
X0242292Y0201916D01*
X0242451Y0201940D01*
X0242611Y0201960D01*
X0242771Y0201976D01*
X0242931Y0201988D01*
X0243092Y0201996D01*
X0243253Y0202000D01*
X0243413Y0202000D01*
X0243574Y0201996D01*
X0243735Y0201988D01*
X0243895Y0201976D01*
X0244055Y0201960D01*
X0244215Y0201940D01*
X0244374Y0201916D01*
X0244532Y0201888D01*
X0244690Y0201857D01*
X0244846Y0201821D01*
X0245002Y0201782D01*
X0245157Y0201739D01*
X0245311Y0201692D01*
X0245464Y0201641D01*
X0245615Y0201586D01*
X0245765Y0201528D01*
X0245913Y0201466D01*
X0246060Y0201400D01*
X0246205Y0201331D01*
X0246348Y0201258D01*
X0246490Y0201182D01*
X0246629Y0201102D01*
X0246767Y0201019D01*
X0246902Y0200932D01*
X0247036Y0200842D01*
X0247167Y0200749D01*
X0247295Y0200653D01*
X0247421Y0200553D01*
X0247545Y0200450D01*
X0247666Y0200345D01*
X0247785Y0200236D01*
X0247901Y0200125D01*
X0248014Y0200010D01*
X0248124Y0199893D01*
X0248231Y0199773D01*
X0248335Y0199651D01*
X0248436Y0199526D01*
X0248534Y0199398D01*
X0248629Y0199268D01*
X0248721Y0199136D01*
X0248809Y0199002D01*
X0248894Y0198865D01*
X0248976Y0198727D01*
X0249054Y0198586D01*
X0249128Y0198444D01*
X0249199Y0198300D01*
X0249267Y0198154D01*
X0249330Y0198006D01*
X0249391Y0197857D01*
X0249447Y0197706D01*
X0249500Y0197554D01*
X0249549Y0197401D01*
X0249594Y0197247D01*
X0249635Y0197092D01*
X0249673Y0196935D01*
X0249706Y0196778D01*
X0249736Y0196620D01*
X0249762Y0196461D01*
X0249783Y0196302D01*
X0249801Y0196142D01*
X0249815Y0195982D01*
X0249825Y0195821D01*
X0249831Y0195661D01*
X0249833Y0195500D01*
X0249831Y0195339D01*
X0249825Y0195179D01*
X0249815Y0195018D01*
X0249801Y0194858D01*
X0249783Y0194698D01*
X0249762Y0194539D01*
X0249736Y0194380D01*
X0249706Y0194222D01*
X0249673Y0194065D01*
X0249635Y0193908D01*
X0249594Y0193753D01*
X0249549Y0193599D01*
X0249500Y0193446D01*
X0249447Y0193294D01*
X0249391Y0193143D01*
X0249330Y0192994D01*
X0249267Y0192846D01*
X0249199Y0192700D01*
X0249128Y0192556D01*
X0249054Y0192414D01*
X0248976Y0192273D01*
X0248894Y0192135D01*
X0248809Y0191998D01*
X0248721Y0191864D01*
X0248629Y0191732D01*
X0248534Y0191602D01*
X0248436Y0191474D01*
X0248335Y0191349D01*
X0248231Y0191227D01*
X0248124Y0191107D01*
X0248014Y0190990D01*
X0247901Y0190875D01*
X0247785Y0190764D01*
X0247666Y0190655D01*
X0247545Y0190550D01*
X0247421Y0190447D01*
X0247295Y0190347D01*
X0247167Y0190251D01*
X0247036Y0190158D01*
X0246902Y0190068D01*
X0246767Y0189981D01*
X0246629Y0189898D01*
X0246490Y0189818D01*
X0246348Y0189742D01*
X0246205Y0189669D01*
X0246060Y0189600D01*
X0245913Y0189534D01*
X0245765Y0189472D01*
X0245615Y0189414D01*
X0245464Y0189359D01*
X0245311Y0189308D01*
X0245157Y0189261D01*
X0245002Y0189218D01*
X0244846Y0189179D01*
X0244690Y0189143D01*
X0244532Y0189112D01*
X0244374Y0189084D01*
X0244215Y0189060D01*
X0244055Y0189040D01*
X0243895Y0189024D01*
X0243735Y0189012D01*
X0243574Y0189004D01*
X0243413Y0189000D01*
X0243253Y0189000D01*
X0243092Y0189004D01*
X0242931Y0189012D01*
X0242771Y0189024D01*
X0242611Y0189040D01*
X0242451Y0189060D01*
X0242292Y0189084D01*
X0242134Y0189112D01*
X0241976Y0189143D01*
X0241820Y0189179D01*
X0241664Y0189218D01*
X0241509Y0189261D01*
X0241355Y0189308D01*
X0241202Y0189359D01*
X0241051Y0189414D01*
X0240901Y0189472D01*
X0240753Y0189534D01*
X0240606Y0189600D01*
X0240461Y0189669D01*
X0240318Y0189742D01*
X0240176Y0189818D01*
X0240037Y0189898D01*
X0239899Y0189981D01*
X0239764Y0190068D01*
X0239630Y0190158D01*
X0239499Y0190251D01*
X0239371Y0190347D01*
X0239245Y0190447D01*
X0239121Y0190550D01*
X0239000Y0190655D01*
X0238881Y0190764D01*
X0238765Y0190875D01*
X0238652Y0190990D01*
X0238542Y0191107D01*
X0238435Y0191227D01*
X0238331Y0191349D01*
X0238230Y0191474D01*
X0238132Y0191602D01*
X0238037Y0191732D01*
X0237945Y0191864D01*
X0237857Y0191998D01*
X0237772Y0192135D01*
X0237690Y0192273D01*
X0237612Y0192414D01*
X0237538Y0192556D01*
X0237467Y0192700D01*
X0237399Y0192846D01*
X0237336Y0192994D01*
X0237275Y0193143D01*
X0237219Y0193294D01*
X0237166Y0193446D01*
X0237117Y0193599D01*
X0237072Y0193753D01*
X0237031Y0193908D01*
X0236993Y0194065D01*
X0236960Y0194222D01*
X0236930Y0194380D01*
X0236904Y0194539D01*
X0236883Y0194698D01*
X0236865Y0194858D01*
X0236851Y0195018D01*
X0236841Y0195179D01*
X0236835Y0195339D01*
X0236833Y0195500D01*
X0166833Y0195500D02*
X0166835Y0195661D01*
X0166841Y0195821D01*
X0166851Y0195982D01*
X0166865Y0196142D01*
X0166883Y0196302D01*
X0166904Y0196461D01*
X0166930Y0196620D01*
X0166960Y0196778D01*
X0166993Y0196935D01*
X0167031Y0197092D01*
X0167072Y0197247D01*
X0167117Y0197401D01*
X0167166Y0197554D01*
X0167219Y0197706D01*
X0167275Y0197857D01*
X0167336Y0198006D01*
X0167399Y0198154D01*
X0167467Y0198300D01*
X0167538Y0198444D01*
X0167612Y0198586D01*
X0167690Y0198727D01*
X0167772Y0198865D01*
X0167857Y0199002D01*
X0167945Y0199136D01*
X0168037Y0199268D01*
X0168132Y0199398D01*
X0168230Y0199526D01*
X0168331Y0199651D01*
X0168435Y0199773D01*
X0168542Y0199893D01*
X0168652Y0200010D01*
X0168765Y0200125D01*
X0168881Y0200236D01*
X0169000Y0200345D01*
X0169121Y0200450D01*
X0169245Y0200553D01*
X0169371Y0200653D01*
X0169499Y0200749D01*
X0169630Y0200842D01*
X0169764Y0200932D01*
X0169899Y0201019D01*
X0170037Y0201102D01*
X0170176Y0201182D01*
X0170318Y0201258D01*
X0170461Y0201331D01*
X0170606Y0201400D01*
X0170753Y0201466D01*
X0170901Y0201528D01*
X0171051Y0201586D01*
X0171202Y0201641D01*
X0171355Y0201692D01*
X0171509Y0201739D01*
X0171664Y0201782D01*
X0171820Y0201821D01*
X0171976Y0201857D01*
X0172134Y0201888D01*
X0172292Y0201916D01*
X0172451Y0201940D01*
X0172611Y0201960D01*
X0172771Y0201976D01*
X0172931Y0201988D01*
X0173092Y0201996D01*
X0173253Y0202000D01*
X0173413Y0202000D01*
X0173574Y0201996D01*
X0173735Y0201988D01*
X0173895Y0201976D01*
X0174055Y0201960D01*
X0174215Y0201940D01*
X0174374Y0201916D01*
X0174532Y0201888D01*
X0174690Y0201857D01*
X0174846Y0201821D01*
X0175002Y0201782D01*
X0175157Y0201739D01*
X0175311Y0201692D01*
X0175464Y0201641D01*
X0175615Y0201586D01*
X0175765Y0201528D01*
X0175913Y0201466D01*
X0176060Y0201400D01*
X0176205Y0201331D01*
X0176348Y0201258D01*
X0176490Y0201182D01*
X0176629Y0201102D01*
X0176767Y0201019D01*
X0176902Y0200932D01*
X0177036Y0200842D01*
X0177167Y0200749D01*
X0177295Y0200653D01*
X0177421Y0200553D01*
X0177545Y0200450D01*
X0177666Y0200345D01*
X0177785Y0200236D01*
X0177901Y0200125D01*
X0178014Y0200010D01*
X0178124Y0199893D01*
X0178231Y0199773D01*
X0178335Y0199651D01*
X0178436Y0199526D01*
X0178534Y0199398D01*
X0178629Y0199268D01*
X0178721Y0199136D01*
X0178809Y0199002D01*
X0178894Y0198865D01*
X0178976Y0198727D01*
X0179054Y0198586D01*
X0179128Y0198444D01*
X0179199Y0198300D01*
X0179267Y0198154D01*
X0179330Y0198006D01*
X0179391Y0197857D01*
X0179447Y0197706D01*
X0179500Y0197554D01*
X0179549Y0197401D01*
X0179594Y0197247D01*
X0179635Y0197092D01*
X0179673Y0196935D01*
X0179706Y0196778D01*
X0179736Y0196620D01*
X0179762Y0196461D01*
X0179783Y0196302D01*
X0179801Y0196142D01*
X0179815Y0195982D01*
X0179825Y0195821D01*
X0179831Y0195661D01*
X0179833Y0195500D01*
X0179831Y0195339D01*
X0179825Y0195179D01*
X0179815Y0195018D01*
X0179801Y0194858D01*
X0179783Y0194698D01*
X0179762Y0194539D01*
X0179736Y0194380D01*
X0179706Y0194222D01*
X0179673Y0194065D01*
X0179635Y0193908D01*
X0179594Y0193753D01*
X0179549Y0193599D01*
X0179500Y0193446D01*
X0179447Y0193294D01*
X0179391Y0193143D01*
X0179330Y0192994D01*
X0179267Y0192846D01*
X0179199Y0192700D01*
X0179128Y0192556D01*
X0179054Y0192414D01*
X0178976Y0192273D01*
X0178894Y0192135D01*
X0178809Y0191998D01*
X0178721Y0191864D01*
X0178629Y0191732D01*
X0178534Y0191602D01*
X0178436Y0191474D01*
X0178335Y0191349D01*
X0178231Y0191227D01*
X0178124Y0191107D01*
X0178014Y0190990D01*
X0177901Y0190875D01*
X0177785Y0190764D01*
X0177666Y0190655D01*
X0177545Y0190550D01*
X0177421Y0190447D01*
X0177295Y0190347D01*
X0177167Y0190251D01*
X0177036Y0190158D01*
X0176902Y0190068D01*
X0176767Y0189981D01*
X0176629Y0189898D01*
X0176490Y0189818D01*
X0176348Y0189742D01*
X0176205Y0189669D01*
X0176060Y0189600D01*
X0175913Y0189534D01*
X0175765Y0189472D01*
X0175615Y0189414D01*
X0175464Y0189359D01*
X0175311Y0189308D01*
X0175157Y0189261D01*
X0175002Y0189218D01*
X0174846Y0189179D01*
X0174690Y0189143D01*
X0174532Y0189112D01*
X0174374Y0189084D01*
X0174215Y0189060D01*
X0174055Y0189040D01*
X0173895Y0189024D01*
X0173735Y0189012D01*
X0173574Y0189004D01*
X0173413Y0189000D01*
X0173253Y0189000D01*
X0173092Y0189004D01*
X0172931Y0189012D01*
X0172771Y0189024D01*
X0172611Y0189040D01*
X0172451Y0189060D01*
X0172292Y0189084D01*
X0172134Y0189112D01*
X0171976Y0189143D01*
X0171820Y0189179D01*
X0171664Y0189218D01*
X0171509Y0189261D01*
X0171355Y0189308D01*
X0171202Y0189359D01*
X0171051Y0189414D01*
X0170901Y0189472D01*
X0170753Y0189534D01*
X0170606Y0189600D01*
X0170461Y0189669D01*
X0170318Y0189742D01*
X0170176Y0189818D01*
X0170037Y0189898D01*
X0169899Y0189981D01*
X0169764Y0190068D01*
X0169630Y0190158D01*
X0169499Y0190251D01*
X0169371Y0190347D01*
X0169245Y0190447D01*
X0169121Y0190550D01*
X0169000Y0190655D01*
X0168881Y0190764D01*
X0168765Y0190875D01*
X0168652Y0190990D01*
X0168542Y0191107D01*
X0168435Y0191227D01*
X0168331Y0191349D01*
X0168230Y0191474D01*
X0168132Y0191602D01*
X0168037Y0191732D01*
X0167945Y0191864D01*
X0167857Y0191998D01*
X0167772Y0192135D01*
X0167690Y0192273D01*
X0167612Y0192414D01*
X0167538Y0192556D01*
X0167467Y0192700D01*
X0167399Y0192846D01*
X0167336Y0192994D01*
X0167275Y0193143D01*
X0167219Y0193294D01*
X0167166Y0193446D01*
X0167117Y0193599D01*
X0167072Y0193753D01*
X0167031Y0193908D01*
X0166993Y0194065D01*
X0166960Y0194222D01*
X0166930Y0194380D01*
X0166904Y0194539D01*
X0166883Y0194698D01*
X0166865Y0194858D01*
X0166851Y0195018D01*
X0166841Y0195179D01*
X0166835Y0195339D01*
X0166833Y0195500D01*
X0134833Y0195500D02*
X0134835Y0195661D01*
X0134841Y0195821D01*
X0134851Y0195982D01*
X0134865Y0196142D01*
X0134883Y0196302D01*
X0134904Y0196461D01*
X0134930Y0196620D01*
X0134960Y0196778D01*
X0134993Y0196935D01*
X0135031Y0197092D01*
X0135072Y0197247D01*
X0135117Y0197401D01*
X0135166Y0197554D01*
X0135219Y0197706D01*
X0135275Y0197857D01*
X0135336Y0198006D01*
X0135399Y0198154D01*
X0135467Y0198300D01*
X0135538Y0198444D01*
X0135612Y0198586D01*
X0135690Y0198727D01*
X0135772Y0198865D01*
X0135857Y0199002D01*
X0135945Y0199136D01*
X0136037Y0199268D01*
X0136132Y0199398D01*
X0136230Y0199526D01*
X0136331Y0199651D01*
X0136435Y0199773D01*
X0136542Y0199893D01*
X0136652Y0200010D01*
X0136765Y0200125D01*
X0136881Y0200236D01*
X0137000Y0200345D01*
X0137121Y0200450D01*
X0137245Y0200553D01*
X0137371Y0200653D01*
X0137499Y0200749D01*
X0137630Y0200842D01*
X0137764Y0200932D01*
X0137899Y0201019D01*
X0138037Y0201102D01*
X0138176Y0201182D01*
X0138318Y0201258D01*
X0138461Y0201331D01*
X0138606Y0201400D01*
X0138753Y0201466D01*
X0138901Y0201528D01*
X0139051Y0201586D01*
X0139202Y0201641D01*
X0139355Y0201692D01*
X0139509Y0201739D01*
X0139664Y0201782D01*
X0139820Y0201821D01*
X0139976Y0201857D01*
X0140134Y0201888D01*
X0140292Y0201916D01*
X0140451Y0201940D01*
X0140611Y0201960D01*
X0140771Y0201976D01*
X0140931Y0201988D01*
X0141092Y0201996D01*
X0141253Y0202000D01*
X0141413Y0202000D01*
X0141574Y0201996D01*
X0141735Y0201988D01*
X0141895Y0201976D01*
X0142055Y0201960D01*
X0142215Y0201940D01*
X0142374Y0201916D01*
X0142532Y0201888D01*
X0142690Y0201857D01*
X0142846Y0201821D01*
X0143002Y0201782D01*
X0143157Y0201739D01*
X0143311Y0201692D01*
X0143464Y0201641D01*
X0143615Y0201586D01*
X0143765Y0201528D01*
X0143913Y0201466D01*
X0144060Y0201400D01*
X0144205Y0201331D01*
X0144348Y0201258D01*
X0144490Y0201182D01*
X0144629Y0201102D01*
X0144767Y0201019D01*
X0144902Y0200932D01*
X0145036Y0200842D01*
X0145167Y0200749D01*
X0145295Y0200653D01*
X0145421Y0200553D01*
X0145545Y0200450D01*
X0145666Y0200345D01*
X0145785Y0200236D01*
X0145901Y0200125D01*
X0146014Y0200010D01*
X0146124Y0199893D01*
X0146231Y0199773D01*
X0146335Y0199651D01*
X0146436Y0199526D01*
X0146534Y0199398D01*
X0146629Y0199268D01*
X0146721Y0199136D01*
X0146809Y0199002D01*
X0146894Y0198865D01*
X0146976Y0198727D01*
X0147054Y0198586D01*
X0147128Y0198444D01*
X0147199Y0198300D01*
X0147267Y0198154D01*
X0147330Y0198006D01*
X0147391Y0197857D01*
X0147447Y0197706D01*
X0147500Y0197554D01*
X0147549Y0197401D01*
X0147594Y0197247D01*
X0147635Y0197092D01*
X0147673Y0196935D01*
X0147706Y0196778D01*
X0147736Y0196620D01*
X0147762Y0196461D01*
X0147783Y0196302D01*
X0147801Y0196142D01*
X0147815Y0195982D01*
X0147825Y0195821D01*
X0147831Y0195661D01*
X0147833Y0195500D01*
X0147831Y0195339D01*
X0147825Y0195179D01*
X0147815Y0195018D01*
X0147801Y0194858D01*
X0147783Y0194698D01*
X0147762Y0194539D01*
X0147736Y0194380D01*
X0147706Y0194222D01*
X0147673Y0194065D01*
X0147635Y0193908D01*
X0147594Y0193753D01*
X0147549Y0193599D01*
X0147500Y0193446D01*
X0147447Y0193294D01*
X0147391Y0193143D01*
X0147330Y0192994D01*
X0147267Y0192846D01*
X0147199Y0192700D01*
X0147128Y0192556D01*
X0147054Y0192414D01*
X0146976Y0192273D01*
X0146894Y0192135D01*
X0146809Y0191998D01*
X0146721Y0191864D01*
X0146629Y0191732D01*
X0146534Y0191602D01*
X0146436Y0191474D01*
X0146335Y0191349D01*
X0146231Y0191227D01*
X0146124Y0191107D01*
X0146014Y0190990D01*
X0145901Y0190875D01*
X0145785Y0190764D01*
X0145666Y0190655D01*
X0145545Y0190550D01*
X0145421Y0190447D01*
X0145295Y0190347D01*
X0145167Y0190251D01*
X0145036Y0190158D01*
X0144902Y0190068D01*
X0144767Y0189981D01*
X0144629Y0189898D01*
X0144490Y0189818D01*
X0144348Y0189742D01*
X0144205Y0189669D01*
X0144060Y0189600D01*
X0143913Y0189534D01*
X0143765Y0189472D01*
X0143615Y0189414D01*
X0143464Y0189359D01*
X0143311Y0189308D01*
X0143157Y0189261D01*
X0143002Y0189218D01*
X0142846Y0189179D01*
X0142690Y0189143D01*
X0142532Y0189112D01*
X0142374Y0189084D01*
X0142215Y0189060D01*
X0142055Y0189040D01*
X0141895Y0189024D01*
X0141735Y0189012D01*
X0141574Y0189004D01*
X0141413Y0189000D01*
X0141253Y0189000D01*
X0141092Y0189004D01*
X0140931Y0189012D01*
X0140771Y0189024D01*
X0140611Y0189040D01*
X0140451Y0189060D01*
X0140292Y0189084D01*
X0140134Y0189112D01*
X0139976Y0189143D01*
X0139820Y0189179D01*
X0139664Y0189218D01*
X0139509Y0189261D01*
X0139355Y0189308D01*
X0139202Y0189359D01*
X0139051Y0189414D01*
X0138901Y0189472D01*
X0138753Y0189534D01*
X0138606Y0189600D01*
X0138461Y0189669D01*
X0138318Y0189742D01*
X0138176Y0189818D01*
X0138037Y0189898D01*
X0137899Y0189981D01*
X0137764Y0190068D01*
X0137630Y0190158D01*
X0137499Y0190251D01*
X0137371Y0190347D01*
X0137245Y0190447D01*
X0137121Y0190550D01*
X0137000Y0190655D01*
X0136881Y0190764D01*
X0136765Y0190875D01*
X0136652Y0190990D01*
X0136542Y0191107D01*
X0136435Y0191227D01*
X0136331Y0191349D01*
X0136230Y0191474D01*
X0136132Y0191602D01*
X0136037Y0191732D01*
X0135945Y0191864D01*
X0135857Y0191998D01*
X0135772Y0192135D01*
X0135690Y0192273D01*
X0135612Y0192414D01*
X0135538Y0192556D01*
X0135467Y0192700D01*
X0135399Y0192846D01*
X0135336Y0192994D01*
X0135275Y0193143D01*
X0135219Y0193294D01*
X0135166Y0193446D01*
X0135117Y0193599D01*
X0135072Y0193753D01*
X0135031Y0193908D01*
X0134993Y0194065D01*
X0134960Y0194222D01*
X0134930Y0194380D01*
X0134904Y0194539D01*
X0134883Y0194698D01*
X0134865Y0194858D01*
X0134851Y0195018D01*
X0134841Y0195179D01*
X0134835Y0195339D01*
X0134833Y0195500D01*
X0064833Y0195500D02*
X0064835Y0195661D01*
X0064841Y0195821D01*
X0064851Y0195982D01*
X0064865Y0196142D01*
X0064883Y0196302D01*
X0064904Y0196461D01*
X0064930Y0196620D01*
X0064960Y0196778D01*
X0064993Y0196935D01*
X0065031Y0197092D01*
X0065072Y0197247D01*
X0065117Y0197401D01*
X0065166Y0197554D01*
X0065219Y0197706D01*
X0065275Y0197857D01*
X0065336Y0198006D01*
X0065399Y0198154D01*
X0065467Y0198300D01*
X0065538Y0198444D01*
X0065612Y0198586D01*
X0065690Y0198727D01*
X0065772Y0198865D01*
X0065857Y0199002D01*
X0065945Y0199136D01*
X0066037Y0199268D01*
X0066132Y0199398D01*
X0066230Y0199526D01*
X0066331Y0199651D01*
X0066435Y0199773D01*
X0066542Y0199893D01*
X0066652Y0200010D01*
X0066765Y0200125D01*
X0066881Y0200236D01*
X0067000Y0200345D01*
X0067121Y0200450D01*
X0067245Y0200553D01*
X0067371Y0200653D01*
X0067499Y0200749D01*
X0067630Y0200842D01*
X0067764Y0200932D01*
X0067899Y0201019D01*
X0068037Y0201102D01*
X0068176Y0201182D01*
X0068318Y0201258D01*
X0068461Y0201331D01*
X0068606Y0201400D01*
X0068753Y0201466D01*
X0068901Y0201528D01*
X0069051Y0201586D01*
X0069202Y0201641D01*
X0069355Y0201692D01*
X0069509Y0201739D01*
X0069664Y0201782D01*
X0069820Y0201821D01*
X0069976Y0201857D01*
X0070134Y0201888D01*
X0070292Y0201916D01*
X0070451Y0201940D01*
X0070611Y0201960D01*
X0070771Y0201976D01*
X0070931Y0201988D01*
X0071092Y0201996D01*
X0071253Y0202000D01*
X0071413Y0202000D01*
X0071574Y0201996D01*
X0071735Y0201988D01*
X0071895Y0201976D01*
X0072055Y0201960D01*
X0072215Y0201940D01*
X0072374Y0201916D01*
X0072532Y0201888D01*
X0072690Y0201857D01*
X0072846Y0201821D01*
X0073002Y0201782D01*
X0073157Y0201739D01*
X0073311Y0201692D01*
X0073464Y0201641D01*
X0073615Y0201586D01*
X0073765Y0201528D01*
X0073913Y0201466D01*
X0074060Y0201400D01*
X0074205Y0201331D01*
X0074348Y0201258D01*
X0074490Y0201182D01*
X0074629Y0201102D01*
X0074767Y0201019D01*
X0074902Y0200932D01*
X0075036Y0200842D01*
X0075167Y0200749D01*
X0075295Y0200653D01*
X0075421Y0200553D01*
X0075545Y0200450D01*
X0075666Y0200345D01*
X0075785Y0200236D01*
X0075901Y0200125D01*
X0076014Y0200010D01*
X0076124Y0199893D01*
X0076231Y0199773D01*
X0076335Y0199651D01*
X0076436Y0199526D01*
X0076534Y0199398D01*
X0076629Y0199268D01*
X0076721Y0199136D01*
X0076809Y0199002D01*
X0076894Y0198865D01*
X0076976Y0198727D01*
X0077054Y0198586D01*
X0077128Y0198444D01*
X0077199Y0198300D01*
X0077267Y0198154D01*
X0077330Y0198006D01*
X0077391Y0197857D01*
X0077447Y0197706D01*
X0077500Y0197554D01*
X0077549Y0197401D01*
X0077594Y0197247D01*
X0077635Y0197092D01*
X0077673Y0196935D01*
X0077706Y0196778D01*
X0077736Y0196620D01*
X0077762Y0196461D01*
X0077783Y0196302D01*
X0077801Y0196142D01*
X0077815Y0195982D01*
X0077825Y0195821D01*
X0077831Y0195661D01*
X0077833Y0195500D01*
X0077831Y0195339D01*
X0077825Y0195179D01*
X0077815Y0195018D01*
X0077801Y0194858D01*
X0077783Y0194698D01*
X0077762Y0194539D01*
X0077736Y0194380D01*
X0077706Y0194222D01*
X0077673Y0194065D01*
X0077635Y0193908D01*
X0077594Y0193753D01*
X0077549Y0193599D01*
X0077500Y0193446D01*
X0077447Y0193294D01*
X0077391Y0193143D01*
X0077330Y0192994D01*
X0077267Y0192846D01*
X0077199Y0192700D01*
X0077128Y0192556D01*
X0077054Y0192414D01*
X0076976Y0192273D01*
X0076894Y0192135D01*
X0076809Y0191998D01*
X0076721Y0191864D01*
X0076629Y0191732D01*
X0076534Y0191602D01*
X0076436Y0191474D01*
X0076335Y0191349D01*
X0076231Y0191227D01*
X0076124Y0191107D01*
X0076014Y0190990D01*
X0075901Y0190875D01*
X0075785Y0190764D01*
X0075666Y0190655D01*
X0075545Y0190550D01*
X0075421Y0190447D01*
X0075295Y0190347D01*
X0075167Y0190251D01*
X0075036Y0190158D01*
X0074902Y0190068D01*
X0074767Y0189981D01*
X0074629Y0189898D01*
X0074490Y0189818D01*
X0074348Y0189742D01*
X0074205Y0189669D01*
X0074060Y0189600D01*
X0073913Y0189534D01*
X0073765Y0189472D01*
X0073615Y0189414D01*
X0073464Y0189359D01*
X0073311Y0189308D01*
X0073157Y0189261D01*
X0073002Y0189218D01*
X0072846Y0189179D01*
X0072690Y0189143D01*
X0072532Y0189112D01*
X0072374Y0189084D01*
X0072215Y0189060D01*
X0072055Y0189040D01*
X0071895Y0189024D01*
X0071735Y0189012D01*
X0071574Y0189004D01*
X0071413Y0189000D01*
X0071253Y0189000D01*
X0071092Y0189004D01*
X0070931Y0189012D01*
X0070771Y0189024D01*
X0070611Y0189040D01*
X0070451Y0189060D01*
X0070292Y0189084D01*
X0070134Y0189112D01*
X0069976Y0189143D01*
X0069820Y0189179D01*
X0069664Y0189218D01*
X0069509Y0189261D01*
X0069355Y0189308D01*
X0069202Y0189359D01*
X0069051Y0189414D01*
X0068901Y0189472D01*
X0068753Y0189534D01*
X0068606Y0189600D01*
X0068461Y0189669D01*
X0068318Y0189742D01*
X0068176Y0189818D01*
X0068037Y0189898D01*
X0067899Y0189981D01*
X0067764Y0190068D01*
X0067630Y0190158D01*
X0067499Y0190251D01*
X0067371Y0190347D01*
X0067245Y0190447D01*
X0067121Y0190550D01*
X0067000Y0190655D01*
X0066881Y0190764D01*
X0066765Y0190875D01*
X0066652Y0190990D01*
X0066542Y0191107D01*
X0066435Y0191227D01*
X0066331Y0191349D01*
X0066230Y0191474D01*
X0066132Y0191602D01*
X0066037Y0191732D01*
X0065945Y0191864D01*
X0065857Y0191998D01*
X0065772Y0192135D01*
X0065690Y0192273D01*
X0065612Y0192414D01*
X0065538Y0192556D01*
X0065467Y0192700D01*
X0065399Y0192846D01*
X0065336Y0192994D01*
X0065275Y0193143D01*
X0065219Y0193294D01*
X0065166Y0193446D01*
X0065117Y0193599D01*
X0065072Y0193753D01*
X0065031Y0193908D01*
X0064993Y0194065D01*
X0064960Y0194222D01*
X0064930Y0194380D01*
X0064904Y0194539D01*
X0064883Y0194698D01*
X0064865Y0194858D01*
X0064851Y0195018D01*
X0064841Y0195179D01*
X0064835Y0195339D01*
X0064833Y0195500D01*
X0064833Y0297500D02*
X0064835Y0297661D01*
X0064841Y0297821D01*
X0064851Y0297982D01*
X0064865Y0298142D01*
X0064883Y0298302D01*
X0064904Y0298461D01*
X0064930Y0298620D01*
X0064960Y0298778D01*
X0064993Y0298935D01*
X0065031Y0299092D01*
X0065072Y0299247D01*
X0065117Y0299401D01*
X0065166Y0299554D01*
X0065219Y0299706D01*
X0065275Y0299857D01*
X0065336Y0300006D01*
X0065399Y0300154D01*
X0065467Y0300300D01*
X0065538Y0300444D01*
X0065612Y0300586D01*
X0065690Y0300727D01*
X0065772Y0300865D01*
X0065857Y0301002D01*
X0065945Y0301136D01*
X0066037Y0301268D01*
X0066132Y0301398D01*
X0066230Y0301526D01*
X0066331Y0301651D01*
X0066435Y0301773D01*
X0066542Y0301893D01*
X0066652Y0302010D01*
X0066765Y0302125D01*
X0066881Y0302236D01*
X0067000Y0302345D01*
X0067121Y0302450D01*
X0067245Y0302553D01*
X0067371Y0302653D01*
X0067499Y0302749D01*
X0067630Y0302842D01*
X0067764Y0302932D01*
X0067899Y0303019D01*
X0068037Y0303102D01*
X0068176Y0303182D01*
X0068318Y0303258D01*
X0068461Y0303331D01*
X0068606Y0303400D01*
X0068753Y0303466D01*
X0068901Y0303528D01*
X0069051Y0303586D01*
X0069202Y0303641D01*
X0069355Y0303692D01*
X0069509Y0303739D01*
X0069664Y0303782D01*
X0069820Y0303821D01*
X0069976Y0303857D01*
X0070134Y0303888D01*
X0070292Y0303916D01*
X0070451Y0303940D01*
X0070611Y0303960D01*
X0070771Y0303976D01*
X0070931Y0303988D01*
X0071092Y0303996D01*
X0071253Y0304000D01*
X0071413Y0304000D01*
X0071574Y0303996D01*
X0071735Y0303988D01*
X0071895Y0303976D01*
X0072055Y0303960D01*
X0072215Y0303940D01*
X0072374Y0303916D01*
X0072532Y0303888D01*
X0072690Y0303857D01*
X0072846Y0303821D01*
X0073002Y0303782D01*
X0073157Y0303739D01*
X0073311Y0303692D01*
X0073464Y0303641D01*
X0073615Y0303586D01*
X0073765Y0303528D01*
X0073913Y0303466D01*
X0074060Y0303400D01*
X0074205Y0303331D01*
X0074348Y0303258D01*
X0074490Y0303182D01*
X0074629Y0303102D01*
X0074767Y0303019D01*
X0074902Y0302932D01*
X0075036Y0302842D01*
X0075167Y0302749D01*
X0075295Y0302653D01*
X0075421Y0302553D01*
X0075545Y0302450D01*
X0075666Y0302345D01*
X0075785Y0302236D01*
X0075901Y0302125D01*
X0076014Y0302010D01*
X0076124Y0301893D01*
X0076231Y0301773D01*
X0076335Y0301651D01*
X0076436Y0301526D01*
X0076534Y0301398D01*
X0076629Y0301268D01*
X0076721Y0301136D01*
X0076809Y0301002D01*
X0076894Y0300865D01*
X0076976Y0300727D01*
X0077054Y0300586D01*
X0077128Y0300444D01*
X0077199Y0300300D01*
X0077267Y0300154D01*
X0077330Y0300006D01*
X0077391Y0299857D01*
X0077447Y0299706D01*
X0077500Y0299554D01*
X0077549Y0299401D01*
X0077594Y0299247D01*
X0077635Y0299092D01*
X0077673Y0298935D01*
X0077706Y0298778D01*
X0077736Y0298620D01*
X0077762Y0298461D01*
X0077783Y0298302D01*
X0077801Y0298142D01*
X0077815Y0297982D01*
X0077825Y0297821D01*
X0077831Y0297661D01*
X0077833Y0297500D01*
X0077831Y0297339D01*
X0077825Y0297179D01*
X0077815Y0297018D01*
X0077801Y0296858D01*
X0077783Y0296698D01*
X0077762Y0296539D01*
X0077736Y0296380D01*
X0077706Y0296222D01*
X0077673Y0296065D01*
X0077635Y0295908D01*
X0077594Y0295753D01*
X0077549Y0295599D01*
X0077500Y0295446D01*
X0077447Y0295294D01*
X0077391Y0295143D01*
X0077330Y0294994D01*
X0077267Y0294846D01*
X0077199Y0294700D01*
X0077128Y0294556D01*
X0077054Y0294414D01*
X0076976Y0294273D01*
X0076894Y0294135D01*
X0076809Y0293998D01*
X0076721Y0293864D01*
X0076629Y0293732D01*
X0076534Y0293602D01*
X0076436Y0293474D01*
X0076335Y0293349D01*
X0076231Y0293227D01*
X0076124Y0293107D01*
X0076014Y0292990D01*
X0075901Y0292875D01*
X0075785Y0292764D01*
X0075666Y0292655D01*
X0075545Y0292550D01*
X0075421Y0292447D01*
X0075295Y0292347D01*
X0075167Y0292251D01*
X0075036Y0292158D01*
X0074902Y0292068D01*
X0074767Y0291981D01*
X0074629Y0291898D01*
X0074490Y0291818D01*
X0074348Y0291742D01*
X0074205Y0291669D01*
X0074060Y0291600D01*
X0073913Y0291534D01*
X0073765Y0291472D01*
X0073615Y0291414D01*
X0073464Y0291359D01*
X0073311Y0291308D01*
X0073157Y0291261D01*
X0073002Y0291218D01*
X0072846Y0291179D01*
X0072690Y0291143D01*
X0072532Y0291112D01*
X0072374Y0291084D01*
X0072215Y0291060D01*
X0072055Y0291040D01*
X0071895Y0291024D01*
X0071735Y0291012D01*
X0071574Y0291004D01*
X0071413Y0291000D01*
X0071253Y0291000D01*
X0071092Y0291004D01*
X0070931Y0291012D01*
X0070771Y0291024D01*
X0070611Y0291040D01*
X0070451Y0291060D01*
X0070292Y0291084D01*
X0070134Y0291112D01*
X0069976Y0291143D01*
X0069820Y0291179D01*
X0069664Y0291218D01*
X0069509Y0291261D01*
X0069355Y0291308D01*
X0069202Y0291359D01*
X0069051Y0291414D01*
X0068901Y0291472D01*
X0068753Y0291534D01*
X0068606Y0291600D01*
X0068461Y0291669D01*
X0068318Y0291742D01*
X0068176Y0291818D01*
X0068037Y0291898D01*
X0067899Y0291981D01*
X0067764Y0292068D01*
X0067630Y0292158D01*
X0067499Y0292251D01*
X0067371Y0292347D01*
X0067245Y0292447D01*
X0067121Y0292550D01*
X0067000Y0292655D01*
X0066881Y0292764D01*
X0066765Y0292875D01*
X0066652Y0292990D01*
X0066542Y0293107D01*
X0066435Y0293227D01*
X0066331Y0293349D01*
X0066230Y0293474D01*
X0066132Y0293602D01*
X0066037Y0293732D01*
X0065945Y0293864D01*
X0065857Y0293998D01*
X0065772Y0294135D01*
X0065690Y0294273D01*
X0065612Y0294414D01*
X0065538Y0294556D01*
X0065467Y0294700D01*
X0065399Y0294846D01*
X0065336Y0294994D01*
X0065275Y0295143D01*
X0065219Y0295294D01*
X0065166Y0295446D01*
X0065117Y0295599D01*
X0065072Y0295753D01*
X0065031Y0295908D01*
X0064993Y0296065D01*
X0064960Y0296222D01*
X0064930Y0296380D01*
X0064904Y0296539D01*
X0064883Y0296698D01*
X0064865Y0296858D01*
X0064851Y0297018D01*
X0064841Y0297179D01*
X0064835Y0297339D01*
X0064833Y0297500D01*
X0064833Y0093500D02*
X0064835Y0093661D01*
X0064841Y0093821D01*
X0064851Y0093982D01*
X0064865Y0094142D01*
X0064883Y0094302D01*
X0064904Y0094461D01*
X0064930Y0094620D01*
X0064960Y0094778D01*
X0064993Y0094935D01*
X0065031Y0095092D01*
X0065072Y0095247D01*
X0065117Y0095401D01*
X0065166Y0095554D01*
X0065219Y0095706D01*
X0065275Y0095857D01*
X0065336Y0096006D01*
X0065399Y0096154D01*
X0065467Y0096300D01*
X0065538Y0096444D01*
X0065612Y0096586D01*
X0065690Y0096727D01*
X0065772Y0096865D01*
X0065857Y0097002D01*
X0065945Y0097136D01*
X0066037Y0097268D01*
X0066132Y0097398D01*
X0066230Y0097526D01*
X0066331Y0097651D01*
X0066435Y0097773D01*
X0066542Y0097893D01*
X0066652Y0098010D01*
X0066765Y0098125D01*
X0066881Y0098236D01*
X0067000Y0098345D01*
X0067121Y0098450D01*
X0067245Y0098553D01*
X0067371Y0098653D01*
X0067499Y0098749D01*
X0067630Y0098842D01*
X0067764Y0098932D01*
X0067899Y0099019D01*
X0068037Y0099102D01*
X0068176Y0099182D01*
X0068318Y0099258D01*
X0068461Y0099331D01*
X0068606Y0099400D01*
X0068753Y0099466D01*
X0068901Y0099528D01*
X0069051Y0099586D01*
X0069202Y0099641D01*
X0069355Y0099692D01*
X0069509Y0099739D01*
X0069664Y0099782D01*
X0069820Y0099821D01*
X0069976Y0099857D01*
X0070134Y0099888D01*
X0070292Y0099916D01*
X0070451Y0099940D01*
X0070611Y0099960D01*
X0070771Y0099976D01*
X0070931Y0099988D01*
X0071092Y0099996D01*
X0071253Y0100000D01*
X0071413Y0100000D01*
X0071574Y0099996D01*
X0071735Y0099988D01*
X0071895Y0099976D01*
X0072055Y0099960D01*
X0072215Y0099940D01*
X0072374Y0099916D01*
X0072532Y0099888D01*
X0072690Y0099857D01*
X0072846Y0099821D01*
X0073002Y0099782D01*
X0073157Y0099739D01*
X0073311Y0099692D01*
X0073464Y0099641D01*
X0073615Y0099586D01*
X0073765Y0099528D01*
X0073913Y0099466D01*
X0074060Y0099400D01*
X0074205Y0099331D01*
X0074348Y0099258D01*
X0074490Y0099182D01*
X0074629Y0099102D01*
X0074767Y0099019D01*
X0074902Y0098932D01*
X0075036Y0098842D01*
X0075167Y0098749D01*
X0075295Y0098653D01*
X0075421Y0098553D01*
X0075545Y0098450D01*
X0075666Y0098345D01*
X0075785Y0098236D01*
X0075901Y0098125D01*
X0076014Y0098010D01*
X0076124Y0097893D01*
X0076231Y0097773D01*
X0076335Y0097651D01*
X0076436Y0097526D01*
X0076534Y0097398D01*
X0076629Y0097268D01*
X0076721Y0097136D01*
X0076809Y0097002D01*
X0076894Y0096865D01*
X0076976Y0096727D01*
X0077054Y0096586D01*
X0077128Y0096444D01*
X0077199Y0096300D01*
X0077267Y0096154D01*
X0077330Y0096006D01*
X0077391Y0095857D01*
X0077447Y0095706D01*
X0077500Y0095554D01*
X0077549Y0095401D01*
X0077594Y0095247D01*
X0077635Y0095092D01*
X0077673Y0094935D01*
X0077706Y0094778D01*
X0077736Y0094620D01*
X0077762Y0094461D01*
X0077783Y0094302D01*
X0077801Y0094142D01*
X0077815Y0093982D01*
X0077825Y0093821D01*
X0077831Y0093661D01*
X0077833Y0093500D01*
X0077831Y0093339D01*
X0077825Y0093179D01*
X0077815Y0093018D01*
X0077801Y0092858D01*
X0077783Y0092698D01*
X0077762Y0092539D01*
X0077736Y0092380D01*
X0077706Y0092222D01*
X0077673Y0092065D01*
X0077635Y0091908D01*
X0077594Y0091753D01*
X0077549Y0091599D01*
X0077500Y0091446D01*
X0077447Y0091294D01*
X0077391Y0091143D01*
X0077330Y0090994D01*
X0077267Y0090846D01*
X0077199Y0090700D01*
X0077128Y0090556D01*
X0077054Y0090414D01*
X0076976Y0090273D01*
X0076894Y0090135D01*
X0076809Y0089998D01*
X0076721Y0089864D01*
X0076629Y0089732D01*
X0076534Y0089602D01*
X0076436Y0089474D01*
X0076335Y0089349D01*
X0076231Y0089227D01*
X0076124Y0089107D01*
X0076014Y0088990D01*
X0075901Y0088875D01*
X0075785Y0088764D01*
X0075666Y0088655D01*
X0075545Y0088550D01*
X0075421Y0088447D01*
X0075295Y0088347D01*
X0075167Y0088251D01*
X0075036Y0088158D01*
X0074902Y0088068D01*
X0074767Y0087981D01*
X0074629Y0087898D01*
X0074490Y0087818D01*
X0074348Y0087742D01*
X0074205Y0087669D01*
X0074060Y0087600D01*
X0073913Y0087534D01*
X0073765Y0087472D01*
X0073615Y0087414D01*
X0073464Y0087359D01*
X0073311Y0087308D01*
X0073157Y0087261D01*
X0073002Y0087218D01*
X0072846Y0087179D01*
X0072690Y0087143D01*
X0072532Y0087112D01*
X0072374Y0087084D01*
X0072215Y0087060D01*
X0072055Y0087040D01*
X0071895Y0087024D01*
X0071735Y0087012D01*
X0071574Y0087004D01*
X0071413Y0087000D01*
X0071253Y0087000D01*
X0071092Y0087004D01*
X0070931Y0087012D01*
X0070771Y0087024D01*
X0070611Y0087040D01*
X0070451Y0087060D01*
X0070292Y0087084D01*
X0070134Y0087112D01*
X0069976Y0087143D01*
X0069820Y0087179D01*
X0069664Y0087218D01*
X0069509Y0087261D01*
X0069355Y0087308D01*
X0069202Y0087359D01*
X0069051Y0087414D01*
X0068901Y0087472D01*
X0068753Y0087534D01*
X0068606Y0087600D01*
X0068461Y0087669D01*
X0068318Y0087742D01*
X0068176Y0087818D01*
X0068037Y0087898D01*
X0067899Y0087981D01*
X0067764Y0088068D01*
X0067630Y0088158D01*
X0067499Y0088251D01*
X0067371Y0088347D01*
X0067245Y0088447D01*
X0067121Y0088550D01*
X0067000Y0088655D01*
X0066881Y0088764D01*
X0066765Y0088875D01*
X0066652Y0088990D01*
X0066542Y0089107D01*
X0066435Y0089227D01*
X0066331Y0089349D01*
X0066230Y0089474D01*
X0066132Y0089602D01*
X0066037Y0089732D01*
X0065945Y0089864D01*
X0065857Y0089998D01*
X0065772Y0090135D01*
X0065690Y0090273D01*
X0065612Y0090414D01*
X0065538Y0090556D01*
X0065467Y0090700D01*
X0065399Y0090846D01*
X0065336Y0090994D01*
X0065275Y0091143D01*
X0065219Y0091294D01*
X0065166Y0091446D01*
X0065117Y0091599D01*
X0065072Y0091753D01*
X0065031Y0091908D01*
X0064993Y0092065D01*
X0064960Y0092222D01*
X0064930Y0092380D01*
X0064904Y0092539D01*
X0064883Y0092698D01*
X0064865Y0092858D01*
X0064851Y0093018D01*
X0064841Y0093179D01*
X0064835Y0093339D01*
X0064833Y0093500D01*
X0134833Y0093500D02*
X0134835Y0093661D01*
X0134841Y0093821D01*
X0134851Y0093982D01*
X0134865Y0094142D01*
X0134883Y0094302D01*
X0134904Y0094461D01*
X0134930Y0094620D01*
X0134960Y0094778D01*
X0134993Y0094935D01*
X0135031Y0095092D01*
X0135072Y0095247D01*
X0135117Y0095401D01*
X0135166Y0095554D01*
X0135219Y0095706D01*
X0135275Y0095857D01*
X0135336Y0096006D01*
X0135399Y0096154D01*
X0135467Y0096300D01*
X0135538Y0096444D01*
X0135612Y0096586D01*
X0135690Y0096727D01*
X0135772Y0096865D01*
X0135857Y0097002D01*
X0135945Y0097136D01*
X0136037Y0097268D01*
X0136132Y0097398D01*
X0136230Y0097526D01*
X0136331Y0097651D01*
X0136435Y0097773D01*
X0136542Y0097893D01*
X0136652Y0098010D01*
X0136765Y0098125D01*
X0136881Y0098236D01*
X0137000Y0098345D01*
X0137121Y0098450D01*
X0137245Y0098553D01*
X0137371Y0098653D01*
X0137499Y0098749D01*
X0137630Y0098842D01*
X0137764Y0098932D01*
X0137899Y0099019D01*
X0138037Y0099102D01*
X0138176Y0099182D01*
X0138318Y0099258D01*
X0138461Y0099331D01*
X0138606Y0099400D01*
X0138753Y0099466D01*
X0138901Y0099528D01*
X0139051Y0099586D01*
X0139202Y0099641D01*
X0139355Y0099692D01*
X0139509Y0099739D01*
X0139664Y0099782D01*
X0139820Y0099821D01*
X0139976Y0099857D01*
X0140134Y0099888D01*
X0140292Y0099916D01*
X0140451Y0099940D01*
X0140611Y0099960D01*
X0140771Y0099976D01*
X0140931Y0099988D01*
X0141092Y0099996D01*
X0141253Y0100000D01*
X0141413Y0100000D01*
X0141574Y0099996D01*
X0141735Y0099988D01*
X0141895Y0099976D01*
X0142055Y0099960D01*
X0142215Y0099940D01*
X0142374Y0099916D01*
X0142532Y0099888D01*
X0142690Y0099857D01*
X0142846Y0099821D01*
X0143002Y0099782D01*
X0143157Y0099739D01*
X0143311Y0099692D01*
X0143464Y0099641D01*
X0143615Y0099586D01*
X0143765Y0099528D01*
X0143913Y0099466D01*
X0144060Y0099400D01*
X0144205Y0099331D01*
X0144348Y0099258D01*
X0144490Y0099182D01*
X0144629Y0099102D01*
X0144767Y0099019D01*
X0144902Y0098932D01*
X0145036Y0098842D01*
X0145167Y0098749D01*
X0145295Y0098653D01*
X0145421Y0098553D01*
X0145545Y0098450D01*
X0145666Y0098345D01*
X0145785Y0098236D01*
X0145901Y0098125D01*
X0146014Y0098010D01*
X0146124Y0097893D01*
X0146231Y0097773D01*
X0146335Y0097651D01*
X0146436Y0097526D01*
X0146534Y0097398D01*
X0146629Y0097268D01*
X0146721Y0097136D01*
X0146809Y0097002D01*
X0146894Y0096865D01*
X0146976Y0096727D01*
X0147054Y0096586D01*
X0147128Y0096444D01*
X0147199Y0096300D01*
X0147267Y0096154D01*
X0147330Y0096006D01*
X0147391Y0095857D01*
X0147447Y0095706D01*
X0147500Y0095554D01*
X0147549Y0095401D01*
X0147594Y0095247D01*
X0147635Y0095092D01*
X0147673Y0094935D01*
X0147706Y0094778D01*
X0147736Y0094620D01*
X0147762Y0094461D01*
X0147783Y0094302D01*
X0147801Y0094142D01*
X0147815Y0093982D01*
X0147825Y0093821D01*
X0147831Y0093661D01*
X0147833Y0093500D01*
X0147831Y0093339D01*
X0147825Y0093179D01*
X0147815Y0093018D01*
X0147801Y0092858D01*
X0147783Y0092698D01*
X0147762Y0092539D01*
X0147736Y0092380D01*
X0147706Y0092222D01*
X0147673Y0092065D01*
X0147635Y0091908D01*
X0147594Y0091753D01*
X0147549Y0091599D01*
X0147500Y0091446D01*
X0147447Y0091294D01*
X0147391Y0091143D01*
X0147330Y0090994D01*
X0147267Y0090846D01*
X0147199Y0090700D01*
X0147128Y0090556D01*
X0147054Y0090414D01*
X0146976Y0090273D01*
X0146894Y0090135D01*
X0146809Y0089998D01*
X0146721Y0089864D01*
X0146629Y0089732D01*
X0146534Y0089602D01*
X0146436Y0089474D01*
X0146335Y0089349D01*
X0146231Y0089227D01*
X0146124Y0089107D01*
X0146014Y0088990D01*
X0145901Y0088875D01*
X0145785Y0088764D01*
X0145666Y0088655D01*
X0145545Y0088550D01*
X0145421Y0088447D01*
X0145295Y0088347D01*
X0145167Y0088251D01*
X0145036Y0088158D01*
X0144902Y0088068D01*
X0144767Y0087981D01*
X0144629Y0087898D01*
X0144490Y0087818D01*
X0144348Y0087742D01*
X0144205Y0087669D01*
X0144060Y0087600D01*
X0143913Y0087534D01*
X0143765Y0087472D01*
X0143615Y0087414D01*
X0143464Y0087359D01*
X0143311Y0087308D01*
X0143157Y0087261D01*
X0143002Y0087218D01*
X0142846Y0087179D01*
X0142690Y0087143D01*
X0142532Y0087112D01*
X0142374Y0087084D01*
X0142215Y0087060D01*
X0142055Y0087040D01*
X0141895Y0087024D01*
X0141735Y0087012D01*
X0141574Y0087004D01*
X0141413Y0087000D01*
X0141253Y0087000D01*
X0141092Y0087004D01*
X0140931Y0087012D01*
X0140771Y0087024D01*
X0140611Y0087040D01*
X0140451Y0087060D01*
X0140292Y0087084D01*
X0140134Y0087112D01*
X0139976Y0087143D01*
X0139820Y0087179D01*
X0139664Y0087218D01*
X0139509Y0087261D01*
X0139355Y0087308D01*
X0139202Y0087359D01*
X0139051Y0087414D01*
X0138901Y0087472D01*
X0138753Y0087534D01*
X0138606Y0087600D01*
X0138461Y0087669D01*
X0138318Y0087742D01*
X0138176Y0087818D01*
X0138037Y0087898D01*
X0137899Y0087981D01*
X0137764Y0088068D01*
X0137630Y0088158D01*
X0137499Y0088251D01*
X0137371Y0088347D01*
X0137245Y0088447D01*
X0137121Y0088550D01*
X0137000Y0088655D01*
X0136881Y0088764D01*
X0136765Y0088875D01*
X0136652Y0088990D01*
X0136542Y0089107D01*
X0136435Y0089227D01*
X0136331Y0089349D01*
X0136230Y0089474D01*
X0136132Y0089602D01*
X0136037Y0089732D01*
X0135945Y0089864D01*
X0135857Y0089998D01*
X0135772Y0090135D01*
X0135690Y0090273D01*
X0135612Y0090414D01*
X0135538Y0090556D01*
X0135467Y0090700D01*
X0135399Y0090846D01*
X0135336Y0090994D01*
X0135275Y0091143D01*
X0135219Y0091294D01*
X0135166Y0091446D01*
X0135117Y0091599D01*
X0135072Y0091753D01*
X0135031Y0091908D01*
X0134993Y0092065D01*
X0134960Y0092222D01*
X0134930Y0092380D01*
X0134904Y0092539D01*
X0134883Y0092698D01*
X0134865Y0092858D01*
X0134851Y0093018D01*
X0134841Y0093179D01*
X0134835Y0093339D01*
X0134833Y0093500D01*
X0166833Y0093500D02*
X0166835Y0093661D01*
X0166841Y0093821D01*
X0166851Y0093982D01*
X0166865Y0094142D01*
X0166883Y0094302D01*
X0166904Y0094461D01*
X0166930Y0094620D01*
X0166960Y0094778D01*
X0166993Y0094935D01*
X0167031Y0095092D01*
X0167072Y0095247D01*
X0167117Y0095401D01*
X0167166Y0095554D01*
X0167219Y0095706D01*
X0167275Y0095857D01*
X0167336Y0096006D01*
X0167399Y0096154D01*
X0167467Y0096300D01*
X0167538Y0096444D01*
X0167612Y0096586D01*
X0167690Y0096727D01*
X0167772Y0096865D01*
X0167857Y0097002D01*
X0167945Y0097136D01*
X0168037Y0097268D01*
X0168132Y0097398D01*
X0168230Y0097526D01*
X0168331Y0097651D01*
X0168435Y0097773D01*
X0168542Y0097893D01*
X0168652Y0098010D01*
X0168765Y0098125D01*
X0168881Y0098236D01*
X0169000Y0098345D01*
X0169121Y0098450D01*
X0169245Y0098553D01*
X0169371Y0098653D01*
X0169499Y0098749D01*
X0169630Y0098842D01*
X0169764Y0098932D01*
X0169899Y0099019D01*
X0170037Y0099102D01*
X0170176Y0099182D01*
X0170318Y0099258D01*
X0170461Y0099331D01*
X0170606Y0099400D01*
X0170753Y0099466D01*
X0170901Y0099528D01*
X0171051Y0099586D01*
X0171202Y0099641D01*
X0171355Y0099692D01*
X0171509Y0099739D01*
X0171664Y0099782D01*
X0171820Y0099821D01*
X0171976Y0099857D01*
X0172134Y0099888D01*
X0172292Y0099916D01*
X0172451Y0099940D01*
X0172611Y0099960D01*
X0172771Y0099976D01*
X0172931Y0099988D01*
X0173092Y0099996D01*
X0173253Y0100000D01*
X0173413Y0100000D01*
X0173574Y0099996D01*
X0173735Y0099988D01*
X0173895Y0099976D01*
X0174055Y0099960D01*
X0174215Y0099940D01*
X0174374Y0099916D01*
X0174532Y0099888D01*
X0174690Y0099857D01*
X0174846Y0099821D01*
X0175002Y0099782D01*
X0175157Y0099739D01*
X0175311Y0099692D01*
X0175464Y0099641D01*
X0175615Y0099586D01*
X0175765Y0099528D01*
X0175913Y0099466D01*
X0176060Y0099400D01*
X0176205Y0099331D01*
X0176348Y0099258D01*
X0176490Y0099182D01*
X0176629Y0099102D01*
X0176767Y0099019D01*
X0176902Y0098932D01*
X0177036Y0098842D01*
X0177167Y0098749D01*
X0177295Y0098653D01*
X0177421Y0098553D01*
X0177545Y0098450D01*
X0177666Y0098345D01*
X0177785Y0098236D01*
X0177901Y0098125D01*
X0178014Y0098010D01*
X0178124Y0097893D01*
X0178231Y0097773D01*
X0178335Y0097651D01*
X0178436Y0097526D01*
X0178534Y0097398D01*
X0178629Y0097268D01*
X0178721Y0097136D01*
X0178809Y0097002D01*
X0178894Y0096865D01*
X0178976Y0096727D01*
X0179054Y0096586D01*
X0179128Y0096444D01*
X0179199Y0096300D01*
X0179267Y0096154D01*
X0179330Y0096006D01*
X0179391Y0095857D01*
X0179447Y0095706D01*
X0179500Y0095554D01*
X0179549Y0095401D01*
X0179594Y0095247D01*
X0179635Y0095092D01*
X0179673Y0094935D01*
X0179706Y0094778D01*
X0179736Y0094620D01*
X0179762Y0094461D01*
X0179783Y0094302D01*
X0179801Y0094142D01*
X0179815Y0093982D01*
X0179825Y0093821D01*
X0179831Y0093661D01*
X0179833Y0093500D01*
X0179831Y0093339D01*
X0179825Y0093179D01*
X0179815Y0093018D01*
X0179801Y0092858D01*
X0179783Y0092698D01*
X0179762Y0092539D01*
X0179736Y0092380D01*
X0179706Y0092222D01*
X0179673Y0092065D01*
X0179635Y0091908D01*
X0179594Y0091753D01*
X0179549Y0091599D01*
X0179500Y0091446D01*
X0179447Y0091294D01*
X0179391Y0091143D01*
X0179330Y0090994D01*
X0179267Y0090846D01*
X0179199Y0090700D01*
X0179128Y0090556D01*
X0179054Y0090414D01*
X0178976Y0090273D01*
X0178894Y0090135D01*
X0178809Y0089998D01*
X0178721Y0089864D01*
X0178629Y0089732D01*
X0178534Y0089602D01*
X0178436Y0089474D01*
X0178335Y0089349D01*
X0178231Y0089227D01*
X0178124Y0089107D01*
X0178014Y0088990D01*
X0177901Y0088875D01*
X0177785Y0088764D01*
X0177666Y0088655D01*
X0177545Y0088550D01*
X0177421Y0088447D01*
X0177295Y0088347D01*
X0177167Y0088251D01*
X0177036Y0088158D01*
X0176902Y0088068D01*
X0176767Y0087981D01*
X0176629Y0087898D01*
X0176490Y0087818D01*
X0176348Y0087742D01*
X0176205Y0087669D01*
X0176060Y0087600D01*
X0175913Y0087534D01*
X0175765Y0087472D01*
X0175615Y0087414D01*
X0175464Y0087359D01*
X0175311Y0087308D01*
X0175157Y0087261D01*
X0175002Y0087218D01*
X0174846Y0087179D01*
X0174690Y0087143D01*
X0174532Y0087112D01*
X0174374Y0087084D01*
X0174215Y0087060D01*
X0174055Y0087040D01*
X0173895Y0087024D01*
X0173735Y0087012D01*
X0173574Y0087004D01*
X0173413Y0087000D01*
X0173253Y0087000D01*
X0173092Y0087004D01*
X0172931Y0087012D01*
X0172771Y0087024D01*
X0172611Y0087040D01*
X0172451Y0087060D01*
X0172292Y0087084D01*
X0172134Y0087112D01*
X0171976Y0087143D01*
X0171820Y0087179D01*
X0171664Y0087218D01*
X0171509Y0087261D01*
X0171355Y0087308D01*
X0171202Y0087359D01*
X0171051Y0087414D01*
X0170901Y0087472D01*
X0170753Y0087534D01*
X0170606Y0087600D01*
X0170461Y0087669D01*
X0170318Y0087742D01*
X0170176Y0087818D01*
X0170037Y0087898D01*
X0169899Y0087981D01*
X0169764Y0088068D01*
X0169630Y0088158D01*
X0169499Y0088251D01*
X0169371Y0088347D01*
X0169245Y0088447D01*
X0169121Y0088550D01*
X0169000Y0088655D01*
X0168881Y0088764D01*
X0168765Y0088875D01*
X0168652Y0088990D01*
X0168542Y0089107D01*
X0168435Y0089227D01*
X0168331Y0089349D01*
X0168230Y0089474D01*
X0168132Y0089602D01*
X0168037Y0089732D01*
X0167945Y0089864D01*
X0167857Y0089998D01*
X0167772Y0090135D01*
X0167690Y0090273D01*
X0167612Y0090414D01*
X0167538Y0090556D01*
X0167467Y0090700D01*
X0167399Y0090846D01*
X0167336Y0090994D01*
X0167275Y0091143D01*
X0167219Y0091294D01*
X0167166Y0091446D01*
X0167117Y0091599D01*
X0167072Y0091753D01*
X0167031Y0091908D01*
X0166993Y0092065D01*
X0166960Y0092222D01*
X0166930Y0092380D01*
X0166904Y0092539D01*
X0166883Y0092698D01*
X0166865Y0092858D01*
X0166851Y0093018D01*
X0166841Y0093179D01*
X0166835Y0093339D01*
X0166833Y0093500D01*
X0236833Y0093500D02*
X0236835Y0093661D01*
X0236841Y0093821D01*
X0236851Y0093982D01*
X0236865Y0094142D01*
X0236883Y0094302D01*
X0236904Y0094461D01*
X0236930Y0094620D01*
X0236960Y0094778D01*
X0236993Y0094935D01*
X0237031Y0095092D01*
X0237072Y0095247D01*
X0237117Y0095401D01*
X0237166Y0095554D01*
X0237219Y0095706D01*
X0237275Y0095857D01*
X0237336Y0096006D01*
X0237399Y0096154D01*
X0237467Y0096300D01*
X0237538Y0096444D01*
X0237612Y0096586D01*
X0237690Y0096727D01*
X0237772Y0096865D01*
X0237857Y0097002D01*
X0237945Y0097136D01*
X0238037Y0097268D01*
X0238132Y0097398D01*
X0238230Y0097526D01*
X0238331Y0097651D01*
X0238435Y0097773D01*
X0238542Y0097893D01*
X0238652Y0098010D01*
X0238765Y0098125D01*
X0238881Y0098236D01*
X0239000Y0098345D01*
X0239121Y0098450D01*
X0239245Y0098553D01*
X0239371Y0098653D01*
X0239499Y0098749D01*
X0239630Y0098842D01*
X0239764Y0098932D01*
X0239899Y0099019D01*
X0240037Y0099102D01*
X0240176Y0099182D01*
X0240318Y0099258D01*
X0240461Y0099331D01*
X0240606Y0099400D01*
X0240753Y0099466D01*
X0240901Y0099528D01*
X0241051Y0099586D01*
X0241202Y0099641D01*
X0241355Y0099692D01*
X0241509Y0099739D01*
X0241664Y0099782D01*
X0241820Y0099821D01*
X0241976Y0099857D01*
X0242134Y0099888D01*
X0242292Y0099916D01*
X0242451Y0099940D01*
X0242611Y0099960D01*
X0242771Y0099976D01*
X0242931Y0099988D01*
X0243092Y0099996D01*
X0243253Y0100000D01*
X0243413Y0100000D01*
X0243574Y0099996D01*
X0243735Y0099988D01*
X0243895Y0099976D01*
X0244055Y0099960D01*
X0244215Y0099940D01*
X0244374Y0099916D01*
X0244532Y0099888D01*
X0244690Y0099857D01*
X0244846Y0099821D01*
X0245002Y0099782D01*
X0245157Y0099739D01*
X0245311Y0099692D01*
X0245464Y0099641D01*
X0245615Y0099586D01*
X0245765Y0099528D01*
X0245913Y0099466D01*
X0246060Y0099400D01*
X0246205Y0099331D01*
X0246348Y0099258D01*
X0246490Y0099182D01*
X0246629Y0099102D01*
X0246767Y0099019D01*
X0246902Y0098932D01*
X0247036Y0098842D01*
X0247167Y0098749D01*
X0247295Y0098653D01*
X0247421Y0098553D01*
X0247545Y0098450D01*
X0247666Y0098345D01*
X0247785Y0098236D01*
X0247901Y0098125D01*
X0248014Y0098010D01*
X0248124Y0097893D01*
X0248231Y0097773D01*
X0248335Y0097651D01*
X0248436Y0097526D01*
X0248534Y0097398D01*
X0248629Y0097268D01*
X0248721Y0097136D01*
X0248809Y0097002D01*
X0248894Y0096865D01*
X0248976Y0096727D01*
X0249054Y0096586D01*
X0249128Y0096444D01*
X0249199Y0096300D01*
X0249267Y0096154D01*
X0249330Y0096006D01*
X0249391Y0095857D01*
X0249447Y0095706D01*
X0249500Y0095554D01*
X0249549Y0095401D01*
X0249594Y0095247D01*
X0249635Y0095092D01*
X0249673Y0094935D01*
X0249706Y0094778D01*
X0249736Y0094620D01*
X0249762Y0094461D01*
X0249783Y0094302D01*
X0249801Y0094142D01*
X0249815Y0093982D01*
X0249825Y0093821D01*
X0249831Y0093661D01*
X0249833Y0093500D01*
X0249831Y0093339D01*
X0249825Y0093179D01*
X0249815Y0093018D01*
X0249801Y0092858D01*
X0249783Y0092698D01*
X0249762Y0092539D01*
X0249736Y0092380D01*
X0249706Y0092222D01*
X0249673Y0092065D01*
X0249635Y0091908D01*
X0249594Y0091753D01*
X0249549Y0091599D01*
X0249500Y0091446D01*
X0249447Y0091294D01*
X0249391Y0091143D01*
X0249330Y0090994D01*
X0249267Y0090846D01*
X0249199Y0090700D01*
X0249128Y0090556D01*
X0249054Y0090414D01*
X0248976Y0090273D01*
X0248894Y0090135D01*
X0248809Y0089998D01*
X0248721Y0089864D01*
X0248629Y0089732D01*
X0248534Y0089602D01*
X0248436Y0089474D01*
X0248335Y0089349D01*
X0248231Y0089227D01*
X0248124Y0089107D01*
X0248014Y0088990D01*
X0247901Y0088875D01*
X0247785Y0088764D01*
X0247666Y0088655D01*
X0247545Y0088550D01*
X0247421Y0088447D01*
X0247295Y0088347D01*
X0247167Y0088251D01*
X0247036Y0088158D01*
X0246902Y0088068D01*
X0246767Y0087981D01*
X0246629Y0087898D01*
X0246490Y0087818D01*
X0246348Y0087742D01*
X0246205Y0087669D01*
X0246060Y0087600D01*
X0245913Y0087534D01*
X0245765Y0087472D01*
X0245615Y0087414D01*
X0245464Y0087359D01*
X0245311Y0087308D01*
X0245157Y0087261D01*
X0245002Y0087218D01*
X0244846Y0087179D01*
X0244690Y0087143D01*
X0244532Y0087112D01*
X0244374Y0087084D01*
X0244215Y0087060D01*
X0244055Y0087040D01*
X0243895Y0087024D01*
X0243735Y0087012D01*
X0243574Y0087004D01*
X0243413Y0087000D01*
X0243253Y0087000D01*
X0243092Y0087004D01*
X0242931Y0087012D01*
X0242771Y0087024D01*
X0242611Y0087040D01*
X0242451Y0087060D01*
X0242292Y0087084D01*
X0242134Y0087112D01*
X0241976Y0087143D01*
X0241820Y0087179D01*
X0241664Y0087218D01*
X0241509Y0087261D01*
X0241355Y0087308D01*
X0241202Y0087359D01*
X0241051Y0087414D01*
X0240901Y0087472D01*
X0240753Y0087534D01*
X0240606Y0087600D01*
X0240461Y0087669D01*
X0240318Y0087742D01*
X0240176Y0087818D01*
X0240037Y0087898D01*
X0239899Y0087981D01*
X0239764Y0088068D01*
X0239630Y0088158D01*
X0239499Y0088251D01*
X0239371Y0088347D01*
X0239245Y0088447D01*
X0239121Y0088550D01*
X0239000Y0088655D01*
X0238881Y0088764D01*
X0238765Y0088875D01*
X0238652Y0088990D01*
X0238542Y0089107D01*
X0238435Y0089227D01*
X0238331Y0089349D01*
X0238230Y0089474D01*
X0238132Y0089602D01*
X0238037Y0089732D01*
X0237945Y0089864D01*
X0237857Y0089998D01*
X0237772Y0090135D01*
X0237690Y0090273D01*
X0237612Y0090414D01*
X0237538Y0090556D01*
X0237467Y0090700D01*
X0237399Y0090846D01*
X0237336Y0090994D01*
X0237275Y0091143D01*
X0237219Y0091294D01*
X0237166Y0091446D01*
X0237117Y0091599D01*
X0237072Y0091753D01*
X0237031Y0091908D01*
X0236993Y0092065D01*
X0236960Y0092222D01*
X0236930Y0092380D01*
X0236904Y0092539D01*
X0236883Y0092698D01*
X0236865Y0092858D01*
X0236851Y0093018D01*
X0236841Y0093179D01*
X0236835Y0093339D01*
X0236833Y0093500D01*
X0268833Y0093500D02*
X0268835Y0093661D01*
X0268841Y0093821D01*
X0268851Y0093982D01*
X0268865Y0094142D01*
X0268883Y0094302D01*
X0268904Y0094461D01*
X0268930Y0094620D01*
X0268960Y0094778D01*
X0268993Y0094935D01*
X0269031Y0095092D01*
X0269072Y0095247D01*
X0269117Y0095401D01*
X0269166Y0095554D01*
X0269219Y0095706D01*
X0269275Y0095857D01*
X0269336Y0096006D01*
X0269399Y0096154D01*
X0269467Y0096300D01*
X0269538Y0096444D01*
X0269612Y0096586D01*
X0269690Y0096727D01*
X0269772Y0096865D01*
X0269857Y0097002D01*
X0269945Y0097136D01*
X0270037Y0097268D01*
X0270132Y0097398D01*
X0270230Y0097526D01*
X0270331Y0097651D01*
X0270435Y0097773D01*
X0270542Y0097893D01*
X0270652Y0098010D01*
X0270765Y0098125D01*
X0270881Y0098236D01*
X0271000Y0098345D01*
X0271121Y0098450D01*
X0271245Y0098553D01*
X0271371Y0098653D01*
X0271499Y0098749D01*
X0271630Y0098842D01*
X0271764Y0098932D01*
X0271899Y0099019D01*
X0272037Y0099102D01*
X0272176Y0099182D01*
X0272318Y0099258D01*
X0272461Y0099331D01*
X0272606Y0099400D01*
X0272753Y0099466D01*
X0272901Y0099528D01*
X0273051Y0099586D01*
X0273202Y0099641D01*
X0273355Y0099692D01*
X0273509Y0099739D01*
X0273664Y0099782D01*
X0273820Y0099821D01*
X0273976Y0099857D01*
X0274134Y0099888D01*
X0274292Y0099916D01*
X0274451Y0099940D01*
X0274611Y0099960D01*
X0274771Y0099976D01*
X0274931Y0099988D01*
X0275092Y0099996D01*
X0275253Y0100000D01*
X0275413Y0100000D01*
X0275574Y0099996D01*
X0275735Y0099988D01*
X0275895Y0099976D01*
X0276055Y0099960D01*
X0276215Y0099940D01*
X0276374Y0099916D01*
X0276532Y0099888D01*
X0276690Y0099857D01*
X0276846Y0099821D01*
X0277002Y0099782D01*
X0277157Y0099739D01*
X0277311Y0099692D01*
X0277464Y0099641D01*
X0277615Y0099586D01*
X0277765Y0099528D01*
X0277913Y0099466D01*
X0278060Y0099400D01*
X0278205Y0099331D01*
X0278348Y0099258D01*
X0278490Y0099182D01*
X0278629Y0099102D01*
X0278767Y0099019D01*
X0278902Y0098932D01*
X0279036Y0098842D01*
X0279167Y0098749D01*
X0279295Y0098653D01*
X0279421Y0098553D01*
X0279545Y0098450D01*
X0279666Y0098345D01*
X0279785Y0098236D01*
X0279901Y0098125D01*
X0280014Y0098010D01*
X0280124Y0097893D01*
X0280231Y0097773D01*
X0280335Y0097651D01*
X0280436Y0097526D01*
X0280534Y0097398D01*
X0280629Y0097268D01*
X0280721Y0097136D01*
X0280809Y0097002D01*
X0280894Y0096865D01*
X0280976Y0096727D01*
X0281054Y0096586D01*
X0281128Y0096444D01*
X0281199Y0096300D01*
X0281267Y0096154D01*
X0281330Y0096006D01*
X0281391Y0095857D01*
X0281447Y0095706D01*
X0281500Y0095554D01*
X0281549Y0095401D01*
X0281594Y0095247D01*
X0281635Y0095092D01*
X0281673Y0094935D01*
X0281706Y0094778D01*
X0281736Y0094620D01*
X0281762Y0094461D01*
X0281783Y0094302D01*
X0281801Y0094142D01*
X0281815Y0093982D01*
X0281825Y0093821D01*
X0281831Y0093661D01*
X0281833Y0093500D01*
X0281831Y0093339D01*
X0281825Y0093179D01*
X0281815Y0093018D01*
X0281801Y0092858D01*
X0281783Y0092698D01*
X0281762Y0092539D01*
X0281736Y0092380D01*
X0281706Y0092222D01*
X0281673Y0092065D01*
X0281635Y0091908D01*
X0281594Y0091753D01*
X0281549Y0091599D01*
X0281500Y0091446D01*
X0281447Y0091294D01*
X0281391Y0091143D01*
X0281330Y0090994D01*
X0281267Y0090846D01*
X0281199Y0090700D01*
X0281128Y0090556D01*
X0281054Y0090414D01*
X0280976Y0090273D01*
X0280894Y0090135D01*
X0280809Y0089998D01*
X0280721Y0089864D01*
X0280629Y0089732D01*
X0280534Y0089602D01*
X0280436Y0089474D01*
X0280335Y0089349D01*
X0280231Y0089227D01*
X0280124Y0089107D01*
X0280014Y0088990D01*
X0279901Y0088875D01*
X0279785Y0088764D01*
X0279666Y0088655D01*
X0279545Y0088550D01*
X0279421Y0088447D01*
X0279295Y0088347D01*
X0279167Y0088251D01*
X0279036Y0088158D01*
X0278902Y0088068D01*
X0278767Y0087981D01*
X0278629Y0087898D01*
X0278490Y0087818D01*
X0278348Y0087742D01*
X0278205Y0087669D01*
X0278060Y0087600D01*
X0277913Y0087534D01*
X0277765Y0087472D01*
X0277615Y0087414D01*
X0277464Y0087359D01*
X0277311Y0087308D01*
X0277157Y0087261D01*
X0277002Y0087218D01*
X0276846Y0087179D01*
X0276690Y0087143D01*
X0276532Y0087112D01*
X0276374Y0087084D01*
X0276215Y0087060D01*
X0276055Y0087040D01*
X0275895Y0087024D01*
X0275735Y0087012D01*
X0275574Y0087004D01*
X0275413Y0087000D01*
X0275253Y0087000D01*
X0275092Y0087004D01*
X0274931Y0087012D01*
X0274771Y0087024D01*
X0274611Y0087040D01*
X0274451Y0087060D01*
X0274292Y0087084D01*
X0274134Y0087112D01*
X0273976Y0087143D01*
X0273820Y0087179D01*
X0273664Y0087218D01*
X0273509Y0087261D01*
X0273355Y0087308D01*
X0273202Y0087359D01*
X0273051Y0087414D01*
X0272901Y0087472D01*
X0272753Y0087534D01*
X0272606Y0087600D01*
X0272461Y0087669D01*
X0272318Y0087742D01*
X0272176Y0087818D01*
X0272037Y0087898D01*
X0271899Y0087981D01*
X0271764Y0088068D01*
X0271630Y0088158D01*
X0271499Y0088251D01*
X0271371Y0088347D01*
X0271245Y0088447D01*
X0271121Y0088550D01*
X0271000Y0088655D01*
X0270881Y0088764D01*
X0270765Y0088875D01*
X0270652Y0088990D01*
X0270542Y0089107D01*
X0270435Y0089227D01*
X0270331Y0089349D01*
X0270230Y0089474D01*
X0270132Y0089602D01*
X0270037Y0089732D01*
X0269945Y0089864D01*
X0269857Y0089998D01*
X0269772Y0090135D01*
X0269690Y0090273D01*
X0269612Y0090414D01*
X0269538Y0090556D01*
X0269467Y0090700D01*
X0269399Y0090846D01*
X0269336Y0090994D01*
X0269275Y0091143D01*
X0269219Y0091294D01*
X0269166Y0091446D01*
X0269117Y0091599D01*
X0269072Y0091753D01*
X0269031Y0091908D01*
X0268993Y0092065D01*
X0268960Y0092222D01*
X0268930Y0092380D01*
X0268904Y0092539D01*
X0268883Y0092698D01*
X0268865Y0092858D01*
X0268851Y0093018D01*
X0268841Y0093179D01*
X0268835Y0093339D01*
X0268833Y0093500D01*
X0338833Y0093500D02*
X0338835Y0093661D01*
X0338841Y0093821D01*
X0338851Y0093982D01*
X0338865Y0094142D01*
X0338883Y0094302D01*
X0338904Y0094461D01*
X0338930Y0094620D01*
X0338960Y0094778D01*
X0338993Y0094935D01*
X0339031Y0095092D01*
X0339072Y0095247D01*
X0339117Y0095401D01*
X0339166Y0095554D01*
X0339219Y0095706D01*
X0339275Y0095857D01*
X0339336Y0096006D01*
X0339399Y0096154D01*
X0339467Y0096300D01*
X0339538Y0096444D01*
X0339612Y0096586D01*
X0339690Y0096727D01*
X0339772Y0096865D01*
X0339857Y0097002D01*
X0339945Y0097136D01*
X0340037Y0097268D01*
X0340132Y0097398D01*
X0340230Y0097526D01*
X0340331Y0097651D01*
X0340435Y0097773D01*
X0340542Y0097893D01*
X0340652Y0098010D01*
X0340765Y0098125D01*
X0340881Y0098236D01*
X0341000Y0098345D01*
X0341121Y0098450D01*
X0341245Y0098553D01*
X0341371Y0098653D01*
X0341499Y0098749D01*
X0341630Y0098842D01*
X0341764Y0098932D01*
X0341899Y0099019D01*
X0342037Y0099102D01*
X0342176Y0099182D01*
X0342318Y0099258D01*
X0342461Y0099331D01*
X0342606Y0099400D01*
X0342753Y0099466D01*
X0342901Y0099528D01*
X0343051Y0099586D01*
X0343202Y0099641D01*
X0343355Y0099692D01*
X0343509Y0099739D01*
X0343664Y0099782D01*
X0343820Y0099821D01*
X0343976Y0099857D01*
X0344134Y0099888D01*
X0344292Y0099916D01*
X0344451Y0099940D01*
X0344611Y0099960D01*
X0344771Y0099976D01*
X0344931Y0099988D01*
X0345092Y0099996D01*
X0345253Y0100000D01*
X0345413Y0100000D01*
X0345574Y0099996D01*
X0345735Y0099988D01*
X0345895Y0099976D01*
X0346055Y0099960D01*
X0346215Y0099940D01*
X0346374Y0099916D01*
X0346532Y0099888D01*
X0346690Y0099857D01*
X0346846Y0099821D01*
X0347002Y0099782D01*
X0347157Y0099739D01*
X0347311Y0099692D01*
X0347464Y0099641D01*
X0347615Y0099586D01*
X0347765Y0099528D01*
X0347913Y0099466D01*
X0348060Y0099400D01*
X0348205Y0099331D01*
X0348348Y0099258D01*
X0348490Y0099182D01*
X0348629Y0099102D01*
X0348767Y0099019D01*
X0348902Y0098932D01*
X0349036Y0098842D01*
X0349167Y0098749D01*
X0349295Y0098653D01*
X0349421Y0098553D01*
X0349545Y0098450D01*
X0349666Y0098345D01*
X0349785Y0098236D01*
X0349901Y0098125D01*
X0350014Y0098010D01*
X0350124Y0097893D01*
X0350231Y0097773D01*
X0350335Y0097651D01*
X0350436Y0097526D01*
X0350534Y0097398D01*
X0350629Y0097268D01*
X0350721Y0097136D01*
X0350809Y0097002D01*
X0350894Y0096865D01*
X0350976Y0096727D01*
X0351054Y0096586D01*
X0351128Y0096444D01*
X0351199Y0096300D01*
X0351267Y0096154D01*
X0351330Y0096006D01*
X0351391Y0095857D01*
X0351447Y0095706D01*
X0351500Y0095554D01*
X0351549Y0095401D01*
X0351594Y0095247D01*
X0351635Y0095092D01*
X0351673Y0094935D01*
X0351706Y0094778D01*
X0351736Y0094620D01*
X0351762Y0094461D01*
X0351783Y0094302D01*
X0351801Y0094142D01*
X0351815Y0093982D01*
X0351825Y0093821D01*
X0351831Y0093661D01*
X0351833Y0093500D01*
X0351831Y0093339D01*
X0351825Y0093179D01*
X0351815Y0093018D01*
X0351801Y0092858D01*
X0351783Y0092698D01*
X0351762Y0092539D01*
X0351736Y0092380D01*
X0351706Y0092222D01*
X0351673Y0092065D01*
X0351635Y0091908D01*
X0351594Y0091753D01*
X0351549Y0091599D01*
X0351500Y0091446D01*
X0351447Y0091294D01*
X0351391Y0091143D01*
X0351330Y0090994D01*
X0351267Y0090846D01*
X0351199Y0090700D01*
X0351128Y0090556D01*
X0351054Y0090414D01*
X0350976Y0090273D01*
X0350894Y0090135D01*
X0350809Y0089998D01*
X0350721Y0089864D01*
X0350629Y0089732D01*
X0350534Y0089602D01*
X0350436Y0089474D01*
X0350335Y0089349D01*
X0350231Y0089227D01*
X0350124Y0089107D01*
X0350014Y0088990D01*
X0349901Y0088875D01*
X0349785Y0088764D01*
X0349666Y0088655D01*
X0349545Y0088550D01*
X0349421Y0088447D01*
X0349295Y0088347D01*
X0349167Y0088251D01*
X0349036Y0088158D01*
X0348902Y0088068D01*
X0348767Y0087981D01*
X0348629Y0087898D01*
X0348490Y0087818D01*
X0348348Y0087742D01*
X0348205Y0087669D01*
X0348060Y0087600D01*
X0347913Y0087534D01*
X0347765Y0087472D01*
X0347615Y0087414D01*
X0347464Y0087359D01*
X0347311Y0087308D01*
X0347157Y0087261D01*
X0347002Y0087218D01*
X0346846Y0087179D01*
X0346690Y0087143D01*
X0346532Y0087112D01*
X0346374Y0087084D01*
X0346215Y0087060D01*
X0346055Y0087040D01*
X0345895Y0087024D01*
X0345735Y0087012D01*
X0345574Y0087004D01*
X0345413Y0087000D01*
X0345253Y0087000D01*
X0345092Y0087004D01*
X0344931Y0087012D01*
X0344771Y0087024D01*
X0344611Y0087040D01*
X0344451Y0087060D01*
X0344292Y0087084D01*
X0344134Y0087112D01*
X0343976Y0087143D01*
X0343820Y0087179D01*
X0343664Y0087218D01*
X0343509Y0087261D01*
X0343355Y0087308D01*
X0343202Y0087359D01*
X0343051Y0087414D01*
X0342901Y0087472D01*
X0342753Y0087534D01*
X0342606Y0087600D01*
X0342461Y0087669D01*
X0342318Y0087742D01*
X0342176Y0087818D01*
X0342037Y0087898D01*
X0341899Y0087981D01*
X0341764Y0088068D01*
X0341630Y0088158D01*
X0341499Y0088251D01*
X0341371Y0088347D01*
X0341245Y0088447D01*
X0341121Y0088550D01*
X0341000Y0088655D01*
X0340881Y0088764D01*
X0340765Y0088875D01*
X0340652Y0088990D01*
X0340542Y0089107D01*
X0340435Y0089227D01*
X0340331Y0089349D01*
X0340230Y0089474D01*
X0340132Y0089602D01*
X0340037Y0089732D01*
X0339945Y0089864D01*
X0339857Y0089998D01*
X0339772Y0090135D01*
X0339690Y0090273D01*
X0339612Y0090414D01*
X0339538Y0090556D01*
X0339467Y0090700D01*
X0339399Y0090846D01*
X0339336Y0090994D01*
X0339275Y0091143D01*
X0339219Y0091294D01*
X0339166Y0091446D01*
X0339117Y0091599D01*
X0339072Y0091753D01*
X0339031Y0091908D01*
X0338993Y0092065D01*
X0338960Y0092222D01*
X0338930Y0092380D01*
X0338904Y0092539D01*
X0338883Y0092698D01*
X0338865Y0092858D01*
X0338851Y0093018D01*
X0338841Y0093179D01*
X0338835Y0093339D01*
X0338833Y0093500D01*
D15*
X0317026Y0099642D02*
X0317026Y0105941D01*
X0303640Y0105941D01*
X0303640Y0099642D01*
X0317026Y0099642D01*
X0317026Y0113059D02*
X0303640Y0113059D01*
X0303640Y0119358D01*
X0317026Y0119358D01*
X0317026Y0113059D01*
X0351475Y0153807D02*
X0357774Y0153807D01*
X0357774Y0167193D01*
X0351475Y0167193D01*
X0351475Y0153807D01*
X0315058Y0156319D02*
X0305609Y0156319D01*
X0305609Y0164587D01*
X0315058Y0164587D01*
X0315058Y0156319D01*
X0269192Y0153807D02*
X0262892Y0153807D01*
X0262892Y0167193D01*
X0269192Y0167193D01*
X0269192Y0153807D01*
X0255774Y0153807D02*
X0255774Y0167193D01*
X0249475Y0167193D01*
X0249475Y0153807D01*
X0255774Y0153807D01*
X0213058Y0156319D02*
X0203609Y0156319D01*
X0203609Y0164587D01*
X0213058Y0164587D01*
X0213058Y0156319D01*
X0215026Y0119358D02*
X0201640Y0119358D01*
X0201640Y0113059D01*
X0215026Y0113059D01*
X0215026Y0119358D01*
X0215026Y0105941D02*
X0201640Y0105941D01*
X0201640Y0099642D01*
X0215026Y0099642D01*
X0215026Y0105941D01*
X0249475Y0065193D02*
X0255774Y0065193D01*
X0255774Y0051807D01*
X0249475Y0051807D01*
X0249475Y0065193D01*
X0262892Y0065193D02*
X0269192Y0065193D01*
X0269192Y0051807D01*
X0262892Y0051807D01*
X0262892Y0065193D01*
X0305609Y0062587D02*
X0305609Y0054319D01*
X0315058Y0054319D01*
X0315058Y0062587D01*
X0305609Y0062587D01*
X0351475Y0065193D02*
X0351475Y0051807D01*
X0357774Y0051807D01*
X0357774Y0065193D01*
X0351475Y0065193D01*
X0317026Y0017358D02*
X0303640Y0017358D01*
X0303640Y0011059D01*
X0317026Y0011059D01*
X0317026Y0017358D01*
X0215026Y0017358D02*
X0215026Y0011059D01*
X0201640Y0011059D01*
X0201640Y0017358D01*
X0215026Y0017358D01*
X0213058Y0054319D02*
X0203609Y0054319D01*
X0203609Y0062587D01*
X0213058Y0062587D01*
X0213058Y0054319D01*
X0167192Y0051807D02*
X0160892Y0051807D01*
X0160892Y0065193D01*
X0167192Y0065193D01*
X0167192Y0051807D01*
X0153774Y0051807D02*
X0153774Y0065193D01*
X0147475Y0065193D01*
X0147475Y0051807D01*
X0153774Y0051807D01*
X0113026Y0017358D02*
X0113026Y0011059D01*
X0099640Y0011059D01*
X0099640Y0017358D01*
X0113026Y0017358D01*
X0111058Y0054319D02*
X0101609Y0054319D01*
X0101609Y0062587D01*
X0111058Y0062587D01*
X0111058Y0054319D01*
X0065192Y0051807D02*
X0058892Y0051807D01*
X0058892Y0065193D01*
X0065192Y0065193D01*
X0065192Y0051807D01*
X0099640Y0099642D02*
X0099640Y0105941D01*
X0113026Y0105941D01*
X0113026Y0099642D01*
X0099640Y0099642D01*
X0099640Y0113059D02*
X0099640Y0119358D01*
X0113026Y0119358D01*
X0113026Y0113059D01*
X0099640Y0113059D01*
X0065192Y0153807D02*
X0058892Y0153807D01*
X0058892Y0167193D01*
X0065192Y0167193D01*
X0065192Y0153807D01*
X0101609Y0156319D02*
X0101609Y0164587D01*
X0111058Y0164587D01*
X0111058Y0156319D01*
X0101609Y0156319D01*
X0147475Y0153807D02*
X0153774Y0153807D01*
X0153774Y0167193D01*
X0147475Y0167193D01*
X0147475Y0153807D01*
X0160892Y0153807D02*
X0160892Y0167193D01*
X0167192Y0167193D01*
X0167192Y0153807D01*
X0160892Y0153807D01*
X0201640Y0201642D02*
X0201640Y0207941D01*
X0215026Y0207941D01*
X0215026Y0201642D01*
X0201640Y0201642D01*
X0201640Y0215059D02*
X0201640Y0221358D01*
X0215026Y0221358D01*
X0215026Y0215059D01*
X0201640Y0215059D01*
X0203609Y0258319D02*
X0203609Y0266587D01*
X0213058Y0266587D01*
X0213058Y0258319D01*
X0203609Y0258319D01*
X0167192Y0255807D02*
X0160892Y0255807D01*
X0160892Y0269193D01*
X0167192Y0269193D01*
X0167192Y0255807D01*
X0153774Y0255807D02*
X0153774Y0269193D01*
X0147475Y0269193D01*
X0147475Y0255807D01*
X0153774Y0255807D01*
X0113026Y0221358D02*
X0113026Y0215059D01*
X0099640Y0215059D01*
X0099640Y0221358D01*
X0113026Y0221358D01*
X0113026Y0207941D02*
X0099640Y0207941D01*
X0099640Y0201642D01*
X0113026Y0201642D01*
X0113026Y0207941D01*
X0111058Y0258319D02*
X0101609Y0258319D01*
X0101609Y0266587D01*
X0111058Y0266587D01*
X0111058Y0258319D01*
X0065192Y0255807D02*
X0058892Y0255807D01*
X0058892Y0269193D01*
X0065192Y0269193D01*
X0065192Y0255807D01*
X0099640Y0303642D02*
X0099640Y0309941D01*
X0113026Y0309941D01*
X0113026Y0303642D01*
X0099640Y0303642D01*
X0201640Y0303642D02*
X0201640Y0309941D01*
X0215026Y0309941D01*
X0215026Y0303642D01*
X0201640Y0303642D01*
X0249475Y0269193D02*
X0255774Y0269193D01*
X0255774Y0255807D01*
X0249475Y0255807D01*
X0249475Y0269193D01*
X0262892Y0269193D02*
X0269192Y0269193D01*
X0269192Y0255807D01*
X0262892Y0255807D01*
X0262892Y0269193D01*
X0303640Y0303642D02*
X0303640Y0309941D01*
X0317026Y0309941D01*
X0317026Y0303642D01*
X0303640Y0303642D01*
X0305609Y0266587D02*
X0305609Y0258319D01*
X0315058Y0258319D01*
X0315058Y0266587D01*
X0305609Y0266587D01*
X0351475Y0269193D02*
X0351475Y0255807D01*
X0357774Y0255807D01*
X0357774Y0269193D01*
X0351475Y0269193D01*
X0317026Y0221358D02*
X0303640Y0221358D01*
X0303640Y0215059D01*
X0317026Y0215059D01*
X0317026Y0221358D01*
X0317026Y0207941D02*
X0303640Y0207941D01*
X0303640Y0201642D01*
X0317026Y0201642D01*
X0317026Y0207941D01*
M02*
