G75*
%MOIN*%
%OFA0B0*%
%FSLAX25Y25*%
%IPPOS*%
%LPD*%
%AMOC8*
5,1,8,0,0,1.08239X$1,22.5*
%
%ADD10C,0.00500*%
D10*
X0058892Y0051807D02*
X0058892Y0065193D01*
X0065192Y0065193D01*
X0065192Y0051807D01*
X0058892Y0051807D01*
X0058892Y0051870D02*
X0065192Y0051870D01*
X0065192Y0052369D02*
X0058892Y0052369D01*
X0058892Y0052868D02*
X0065192Y0052868D01*
X0065192Y0053366D02*
X0058892Y0053366D01*
X0058892Y0053865D02*
X0065192Y0053865D01*
X0065192Y0054363D02*
X0058892Y0054363D01*
X0058892Y0054862D02*
X0065192Y0054862D01*
X0065192Y0055360D02*
X0058892Y0055360D01*
X0058892Y0055859D02*
X0065192Y0055859D01*
X0065192Y0056357D02*
X0058892Y0056357D01*
X0058892Y0056856D02*
X0065192Y0056856D01*
X0065192Y0057354D02*
X0058892Y0057354D01*
X0058892Y0057853D02*
X0065192Y0057853D01*
X0065192Y0058351D02*
X0058892Y0058351D01*
X0058892Y0058850D02*
X0065192Y0058850D01*
X0065192Y0059348D02*
X0058892Y0059348D01*
X0058892Y0059847D02*
X0065192Y0059847D01*
X0065192Y0060345D02*
X0058892Y0060345D01*
X0058892Y0060844D02*
X0065192Y0060844D01*
X0065192Y0061342D02*
X0058892Y0061342D01*
X0058892Y0061841D02*
X0065192Y0061841D01*
X0065192Y0062339D02*
X0058892Y0062339D01*
X0058892Y0062838D02*
X0065192Y0062838D01*
X0065192Y0063336D02*
X0058892Y0063336D01*
X0058892Y0063835D02*
X0065192Y0063835D01*
X0065192Y0064333D02*
X0058892Y0064333D01*
X0058892Y0064832D02*
X0065192Y0064832D01*
X0101609Y0062587D02*
X0101609Y0054319D01*
X0111058Y0054319D01*
X0111058Y0062587D01*
X0101609Y0062587D01*
X0099640Y0099642D02*
X0113026Y0099642D01*
X0113026Y0105941D01*
X0099640Y0105941D01*
X0099640Y0099642D01*
X0099640Y0099728D02*
X0113026Y0099728D01*
X0113026Y0100226D02*
X0099640Y0100226D01*
X0099640Y0100725D02*
X0113026Y0100725D01*
X0113026Y0101223D02*
X0099640Y0101223D01*
X0099640Y0101722D02*
X0113026Y0101722D01*
X0113026Y0102220D02*
X0099640Y0102220D01*
X0099640Y0102719D02*
X0113026Y0102719D01*
X0113026Y0103217D02*
X0099640Y0103217D01*
X0099640Y0103716D02*
X0113026Y0103716D01*
X0113026Y0104214D02*
X0099640Y0104214D01*
X0099640Y0104713D02*
X0113026Y0104713D01*
X0113026Y0105211D02*
X0099640Y0105211D01*
X0099640Y0105710D02*
X0113026Y0105710D01*
X0113026Y0113059D02*
X0099640Y0113059D01*
X0099640Y0119358D01*
X0113026Y0119358D01*
X0113026Y0113059D01*
X0113026Y0113187D02*
X0099640Y0113187D01*
X0099640Y0113686D02*
X0113026Y0113686D01*
X0113026Y0114184D02*
X0099640Y0114184D01*
X0099640Y0114683D02*
X0113026Y0114683D01*
X0113026Y0115181D02*
X0099640Y0115181D01*
X0099640Y0115680D02*
X0113026Y0115680D01*
X0113026Y0116178D02*
X0099640Y0116178D01*
X0099640Y0116677D02*
X0113026Y0116677D01*
X0113026Y0117175D02*
X0099640Y0117175D01*
X0099640Y0117674D02*
X0113026Y0117674D01*
X0113026Y0118172D02*
X0099640Y0118172D01*
X0099640Y0118671D02*
X0113026Y0118671D01*
X0113026Y0119170D02*
X0099640Y0119170D01*
X0065192Y0153807D02*
X0065192Y0167193D01*
X0058892Y0167193D01*
X0058892Y0153807D01*
X0065192Y0153807D01*
X0065192Y0154065D02*
X0058892Y0154065D01*
X0058892Y0154564D02*
X0065192Y0154564D01*
X0065192Y0155062D02*
X0058892Y0155062D01*
X0058892Y0155561D02*
X0065192Y0155561D01*
X0065192Y0156059D02*
X0058892Y0156059D01*
X0058892Y0156558D02*
X0065192Y0156558D01*
X0065192Y0157056D02*
X0058892Y0157056D01*
X0058892Y0157555D02*
X0065192Y0157555D01*
X0065192Y0158053D02*
X0058892Y0158053D01*
X0058892Y0158552D02*
X0065192Y0158552D01*
X0065192Y0159050D02*
X0058892Y0159050D01*
X0058892Y0159549D02*
X0065192Y0159549D01*
X0065192Y0160047D02*
X0058892Y0160047D01*
X0058892Y0160546D02*
X0065192Y0160546D01*
X0065192Y0161044D02*
X0058892Y0161044D01*
X0058892Y0161543D02*
X0065192Y0161543D01*
X0065192Y0162041D02*
X0058892Y0162041D01*
X0058892Y0162540D02*
X0065192Y0162540D01*
X0065192Y0163039D02*
X0058892Y0163039D01*
X0058892Y0163537D02*
X0065192Y0163537D01*
X0065192Y0164036D02*
X0058892Y0164036D01*
X0058892Y0164534D02*
X0065192Y0164534D01*
X0065192Y0165033D02*
X0058892Y0165033D01*
X0058892Y0165531D02*
X0065192Y0165531D01*
X0065192Y0166030D02*
X0058892Y0166030D01*
X0058892Y0166528D02*
X0065192Y0166528D01*
X0065192Y0167027D02*
X0058892Y0167027D01*
X0099640Y0201642D02*
X0113026Y0201642D01*
X0113026Y0207941D01*
X0099640Y0207941D01*
X0099640Y0201642D01*
X0099640Y0201922D02*
X0113026Y0201922D01*
X0113026Y0202421D02*
X0099640Y0202421D01*
X0099640Y0202919D02*
X0113026Y0202919D01*
X0113026Y0203418D02*
X0099640Y0203418D01*
X0099640Y0203916D02*
X0113026Y0203916D01*
X0113026Y0204415D02*
X0099640Y0204415D01*
X0099640Y0204913D02*
X0113026Y0204913D01*
X0113026Y0205412D02*
X0099640Y0205412D01*
X0099640Y0205910D02*
X0113026Y0205910D01*
X0113026Y0206409D02*
X0099640Y0206409D01*
X0099640Y0206908D02*
X0113026Y0206908D01*
X0113026Y0207406D02*
X0099640Y0207406D01*
X0099640Y0207905D02*
X0113026Y0207905D01*
X0113026Y0215059D02*
X0099640Y0215059D01*
X0099640Y0221358D01*
X0113026Y0221358D01*
X0113026Y0215059D01*
X0113026Y0215382D02*
X0099640Y0215382D01*
X0099640Y0215881D02*
X0113026Y0215881D01*
X0113026Y0216379D02*
X0099640Y0216379D01*
X0099640Y0216878D02*
X0113026Y0216878D01*
X0113026Y0217376D02*
X0099640Y0217376D01*
X0099640Y0217875D02*
X0113026Y0217875D01*
X0113026Y0218373D02*
X0099640Y0218373D01*
X0099640Y0218872D02*
X0113026Y0218872D01*
X0113026Y0219370D02*
X0099640Y0219370D01*
X0099640Y0219869D02*
X0113026Y0219869D01*
X0113026Y0220367D02*
X0099640Y0220367D01*
X0099640Y0220866D02*
X0113026Y0220866D01*
X0111058Y0258319D02*
X0101609Y0258319D01*
X0101609Y0266587D01*
X0111058Y0266587D01*
X0111058Y0258319D01*
X0147475Y0258254D02*
X0153774Y0258254D01*
X0147475Y0258254D01*
X0147475Y0257756D02*
X0153774Y0257756D01*
X0147475Y0257756D01*
X0147475Y0257257D02*
X0153774Y0257257D01*
X0147475Y0257257D01*
X0147475Y0256759D02*
X0153774Y0256759D01*
X0147475Y0256759D01*
X0147475Y0256260D02*
X0153774Y0256260D01*
X0147475Y0256260D01*
X0147475Y0255807D02*
X0153774Y0255807D01*
X0153774Y0269193D01*
X0147475Y0269193D01*
X0147475Y0255807D01*
X0153774Y0255807D01*
X0153774Y0269193D01*
X0147475Y0269193D01*
X0147475Y0255807D01*
X0147475Y0258753D02*
X0153774Y0258753D01*
X0147475Y0258753D01*
X0147475Y0259251D02*
X0153774Y0259251D01*
X0147475Y0259251D01*
X0147475Y0259750D02*
X0153774Y0259750D01*
X0147475Y0259750D01*
X0147475Y0260248D02*
X0153774Y0260248D01*
X0147475Y0260248D01*
X0147475Y0260747D02*
X0153774Y0260747D01*
X0147475Y0260747D01*
X0147475Y0261245D02*
X0153774Y0261245D01*
X0147475Y0261245D01*
X0147475Y0261744D02*
X0153774Y0261744D01*
X0147475Y0261744D01*
X0147475Y0262242D02*
X0153774Y0262242D01*
X0147475Y0262242D01*
X0147475Y0262741D02*
X0153774Y0262741D01*
X0147475Y0262741D01*
X0147475Y0263239D02*
X0153774Y0263239D01*
X0147475Y0263239D01*
X0147475Y0263738D02*
X0153774Y0263738D01*
X0147475Y0263738D01*
X0147475Y0264236D02*
X0153774Y0264236D01*
X0147475Y0264236D01*
X0147475Y0264735D02*
X0153774Y0264735D01*
X0147475Y0264735D01*
X0147475Y0265233D02*
X0153774Y0265233D01*
X0147475Y0265233D01*
X0147475Y0265732D02*
X0153774Y0265732D01*
X0147475Y0265732D01*
X0147475Y0266230D02*
X0153774Y0266230D01*
X0147475Y0266230D01*
X0147475Y0266729D02*
X0153774Y0266729D01*
X0147475Y0266729D01*
X0147475Y0267227D02*
X0153774Y0267227D01*
X0147475Y0267227D01*
X0147475Y0267726D02*
X0153774Y0267726D01*
X0147475Y0267726D01*
X0147475Y0268224D02*
X0153774Y0268224D01*
X0147475Y0268224D01*
X0147475Y0268723D02*
X0153774Y0268723D01*
X0147475Y0268723D01*
X0160892Y0268723D02*
X0167192Y0268723D01*
X0167192Y0269193D02*
X0160892Y0269193D01*
X0160892Y0255807D01*
X0167192Y0255807D01*
X0167192Y0269193D01*
X0167192Y0268224D02*
X0160892Y0268224D01*
X0160892Y0267726D02*
X0167192Y0267726D01*
X0167192Y0267227D02*
X0160892Y0267227D01*
X0160892Y0266729D02*
X0167192Y0266729D01*
X0167192Y0266230D02*
X0160892Y0266230D01*
X0160892Y0265732D02*
X0167192Y0265732D01*
X0167192Y0265233D02*
X0160892Y0265233D01*
X0160892Y0264735D02*
X0167192Y0264735D01*
X0167192Y0264236D02*
X0160892Y0264236D01*
X0160892Y0263738D02*
X0167192Y0263738D01*
X0167192Y0263239D02*
X0160892Y0263239D01*
X0160892Y0262741D02*
X0167192Y0262741D01*
X0167192Y0262242D02*
X0160892Y0262242D01*
X0160892Y0261744D02*
X0167192Y0261744D01*
X0167192Y0261245D02*
X0160892Y0261245D01*
X0160892Y0260747D02*
X0167192Y0260747D01*
X0167192Y0260248D02*
X0160892Y0260248D01*
X0160892Y0259750D02*
X0167192Y0259750D01*
X0167192Y0259251D02*
X0160892Y0259251D01*
X0160892Y0258753D02*
X0167192Y0258753D01*
X0167192Y0258254D02*
X0160892Y0258254D01*
X0160892Y0257756D02*
X0167192Y0257756D01*
X0167192Y0257257D02*
X0160892Y0257257D01*
X0160892Y0256759D02*
X0167192Y0256759D01*
X0167192Y0256260D02*
X0160892Y0256260D01*
X0203609Y0258319D02*
X0203609Y0266587D01*
X0213058Y0266587D01*
X0213058Y0258319D01*
X0203609Y0258319D01*
X0201640Y0221358D02*
X0201640Y0215059D01*
X0215026Y0215059D01*
X0215026Y0221358D01*
X0201640Y0221358D01*
X0201640Y0220866D02*
X0215026Y0220866D01*
X0215026Y0220367D02*
X0201640Y0220367D01*
X0201640Y0219869D02*
X0215026Y0219869D01*
X0215026Y0219370D02*
X0201640Y0219370D01*
X0201640Y0218872D02*
X0215026Y0218872D01*
X0215026Y0218373D02*
X0201640Y0218373D01*
X0201640Y0217875D02*
X0215026Y0217875D01*
X0215026Y0217376D02*
X0201640Y0217376D01*
X0201640Y0216878D02*
X0215026Y0216878D01*
X0215026Y0216379D02*
X0201640Y0216379D01*
X0201640Y0215881D02*
X0215026Y0215881D01*
X0215026Y0215382D02*
X0201640Y0215382D01*
X0201640Y0207941D02*
X0215026Y0207941D01*
X0215026Y0201642D01*
X0201640Y0201642D01*
X0201640Y0207941D01*
X0201640Y0207905D02*
X0215026Y0207905D01*
X0215026Y0207406D02*
X0201640Y0207406D01*
X0201640Y0206908D02*
X0215026Y0206908D01*
X0215026Y0206409D02*
X0201640Y0206409D01*
X0201640Y0205910D02*
X0215026Y0205910D01*
X0215026Y0205412D02*
X0201640Y0205412D01*
X0201640Y0204913D02*
X0215026Y0204913D01*
X0215026Y0204415D02*
X0201640Y0204415D01*
X0201640Y0203916D02*
X0215026Y0203916D01*
X0215026Y0203418D02*
X0201640Y0203418D01*
X0201640Y0202919D02*
X0215026Y0202919D01*
X0215026Y0202421D02*
X0201640Y0202421D01*
X0201640Y0201922D02*
X0215026Y0201922D01*
X0213058Y0164587D02*
X0203609Y0164587D01*
X0203609Y0156319D01*
X0213058Y0156319D01*
X0213058Y0164587D01*
X0249475Y0164534D02*
X0255774Y0164534D01*
X0249475Y0164534D01*
X0249475Y0164036D02*
X0255774Y0164036D01*
X0249475Y0164036D01*
X0249475Y0163537D02*
X0255774Y0163537D01*
X0249475Y0163537D01*
X0249475Y0163039D02*
X0255774Y0163039D01*
X0249475Y0163039D01*
X0249475Y0162540D02*
X0255774Y0162540D01*
X0249475Y0162540D01*
X0249475Y0162041D02*
X0255774Y0162041D01*
X0249475Y0162041D01*
X0249475Y0161543D02*
X0255774Y0161543D01*
X0249475Y0161543D01*
X0249475Y0161044D02*
X0255774Y0161044D01*
X0249475Y0161044D01*
X0249475Y0160546D02*
X0255774Y0160546D01*
X0249475Y0160546D01*
X0249475Y0160047D02*
X0255774Y0160047D01*
X0249475Y0160047D01*
X0249475Y0159549D02*
X0255774Y0159549D01*
X0249475Y0159549D01*
X0249475Y0159050D02*
X0255774Y0159050D01*
X0249475Y0159050D01*
X0249475Y0158552D02*
X0255774Y0158552D01*
X0249475Y0158552D01*
X0249475Y0158053D02*
X0255774Y0158053D01*
X0249475Y0158053D01*
X0249475Y0157555D02*
X0255774Y0157555D01*
X0249475Y0157555D01*
X0249475Y0157056D02*
X0255774Y0157056D01*
X0249475Y0157056D01*
X0249475Y0156558D02*
X0255774Y0156558D01*
X0249475Y0156558D01*
X0249475Y0156059D02*
X0255774Y0156059D01*
X0249475Y0156059D01*
X0249475Y0155561D02*
X0255774Y0155561D01*
X0249475Y0155561D01*
X0249475Y0155062D02*
X0255774Y0155062D01*
X0249475Y0155062D01*
X0249475Y0154564D02*
X0255774Y0154564D01*
X0249475Y0154564D01*
X0249475Y0154065D02*
X0255774Y0154065D01*
X0249475Y0154065D01*
X0249475Y0153807D02*
X0255774Y0153807D01*
X0255774Y0167193D01*
X0249475Y0167193D01*
X0249475Y0153807D01*
X0255774Y0153807D01*
X0255774Y0167193D01*
X0249475Y0167193D01*
X0249475Y0153807D01*
X0262892Y0153807D02*
X0262892Y0167193D01*
X0269192Y0167193D01*
X0269192Y0153807D01*
X0262892Y0153807D01*
X0262892Y0154065D02*
X0269192Y0154065D01*
X0269192Y0154564D02*
X0262892Y0154564D01*
X0262892Y0155062D02*
X0269192Y0155062D01*
X0269192Y0155561D02*
X0262892Y0155561D01*
X0262892Y0156059D02*
X0269192Y0156059D01*
X0269192Y0156558D02*
X0262892Y0156558D01*
X0262892Y0157056D02*
X0269192Y0157056D01*
X0269192Y0157555D02*
X0262892Y0157555D01*
X0262892Y0158053D02*
X0269192Y0158053D01*
X0269192Y0158552D02*
X0262892Y0158552D01*
X0262892Y0159050D02*
X0269192Y0159050D01*
X0269192Y0159549D02*
X0262892Y0159549D01*
X0262892Y0160047D02*
X0269192Y0160047D01*
X0269192Y0160546D02*
X0262892Y0160546D01*
X0262892Y0161044D02*
X0269192Y0161044D01*
X0269192Y0161543D02*
X0262892Y0161543D01*
X0262892Y0162041D02*
X0269192Y0162041D01*
X0269192Y0162540D02*
X0262892Y0162540D01*
X0262892Y0163039D02*
X0269192Y0163039D01*
X0269192Y0163537D02*
X0262892Y0163537D01*
X0262892Y0164036D02*
X0269192Y0164036D01*
X0269192Y0164534D02*
X0262892Y0164534D01*
X0262892Y0165033D02*
X0269192Y0165033D01*
X0269192Y0165531D02*
X0262892Y0165531D01*
X0262892Y0166030D02*
X0269192Y0166030D01*
X0269192Y0166528D02*
X0262892Y0166528D01*
X0262892Y0167027D02*
X0269192Y0167027D01*
X0255774Y0167027D02*
X0249475Y0167027D01*
X0255774Y0167027D01*
X0255774Y0166528D02*
X0249475Y0166528D01*
X0255774Y0166528D01*
X0255774Y0166030D02*
X0249475Y0166030D01*
X0255774Y0166030D01*
X0255774Y0165531D02*
X0249475Y0165531D01*
X0255774Y0165531D01*
X0255774Y0165033D02*
X0249475Y0165033D01*
X0255774Y0165033D01*
X0303640Y0201642D02*
X0317026Y0201642D01*
X0317026Y0207941D01*
X0303640Y0207941D01*
X0303640Y0201642D01*
X0303640Y0201922D02*
X0317026Y0201922D01*
X0317026Y0202421D02*
X0303640Y0202421D01*
X0303640Y0202919D02*
X0317026Y0202919D01*
X0317026Y0203418D02*
X0303640Y0203418D01*
X0303640Y0203916D02*
X0317026Y0203916D01*
X0317026Y0204415D02*
X0303640Y0204415D01*
X0303640Y0204913D02*
X0317026Y0204913D01*
X0317026Y0205412D02*
X0303640Y0205412D01*
X0303640Y0205910D02*
X0317026Y0205910D01*
X0317026Y0206409D02*
X0303640Y0206409D01*
X0303640Y0206908D02*
X0317026Y0206908D01*
X0317026Y0207406D02*
X0303640Y0207406D01*
X0303640Y0207905D02*
X0317026Y0207905D01*
X0317026Y0215059D02*
X0303640Y0215059D01*
X0303640Y0221358D01*
X0317026Y0221358D01*
X0317026Y0215059D01*
X0317026Y0215382D02*
X0303640Y0215382D01*
X0303640Y0215881D02*
X0317026Y0215881D01*
X0317026Y0216379D02*
X0303640Y0216379D01*
X0303640Y0216878D02*
X0317026Y0216878D01*
X0317026Y0217376D02*
X0303640Y0217376D01*
X0303640Y0217875D02*
X0317026Y0217875D01*
X0317026Y0218373D02*
X0303640Y0218373D01*
X0303640Y0218872D02*
X0317026Y0218872D01*
X0317026Y0219370D02*
X0303640Y0219370D01*
X0303640Y0219869D02*
X0317026Y0219869D01*
X0317026Y0220367D02*
X0303640Y0220367D01*
X0303640Y0220866D02*
X0317026Y0220866D01*
X0315058Y0258319D02*
X0305609Y0258319D01*
X0305609Y0266587D01*
X0315058Y0266587D01*
X0315058Y0258319D01*
X0351475Y0258254D02*
X0357774Y0258254D01*
X0351475Y0258254D01*
X0351475Y0257756D02*
X0357774Y0257756D01*
X0351475Y0257756D01*
X0351475Y0257257D02*
X0357774Y0257257D01*
X0351475Y0257257D01*
X0351475Y0256759D02*
X0357774Y0256759D01*
X0351475Y0256759D01*
X0351475Y0256260D02*
X0357774Y0256260D01*
X0351475Y0256260D01*
X0351475Y0255807D02*
X0357774Y0255807D01*
X0357774Y0269193D01*
X0351475Y0269193D01*
X0351475Y0255807D01*
X0357774Y0255807D01*
X0357774Y0269193D01*
X0351475Y0269193D01*
X0351475Y0255807D01*
X0351475Y0258753D02*
X0357774Y0258753D01*
X0351475Y0258753D01*
X0351475Y0259251D02*
X0357774Y0259251D01*
X0351475Y0259251D01*
X0351475Y0259750D02*
X0357774Y0259750D01*
X0351475Y0259750D01*
X0351475Y0260248D02*
X0357774Y0260248D01*
X0351475Y0260248D01*
X0351475Y0260747D02*
X0357774Y0260747D01*
X0351475Y0260747D01*
X0351475Y0261245D02*
X0357774Y0261245D01*
X0351475Y0261245D01*
X0351475Y0261744D02*
X0357774Y0261744D01*
X0351475Y0261744D01*
X0351475Y0262242D02*
X0357774Y0262242D01*
X0351475Y0262242D01*
X0351475Y0262741D02*
X0357774Y0262741D01*
X0351475Y0262741D01*
X0351475Y0263239D02*
X0357774Y0263239D01*
X0351475Y0263239D01*
X0351475Y0263738D02*
X0357774Y0263738D01*
X0351475Y0263738D01*
X0351475Y0264236D02*
X0357774Y0264236D01*
X0351475Y0264236D01*
X0351475Y0264735D02*
X0357774Y0264735D01*
X0351475Y0264735D01*
X0351475Y0265233D02*
X0357774Y0265233D01*
X0351475Y0265233D01*
X0351475Y0265732D02*
X0357774Y0265732D01*
X0351475Y0265732D01*
X0351475Y0266230D02*
X0357774Y0266230D01*
X0351475Y0266230D01*
X0351475Y0266729D02*
X0357774Y0266729D01*
X0351475Y0266729D01*
X0351475Y0267227D02*
X0357774Y0267227D01*
X0351475Y0267227D01*
X0351475Y0267726D02*
X0357774Y0267726D01*
X0351475Y0267726D01*
X0351475Y0268224D02*
X0357774Y0268224D01*
X0351475Y0268224D01*
X0351475Y0268723D02*
X0357774Y0268723D01*
X0351475Y0268723D01*
X0317026Y0303642D02*
X0317026Y0309941D01*
X0303640Y0309941D01*
X0303640Y0303642D01*
X0317026Y0303642D01*
X0317026Y0304117D02*
X0303640Y0304117D01*
X0303640Y0304616D02*
X0317026Y0304616D01*
X0317026Y0305114D02*
X0303640Y0305114D01*
X0303640Y0305613D02*
X0317026Y0305613D01*
X0317026Y0306111D02*
X0303640Y0306111D01*
X0303640Y0306610D02*
X0317026Y0306610D01*
X0317026Y0307108D02*
X0303640Y0307108D01*
X0303640Y0307607D02*
X0317026Y0307607D01*
X0317026Y0308105D02*
X0303640Y0308105D01*
X0303640Y0308604D02*
X0317026Y0308604D01*
X0317026Y0309102D02*
X0303640Y0309102D01*
X0303640Y0309601D02*
X0317026Y0309601D01*
X0269192Y0269193D02*
X0262892Y0269193D01*
X0262892Y0255807D01*
X0269192Y0255807D01*
X0269192Y0269193D01*
X0269192Y0268723D02*
X0262892Y0268723D01*
X0262892Y0268224D02*
X0269192Y0268224D01*
X0269192Y0267726D02*
X0262892Y0267726D01*
X0262892Y0267227D02*
X0269192Y0267227D01*
X0269192Y0266729D02*
X0262892Y0266729D01*
X0262892Y0266230D02*
X0269192Y0266230D01*
X0269192Y0265732D02*
X0262892Y0265732D01*
X0262892Y0265233D02*
X0269192Y0265233D01*
X0269192Y0264735D02*
X0262892Y0264735D01*
X0262892Y0264236D02*
X0269192Y0264236D01*
X0269192Y0263738D02*
X0262892Y0263738D01*
X0262892Y0263239D02*
X0269192Y0263239D01*
X0269192Y0262741D02*
X0262892Y0262741D01*
X0262892Y0262242D02*
X0269192Y0262242D01*
X0269192Y0261744D02*
X0262892Y0261744D01*
X0262892Y0261245D02*
X0269192Y0261245D01*
X0269192Y0260747D02*
X0262892Y0260747D01*
X0262892Y0260248D02*
X0269192Y0260248D01*
X0269192Y0259750D02*
X0262892Y0259750D01*
X0262892Y0259251D02*
X0269192Y0259251D01*
X0269192Y0258753D02*
X0262892Y0258753D01*
X0262892Y0258254D02*
X0269192Y0258254D01*
X0269192Y0257756D02*
X0262892Y0257756D01*
X0262892Y0257257D02*
X0269192Y0257257D01*
X0269192Y0256759D02*
X0262892Y0256759D01*
X0262892Y0256260D02*
X0269192Y0256260D01*
X0255774Y0256260D02*
X0249475Y0256260D01*
X0255774Y0256260D01*
X0255774Y0255807D02*
X0255774Y0269193D01*
X0249475Y0269193D01*
X0249475Y0255807D01*
X0255774Y0255807D01*
X0255774Y0269193D01*
X0249475Y0269193D01*
X0249475Y0255807D01*
X0255774Y0255807D01*
X0255774Y0256759D02*
X0249475Y0256759D01*
X0255774Y0256759D01*
X0255774Y0257257D02*
X0249475Y0257257D01*
X0255774Y0257257D01*
X0255774Y0257756D02*
X0249475Y0257756D01*
X0255774Y0257756D01*
X0255774Y0258254D02*
X0249475Y0258254D01*
X0255774Y0258254D01*
X0255774Y0258753D02*
X0249475Y0258753D01*
X0255774Y0258753D01*
X0255774Y0259251D02*
X0249475Y0259251D01*
X0255774Y0259251D01*
X0255774Y0259750D02*
X0249475Y0259750D01*
X0255774Y0259750D01*
X0255774Y0260248D02*
X0249475Y0260248D01*
X0255774Y0260248D01*
X0255774Y0260747D02*
X0249475Y0260747D01*
X0255774Y0260747D01*
X0255774Y0261245D02*
X0249475Y0261245D01*
X0255774Y0261245D01*
X0255774Y0261744D02*
X0249475Y0261744D01*
X0255774Y0261744D01*
X0255774Y0262242D02*
X0249475Y0262242D01*
X0255774Y0262242D01*
X0255774Y0262741D02*
X0249475Y0262741D01*
X0255774Y0262741D01*
X0255774Y0263239D02*
X0249475Y0263239D01*
X0255774Y0263239D01*
X0255774Y0263738D02*
X0249475Y0263738D01*
X0255774Y0263738D01*
X0255774Y0264236D02*
X0249475Y0264236D01*
X0255774Y0264236D01*
X0255774Y0264735D02*
X0249475Y0264735D01*
X0255774Y0264735D01*
X0255774Y0265233D02*
X0249475Y0265233D01*
X0255774Y0265233D01*
X0255774Y0265732D02*
X0249475Y0265732D01*
X0255774Y0265732D01*
X0255774Y0266230D02*
X0249475Y0266230D01*
X0255774Y0266230D01*
X0255774Y0266729D02*
X0249475Y0266729D01*
X0255774Y0266729D01*
X0255774Y0267227D02*
X0249475Y0267227D01*
X0255774Y0267227D01*
X0255774Y0267726D02*
X0249475Y0267726D01*
X0255774Y0267726D01*
X0255774Y0268224D02*
X0249475Y0268224D01*
X0255774Y0268224D01*
X0255774Y0268723D02*
X0249475Y0268723D01*
X0255774Y0268723D01*
X0215026Y0303642D02*
X0215026Y0309941D01*
X0201640Y0309941D01*
X0201640Y0303642D01*
X0215026Y0303642D01*
X0215026Y0304117D02*
X0201640Y0304117D01*
X0201640Y0304616D02*
X0215026Y0304616D01*
X0215026Y0305114D02*
X0201640Y0305114D01*
X0201640Y0305613D02*
X0215026Y0305613D01*
X0215026Y0306111D02*
X0201640Y0306111D01*
X0201640Y0306610D02*
X0215026Y0306610D01*
X0215026Y0307108D02*
X0201640Y0307108D01*
X0201640Y0307607D02*
X0215026Y0307607D01*
X0215026Y0308105D02*
X0201640Y0308105D01*
X0201640Y0308604D02*
X0215026Y0308604D01*
X0215026Y0309102D02*
X0201640Y0309102D01*
X0201640Y0309601D02*
X0215026Y0309601D01*
X0113026Y0309601D02*
X0099640Y0309601D01*
X0099640Y0309941D02*
X0113026Y0309941D01*
X0113026Y0303642D01*
X0099640Y0303642D01*
X0099640Y0309941D01*
X0099640Y0309102D02*
X0113026Y0309102D01*
X0113026Y0308604D02*
X0099640Y0308604D01*
X0099640Y0308105D02*
X0113026Y0308105D01*
X0113026Y0307607D02*
X0099640Y0307607D01*
X0099640Y0307108D02*
X0113026Y0307108D01*
X0113026Y0306610D02*
X0099640Y0306610D01*
X0099640Y0306111D02*
X0113026Y0306111D01*
X0113026Y0305613D02*
X0099640Y0305613D01*
X0099640Y0305114D02*
X0113026Y0305114D01*
X0113026Y0304616D02*
X0099640Y0304616D01*
X0099640Y0304117D02*
X0113026Y0304117D01*
X0065192Y0269193D02*
X0058892Y0269193D01*
X0058892Y0255807D01*
X0065192Y0255807D01*
X0065192Y0269193D01*
X0065192Y0268723D02*
X0058892Y0268723D01*
X0058892Y0268224D02*
X0065192Y0268224D01*
X0065192Y0267726D02*
X0058892Y0267726D01*
X0058892Y0267227D02*
X0065192Y0267227D01*
X0065192Y0266729D02*
X0058892Y0266729D01*
X0058892Y0266230D02*
X0065192Y0266230D01*
X0065192Y0265732D02*
X0058892Y0265732D01*
X0058892Y0265233D02*
X0065192Y0265233D01*
X0065192Y0264735D02*
X0058892Y0264735D01*
X0058892Y0264236D02*
X0065192Y0264236D01*
X0065192Y0263738D02*
X0058892Y0263738D01*
X0058892Y0263239D02*
X0065192Y0263239D01*
X0065192Y0262741D02*
X0058892Y0262741D01*
X0058892Y0262242D02*
X0065192Y0262242D01*
X0065192Y0261744D02*
X0058892Y0261744D01*
X0058892Y0261245D02*
X0065192Y0261245D01*
X0065192Y0260747D02*
X0058892Y0260747D01*
X0058892Y0260248D02*
X0065192Y0260248D01*
X0065192Y0259750D02*
X0058892Y0259750D01*
X0058892Y0259251D02*
X0065192Y0259251D01*
X0065192Y0258753D02*
X0058892Y0258753D01*
X0058892Y0258254D02*
X0065192Y0258254D01*
X0065192Y0257756D02*
X0058892Y0257756D01*
X0058892Y0257257D02*
X0065192Y0257257D01*
X0065192Y0256759D02*
X0058892Y0256759D01*
X0058892Y0256260D02*
X0065192Y0256260D01*
X0101609Y0164587D02*
X0101609Y0156319D01*
X0111058Y0156319D01*
X0111058Y0164587D01*
X0101609Y0164587D01*
X0147475Y0164534D02*
X0153774Y0164534D01*
X0147475Y0164534D01*
X0147475Y0164036D02*
X0153774Y0164036D01*
X0147475Y0164036D01*
X0147475Y0163537D02*
X0153774Y0163537D01*
X0147475Y0163537D01*
X0147475Y0163039D02*
X0153774Y0163039D01*
X0147475Y0163039D01*
X0147475Y0162540D02*
X0153774Y0162540D01*
X0147475Y0162540D01*
X0147475Y0162041D02*
X0153774Y0162041D01*
X0147475Y0162041D01*
X0147475Y0161543D02*
X0153774Y0161543D01*
X0147475Y0161543D01*
X0147475Y0161044D02*
X0153774Y0161044D01*
X0147475Y0161044D01*
X0147475Y0160546D02*
X0153774Y0160546D01*
X0147475Y0160546D01*
X0147475Y0160047D02*
X0153774Y0160047D01*
X0147475Y0160047D01*
X0147475Y0159549D02*
X0153774Y0159549D01*
X0147475Y0159549D01*
X0147475Y0159050D02*
X0153774Y0159050D01*
X0147475Y0159050D01*
X0147475Y0158552D02*
X0153774Y0158552D01*
X0147475Y0158552D01*
X0147475Y0158053D02*
X0153774Y0158053D01*
X0147475Y0158053D01*
X0147475Y0157555D02*
X0153774Y0157555D01*
X0147475Y0157555D01*
X0147475Y0157056D02*
X0153774Y0157056D01*
X0147475Y0157056D01*
X0147475Y0156558D02*
X0153774Y0156558D01*
X0147475Y0156558D01*
X0147475Y0156059D02*
X0153774Y0156059D01*
X0147475Y0156059D01*
X0147475Y0155561D02*
X0153774Y0155561D01*
X0147475Y0155561D01*
X0147475Y0155062D02*
X0153774Y0155062D01*
X0147475Y0155062D01*
X0147475Y0154564D02*
X0153774Y0154564D01*
X0147475Y0154564D01*
X0147475Y0154065D02*
X0153774Y0154065D01*
X0147475Y0154065D01*
X0147475Y0153807D02*
X0153774Y0153807D01*
X0153774Y0167193D01*
X0147475Y0167193D01*
X0147475Y0153807D01*
X0153774Y0153807D01*
X0153774Y0167193D01*
X0147475Y0167193D01*
X0147475Y0153807D01*
X0147475Y0165033D02*
X0153774Y0165033D01*
X0147475Y0165033D01*
X0147475Y0165531D02*
X0153774Y0165531D01*
X0147475Y0165531D01*
X0147475Y0166030D02*
X0153774Y0166030D01*
X0147475Y0166030D01*
X0147475Y0166528D02*
X0153774Y0166528D01*
X0147475Y0166528D01*
X0147475Y0167027D02*
X0153774Y0167027D01*
X0147475Y0167027D01*
X0160892Y0167027D02*
X0167192Y0167027D01*
X0167192Y0167193D02*
X0160892Y0167193D01*
X0160892Y0153807D01*
X0167192Y0153807D01*
X0167192Y0167193D01*
X0167192Y0166528D02*
X0160892Y0166528D01*
X0160892Y0166030D02*
X0167192Y0166030D01*
X0167192Y0165531D02*
X0160892Y0165531D01*
X0160892Y0165033D02*
X0167192Y0165033D01*
X0167192Y0164534D02*
X0160892Y0164534D01*
X0160892Y0164036D02*
X0167192Y0164036D01*
X0167192Y0163537D02*
X0160892Y0163537D01*
X0160892Y0163039D02*
X0167192Y0163039D01*
X0167192Y0162540D02*
X0160892Y0162540D01*
X0160892Y0162041D02*
X0167192Y0162041D01*
X0167192Y0161543D02*
X0160892Y0161543D01*
X0160892Y0161044D02*
X0167192Y0161044D01*
X0167192Y0160546D02*
X0160892Y0160546D01*
X0160892Y0160047D02*
X0167192Y0160047D01*
X0167192Y0159549D02*
X0160892Y0159549D01*
X0160892Y0159050D02*
X0167192Y0159050D01*
X0167192Y0158552D02*
X0160892Y0158552D01*
X0160892Y0158053D02*
X0167192Y0158053D01*
X0167192Y0157555D02*
X0160892Y0157555D01*
X0160892Y0157056D02*
X0167192Y0157056D01*
X0167192Y0156558D02*
X0160892Y0156558D01*
X0160892Y0156059D02*
X0167192Y0156059D01*
X0167192Y0155561D02*
X0160892Y0155561D01*
X0160892Y0155062D02*
X0167192Y0155062D01*
X0167192Y0154564D02*
X0160892Y0154564D01*
X0160892Y0154065D02*
X0167192Y0154065D01*
X0201640Y0119358D02*
X0201640Y0113059D01*
X0215026Y0113059D01*
X0215026Y0119358D01*
X0201640Y0119358D01*
X0201640Y0119170D02*
X0215026Y0119170D01*
X0215026Y0118671D02*
X0201640Y0118671D01*
X0201640Y0118172D02*
X0215026Y0118172D01*
X0215026Y0117674D02*
X0201640Y0117674D01*
X0201640Y0117175D02*
X0215026Y0117175D01*
X0215026Y0116677D02*
X0201640Y0116677D01*
X0201640Y0116178D02*
X0215026Y0116178D01*
X0215026Y0115680D02*
X0201640Y0115680D01*
X0201640Y0115181D02*
X0215026Y0115181D01*
X0215026Y0114683D02*
X0201640Y0114683D01*
X0201640Y0114184D02*
X0215026Y0114184D01*
X0215026Y0113686D02*
X0201640Y0113686D01*
X0201640Y0113187D02*
X0215026Y0113187D01*
X0215026Y0105941D02*
X0201640Y0105941D01*
X0201640Y0099642D01*
X0215026Y0099642D01*
X0215026Y0105941D01*
X0215026Y0105710D02*
X0201640Y0105710D01*
X0201640Y0105211D02*
X0215026Y0105211D01*
X0215026Y0104713D02*
X0201640Y0104713D01*
X0201640Y0104214D02*
X0215026Y0104214D01*
X0215026Y0103716D02*
X0201640Y0103716D01*
X0201640Y0103217D02*
X0215026Y0103217D01*
X0215026Y0102719D02*
X0201640Y0102719D01*
X0201640Y0102220D02*
X0215026Y0102220D01*
X0215026Y0101722D02*
X0201640Y0101722D01*
X0201640Y0101223D02*
X0215026Y0101223D01*
X0215026Y0100725D02*
X0201640Y0100725D01*
X0201640Y0100226D02*
X0215026Y0100226D01*
X0215026Y0099728D02*
X0201640Y0099728D01*
X0167192Y0065193D02*
X0160892Y0065193D01*
X0160892Y0051807D01*
X0167192Y0051807D01*
X0167192Y0065193D01*
X0167192Y0064832D02*
X0160892Y0064832D01*
X0160892Y0064333D02*
X0167192Y0064333D01*
X0167192Y0063835D02*
X0160892Y0063835D01*
X0160892Y0063336D02*
X0167192Y0063336D01*
X0167192Y0062838D02*
X0160892Y0062838D01*
X0160892Y0062339D02*
X0167192Y0062339D01*
X0167192Y0061841D02*
X0160892Y0061841D01*
X0160892Y0061342D02*
X0167192Y0061342D01*
X0167192Y0060844D02*
X0160892Y0060844D01*
X0160892Y0060345D02*
X0167192Y0060345D01*
X0167192Y0059847D02*
X0160892Y0059847D01*
X0160892Y0059348D02*
X0167192Y0059348D01*
X0167192Y0058850D02*
X0160892Y0058850D01*
X0160892Y0058351D02*
X0167192Y0058351D01*
X0167192Y0057853D02*
X0160892Y0057853D01*
X0160892Y0057354D02*
X0167192Y0057354D01*
X0167192Y0056856D02*
X0160892Y0056856D01*
X0160892Y0056357D02*
X0167192Y0056357D01*
X0167192Y0055859D02*
X0160892Y0055859D01*
X0160892Y0055360D02*
X0167192Y0055360D01*
X0167192Y0054862D02*
X0160892Y0054862D01*
X0160892Y0054363D02*
X0167192Y0054363D01*
X0167192Y0053865D02*
X0160892Y0053865D01*
X0160892Y0053366D02*
X0167192Y0053366D01*
X0167192Y0052868D02*
X0160892Y0052868D01*
X0160892Y0052369D02*
X0167192Y0052369D01*
X0167192Y0051870D02*
X0160892Y0051870D01*
X0153774Y0051870D02*
X0147475Y0051870D01*
X0153774Y0051870D01*
X0153774Y0051807D02*
X0153774Y0065193D01*
X0147475Y0065193D01*
X0147475Y0051807D01*
X0153774Y0051807D01*
X0153774Y0065193D01*
X0147475Y0065193D01*
X0147475Y0051807D01*
X0153774Y0051807D01*
X0153774Y0052369D02*
X0147475Y0052369D01*
X0153774Y0052369D01*
X0153774Y0052868D02*
X0147475Y0052868D01*
X0153774Y0052868D01*
X0153774Y0053366D02*
X0147475Y0053366D01*
X0153774Y0053366D01*
X0153774Y0053865D02*
X0147475Y0053865D01*
X0153774Y0053865D01*
X0153774Y0054363D02*
X0147475Y0054363D01*
X0153774Y0054363D01*
X0153774Y0054862D02*
X0147475Y0054862D01*
X0153774Y0054862D01*
X0153774Y0055360D02*
X0147475Y0055360D01*
X0153774Y0055360D01*
X0153774Y0055859D02*
X0147475Y0055859D01*
X0153774Y0055859D01*
X0153774Y0056357D02*
X0147475Y0056357D01*
X0153774Y0056357D01*
X0153774Y0056856D02*
X0147475Y0056856D01*
X0153774Y0056856D01*
X0153774Y0057354D02*
X0147475Y0057354D01*
X0153774Y0057354D01*
X0153774Y0057853D02*
X0147475Y0057853D01*
X0153774Y0057853D01*
X0153774Y0058351D02*
X0147475Y0058351D01*
X0153774Y0058351D01*
X0153774Y0058850D02*
X0147475Y0058850D01*
X0153774Y0058850D01*
X0153774Y0059348D02*
X0147475Y0059348D01*
X0153774Y0059348D01*
X0153774Y0059847D02*
X0147475Y0059847D01*
X0153774Y0059847D01*
X0153774Y0060345D02*
X0147475Y0060345D01*
X0153774Y0060345D01*
X0153774Y0060844D02*
X0147475Y0060844D01*
X0153774Y0060844D01*
X0153774Y0061342D02*
X0147475Y0061342D01*
X0153774Y0061342D01*
X0153774Y0061841D02*
X0147475Y0061841D01*
X0153774Y0061841D01*
X0153774Y0062339D02*
X0147475Y0062339D01*
X0153774Y0062339D01*
X0153774Y0062838D02*
X0147475Y0062838D01*
X0153774Y0062838D01*
X0153774Y0063336D02*
X0147475Y0063336D01*
X0153774Y0063336D01*
X0153774Y0063835D02*
X0147475Y0063835D01*
X0153774Y0063835D01*
X0153774Y0064333D02*
X0147475Y0064333D01*
X0153774Y0064333D01*
X0153774Y0064832D02*
X0147475Y0064832D01*
X0153774Y0064832D01*
X0203609Y0062587D02*
X0203609Y0054319D01*
X0213058Y0054319D01*
X0213058Y0062587D01*
X0203609Y0062587D01*
X0201640Y0017358D02*
X0201640Y0011059D01*
X0215026Y0011059D01*
X0215026Y0017358D01*
X0201640Y0017358D01*
X0201640Y0016975D02*
X0215026Y0016975D01*
X0215026Y0016476D02*
X0201640Y0016476D01*
X0201640Y0015978D02*
X0215026Y0015978D01*
X0215026Y0015479D02*
X0201640Y0015479D01*
X0201640Y0014981D02*
X0215026Y0014981D01*
X0215026Y0014482D02*
X0201640Y0014482D01*
X0201640Y0013984D02*
X0215026Y0013984D01*
X0215026Y0013485D02*
X0201640Y0013485D01*
X0201640Y0012987D02*
X0215026Y0012987D01*
X0215026Y0012488D02*
X0201640Y0012488D01*
X0201640Y0011990D02*
X0215026Y0011990D01*
X0215026Y0011491D02*
X0201640Y0011491D01*
X0249475Y0051807D02*
X0255774Y0051807D01*
X0255774Y0065193D01*
X0249475Y0065193D01*
X0249475Y0051807D01*
X0255774Y0051807D01*
X0255774Y0065193D01*
X0249475Y0065193D01*
X0249475Y0051807D01*
X0249475Y0051870D02*
X0255774Y0051870D01*
X0249475Y0051870D01*
X0249475Y0052369D02*
X0255774Y0052369D01*
X0249475Y0052369D01*
X0249475Y0052868D02*
X0255774Y0052868D01*
X0249475Y0052868D01*
X0249475Y0053366D02*
X0255774Y0053366D01*
X0249475Y0053366D01*
X0249475Y0053865D02*
X0255774Y0053865D01*
X0249475Y0053865D01*
X0249475Y0054363D02*
X0255774Y0054363D01*
X0249475Y0054363D01*
X0249475Y0054862D02*
X0255774Y0054862D01*
X0249475Y0054862D01*
X0249475Y0055360D02*
X0255774Y0055360D01*
X0249475Y0055360D01*
X0249475Y0055859D02*
X0255774Y0055859D01*
X0249475Y0055859D01*
X0249475Y0056357D02*
X0255774Y0056357D01*
X0249475Y0056357D01*
X0249475Y0056856D02*
X0255774Y0056856D01*
X0249475Y0056856D01*
X0249475Y0057354D02*
X0255774Y0057354D01*
X0249475Y0057354D01*
X0249475Y0057853D02*
X0255774Y0057853D01*
X0249475Y0057853D01*
X0249475Y0058351D02*
X0255774Y0058351D01*
X0249475Y0058351D01*
X0249475Y0058850D02*
X0255774Y0058850D01*
X0249475Y0058850D01*
X0249475Y0059348D02*
X0255774Y0059348D01*
X0249475Y0059348D01*
X0249475Y0059847D02*
X0255774Y0059847D01*
X0249475Y0059847D01*
X0249475Y0060345D02*
X0255774Y0060345D01*
X0249475Y0060345D01*
X0249475Y0060844D02*
X0255774Y0060844D01*
X0249475Y0060844D01*
X0249475Y0061342D02*
X0255774Y0061342D01*
X0249475Y0061342D01*
X0249475Y0061841D02*
X0255774Y0061841D01*
X0249475Y0061841D01*
X0249475Y0062339D02*
X0255774Y0062339D01*
X0249475Y0062339D01*
X0249475Y0062838D02*
X0255774Y0062838D01*
X0249475Y0062838D01*
X0249475Y0063336D02*
X0255774Y0063336D01*
X0249475Y0063336D01*
X0249475Y0063835D02*
X0255774Y0063835D01*
X0249475Y0063835D01*
X0249475Y0064333D02*
X0255774Y0064333D01*
X0249475Y0064333D01*
X0249475Y0064832D02*
X0255774Y0064832D01*
X0249475Y0064832D01*
X0262892Y0064832D02*
X0269192Y0064832D01*
X0269192Y0065193D02*
X0262892Y0065193D01*
X0262892Y0051807D01*
X0269192Y0051807D01*
X0269192Y0065193D01*
X0269192Y0064333D02*
X0262892Y0064333D01*
X0262892Y0063835D02*
X0269192Y0063835D01*
X0269192Y0063336D02*
X0262892Y0063336D01*
X0262892Y0062838D02*
X0269192Y0062838D01*
X0269192Y0062339D02*
X0262892Y0062339D01*
X0262892Y0061841D02*
X0269192Y0061841D01*
X0269192Y0061342D02*
X0262892Y0061342D01*
X0262892Y0060844D02*
X0269192Y0060844D01*
X0269192Y0060345D02*
X0262892Y0060345D01*
X0262892Y0059847D02*
X0269192Y0059847D01*
X0269192Y0059348D02*
X0262892Y0059348D01*
X0262892Y0058850D02*
X0269192Y0058850D01*
X0269192Y0058351D02*
X0262892Y0058351D01*
X0262892Y0057853D02*
X0269192Y0057853D01*
X0269192Y0057354D02*
X0262892Y0057354D01*
X0262892Y0056856D02*
X0269192Y0056856D01*
X0269192Y0056357D02*
X0262892Y0056357D01*
X0262892Y0055859D02*
X0269192Y0055859D01*
X0269192Y0055360D02*
X0262892Y0055360D01*
X0262892Y0054862D02*
X0269192Y0054862D01*
X0269192Y0054363D02*
X0262892Y0054363D01*
X0262892Y0053865D02*
X0269192Y0053865D01*
X0269192Y0053366D02*
X0262892Y0053366D01*
X0262892Y0052868D02*
X0269192Y0052868D01*
X0269192Y0052369D02*
X0262892Y0052369D01*
X0262892Y0051870D02*
X0269192Y0051870D01*
X0305609Y0054319D02*
X0305609Y0062587D01*
X0315058Y0062587D01*
X0315058Y0054319D01*
X0305609Y0054319D01*
X0303640Y0017358D02*
X0303640Y0011059D01*
X0317026Y0011059D01*
X0317026Y0017358D01*
X0303640Y0017358D01*
X0303640Y0016975D02*
X0317026Y0016975D01*
X0317026Y0016476D02*
X0303640Y0016476D01*
X0303640Y0015978D02*
X0317026Y0015978D01*
X0317026Y0015479D02*
X0303640Y0015479D01*
X0303640Y0014981D02*
X0317026Y0014981D01*
X0317026Y0014482D02*
X0303640Y0014482D01*
X0303640Y0013984D02*
X0317026Y0013984D01*
X0317026Y0013485D02*
X0303640Y0013485D01*
X0303640Y0012987D02*
X0317026Y0012987D01*
X0317026Y0012488D02*
X0303640Y0012488D01*
X0303640Y0011990D02*
X0317026Y0011990D01*
X0317026Y0011491D02*
X0303640Y0011491D01*
X0351475Y0051807D02*
X0357774Y0051807D01*
X0357774Y0065193D01*
X0351475Y0065193D01*
X0351475Y0051807D01*
X0357774Y0051807D01*
X0357774Y0065193D01*
X0351475Y0065193D01*
X0351475Y0051807D01*
X0351475Y0051870D02*
X0357774Y0051870D01*
X0351475Y0051870D01*
X0351475Y0052369D02*
X0357774Y0052369D01*
X0351475Y0052369D01*
X0351475Y0052868D02*
X0357774Y0052868D01*
X0351475Y0052868D01*
X0351475Y0053366D02*
X0357774Y0053366D01*
X0351475Y0053366D01*
X0351475Y0053865D02*
X0357774Y0053865D01*
X0351475Y0053865D01*
X0351475Y0054363D02*
X0357774Y0054363D01*
X0351475Y0054363D01*
X0351475Y0054862D02*
X0357774Y0054862D01*
X0351475Y0054862D01*
X0351475Y0055360D02*
X0357774Y0055360D01*
X0351475Y0055360D01*
X0351475Y0055859D02*
X0357774Y0055859D01*
X0351475Y0055859D01*
X0351475Y0056357D02*
X0357774Y0056357D01*
X0351475Y0056357D01*
X0351475Y0056856D02*
X0357774Y0056856D01*
X0351475Y0056856D01*
X0351475Y0057354D02*
X0357774Y0057354D01*
X0351475Y0057354D01*
X0351475Y0057853D02*
X0357774Y0057853D01*
X0351475Y0057853D01*
X0351475Y0058351D02*
X0357774Y0058351D01*
X0351475Y0058351D01*
X0351475Y0058850D02*
X0357774Y0058850D01*
X0351475Y0058850D01*
X0351475Y0059348D02*
X0357774Y0059348D01*
X0351475Y0059348D01*
X0351475Y0059847D02*
X0357774Y0059847D01*
X0351475Y0059847D01*
X0351475Y0060345D02*
X0357774Y0060345D01*
X0351475Y0060345D01*
X0351475Y0060844D02*
X0357774Y0060844D01*
X0351475Y0060844D01*
X0351475Y0061342D02*
X0357774Y0061342D01*
X0351475Y0061342D01*
X0351475Y0061841D02*
X0357774Y0061841D01*
X0351475Y0061841D01*
X0351475Y0062339D02*
X0357774Y0062339D01*
X0351475Y0062339D01*
X0351475Y0062838D02*
X0357774Y0062838D01*
X0351475Y0062838D01*
X0351475Y0063336D02*
X0357774Y0063336D01*
X0351475Y0063336D01*
X0351475Y0063835D02*
X0357774Y0063835D01*
X0351475Y0063835D01*
X0351475Y0064333D02*
X0357774Y0064333D01*
X0351475Y0064333D01*
X0351475Y0064832D02*
X0357774Y0064832D01*
X0351475Y0064832D01*
X0317026Y0099642D02*
X0317026Y0105941D01*
X0303640Y0105941D01*
X0303640Y0099642D01*
X0317026Y0099642D01*
X0317026Y0099728D02*
X0303640Y0099728D01*
X0303640Y0100226D02*
X0317026Y0100226D01*
X0317026Y0100725D02*
X0303640Y0100725D01*
X0303640Y0101223D02*
X0317026Y0101223D01*
X0317026Y0101722D02*
X0303640Y0101722D01*
X0303640Y0102220D02*
X0317026Y0102220D01*
X0317026Y0102719D02*
X0303640Y0102719D01*
X0303640Y0103217D02*
X0317026Y0103217D01*
X0317026Y0103716D02*
X0303640Y0103716D01*
X0303640Y0104214D02*
X0317026Y0104214D01*
X0317026Y0104713D02*
X0303640Y0104713D01*
X0303640Y0105211D02*
X0317026Y0105211D01*
X0317026Y0105710D02*
X0303640Y0105710D01*
X0303640Y0113059D02*
X0317026Y0113059D01*
X0317026Y0119358D01*
X0303640Y0119358D01*
X0303640Y0113059D01*
X0303640Y0113187D02*
X0317026Y0113187D01*
X0317026Y0113686D02*
X0303640Y0113686D01*
X0303640Y0114184D02*
X0317026Y0114184D01*
X0317026Y0114683D02*
X0303640Y0114683D01*
X0303640Y0115181D02*
X0317026Y0115181D01*
X0317026Y0115680D02*
X0303640Y0115680D01*
X0303640Y0116178D02*
X0317026Y0116178D01*
X0317026Y0116677D02*
X0303640Y0116677D01*
X0303640Y0117175D02*
X0317026Y0117175D01*
X0317026Y0117674D02*
X0303640Y0117674D01*
X0303640Y0118172D02*
X0317026Y0118172D01*
X0317026Y0118671D02*
X0303640Y0118671D01*
X0303640Y0119170D02*
X0317026Y0119170D01*
X0351475Y0153807D02*
X0357774Y0153807D01*
X0357774Y0167193D01*
X0351475Y0167193D01*
X0351475Y0153807D01*
X0357774Y0153807D01*
X0357774Y0167193D01*
X0351475Y0167193D01*
X0351475Y0153807D01*
X0351475Y0154065D02*
X0357774Y0154065D01*
X0351475Y0154065D01*
X0351475Y0154564D02*
X0357774Y0154564D01*
X0351475Y0154564D01*
X0351475Y0155062D02*
X0357774Y0155062D01*
X0351475Y0155062D01*
X0351475Y0155561D02*
X0357774Y0155561D01*
X0351475Y0155561D01*
X0351475Y0156059D02*
X0357774Y0156059D01*
X0351475Y0156059D01*
X0351475Y0156558D02*
X0357774Y0156558D01*
X0351475Y0156558D01*
X0351475Y0157056D02*
X0357774Y0157056D01*
X0351475Y0157056D01*
X0351475Y0157555D02*
X0357774Y0157555D01*
X0351475Y0157555D01*
X0351475Y0158053D02*
X0357774Y0158053D01*
X0351475Y0158053D01*
X0351475Y0158552D02*
X0357774Y0158552D01*
X0351475Y0158552D01*
X0351475Y0159050D02*
X0357774Y0159050D01*
X0351475Y0159050D01*
X0351475Y0159549D02*
X0357774Y0159549D01*
X0351475Y0159549D01*
X0351475Y0160047D02*
X0357774Y0160047D01*
X0351475Y0160047D01*
X0351475Y0160546D02*
X0357774Y0160546D01*
X0351475Y0160546D01*
X0351475Y0161044D02*
X0357774Y0161044D01*
X0351475Y0161044D01*
X0351475Y0161543D02*
X0357774Y0161543D01*
X0351475Y0161543D01*
X0351475Y0162041D02*
X0357774Y0162041D01*
X0351475Y0162041D01*
X0351475Y0162540D02*
X0357774Y0162540D01*
X0351475Y0162540D01*
X0351475Y0163039D02*
X0357774Y0163039D01*
X0351475Y0163039D01*
X0351475Y0163537D02*
X0357774Y0163537D01*
X0351475Y0163537D01*
X0351475Y0164036D02*
X0357774Y0164036D01*
X0351475Y0164036D01*
X0351475Y0164534D02*
X0357774Y0164534D01*
X0351475Y0164534D01*
X0351475Y0165033D02*
X0357774Y0165033D01*
X0351475Y0165033D01*
X0351475Y0165531D02*
X0357774Y0165531D01*
X0351475Y0165531D01*
X0351475Y0166030D02*
X0357774Y0166030D01*
X0351475Y0166030D01*
X0351475Y0166528D02*
X0357774Y0166528D01*
X0351475Y0166528D01*
X0351475Y0167027D02*
X0357774Y0167027D01*
X0351475Y0167027D01*
X0315058Y0164587D02*
X0315058Y0156319D01*
X0305609Y0156319D01*
X0305609Y0164587D01*
X0315058Y0164587D01*
X0113026Y0017358D02*
X0113026Y0011059D01*
X0099640Y0011059D01*
X0099640Y0017358D01*
X0113026Y0017358D01*
X0113026Y0016975D02*
X0099640Y0016975D01*
X0099640Y0016476D02*
X0113026Y0016476D01*
X0113026Y0015978D02*
X0099640Y0015978D01*
X0099640Y0015479D02*
X0113026Y0015479D01*
X0113026Y0014981D02*
X0099640Y0014981D01*
X0099640Y0014482D02*
X0113026Y0014482D01*
X0113026Y0013984D02*
X0099640Y0013984D01*
X0099640Y0013485D02*
X0113026Y0013485D01*
X0113026Y0012987D02*
X0099640Y0012987D01*
X0099640Y0012488D02*
X0113026Y0012488D01*
X0113026Y0011990D02*
X0099640Y0011990D01*
X0099640Y0011491D02*
X0113026Y0011491D01*
M02*
