%
M48
M72
T01C0.0150
T02C0.0400
T03C0.1300
%
T01
X7633Y1850
X9133Y3850
X8133Y4350
X9133Y6350
X9633Y7100
X11633Y6850
X13383Y5050
X13383Y4350
X13863Y4350
X14383Y3350
X14883Y3350
X12113Y4350
X11133Y3850
X14133Y6650
X18333Y4350
X19333Y3850
X21333Y3850
X22313Y4350
X23583Y4350
X24063Y4350
X23583Y5050
X24333Y6650
X21833Y6850
X19833Y7100
X19333Y6350
X17833Y1850
X24583Y3350
X25083Y3350
X28033Y1850
X29533Y3850
X28533Y4350
X29533Y6350
X30033Y7100
X32033Y6850
X33783Y5050
X33783Y4350
X34263Y4350
X34783Y3350
X35283Y3350
X32513Y4350
X31533Y3850
X34533Y6650
X28033Y12050
X29533Y14050
X28533Y14550
X29533Y16550
X30033Y17300
X32033Y17050
X33783Y15250
X33783Y14550
X34263Y14550
X34783Y13550
X35283Y13550
X32513Y14550
X31533Y14050
X34533Y16850
X28033Y22250
X29533Y24250
X28533Y24750
X29533Y26750
X30033Y27500
X32033Y27250
X33783Y25450
X33783Y24750
X34263Y24750
X34783Y23750
X35283Y23750
X32513Y24750
X31533Y24250
X34533Y27050
X25083Y23750
X24583Y23750
X24063Y24750
X23583Y24750
X23583Y25450
X22313Y24750
X21333Y24250
X19333Y24250
X18333Y24750
X19333Y26750
X19833Y27500
X21833Y27250
X24333Y27050
X17833Y22250
X14883Y23750
X14383Y23750
X13863Y24750
X13383Y24750
X13383Y25450
X12113Y24750
X11133Y24250
X9133Y24250
X8133Y24750
X9133Y26750
X9633Y27500
X11633Y27250
X14133Y27050
X7633Y22250
X9633Y17300
X9133Y16550
X8133Y14550
X9133Y14050
X11133Y14050
X12113Y14550
X13383Y14550
X13863Y14550
X13383Y15250
X14133Y16850
X11633Y17050
X14383Y13550
X14883Y13550
X17833Y12050
X19333Y14050
X18333Y14550
X19333Y16550
X19833Y17300
X21833Y17050
X23583Y15250
X23583Y14550
X24063Y14550
X24583Y13550
X25083Y13550
X22313Y14550
X21333Y14050
X24333Y16850
X7633Y12050
T02
X8633Y12550
X9633Y12550
X10633Y12550
X11633Y12550
X12633Y12550
X18833Y12550
X19833Y12550
X20833Y12550
X21833Y12550
X22833Y12550
X29033Y12550
X30033Y12550
X31033Y12550
X32033Y12550
X33033Y12550
X33033Y22750
X32033Y22750
X31033Y22750
X30033Y22750
X29033Y22750
X22833Y22750
X21833Y22750
X20833Y22750
X19833Y22750
X18833Y22750
X12633Y22750
X11633Y22750
X10633Y22750
X9633Y22750
X8633Y22750
X8633Y2350
X9633Y2350
X10633Y2350
X11633Y2350
X12633Y2350
X18833Y2350
X19833Y2350
X20833Y2350
X21833Y2350
X22833Y2350
X29033Y2350
X30033Y2350
X31033Y2350
X32033Y2350
X33033Y2350
T03
X34533Y9350
X27533Y9350
X24333Y9350
X17333Y9350
X14133Y9350
X7133Y9350
X7133Y19550
X14133Y19550
X17333Y19550
X24333Y19550
X27533Y19550
X34533Y19550
X34533Y29750
X27533Y29750
X24333Y29750
X17333Y29750
X14133Y29750
X7133Y29750
M30
