G75*
%MOIN*%
%OFA0B0*%
%FSLAX25Y25*%
%IPPOS*%
%LPD*%
%AMOC8*
5,1,8,0,0,1.08239X$1,22.5*
%
%ADD10C,0.13800*%
%ADD11C,0.08200*%
%ADD12R,0.05800X0.03300*%
%ADD13C,0.00500*%
D10*
X0071333Y0093500D03*
X0141333Y0093500D03*
X0173333Y0093500D03*
X0243333Y0093500D03*
X0275333Y0093500D03*
X0345333Y0093500D03*
X0345333Y0195500D03*
X0275333Y0195500D03*
X0243333Y0195500D03*
X0173333Y0195500D03*
X0141333Y0195500D03*
X0071333Y0195500D03*
X0071333Y0297500D03*
X0141333Y0297500D03*
X0173333Y0297500D03*
X0243333Y0297500D03*
X0275333Y0297500D03*
X0345333Y0297500D03*
D11*
X0086333Y0023500D03*
X0096333Y0023500D03*
X0106333Y0023500D03*
X0116333Y0023500D03*
X0126333Y0023500D03*
X0188333Y0023500D03*
X0198333Y0023500D03*
X0208333Y0023500D03*
X0218333Y0023500D03*
X0228333Y0023500D03*
X0290333Y0023500D03*
X0300333Y0023500D03*
X0310333Y0023500D03*
X0320333Y0023500D03*
X0330333Y0023500D03*
X0330333Y0125500D03*
X0320333Y0125500D03*
X0310333Y0125500D03*
X0300333Y0125500D03*
X0290333Y0125500D03*
X0228333Y0125500D03*
X0218333Y0125500D03*
X0208333Y0125500D03*
X0198333Y0125500D03*
X0188333Y0125500D03*
X0126333Y0125500D03*
X0116333Y0125500D03*
X0106333Y0125500D03*
X0096333Y0125500D03*
X0086333Y0125500D03*
X0086333Y0227500D03*
X0096333Y0227500D03*
X0106333Y0227500D03*
X0116333Y0227500D03*
X0126333Y0227500D03*
X0188333Y0227500D03*
X0198333Y0227500D03*
X0208333Y0227500D03*
X0218333Y0227500D03*
X0228333Y0227500D03*
X0290333Y0227500D03*
X0300333Y0227500D03*
X0310333Y0227500D03*
X0320333Y0227500D03*
X0330333Y0227500D03*
D12*
X0330333Y0245500D03*
X0330333Y0249500D03*
X0228333Y0249500D03*
X0228333Y0245500D03*
X0126333Y0245500D03*
X0126333Y0249500D03*
X0126333Y0147500D03*
X0126333Y0143500D03*
X0228333Y0143500D03*
X0228333Y0147500D03*
X0330333Y0147500D03*
X0330333Y0143500D03*
X0330333Y0045500D03*
X0330333Y0041500D03*
X0228333Y0041500D03*
X0228333Y0045500D03*
X0126333Y0045500D03*
X0126333Y0041500D03*
D13*
X0125833Y0042750D02*
X0126833Y0042750D01*
X0126833Y0044250D01*
X0125833Y0044250D01*
X0125833Y0042750D01*
X0125833Y0042897D02*
X0126833Y0042897D01*
X0126833Y0043396D02*
X0125833Y0043396D01*
X0125833Y0043894D02*
X0126833Y0043894D01*
X0227833Y0043894D02*
X0228833Y0043894D01*
X0228833Y0044250D02*
X0227833Y0044250D01*
X0227833Y0042750D01*
X0228833Y0042750D01*
X0228833Y0044250D01*
X0228833Y0043396D02*
X0227833Y0043396D01*
X0227833Y0042897D02*
X0228833Y0042897D01*
X0329833Y0042897D02*
X0330833Y0042897D01*
X0330833Y0042750D02*
X0330833Y0044250D01*
X0329833Y0044250D01*
X0329833Y0042750D01*
X0330833Y0042750D01*
X0330833Y0043396D02*
X0329833Y0043396D01*
X0329833Y0043894D02*
X0330833Y0043894D01*
X0330833Y0144750D02*
X0329833Y0144750D01*
X0329833Y0146250D01*
X0330833Y0146250D01*
X0330833Y0144750D01*
X0330833Y0145092D02*
X0329833Y0145092D01*
X0329833Y0145591D02*
X0330833Y0145591D01*
X0330833Y0146089D02*
X0329833Y0146089D01*
X0228833Y0146089D02*
X0227833Y0146089D01*
X0227833Y0146250D02*
X0228833Y0146250D01*
X0228833Y0144750D01*
X0227833Y0144750D01*
X0227833Y0146250D01*
X0227833Y0145591D02*
X0228833Y0145591D01*
X0228833Y0145092D02*
X0227833Y0145092D01*
X0126833Y0145092D02*
X0125833Y0145092D01*
X0125833Y0144750D02*
X0126833Y0144750D01*
X0126833Y0146250D01*
X0125833Y0146250D01*
X0125833Y0144750D01*
X0125833Y0145591D02*
X0126833Y0145591D01*
X0126833Y0146089D02*
X0125833Y0146089D01*
X0125833Y0246750D02*
X0126833Y0246750D01*
X0126833Y0248250D01*
X0125833Y0248250D01*
X0125833Y0246750D01*
X0125833Y0246788D02*
X0126833Y0246788D01*
X0126833Y0247287D02*
X0125833Y0247287D01*
X0125833Y0247785D02*
X0126833Y0247785D01*
X0227833Y0247785D02*
X0228833Y0247785D01*
X0228833Y0248250D02*
X0227833Y0248250D01*
X0227833Y0246750D01*
X0228833Y0246750D01*
X0228833Y0248250D01*
X0228833Y0247287D02*
X0227833Y0247287D01*
X0227833Y0246788D02*
X0228833Y0246788D01*
X0329833Y0246788D02*
X0330833Y0246788D01*
X0330833Y0246750D02*
X0330833Y0248250D01*
X0329833Y0248250D01*
X0329833Y0246750D01*
X0330833Y0246750D01*
X0330833Y0247287D02*
X0329833Y0247287D01*
X0329833Y0247785D02*
X0330833Y0247785D01*
M02*
