G75*
%MOIN*%
%OFA0B0*%
%FSLAX25Y25*%
%IPPOS*%
%LPD*%
%AMOC8*
5,1,8,0,0,1.08239X$1,22.5*
%
%ADD10C,0.00800*%
%ADD11C,0.07400*%
%ADD12R,0.05000X0.02500*%
%ADD13C,0.01000*%
%ADD14C,0.00700*%
%ADD15C,0.02900*%
D10*
X0060329Y0011400D02*
X0063131Y0011400D01*
X0061730Y0011400D02*
X0061730Y0015604D01*
X0063131Y0014202D01*
X0064933Y0011400D02*
X0067735Y0011400D01*
X0066334Y0011400D02*
X0066334Y0015604D01*
X0067735Y0014202D01*
X0069537Y0015604D02*
X0072339Y0011400D01*
X0069537Y0011400D02*
X0072339Y0015604D01*
X0162329Y0011400D02*
X0165131Y0011400D01*
X0163730Y0011400D02*
X0163730Y0015604D01*
X0165131Y0014202D01*
X0166933Y0011400D02*
X0169735Y0011400D01*
X0168334Y0011400D02*
X0168334Y0015604D01*
X0169735Y0014202D01*
X0171537Y0015604D02*
X0174339Y0011400D01*
X0171537Y0011400D02*
X0174339Y0015604D01*
X0264329Y0011400D02*
X0267131Y0011400D01*
X0265730Y0011400D02*
X0265730Y0015604D01*
X0267131Y0014202D01*
X0268933Y0011400D02*
X0271735Y0011400D01*
X0270334Y0011400D02*
X0270334Y0015604D01*
X0271735Y0014202D01*
X0273537Y0015604D02*
X0276339Y0011400D01*
X0273537Y0011400D02*
X0276339Y0015604D01*
X0276339Y0113400D02*
X0273537Y0117604D01*
X0271735Y0116202D02*
X0270334Y0117604D01*
X0270334Y0113400D01*
X0271735Y0113400D02*
X0268933Y0113400D01*
X0267131Y0113400D02*
X0264329Y0113400D01*
X0265730Y0113400D02*
X0265730Y0117604D01*
X0267131Y0116202D01*
X0273537Y0113400D02*
X0276339Y0117604D01*
X0174339Y0117604D02*
X0171537Y0113400D01*
X0169735Y0113400D02*
X0166933Y0113400D01*
X0168334Y0113400D02*
X0168334Y0117604D01*
X0169735Y0116202D01*
X0171537Y0117604D02*
X0174339Y0113400D01*
X0165131Y0113400D02*
X0162329Y0113400D01*
X0163730Y0113400D02*
X0163730Y0117604D01*
X0165131Y0116202D01*
X0072339Y0117604D02*
X0069537Y0113400D01*
X0067735Y0113400D02*
X0064933Y0113400D01*
X0066334Y0113400D02*
X0066334Y0117604D01*
X0067735Y0116202D01*
X0069537Y0117604D02*
X0072339Y0113400D01*
X0063131Y0113400D02*
X0060329Y0113400D01*
X0061730Y0113400D02*
X0061730Y0117604D01*
X0063131Y0116202D01*
X0063131Y0215400D02*
X0060329Y0215400D01*
X0061730Y0215400D02*
X0061730Y0219604D01*
X0063131Y0218202D01*
X0064933Y0215400D02*
X0067735Y0215400D01*
X0066334Y0215400D02*
X0066334Y0219604D01*
X0067735Y0218202D01*
X0069537Y0219604D02*
X0072339Y0215400D01*
X0069537Y0215400D02*
X0072339Y0219604D01*
X0162329Y0215400D02*
X0165131Y0215400D01*
X0163730Y0215400D02*
X0163730Y0219604D01*
X0165131Y0218202D01*
X0166933Y0215400D02*
X0169735Y0215400D01*
X0168334Y0215400D02*
X0168334Y0219604D01*
X0169735Y0218202D01*
X0171537Y0219604D02*
X0174339Y0215400D01*
X0171537Y0215400D02*
X0174339Y0219604D01*
X0264329Y0215400D02*
X0267131Y0215400D01*
X0265730Y0215400D02*
X0265730Y0219604D01*
X0267131Y0218202D01*
X0268933Y0215400D02*
X0271735Y0215400D01*
X0270334Y0215400D02*
X0270334Y0219604D01*
X0271735Y0218202D01*
X0273537Y0219604D02*
X0276339Y0215400D01*
X0273537Y0215400D02*
X0276339Y0219604D01*
D11*
X0290333Y0227500D03*
X0300333Y0227500D03*
X0310333Y0227500D03*
X0320333Y0227500D03*
X0330333Y0227500D03*
X0228333Y0227500D03*
X0218333Y0227500D03*
X0208333Y0227500D03*
X0198333Y0227500D03*
X0188333Y0227500D03*
X0126333Y0227500D03*
X0116333Y0227500D03*
X0106333Y0227500D03*
X0096333Y0227500D03*
X0086333Y0227500D03*
X0086333Y0125500D03*
X0096333Y0125500D03*
X0106333Y0125500D03*
X0116333Y0125500D03*
X0126333Y0125500D03*
X0188333Y0125500D03*
X0198333Y0125500D03*
X0208333Y0125500D03*
X0218333Y0125500D03*
X0228333Y0125500D03*
X0290333Y0125500D03*
X0300333Y0125500D03*
X0310333Y0125500D03*
X0320333Y0125500D03*
X0330333Y0125500D03*
X0330333Y0023500D03*
X0320333Y0023500D03*
X0310333Y0023500D03*
X0300333Y0023500D03*
X0290333Y0023500D03*
X0228333Y0023500D03*
X0218333Y0023500D03*
X0208333Y0023500D03*
X0198333Y0023500D03*
X0188333Y0023500D03*
X0126333Y0023500D03*
X0116333Y0023500D03*
X0106333Y0023500D03*
X0096333Y0023500D03*
X0086333Y0023500D03*
D12*
X0126333Y0041500D03*
X0126333Y0045500D03*
X0228333Y0045500D03*
X0228333Y0041500D03*
X0330333Y0041500D03*
X0330333Y0045500D03*
X0330333Y0143500D03*
X0330333Y0147500D03*
X0228333Y0147500D03*
X0228333Y0143500D03*
X0126333Y0143500D03*
X0126333Y0147500D03*
X0126333Y0245500D03*
X0126333Y0249500D03*
X0228333Y0249500D03*
X0228333Y0245500D03*
X0330333Y0245500D03*
X0330333Y0249500D03*
D13*
X0058433Y0049857D02*
X0058433Y0012474D01*
X0059459Y0013500D01*
X0059630Y0013500D01*
X0059630Y0016473D01*
X0060236Y0017080D01*
X0060860Y0017704D01*
X0062600Y0017704D01*
X0063464Y0016839D01*
X0063830Y0016473D01*
X0063830Y0016473D01*
X0064234Y0016069D01*
X0064234Y0016473D01*
X0064840Y0017080D01*
X0065464Y0017704D01*
X0067204Y0017704D01*
X0067883Y0017025D01*
X0069096Y0017833D01*
X0070802Y0017492D01*
X0070938Y0017288D01*
X0071074Y0017492D01*
X0072780Y0017833D01*
X0073360Y0017447D01*
X0073183Y0017873D01*
X0073183Y0019127D01*
X0073663Y0020284D01*
X0074549Y0021170D01*
X0075707Y0021650D01*
X0076960Y0021650D01*
X0078118Y0021170D01*
X0078738Y0020550D01*
X0082049Y0020550D01*
X0081886Y0020775D01*
X0081514Y0021504D01*
X0081261Y0022282D01*
X0081148Y0023000D01*
X0085833Y0023000D01*
X0085833Y0024000D01*
X0081148Y0024000D01*
X0081261Y0024718D01*
X0081514Y0025496D01*
X0081886Y0026225D01*
X0082367Y0026888D01*
X0082946Y0027466D01*
X0083608Y0027947D01*
X0084337Y0028319D01*
X0085116Y0028572D01*
X0085833Y0028686D01*
X0085833Y0024000D01*
X0086833Y0024000D01*
X0086833Y0028686D01*
X0087551Y0028572D01*
X0088329Y0028319D01*
X0089059Y0027947D01*
X0089283Y0027784D01*
X0089283Y0036095D01*
X0088663Y0036716D01*
X0088183Y0037873D01*
X0088183Y0039127D01*
X0088663Y0040284D01*
X0089549Y0041170D01*
X0090224Y0041450D01*
X0083738Y0041450D01*
X0083118Y0040830D01*
X0081960Y0040350D01*
X0080707Y0040350D01*
X0079549Y0040830D01*
X0078663Y0041716D01*
X0078183Y0042873D01*
X0078183Y0044127D01*
X0078663Y0045284D01*
X0079549Y0046170D01*
X0080707Y0046650D01*
X0081960Y0046650D01*
X0083118Y0046170D01*
X0083738Y0045550D01*
X0094283Y0045550D01*
X0094283Y0068595D01*
X0093663Y0069216D01*
X0093183Y0070373D01*
X0093183Y0071627D01*
X0093663Y0072784D01*
X0094549Y0073670D01*
X0095707Y0074150D01*
X0096960Y0074150D01*
X0098118Y0073670D01*
X0099004Y0072784D01*
X0099483Y0071627D01*
X0099483Y0070373D01*
X0099004Y0069216D01*
X0098383Y0068595D01*
X0098383Y0035550D01*
X0110224Y0035550D01*
X0109549Y0035830D01*
X0108663Y0036716D01*
X0108183Y0037873D01*
X0108183Y0039127D01*
X0108663Y0040284D01*
X0109549Y0041170D01*
X0110707Y0041650D01*
X0111584Y0041650D01*
X0114283Y0044349D01*
X0114283Y0066095D01*
X0113663Y0066716D01*
X0113183Y0067873D01*
X0113183Y0069127D01*
X0113663Y0070284D01*
X0114549Y0071170D01*
X0115707Y0071650D01*
X0116960Y0071650D01*
X0118118Y0071170D01*
X0119004Y0070284D01*
X0119483Y0069127D01*
X0119483Y0067873D01*
X0119004Y0066716D01*
X0118383Y0066095D01*
X0118383Y0042651D01*
X0114483Y0038751D01*
X0114483Y0037873D01*
X0114004Y0036716D01*
X0113118Y0035830D01*
X0112443Y0035550D01*
X0124283Y0035550D01*
X0124283Y0038550D01*
X0123129Y0038550D01*
X0122133Y0039546D01*
X0122133Y0043454D01*
X0122179Y0043500D01*
X0122133Y0043546D01*
X0122133Y0047454D01*
X0123129Y0048450D01*
X0124283Y0048450D01*
X0124283Y0056349D01*
X0125783Y0057849D01*
X0126984Y0059050D01*
X0137984Y0059050D01*
X0139283Y0060349D01*
X0139283Y0064095D01*
X0138663Y0064716D01*
X0138183Y0065873D01*
X0138183Y0067127D01*
X0138663Y0068284D01*
X0139549Y0069170D01*
X0140707Y0069650D01*
X0141960Y0069650D01*
X0143118Y0069170D01*
X0144004Y0068284D01*
X0144483Y0067127D01*
X0144483Y0065873D01*
X0144004Y0064716D01*
X0143383Y0064095D01*
X0143383Y0058651D01*
X0142182Y0057450D01*
X0139682Y0054950D01*
X0128682Y0054950D01*
X0128383Y0054651D01*
X0128383Y0048450D01*
X0129537Y0048450D01*
X0130533Y0047454D01*
X0130533Y0043546D01*
X0130487Y0043500D01*
X0130533Y0043454D01*
X0130533Y0039546D01*
X0129537Y0038550D01*
X0128383Y0038550D01*
X0128383Y0035550D01*
X0130484Y0035550D01*
X0131783Y0036849D01*
X0131783Y0041095D01*
X0131163Y0041716D01*
X0130683Y0042873D01*
X0130683Y0044127D01*
X0131163Y0045284D01*
X0132049Y0046170D01*
X0133207Y0046650D01*
X0134460Y0046650D01*
X0135618Y0046170D01*
X0136504Y0045284D01*
X0136983Y0044127D01*
X0136983Y0042873D01*
X0136504Y0041716D01*
X0135883Y0041095D01*
X0135883Y0035151D01*
X0133782Y0033050D01*
X0140683Y0033050D01*
X0140683Y0034127D01*
X0141163Y0035284D01*
X0142049Y0036170D01*
X0143207Y0036650D01*
X0144460Y0036650D01*
X0145618Y0036170D01*
X0146333Y0035455D01*
X0147049Y0036170D01*
X0148207Y0036650D01*
X0149460Y0036650D01*
X0150618Y0036170D01*
X0151504Y0035284D01*
X0151983Y0034127D01*
X0151983Y0032873D01*
X0151504Y0031716D01*
X0150883Y0031095D01*
X0150883Y0030151D01*
X0147182Y0026450D01*
X0130956Y0026450D01*
X0131733Y0024574D01*
X0131733Y0022426D01*
X0130911Y0020441D01*
X0129392Y0018922D01*
X0127407Y0018100D01*
X0125259Y0018100D01*
X0123274Y0018922D01*
X0121755Y0020441D01*
X0121333Y0021460D01*
X0120911Y0020441D01*
X0119392Y0018922D01*
X0117407Y0018100D01*
X0115259Y0018100D01*
X0114889Y0018253D01*
X0114976Y0018166D01*
X0114976Y0010600D01*
X0154233Y0010600D01*
X0154233Y0049857D01*
X0146667Y0049857D01*
X0145525Y0050999D01*
X0145525Y0066001D01*
X0146667Y0067143D01*
X0154233Y0067143D01*
X0154233Y0106400D01*
X0114976Y0106400D01*
X0114976Y0098834D01*
X0113834Y0097692D01*
X0098833Y0097692D01*
X0097690Y0098834D01*
X0097690Y0106400D01*
X0058433Y0106400D01*
X0058433Y0067143D01*
X0065999Y0067143D01*
X0067142Y0066001D01*
X0067142Y0050999D01*
X0065999Y0049857D01*
X0058433Y0049857D01*
X0058433Y0049439D02*
X0094283Y0049439D01*
X0094283Y0050437D02*
X0066580Y0050437D01*
X0067142Y0051436D02*
X0094283Y0051436D01*
X0094283Y0052434D02*
X0067142Y0052434D01*
X0067142Y0053433D02*
X0094283Y0053433D01*
X0094283Y0054432D02*
X0067142Y0054432D01*
X0067142Y0055430D02*
X0094283Y0055430D01*
X0094283Y0056429D02*
X0067142Y0056429D01*
X0067142Y0057427D02*
X0094283Y0057427D01*
X0094283Y0058426D02*
X0067142Y0058426D01*
X0067142Y0059424D02*
X0094283Y0059424D01*
X0094283Y0060423D02*
X0067142Y0060423D01*
X0067142Y0061421D02*
X0094283Y0061421D01*
X0094283Y0062420D02*
X0067142Y0062420D01*
X0067142Y0063418D02*
X0094283Y0063418D01*
X0094283Y0064417D02*
X0067142Y0064417D01*
X0067142Y0065415D02*
X0094283Y0065415D01*
X0094283Y0066414D02*
X0066729Y0066414D01*
X0058433Y0067412D02*
X0094283Y0067412D01*
X0094283Y0068411D02*
X0058433Y0068411D01*
X0058433Y0069409D02*
X0093583Y0069409D01*
X0093183Y0070408D02*
X0058433Y0070408D01*
X0058433Y0071406D02*
X0093183Y0071406D01*
X0093506Y0072405D02*
X0058433Y0072405D01*
X0058433Y0073403D02*
X0094282Y0073403D01*
X0098385Y0073403D02*
X0154233Y0073403D01*
X0154233Y0072405D02*
X0099161Y0072405D01*
X0099483Y0071406D02*
X0115118Y0071406D01*
X0113786Y0070408D02*
X0099483Y0070408D01*
X0099084Y0069409D02*
X0113300Y0069409D01*
X0113183Y0068411D02*
X0098383Y0068411D01*
X0098383Y0067412D02*
X0113374Y0067412D01*
X0113965Y0066414D02*
X0098383Y0066414D01*
X0098383Y0065415D02*
X0114283Y0065415D01*
X0114283Y0064417D02*
X0111985Y0064417D01*
X0111865Y0064537D02*
X0113008Y0063394D01*
X0113008Y0053511D01*
X0111865Y0052369D01*
X0100801Y0052369D01*
X0099659Y0053511D01*
X0099659Y0063394D01*
X0100801Y0064537D01*
X0111865Y0064537D01*
X0112984Y0063418D02*
X0114283Y0063418D01*
X0114283Y0062420D02*
X0113008Y0062420D01*
X0113008Y0061421D02*
X0114283Y0061421D01*
X0114283Y0060423D02*
X0113008Y0060423D01*
X0113008Y0059424D02*
X0114283Y0059424D01*
X0114283Y0058426D02*
X0113008Y0058426D01*
X0113008Y0057427D02*
X0114283Y0057427D01*
X0114283Y0056429D02*
X0113008Y0056429D01*
X0113008Y0055430D02*
X0114283Y0055430D01*
X0114283Y0054432D02*
X0113008Y0054432D01*
X0112930Y0053433D02*
X0114283Y0053433D01*
X0114283Y0052434D02*
X0111931Y0052434D01*
X0114283Y0051436D02*
X0098383Y0051436D01*
X0098383Y0052434D02*
X0100736Y0052434D01*
X0099737Y0053433D02*
X0098383Y0053433D01*
X0098383Y0054432D02*
X0099659Y0054432D01*
X0099659Y0055430D02*
X0098383Y0055430D01*
X0098383Y0056429D02*
X0099659Y0056429D01*
X0099659Y0057427D02*
X0098383Y0057427D01*
X0098383Y0058426D02*
X0099659Y0058426D01*
X0099659Y0059424D02*
X0098383Y0059424D01*
X0098383Y0060423D02*
X0099659Y0060423D01*
X0099659Y0061421D02*
X0098383Y0061421D01*
X0098383Y0062420D02*
X0099659Y0062420D01*
X0099683Y0063418D02*
X0098383Y0063418D01*
X0098383Y0064417D02*
X0100681Y0064417D01*
X0098383Y0050437D02*
X0114283Y0050437D01*
X0114283Y0049439D02*
X0098383Y0049439D01*
X0098383Y0048440D02*
X0114283Y0048440D01*
X0114283Y0047442D02*
X0098383Y0047442D01*
X0098383Y0046443D02*
X0114283Y0046443D01*
X0114283Y0045445D02*
X0098383Y0045445D01*
X0098383Y0044446D02*
X0114283Y0044446D01*
X0113382Y0043448D02*
X0098383Y0043448D01*
X0098383Y0042449D02*
X0112384Y0042449D01*
X0110226Y0041451D02*
X0098383Y0041451D01*
X0098383Y0040452D02*
X0108831Y0040452D01*
X0108319Y0039454D02*
X0098383Y0039454D01*
X0098383Y0038455D02*
X0108183Y0038455D01*
X0108356Y0037457D02*
X0098383Y0037457D01*
X0098383Y0036458D02*
X0108920Y0036458D01*
X0113746Y0036458D02*
X0124283Y0036458D01*
X0124283Y0037457D02*
X0114311Y0037457D01*
X0114483Y0038455D02*
X0124283Y0038455D01*
X0122225Y0039454D02*
X0115186Y0039454D01*
X0116185Y0040452D02*
X0122133Y0040452D01*
X0122133Y0041451D02*
X0117183Y0041451D01*
X0118182Y0042449D02*
X0122133Y0042449D01*
X0122133Y0043448D02*
X0118383Y0043448D01*
X0118383Y0044446D02*
X0122133Y0044446D01*
X0122133Y0045445D02*
X0118383Y0045445D01*
X0118383Y0046443D02*
X0122133Y0046443D01*
X0122133Y0047442D02*
X0118383Y0047442D01*
X0118383Y0048440D02*
X0123120Y0048440D01*
X0124283Y0049439D02*
X0118383Y0049439D01*
X0118383Y0050437D02*
X0124283Y0050437D01*
X0124283Y0051436D02*
X0118383Y0051436D01*
X0118383Y0052434D02*
X0124283Y0052434D01*
X0124283Y0053433D02*
X0118383Y0053433D01*
X0118383Y0054432D02*
X0124283Y0054432D01*
X0124283Y0055430D02*
X0118383Y0055430D01*
X0118383Y0056429D02*
X0124363Y0056429D01*
X0125361Y0057427D02*
X0118383Y0057427D01*
X0118383Y0058426D02*
X0126360Y0058426D01*
X0128383Y0054432D02*
X0145525Y0054432D01*
X0145525Y0055430D02*
X0140163Y0055430D01*
X0141161Y0056429D02*
X0145525Y0056429D01*
X0145525Y0057427D02*
X0142160Y0057427D01*
X0143158Y0058426D02*
X0145525Y0058426D01*
X0145525Y0059424D02*
X0143383Y0059424D01*
X0143383Y0060423D02*
X0145525Y0060423D01*
X0145525Y0061421D02*
X0143383Y0061421D01*
X0143383Y0062420D02*
X0145525Y0062420D01*
X0145525Y0063418D02*
X0143383Y0063418D01*
X0143705Y0064417D02*
X0145525Y0064417D01*
X0145525Y0065415D02*
X0144293Y0065415D01*
X0144483Y0066414D02*
X0145938Y0066414D01*
X0144365Y0067412D02*
X0154233Y0067412D01*
X0154233Y0068411D02*
X0143877Y0068411D01*
X0142541Y0069409D02*
X0154233Y0069409D01*
X0154233Y0070408D02*
X0118880Y0070408D01*
X0119366Y0069409D02*
X0140125Y0069409D01*
X0138789Y0068411D02*
X0119483Y0068411D01*
X0119292Y0067412D02*
X0138302Y0067412D01*
X0138183Y0066414D02*
X0118702Y0066414D01*
X0118383Y0065415D02*
X0138373Y0065415D01*
X0138962Y0064417D02*
X0118383Y0064417D01*
X0118383Y0063418D02*
X0139283Y0063418D01*
X0139283Y0062420D02*
X0118383Y0062420D01*
X0118383Y0061421D02*
X0139283Y0061421D01*
X0139283Y0060423D02*
X0118383Y0060423D01*
X0118383Y0059424D02*
X0138358Y0059424D01*
X0145525Y0053433D02*
X0128383Y0053433D01*
X0128383Y0052434D02*
X0145525Y0052434D01*
X0145525Y0051436D02*
X0128383Y0051436D01*
X0128383Y0050437D02*
X0146087Y0050437D01*
X0154233Y0049439D02*
X0128383Y0049439D01*
X0129547Y0048440D02*
X0154233Y0048440D01*
X0154233Y0047442D02*
X0130533Y0047442D01*
X0130533Y0046443D02*
X0132708Y0046443D01*
X0131323Y0045445D02*
X0130533Y0045445D01*
X0130533Y0044446D02*
X0130816Y0044446D01*
X0130683Y0043448D02*
X0130533Y0043448D01*
X0130533Y0042449D02*
X0130859Y0042449D01*
X0130533Y0041451D02*
X0131428Y0041451D01*
X0131783Y0040452D02*
X0130533Y0040452D01*
X0130441Y0039454D02*
X0131783Y0039454D01*
X0131783Y0038455D02*
X0128383Y0038455D01*
X0128383Y0037457D02*
X0131783Y0037457D01*
X0131393Y0036458D02*
X0128383Y0036458D01*
X0126333Y0041500D02*
X0126333Y0045500D01*
X0134959Y0046443D02*
X0154233Y0046443D01*
X0154233Y0045445D02*
X0136343Y0045445D01*
X0136851Y0044446D02*
X0154233Y0044446D01*
X0154233Y0043448D02*
X0136983Y0043448D01*
X0136808Y0042449D02*
X0154233Y0042449D01*
X0154233Y0041451D02*
X0136239Y0041451D01*
X0135883Y0040452D02*
X0154233Y0040452D01*
X0154233Y0039454D02*
X0135883Y0039454D01*
X0135883Y0038455D02*
X0154233Y0038455D01*
X0154233Y0037457D02*
X0135883Y0037457D01*
X0135883Y0036458D02*
X0142744Y0036458D01*
X0141338Y0035460D02*
X0135883Y0035460D01*
X0135194Y0034461D02*
X0140822Y0034461D01*
X0140683Y0033463D02*
X0134195Y0033463D01*
X0131360Y0025475D02*
X0154233Y0025475D01*
X0154233Y0026473D02*
X0147206Y0026473D01*
X0148204Y0027472D02*
X0154233Y0027472D01*
X0154233Y0028470D02*
X0149203Y0028470D01*
X0150201Y0029469D02*
X0154233Y0029469D01*
X0154233Y0030467D02*
X0150883Y0030467D01*
X0151254Y0031466D02*
X0154233Y0031466D01*
X0154233Y0032464D02*
X0151814Y0032464D01*
X0151983Y0033463D02*
X0154233Y0033463D01*
X0154233Y0034461D02*
X0151845Y0034461D01*
X0151328Y0035460D02*
X0154233Y0035460D01*
X0154233Y0036458D02*
X0149923Y0036458D01*
X0147744Y0036458D02*
X0144923Y0036458D01*
X0146328Y0035460D02*
X0146338Y0035460D01*
X0154233Y0024476D02*
X0131733Y0024476D01*
X0131733Y0023478D02*
X0154233Y0023478D01*
X0154233Y0022479D02*
X0131733Y0022479D01*
X0131342Y0021481D02*
X0154233Y0021481D01*
X0154233Y0020482D02*
X0130928Y0020482D01*
X0129954Y0019484D02*
X0154233Y0019484D01*
X0154233Y0018485D02*
X0128337Y0018485D01*
X0124329Y0018485D02*
X0118337Y0018485D01*
X0119954Y0019484D02*
X0122713Y0019484D01*
X0121738Y0020482D02*
X0120928Y0020482D01*
X0114976Y0017487D02*
X0154233Y0017487D01*
X0154233Y0016488D02*
X0114976Y0016488D01*
X0114976Y0015490D02*
X0154233Y0015490D01*
X0154233Y0014491D02*
X0114976Y0014491D01*
X0114976Y0013493D02*
X0154233Y0013493D01*
X0154233Y0012494D02*
X0114976Y0012494D01*
X0114976Y0011496D02*
X0154233Y0011496D01*
X0160433Y0012474D02*
X0160433Y0049857D01*
X0167999Y0049857D01*
X0169142Y0050999D01*
X0169142Y0066001D01*
X0167999Y0067143D01*
X0160433Y0067143D01*
X0160433Y0106400D01*
X0199690Y0106400D01*
X0199690Y0098834D01*
X0200833Y0097692D01*
X0215834Y0097692D01*
X0216976Y0098834D01*
X0216976Y0106400D01*
X0256233Y0106400D01*
X0256233Y0067143D01*
X0248667Y0067143D01*
X0247525Y0066001D01*
X0247525Y0050999D01*
X0248667Y0049857D01*
X0256233Y0049857D01*
X0256233Y0010600D01*
X0216976Y0010600D01*
X0216976Y0018166D01*
X0216889Y0018253D01*
X0217259Y0018100D01*
X0219407Y0018100D01*
X0221392Y0018922D01*
X0222911Y0020441D01*
X0223333Y0021460D01*
X0223755Y0020441D01*
X0225274Y0018922D01*
X0227259Y0018100D01*
X0229407Y0018100D01*
X0231392Y0018922D01*
X0232911Y0020441D01*
X0233733Y0022426D01*
X0233733Y0024574D01*
X0232956Y0026450D01*
X0249182Y0026450D01*
X0252883Y0030151D01*
X0252883Y0031095D01*
X0253504Y0031716D01*
X0253983Y0032873D01*
X0253983Y0034127D01*
X0253504Y0035284D01*
X0252618Y0036170D01*
X0251460Y0036650D01*
X0250207Y0036650D01*
X0249049Y0036170D01*
X0248333Y0035455D01*
X0247618Y0036170D01*
X0246460Y0036650D01*
X0245207Y0036650D01*
X0244049Y0036170D01*
X0243163Y0035284D01*
X0242683Y0034127D01*
X0242683Y0033050D01*
X0235782Y0033050D01*
X0237883Y0035151D01*
X0237883Y0041095D01*
X0238504Y0041716D01*
X0238983Y0042873D01*
X0238983Y0044127D01*
X0238504Y0045284D01*
X0237618Y0046170D01*
X0236460Y0046650D01*
X0235207Y0046650D01*
X0234049Y0046170D01*
X0233163Y0045284D01*
X0232683Y0044127D01*
X0232683Y0042873D01*
X0233163Y0041716D01*
X0233783Y0041095D01*
X0233783Y0036849D01*
X0232484Y0035550D01*
X0230383Y0035550D01*
X0230383Y0038550D01*
X0231537Y0038550D01*
X0232533Y0039546D01*
X0232533Y0043454D01*
X0232487Y0043500D01*
X0232533Y0043546D01*
X0232533Y0047454D01*
X0231537Y0048450D01*
X0230383Y0048450D01*
X0230383Y0054651D01*
X0230682Y0054950D01*
X0241682Y0054950D01*
X0244182Y0057450D01*
X0245383Y0058651D01*
X0245383Y0064095D01*
X0246004Y0064716D01*
X0246483Y0065873D01*
X0246483Y0067127D01*
X0246004Y0068284D01*
X0245118Y0069170D01*
X0243960Y0069650D01*
X0242707Y0069650D01*
X0241549Y0069170D01*
X0240663Y0068284D01*
X0240183Y0067127D01*
X0240183Y0065873D01*
X0240663Y0064716D01*
X0241283Y0064095D01*
X0241283Y0060349D01*
X0239984Y0059050D01*
X0228984Y0059050D01*
X0227783Y0057849D01*
X0226283Y0056349D01*
X0226283Y0048450D01*
X0225129Y0048450D01*
X0224133Y0047454D01*
X0224133Y0043546D01*
X0224179Y0043500D01*
X0224133Y0043454D01*
X0224133Y0039546D01*
X0225129Y0038550D01*
X0226283Y0038550D01*
X0226283Y0035550D01*
X0214443Y0035550D01*
X0215118Y0035830D01*
X0216004Y0036716D01*
X0216483Y0037873D01*
X0216483Y0038751D01*
X0220383Y0042651D01*
X0220383Y0066095D01*
X0221004Y0066716D01*
X0221483Y0067873D01*
X0221483Y0069127D01*
X0221004Y0070284D01*
X0220118Y0071170D01*
X0218960Y0071650D01*
X0217707Y0071650D01*
X0216549Y0071170D01*
X0215663Y0070284D01*
X0215183Y0069127D01*
X0215183Y0067873D01*
X0215663Y0066716D01*
X0216283Y0066095D01*
X0216283Y0044349D01*
X0213584Y0041650D01*
X0212707Y0041650D01*
X0211549Y0041170D01*
X0210663Y0040284D01*
X0210183Y0039127D01*
X0210183Y0037873D01*
X0210663Y0036716D01*
X0211549Y0035830D01*
X0212224Y0035550D01*
X0200383Y0035550D01*
X0200383Y0068595D01*
X0201004Y0069216D01*
X0201483Y0070373D01*
X0201483Y0071627D01*
X0201004Y0072784D01*
X0200118Y0073670D01*
X0198960Y0074150D01*
X0197707Y0074150D01*
X0196549Y0073670D01*
X0195663Y0072784D01*
X0195183Y0071627D01*
X0195183Y0070373D01*
X0195663Y0069216D01*
X0196283Y0068595D01*
X0196283Y0045550D01*
X0185738Y0045550D01*
X0185118Y0046170D01*
X0183960Y0046650D01*
X0182707Y0046650D01*
X0181549Y0046170D01*
X0180663Y0045284D01*
X0180183Y0044127D01*
X0180183Y0042873D01*
X0180663Y0041716D01*
X0181549Y0040830D01*
X0182707Y0040350D01*
X0183960Y0040350D01*
X0185118Y0040830D01*
X0185738Y0041450D01*
X0192224Y0041450D01*
X0191549Y0041170D01*
X0190663Y0040284D01*
X0190183Y0039127D01*
X0190183Y0037873D01*
X0190663Y0036716D01*
X0191283Y0036095D01*
X0191283Y0027784D01*
X0191059Y0027947D01*
X0190329Y0028319D01*
X0189551Y0028572D01*
X0188833Y0028686D01*
X0188833Y0024000D01*
X0187833Y0024000D01*
X0187833Y0023000D01*
X0183148Y0023000D01*
X0183261Y0022282D01*
X0183514Y0021504D01*
X0183886Y0020775D01*
X0184049Y0020550D01*
X0180738Y0020550D01*
X0180118Y0021170D01*
X0178960Y0021650D01*
X0177707Y0021650D01*
X0176549Y0021170D01*
X0175663Y0020284D01*
X0175183Y0019127D01*
X0175183Y0017873D01*
X0175360Y0017447D01*
X0174780Y0017833D01*
X0173074Y0017492D01*
X0172938Y0017288D01*
X0172802Y0017492D01*
X0171096Y0017833D01*
X0169883Y0017025D01*
X0169204Y0017704D01*
X0167464Y0017704D01*
X0166840Y0017080D01*
X0166234Y0016473D01*
X0166234Y0016069D01*
X0165830Y0016473D01*
X0165830Y0016473D01*
X0165464Y0016839D01*
X0164600Y0017704D01*
X0162860Y0017704D01*
X0162236Y0017080D01*
X0161630Y0016473D01*
X0161630Y0013500D01*
X0161459Y0013500D01*
X0160433Y0012474D01*
X0160433Y0012494D02*
X0160453Y0012494D01*
X0160433Y0013493D02*
X0161452Y0013493D01*
X0161630Y0014491D02*
X0160433Y0014491D01*
X0160433Y0015490D02*
X0161630Y0015490D01*
X0161645Y0016488D02*
X0160433Y0016488D01*
X0160433Y0017487D02*
X0162643Y0017487D01*
X0164817Y0017487D02*
X0167247Y0017487D01*
X0166249Y0016488D02*
X0165816Y0016488D01*
X0169421Y0017487D02*
X0170576Y0017487D01*
X0172805Y0017487D02*
X0173071Y0017487D01*
X0175301Y0017487D02*
X0175344Y0017487D01*
X0175183Y0018485D02*
X0160433Y0018485D01*
X0160433Y0019484D02*
X0175331Y0019484D01*
X0175861Y0020482D02*
X0160433Y0020482D01*
X0160433Y0021481D02*
X0177298Y0021481D01*
X0179369Y0021481D02*
X0183526Y0021481D01*
X0183230Y0022479D02*
X0160433Y0022479D01*
X0160433Y0023478D02*
X0187833Y0023478D01*
X0187833Y0024000D02*
X0183148Y0024000D01*
X0183261Y0024718D01*
X0183514Y0025496D01*
X0183886Y0026225D01*
X0184367Y0026888D01*
X0184946Y0027466D01*
X0185608Y0027947D01*
X0186337Y0028319D01*
X0187116Y0028572D01*
X0187833Y0028686D01*
X0187833Y0024000D01*
X0187833Y0024476D02*
X0188833Y0024476D01*
X0188833Y0025475D02*
X0187833Y0025475D01*
X0187833Y0026473D02*
X0188833Y0026473D01*
X0188833Y0027472D02*
X0187833Y0027472D01*
X0187833Y0028470D02*
X0188833Y0028470D01*
X0189864Y0028470D02*
X0191283Y0028470D01*
X0191283Y0029469D02*
X0160433Y0029469D01*
X0160433Y0030467D02*
X0191283Y0030467D01*
X0191283Y0031466D02*
X0160433Y0031466D01*
X0160433Y0032464D02*
X0191283Y0032464D01*
X0191283Y0033463D02*
X0160433Y0033463D01*
X0160433Y0034461D02*
X0191283Y0034461D01*
X0191283Y0035460D02*
X0160433Y0035460D01*
X0160433Y0036458D02*
X0190920Y0036458D01*
X0190356Y0037457D02*
X0160433Y0037457D01*
X0160433Y0038455D02*
X0190183Y0038455D01*
X0190319Y0039454D02*
X0160433Y0039454D01*
X0160433Y0040452D02*
X0182460Y0040452D01*
X0184207Y0040452D02*
X0190831Y0040452D01*
X0196283Y0046443D02*
X0184459Y0046443D01*
X0182208Y0046443D02*
X0160433Y0046443D01*
X0160433Y0045445D02*
X0180823Y0045445D01*
X0180316Y0044446D02*
X0160433Y0044446D01*
X0160433Y0043448D02*
X0180183Y0043448D01*
X0180359Y0042449D02*
X0160433Y0042449D01*
X0160433Y0041451D02*
X0180928Y0041451D01*
X0168580Y0050437D02*
X0196283Y0050437D01*
X0196283Y0049439D02*
X0160433Y0049439D01*
X0160433Y0048440D02*
X0196283Y0048440D01*
X0196283Y0047442D02*
X0160433Y0047442D01*
X0169142Y0051436D02*
X0196283Y0051436D01*
X0196283Y0052434D02*
X0169142Y0052434D01*
X0169142Y0053433D02*
X0196283Y0053433D01*
X0196283Y0054432D02*
X0169142Y0054432D01*
X0169142Y0055430D02*
X0196283Y0055430D01*
X0196283Y0056429D02*
X0169142Y0056429D01*
X0169142Y0057427D02*
X0196283Y0057427D01*
X0196283Y0058426D02*
X0169142Y0058426D01*
X0169142Y0059424D02*
X0196283Y0059424D01*
X0196283Y0060423D02*
X0169142Y0060423D01*
X0169142Y0061421D02*
X0196283Y0061421D01*
X0196283Y0062420D02*
X0169142Y0062420D01*
X0169142Y0063418D02*
X0196283Y0063418D01*
X0196283Y0064417D02*
X0169142Y0064417D01*
X0169142Y0065415D02*
X0196283Y0065415D01*
X0196283Y0066414D02*
X0168729Y0066414D01*
X0160433Y0067412D02*
X0196283Y0067412D01*
X0196283Y0068411D02*
X0160433Y0068411D01*
X0160433Y0069409D02*
X0195583Y0069409D01*
X0195183Y0070408D02*
X0160433Y0070408D01*
X0160433Y0071406D02*
X0195183Y0071406D01*
X0195506Y0072405D02*
X0160433Y0072405D01*
X0160433Y0073403D02*
X0196282Y0073403D01*
X0200385Y0073403D02*
X0256233Y0073403D01*
X0256233Y0072405D02*
X0201161Y0072405D01*
X0201483Y0071406D02*
X0217118Y0071406D01*
X0215786Y0070408D02*
X0201483Y0070408D01*
X0201084Y0069409D02*
X0215300Y0069409D01*
X0215183Y0068411D02*
X0200383Y0068411D01*
X0200383Y0067412D02*
X0215374Y0067412D01*
X0215965Y0066414D02*
X0200383Y0066414D01*
X0200383Y0065415D02*
X0216283Y0065415D01*
X0216283Y0064417D02*
X0213985Y0064417D01*
X0213865Y0064537D02*
X0202801Y0064537D01*
X0201659Y0063394D01*
X0201659Y0053511D01*
X0202801Y0052369D01*
X0204417Y0052369D01*
X0213865Y0052369D01*
X0215008Y0053511D01*
X0215008Y0063394D01*
X0213865Y0064537D01*
X0214984Y0063418D02*
X0216283Y0063418D01*
X0216283Y0062420D02*
X0215008Y0062420D01*
X0215008Y0061421D02*
X0216283Y0061421D01*
X0216283Y0060423D02*
X0215008Y0060423D01*
X0215008Y0059424D02*
X0216283Y0059424D01*
X0216283Y0058426D02*
X0215008Y0058426D01*
X0215008Y0057427D02*
X0216283Y0057427D01*
X0216283Y0056429D02*
X0215008Y0056429D01*
X0215008Y0055430D02*
X0216283Y0055430D01*
X0216283Y0054432D02*
X0215008Y0054432D01*
X0214930Y0053433D02*
X0216283Y0053433D01*
X0216283Y0052434D02*
X0213931Y0052434D01*
X0216283Y0051436D02*
X0200383Y0051436D01*
X0200383Y0052434D02*
X0202736Y0052434D01*
X0201737Y0053433D02*
X0200383Y0053433D01*
X0200383Y0054432D02*
X0201659Y0054432D01*
X0201659Y0055430D02*
X0200383Y0055430D01*
X0200383Y0056429D02*
X0201659Y0056429D01*
X0201659Y0057427D02*
X0200383Y0057427D01*
X0200383Y0058426D02*
X0201659Y0058426D01*
X0201659Y0059424D02*
X0200383Y0059424D01*
X0200383Y0060423D02*
X0201659Y0060423D01*
X0201659Y0061421D02*
X0200383Y0061421D01*
X0200383Y0062420D02*
X0201659Y0062420D01*
X0201683Y0063418D02*
X0200383Y0063418D01*
X0200383Y0064417D02*
X0202681Y0064417D01*
X0200383Y0050437D02*
X0216283Y0050437D01*
X0216283Y0049439D02*
X0200383Y0049439D01*
X0200383Y0048440D02*
X0216283Y0048440D01*
X0216283Y0047442D02*
X0200383Y0047442D01*
X0200383Y0046443D02*
X0216283Y0046443D01*
X0216283Y0045445D02*
X0200383Y0045445D01*
X0200383Y0044446D02*
X0216283Y0044446D01*
X0215382Y0043448D02*
X0200383Y0043448D01*
X0200383Y0042449D02*
X0214384Y0042449D01*
X0212226Y0041451D02*
X0200383Y0041451D01*
X0200383Y0040452D02*
X0210831Y0040452D01*
X0210319Y0039454D02*
X0200383Y0039454D01*
X0200383Y0038455D02*
X0210183Y0038455D01*
X0210356Y0037457D02*
X0200383Y0037457D01*
X0200383Y0036458D02*
X0210920Y0036458D01*
X0215746Y0036458D02*
X0226283Y0036458D01*
X0226283Y0037457D02*
X0216311Y0037457D01*
X0216483Y0038455D02*
X0226283Y0038455D01*
X0224225Y0039454D02*
X0217186Y0039454D01*
X0218185Y0040452D02*
X0224133Y0040452D01*
X0224133Y0041451D02*
X0219183Y0041451D01*
X0220182Y0042449D02*
X0224133Y0042449D01*
X0224133Y0043448D02*
X0220383Y0043448D01*
X0220383Y0044446D02*
X0224133Y0044446D01*
X0224133Y0045445D02*
X0220383Y0045445D01*
X0220383Y0046443D02*
X0224133Y0046443D01*
X0224133Y0047442D02*
X0220383Y0047442D01*
X0220383Y0048440D02*
X0225120Y0048440D01*
X0226283Y0049439D02*
X0220383Y0049439D01*
X0220383Y0050437D02*
X0226283Y0050437D01*
X0226283Y0051436D02*
X0220383Y0051436D01*
X0220383Y0052434D02*
X0226283Y0052434D01*
X0226283Y0053433D02*
X0220383Y0053433D01*
X0220383Y0054432D02*
X0226283Y0054432D01*
X0226283Y0055430D02*
X0220383Y0055430D01*
X0220383Y0056429D02*
X0226363Y0056429D01*
X0227361Y0057427D02*
X0220383Y0057427D01*
X0220383Y0058426D02*
X0228360Y0058426D01*
X0230383Y0054432D02*
X0247525Y0054432D01*
X0247525Y0055430D02*
X0242162Y0055430D01*
X0243161Y0056429D02*
X0247525Y0056429D01*
X0247525Y0057427D02*
X0244160Y0057427D01*
X0245158Y0058426D02*
X0247525Y0058426D01*
X0247525Y0059424D02*
X0245383Y0059424D01*
X0245383Y0060423D02*
X0247525Y0060423D01*
X0247525Y0061421D02*
X0245383Y0061421D01*
X0245383Y0062420D02*
X0247525Y0062420D01*
X0247525Y0063418D02*
X0245383Y0063418D01*
X0245705Y0064417D02*
X0247525Y0064417D01*
X0247525Y0065415D02*
X0246293Y0065415D01*
X0246483Y0066414D02*
X0247938Y0066414D01*
X0246365Y0067412D02*
X0256233Y0067412D01*
X0256233Y0068411D02*
X0245877Y0068411D01*
X0244541Y0069409D02*
X0256233Y0069409D01*
X0256233Y0070408D02*
X0220880Y0070408D01*
X0221366Y0069409D02*
X0242125Y0069409D01*
X0240789Y0068411D02*
X0221483Y0068411D01*
X0221292Y0067412D02*
X0240302Y0067412D01*
X0240183Y0066414D02*
X0220702Y0066414D01*
X0220383Y0065415D02*
X0240373Y0065415D01*
X0240962Y0064417D02*
X0220383Y0064417D01*
X0220383Y0063418D02*
X0241283Y0063418D01*
X0241283Y0062420D02*
X0220383Y0062420D01*
X0220383Y0061421D02*
X0241283Y0061421D01*
X0241283Y0060423D02*
X0220383Y0060423D01*
X0220383Y0059424D02*
X0240358Y0059424D01*
X0247525Y0053433D02*
X0230383Y0053433D01*
X0230383Y0052434D02*
X0247525Y0052434D01*
X0247525Y0051436D02*
X0230383Y0051436D01*
X0230383Y0050437D02*
X0248087Y0050437D01*
X0256233Y0045445D02*
X0238343Y0045445D01*
X0238851Y0044446D02*
X0256233Y0044446D01*
X0256233Y0043448D02*
X0238983Y0043448D01*
X0238808Y0042449D02*
X0256233Y0042449D01*
X0256233Y0041451D02*
X0238239Y0041451D01*
X0237883Y0040452D02*
X0256233Y0040452D01*
X0256233Y0039454D02*
X0237883Y0039454D01*
X0237883Y0038455D02*
X0256233Y0038455D01*
X0256233Y0037457D02*
X0237883Y0037457D01*
X0237883Y0036458D02*
X0244744Y0036458D01*
X0243338Y0035460D02*
X0237883Y0035460D01*
X0237194Y0034461D02*
X0242822Y0034461D01*
X0242683Y0033463D02*
X0236195Y0033463D01*
X0233393Y0036458D02*
X0230383Y0036458D01*
X0230383Y0037457D02*
X0233783Y0037457D01*
X0233783Y0038455D02*
X0230383Y0038455D01*
X0232441Y0039454D02*
X0233783Y0039454D01*
X0233783Y0040452D02*
X0232533Y0040452D01*
X0232533Y0041451D02*
X0233428Y0041451D01*
X0232859Y0042449D02*
X0232533Y0042449D01*
X0232533Y0043448D02*
X0232683Y0043448D01*
X0232816Y0044446D02*
X0232533Y0044446D01*
X0232533Y0045445D02*
X0233323Y0045445D01*
X0232533Y0046443D02*
X0234708Y0046443D01*
X0236959Y0046443D02*
X0256233Y0046443D01*
X0256233Y0047442D02*
X0232533Y0047442D01*
X0231547Y0048440D02*
X0256233Y0048440D01*
X0256233Y0049439D02*
X0230383Y0049439D01*
X0228333Y0045500D02*
X0228333Y0041500D01*
X0233360Y0025475D02*
X0256233Y0025475D01*
X0256233Y0026473D02*
X0249206Y0026473D01*
X0250204Y0027472D02*
X0256233Y0027472D01*
X0256233Y0028470D02*
X0251203Y0028470D01*
X0252201Y0029469D02*
X0256233Y0029469D01*
X0256233Y0030467D02*
X0252883Y0030467D01*
X0253254Y0031466D02*
X0256233Y0031466D01*
X0256233Y0032464D02*
X0253814Y0032464D01*
X0253983Y0033463D02*
X0256233Y0033463D01*
X0256233Y0034461D02*
X0253845Y0034461D01*
X0253328Y0035460D02*
X0256233Y0035460D01*
X0256233Y0036458D02*
X0251923Y0036458D01*
X0249744Y0036458D02*
X0246923Y0036458D01*
X0248328Y0035460D02*
X0248338Y0035460D01*
X0256233Y0024476D02*
X0233733Y0024476D01*
X0233733Y0023478D02*
X0256233Y0023478D01*
X0256233Y0022479D02*
X0233733Y0022479D01*
X0233342Y0021481D02*
X0256233Y0021481D01*
X0256233Y0020482D02*
X0232928Y0020482D01*
X0231954Y0019484D02*
X0256233Y0019484D01*
X0256233Y0018485D02*
X0230337Y0018485D01*
X0226329Y0018485D02*
X0220337Y0018485D01*
X0221954Y0019484D02*
X0224713Y0019484D01*
X0223738Y0020482D02*
X0222928Y0020482D01*
X0216976Y0017487D02*
X0256233Y0017487D01*
X0256233Y0016488D02*
X0216976Y0016488D01*
X0216976Y0015490D02*
X0256233Y0015490D01*
X0256233Y0014491D02*
X0216976Y0014491D01*
X0216976Y0013493D02*
X0256233Y0013493D01*
X0256233Y0012494D02*
X0216976Y0012494D01*
X0216976Y0011496D02*
X0256233Y0011496D01*
X0262433Y0012474D02*
X0262433Y0049857D01*
X0269999Y0049857D01*
X0271142Y0050999D01*
X0271142Y0066001D01*
X0269999Y0067143D01*
X0262433Y0067143D01*
X0262433Y0106400D01*
X0301690Y0106400D01*
X0301690Y0098834D01*
X0302833Y0097692D01*
X0317834Y0097692D01*
X0318976Y0098834D01*
X0318976Y0106400D01*
X0358233Y0106400D01*
X0358233Y0067143D01*
X0350667Y0067143D01*
X0349525Y0066001D01*
X0349525Y0050999D01*
X0350667Y0049857D01*
X0358233Y0049857D01*
X0358233Y0010600D01*
X0318976Y0010600D01*
X0318976Y0018166D01*
X0318889Y0018253D01*
X0319259Y0018100D01*
X0321407Y0018100D01*
X0323392Y0018922D01*
X0324911Y0020441D01*
X0325333Y0021460D01*
X0325755Y0020441D01*
X0327274Y0018922D01*
X0329259Y0018100D01*
X0331407Y0018100D01*
X0333392Y0018922D01*
X0334911Y0020441D01*
X0335733Y0022426D01*
X0335733Y0024574D01*
X0334956Y0026450D01*
X0351182Y0026450D01*
X0352383Y0027651D01*
X0354883Y0030151D01*
X0354883Y0031095D01*
X0355504Y0031716D01*
X0355983Y0032873D01*
X0355983Y0034127D01*
X0355504Y0035284D01*
X0354618Y0036170D01*
X0353460Y0036650D01*
X0352207Y0036650D01*
X0351049Y0036170D01*
X0350333Y0035455D01*
X0349618Y0036170D01*
X0348460Y0036650D01*
X0347207Y0036650D01*
X0346049Y0036170D01*
X0345163Y0035284D01*
X0344683Y0034127D01*
X0344683Y0033050D01*
X0337782Y0033050D01*
X0339883Y0035151D01*
X0339883Y0041095D01*
X0340504Y0041716D01*
X0340983Y0042873D01*
X0340983Y0044127D01*
X0340504Y0045284D01*
X0339618Y0046170D01*
X0338460Y0046650D01*
X0337207Y0046650D01*
X0336049Y0046170D01*
X0335163Y0045284D01*
X0334683Y0044127D01*
X0334683Y0042873D01*
X0335163Y0041716D01*
X0335783Y0041095D01*
X0335783Y0036849D01*
X0334484Y0035550D01*
X0332383Y0035550D01*
X0332383Y0038550D01*
X0333537Y0038550D01*
X0334533Y0039546D01*
X0334533Y0043454D01*
X0334487Y0043500D01*
X0334533Y0043546D01*
X0334533Y0047454D01*
X0333537Y0048450D01*
X0332383Y0048450D01*
X0332383Y0054651D01*
X0332682Y0054950D01*
X0343682Y0054950D01*
X0346182Y0057450D01*
X0347383Y0058651D01*
X0347383Y0064095D01*
X0348004Y0064716D01*
X0348483Y0065873D01*
X0348483Y0067127D01*
X0348004Y0068284D01*
X0347118Y0069170D01*
X0345960Y0069650D01*
X0344707Y0069650D01*
X0343549Y0069170D01*
X0342663Y0068284D01*
X0342183Y0067127D01*
X0342183Y0065873D01*
X0342663Y0064716D01*
X0343283Y0064095D01*
X0343283Y0060349D01*
X0341984Y0059050D01*
X0330984Y0059050D01*
X0329783Y0057849D01*
X0328283Y0056349D01*
X0328283Y0048450D01*
X0327129Y0048450D01*
X0326133Y0047454D01*
X0326133Y0043546D01*
X0326179Y0043500D01*
X0326133Y0043454D01*
X0326133Y0039546D01*
X0327129Y0038550D01*
X0328283Y0038550D01*
X0328283Y0035550D01*
X0316443Y0035550D01*
X0317118Y0035830D01*
X0318004Y0036716D01*
X0318483Y0037873D01*
X0318483Y0038751D01*
X0322383Y0042651D01*
X0322383Y0066095D01*
X0323004Y0066716D01*
X0323483Y0067873D01*
X0323483Y0069127D01*
X0323004Y0070284D01*
X0322118Y0071170D01*
X0320960Y0071650D01*
X0319707Y0071650D01*
X0318549Y0071170D01*
X0317663Y0070284D01*
X0317183Y0069127D01*
X0317183Y0067873D01*
X0317663Y0066716D01*
X0318283Y0066095D01*
X0318283Y0044349D01*
X0315584Y0041650D01*
X0314707Y0041650D01*
X0313549Y0041170D01*
X0312663Y0040284D01*
X0312183Y0039127D01*
X0312183Y0037873D01*
X0312663Y0036716D01*
X0313549Y0035830D01*
X0314224Y0035550D01*
X0302383Y0035550D01*
X0302383Y0068595D01*
X0303004Y0069216D01*
X0303483Y0070373D01*
X0303483Y0071627D01*
X0303004Y0072784D01*
X0302118Y0073670D01*
X0300960Y0074150D01*
X0299707Y0074150D01*
X0298549Y0073670D01*
X0297663Y0072784D01*
X0297183Y0071627D01*
X0297183Y0070373D01*
X0297663Y0069216D01*
X0298283Y0068595D01*
X0298283Y0045550D01*
X0287738Y0045550D01*
X0287118Y0046170D01*
X0285960Y0046650D01*
X0284707Y0046650D01*
X0283549Y0046170D01*
X0282663Y0045284D01*
X0282183Y0044127D01*
X0282183Y0042873D01*
X0282663Y0041716D01*
X0283549Y0040830D01*
X0284707Y0040350D01*
X0285960Y0040350D01*
X0287118Y0040830D01*
X0287738Y0041450D01*
X0294224Y0041450D01*
X0293549Y0041170D01*
X0292663Y0040284D01*
X0292183Y0039127D01*
X0292183Y0037873D01*
X0292663Y0036716D01*
X0293283Y0036095D01*
X0293283Y0027784D01*
X0293059Y0027947D01*
X0292329Y0028319D01*
X0291551Y0028572D01*
X0290833Y0028686D01*
X0290833Y0024000D01*
X0289833Y0024000D01*
X0289833Y0023000D01*
X0285148Y0023000D01*
X0285261Y0022282D01*
X0285514Y0021504D01*
X0285886Y0020775D01*
X0286049Y0020550D01*
X0282738Y0020550D01*
X0282118Y0021170D01*
X0280960Y0021650D01*
X0279707Y0021650D01*
X0278549Y0021170D01*
X0277663Y0020284D01*
X0277183Y0019127D01*
X0277183Y0017873D01*
X0277360Y0017447D01*
X0276780Y0017833D01*
X0275074Y0017492D01*
X0274938Y0017288D01*
X0274802Y0017492D01*
X0273096Y0017833D01*
X0271883Y0017025D01*
X0271204Y0017704D01*
X0269464Y0017704D01*
X0269162Y0017401D01*
X0268234Y0016473D01*
X0268234Y0016069D01*
X0267830Y0016473D01*
X0267830Y0016473D01*
X0267464Y0016839D01*
X0266600Y0017704D01*
X0264860Y0017704D01*
X0264236Y0017080D01*
X0263630Y0016473D01*
X0263630Y0013500D01*
X0263459Y0013500D01*
X0262433Y0012474D01*
X0262433Y0012494D02*
X0262453Y0012494D01*
X0262433Y0013493D02*
X0263452Y0013493D01*
X0263630Y0014491D02*
X0262433Y0014491D01*
X0262433Y0015490D02*
X0263630Y0015490D01*
X0263645Y0016488D02*
X0262433Y0016488D01*
X0262433Y0017487D02*
X0264643Y0017487D01*
X0266817Y0017487D02*
X0269247Y0017487D01*
X0268249Y0016488D02*
X0267816Y0016488D01*
X0271421Y0017487D02*
X0272576Y0017487D01*
X0274805Y0017487D02*
X0275071Y0017487D01*
X0277301Y0017487D02*
X0277344Y0017487D01*
X0277183Y0018485D02*
X0262433Y0018485D01*
X0262433Y0019484D02*
X0277331Y0019484D01*
X0277861Y0020482D02*
X0262433Y0020482D01*
X0262433Y0021481D02*
X0279298Y0021481D01*
X0281369Y0021481D02*
X0285526Y0021481D01*
X0285230Y0022479D02*
X0262433Y0022479D01*
X0262433Y0023478D02*
X0289833Y0023478D01*
X0289833Y0024000D02*
X0285148Y0024000D01*
X0285261Y0024718D01*
X0285514Y0025496D01*
X0285886Y0026225D01*
X0286367Y0026888D01*
X0286946Y0027466D01*
X0287608Y0027947D01*
X0288337Y0028319D01*
X0289116Y0028572D01*
X0289833Y0028686D01*
X0289833Y0024000D01*
X0289833Y0024476D02*
X0290833Y0024476D01*
X0290833Y0025475D02*
X0289833Y0025475D01*
X0289833Y0026473D02*
X0290833Y0026473D01*
X0290833Y0027472D02*
X0289833Y0027472D01*
X0289833Y0028470D02*
X0290833Y0028470D01*
X0291864Y0028470D02*
X0293283Y0028470D01*
X0293283Y0029469D02*
X0262433Y0029469D01*
X0262433Y0030467D02*
X0293283Y0030467D01*
X0293283Y0031466D02*
X0262433Y0031466D01*
X0262433Y0032464D02*
X0293283Y0032464D01*
X0293283Y0033463D02*
X0262433Y0033463D01*
X0262433Y0034461D02*
X0293283Y0034461D01*
X0293283Y0035460D02*
X0262433Y0035460D01*
X0262433Y0036458D02*
X0292920Y0036458D01*
X0292356Y0037457D02*
X0262433Y0037457D01*
X0262433Y0038455D02*
X0292183Y0038455D01*
X0292319Y0039454D02*
X0262433Y0039454D01*
X0262433Y0040452D02*
X0284460Y0040452D01*
X0286207Y0040452D02*
X0292831Y0040452D01*
X0298283Y0046443D02*
X0286459Y0046443D01*
X0284208Y0046443D02*
X0262433Y0046443D01*
X0262433Y0045445D02*
X0282823Y0045445D01*
X0282316Y0044446D02*
X0262433Y0044446D01*
X0262433Y0043448D02*
X0282183Y0043448D01*
X0282359Y0042449D02*
X0262433Y0042449D01*
X0262433Y0041451D02*
X0282928Y0041451D01*
X0271142Y0051436D02*
X0298283Y0051436D01*
X0298283Y0052434D02*
X0271142Y0052434D01*
X0271142Y0053433D02*
X0298283Y0053433D01*
X0298283Y0054432D02*
X0271142Y0054432D01*
X0271142Y0055430D02*
X0298283Y0055430D01*
X0298283Y0056429D02*
X0271142Y0056429D01*
X0271142Y0057427D02*
X0298283Y0057427D01*
X0298283Y0058426D02*
X0271142Y0058426D01*
X0271142Y0059424D02*
X0298283Y0059424D01*
X0298283Y0060423D02*
X0271142Y0060423D01*
X0271142Y0061421D02*
X0298283Y0061421D01*
X0298283Y0062420D02*
X0271142Y0062420D01*
X0271142Y0063418D02*
X0298283Y0063418D01*
X0298283Y0064417D02*
X0271142Y0064417D01*
X0271142Y0065415D02*
X0298283Y0065415D01*
X0298283Y0066414D02*
X0270729Y0066414D01*
X0262433Y0067412D02*
X0298283Y0067412D01*
X0298283Y0068411D02*
X0262433Y0068411D01*
X0262433Y0069409D02*
X0297583Y0069409D01*
X0297183Y0070408D02*
X0262433Y0070408D01*
X0262433Y0071406D02*
X0297183Y0071406D01*
X0297506Y0072405D02*
X0262433Y0072405D01*
X0262433Y0073403D02*
X0298282Y0073403D01*
X0302385Y0073403D02*
X0358233Y0073403D01*
X0358233Y0072405D02*
X0303161Y0072405D01*
X0303483Y0071406D02*
X0319118Y0071406D01*
X0317786Y0070408D02*
X0303483Y0070408D01*
X0303084Y0069409D02*
X0317300Y0069409D01*
X0317183Y0068411D02*
X0302383Y0068411D01*
X0302383Y0067412D02*
X0317374Y0067412D01*
X0317965Y0066414D02*
X0302383Y0066414D01*
X0302383Y0065415D02*
X0318283Y0065415D01*
X0318283Y0064417D02*
X0315985Y0064417D01*
X0315865Y0064537D02*
X0304801Y0064537D01*
X0303659Y0063394D01*
X0303659Y0053511D01*
X0304801Y0052369D01*
X0306417Y0052369D01*
X0315865Y0052369D01*
X0317008Y0053511D01*
X0317008Y0063394D01*
X0315865Y0064537D01*
X0316984Y0063418D02*
X0318283Y0063418D01*
X0318283Y0062420D02*
X0317008Y0062420D01*
X0317008Y0061421D02*
X0318283Y0061421D01*
X0318283Y0060423D02*
X0317008Y0060423D01*
X0317008Y0059424D02*
X0318283Y0059424D01*
X0318283Y0058426D02*
X0317008Y0058426D01*
X0317008Y0057427D02*
X0318283Y0057427D01*
X0318283Y0056429D02*
X0317008Y0056429D01*
X0317008Y0055430D02*
X0318283Y0055430D01*
X0318283Y0054432D02*
X0317008Y0054432D01*
X0316930Y0053433D02*
X0318283Y0053433D01*
X0318283Y0052434D02*
X0315931Y0052434D01*
X0318283Y0051436D02*
X0302383Y0051436D01*
X0302383Y0052434D02*
X0304736Y0052434D01*
X0303737Y0053433D02*
X0302383Y0053433D01*
X0302383Y0054432D02*
X0303659Y0054432D01*
X0303659Y0055430D02*
X0302383Y0055430D01*
X0302383Y0056429D02*
X0303659Y0056429D01*
X0303659Y0057427D02*
X0302383Y0057427D01*
X0302383Y0058426D02*
X0303659Y0058426D01*
X0303659Y0059424D02*
X0302383Y0059424D01*
X0302383Y0060423D02*
X0303659Y0060423D01*
X0303659Y0061421D02*
X0302383Y0061421D01*
X0302383Y0062420D02*
X0303659Y0062420D01*
X0303683Y0063418D02*
X0302383Y0063418D01*
X0302383Y0064417D02*
X0304681Y0064417D01*
X0302383Y0050437D02*
X0318283Y0050437D01*
X0318283Y0049439D02*
X0302383Y0049439D01*
X0302383Y0048440D02*
X0318283Y0048440D01*
X0318283Y0047442D02*
X0302383Y0047442D01*
X0302383Y0046443D02*
X0318283Y0046443D01*
X0318283Y0045445D02*
X0302383Y0045445D01*
X0302383Y0044446D02*
X0318283Y0044446D01*
X0317382Y0043448D02*
X0302383Y0043448D01*
X0302383Y0042449D02*
X0316384Y0042449D01*
X0314226Y0041451D02*
X0302383Y0041451D01*
X0302383Y0040452D02*
X0312831Y0040452D01*
X0312319Y0039454D02*
X0302383Y0039454D01*
X0302383Y0038455D02*
X0312183Y0038455D01*
X0312356Y0037457D02*
X0302383Y0037457D01*
X0302383Y0036458D02*
X0312920Y0036458D01*
X0317746Y0036458D02*
X0328283Y0036458D01*
X0328283Y0037457D02*
X0318311Y0037457D01*
X0318483Y0038455D02*
X0328283Y0038455D01*
X0326225Y0039454D02*
X0319186Y0039454D01*
X0320185Y0040452D02*
X0326133Y0040452D01*
X0326133Y0041451D02*
X0321183Y0041451D01*
X0322182Y0042449D02*
X0326133Y0042449D01*
X0326133Y0043448D02*
X0322383Y0043448D01*
X0322383Y0044446D02*
X0326133Y0044446D01*
X0326133Y0045445D02*
X0322383Y0045445D01*
X0322383Y0046443D02*
X0326133Y0046443D01*
X0326133Y0047442D02*
X0322383Y0047442D01*
X0322383Y0048440D02*
X0327120Y0048440D01*
X0328283Y0049439D02*
X0322383Y0049439D01*
X0322383Y0050437D02*
X0328283Y0050437D01*
X0328283Y0051436D02*
X0322383Y0051436D01*
X0322383Y0052434D02*
X0328283Y0052434D01*
X0328283Y0053433D02*
X0322383Y0053433D01*
X0322383Y0054432D02*
X0328283Y0054432D01*
X0328283Y0055430D02*
X0322383Y0055430D01*
X0322383Y0056429D02*
X0328363Y0056429D01*
X0329361Y0057427D02*
X0322383Y0057427D01*
X0322383Y0058426D02*
X0330360Y0058426D01*
X0332383Y0054432D02*
X0349525Y0054432D01*
X0349525Y0055430D02*
X0344163Y0055430D01*
X0345161Y0056429D02*
X0349525Y0056429D01*
X0349525Y0057427D02*
X0346160Y0057427D01*
X0347158Y0058426D02*
X0349525Y0058426D01*
X0349525Y0059424D02*
X0347383Y0059424D01*
X0347383Y0060423D02*
X0349525Y0060423D01*
X0349525Y0061421D02*
X0347383Y0061421D01*
X0347383Y0062420D02*
X0349525Y0062420D01*
X0349525Y0063418D02*
X0347383Y0063418D01*
X0347705Y0064417D02*
X0349525Y0064417D01*
X0349525Y0065415D02*
X0348293Y0065415D01*
X0348483Y0066414D02*
X0349938Y0066414D01*
X0348365Y0067412D02*
X0358233Y0067412D01*
X0358233Y0068411D02*
X0347877Y0068411D01*
X0346541Y0069409D02*
X0358233Y0069409D01*
X0358233Y0070408D02*
X0322880Y0070408D01*
X0323366Y0069409D02*
X0344125Y0069409D01*
X0342789Y0068411D02*
X0323483Y0068411D01*
X0323292Y0067412D02*
X0342302Y0067412D01*
X0342183Y0066414D02*
X0322702Y0066414D01*
X0322383Y0065415D02*
X0342373Y0065415D01*
X0342962Y0064417D02*
X0322383Y0064417D01*
X0322383Y0063418D02*
X0343283Y0063418D01*
X0343283Y0062420D02*
X0322383Y0062420D01*
X0322383Y0061421D02*
X0343283Y0061421D01*
X0343283Y0060423D02*
X0322383Y0060423D01*
X0322383Y0059424D02*
X0342358Y0059424D01*
X0349525Y0053433D02*
X0332383Y0053433D01*
X0332383Y0052434D02*
X0349525Y0052434D01*
X0349525Y0051436D02*
X0332383Y0051436D01*
X0332383Y0050437D02*
X0350087Y0050437D01*
X0358233Y0049439D02*
X0332383Y0049439D01*
X0333547Y0048440D02*
X0358233Y0048440D01*
X0358233Y0047442D02*
X0334533Y0047442D01*
X0334533Y0046443D02*
X0336708Y0046443D01*
X0335323Y0045445D02*
X0334533Y0045445D01*
X0334533Y0044446D02*
X0334816Y0044446D01*
X0334683Y0043448D02*
X0334533Y0043448D01*
X0334533Y0042449D02*
X0334859Y0042449D01*
X0334533Y0041451D02*
X0335428Y0041451D01*
X0335783Y0040452D02*
X0334533Y0040452D01*
X0334441Y0039454D02*
X0335783Y0039454D01*
X0335783Y0038455D02*
X0332383Y0038455D01*
X0332383Y0037457D02*
X0335783Y0037457D01*
X0335393Y0036458D02*
X0332383Y0036458D01*
X0330333Y0041500D02*
X0330333Y0045500D01*
X0338959Y0046443D02*
X0358233Y0046443D01*
X0358233Y0045445D02*
X0340343Y0045445D01*
X0340851Y0044446D02*
X0358233Y0044446D01*
X0358233Y0043448D02*
X0340983Y0043448D01*
X0340808Y0042449D02*
X0358233Y0042449D01*
X0358233Y0041451D02*
X0340239Y0041451D01*
X0339883Y0040452D02*
X0358233Y0040452D01*
X0358233Y0039454D02*
X0339883Y0039454D01*
X0339883Y0038455D02*
X0358233Y0038455D01*
X0358233Y0037457D02*
X0339883Y0037457D01*
X0339883Y0036458D02*
X0346744Y0036458D01*
X0345338Y0035460D02*
X0339883Y0035460D01*
X0339194Y0034461D02*
X0344822Y0034461D01*
X0344683Y0033463D02*
X0338195Y0033463D01*
X0335360Y0025475D02*
X0358233Y0025475D01*
X0358233Y0026473D02*
X0351206Y0026473D01*
X0352204Y0027472D02*
X0358233Y0027472D01*
X0358233Y0028470D02*
X0353203Y0028470D01*
X0352383Y0027651D02*
X0352383Y0027651D01*
X0354201Y0029469D02*
X0358233Y0029469D01*
X0358233Y0030467D02*
X0354883Y0030467D01*
X0355254Y0031466D02*
X0358233Y0031466D01*
X0358233Y0032464D02*
X0355814Y0032464D01*
X0355983Y0033463D02*
X0358233Y0033463D01*
X0358233Y0034461D02*
X0355845Y0034461D01*
X0355328Y0035460D02*
X0358233Y0035460D01*
X0358233Y0036458D02*
X0353923Y0036458D01*
X0351744Y0036458D02*
X0348923Y0036458D01*
X0350328Y0035460D02*
X0350338Y0035460D01*
X0358233Y0024476D02*
X0335733Y0024476D01*
X0335733Y0023478D02*
X0358233Y0023478D01*
X0358233Y0022479D02*
X0335733Y0022479D01*
X0335342Y0021481D02*
X0358233Y0021481D01*
X0358233Y0020482D02*
X0334928Y0020482D01*
X0333954Y0019484D02*
X0358233Y0019484D01*
X0358233Y0018485D02*
X0332337Y0018485D01*
X0328329Y0018485D02*
X0322337Y0018485D01*
X0323954Y0019484D02*
X0326713Y0019484D01*
X0325738Y0020482D02*
X0324928Y0020482D01*
X0318976Y0017487D02*
X0358233Y0017487D01*
X0358233Y0016488D02*
X0318976Y0016488D01*
X0318976Y0015490D02*
X0358233Y0015490D01*
X0358233Y0014491D02*
X0318976Y0014491D01*
X0318976Y0013493D02*
X0358233Y0013493D01*
X0358233Y0012494D02*
X0318976Y0012494D01*
X0318976Y0011496D02*
X0358233Y0011496D01*
X0298283Y0047442D02*
X0262433Y0047442D01*
X0262433Y0048440D02*
X0298283Y0048440D01*
X0298283Y0049439D02*
X0262433Y0049439D01*
X0270580Y0050437D02*
X0298283Y0050437D01*
X0321548Y0071406D02*
X0358233Y0071406D01*
X0358233Y0074402D02*
X0262433Y0074402D01*
X0262433Y0075400D02*
X0358233Y0075400D01*
X0358233Y0076399D02*
X0262433Y0076399D01*
X0262433Y0077397D02*
X0358233Y0077397D01*
X0358233Y0078396D02*
X0262433Y0078396D01*
X0262433Y0079394D02*
X0358233Y0079394D01*
X0358233Y0080393D02*
X0262433Y0080393D01*
X0262433Y0081391D02*
X0358233Y0081391D01*
X0358233Y0082390D02*
X0262433Y0082390D01*
X0262433Y0083388D02*
X0358233Y0083388D01*
X0358233Y0084387D02*
X0347779Y0084387D01*
X0346991Y0084100D02*
X0350106Y0085234D01*
X0352645Y0087365D01*
X0354303Y0090235D01*
X0354303Y0090235D01*
X0354878Y0093500D01*
X0354303Y0096765D01*
X0352645Y0099635D01*
X0352645Y0099635D01*
X0350106Y0101766D01*
X0350106Y0101766D01*
X0346991Y0102900D01*
X0343676Y0102900D01*
X0340561Y0101766D01*
X0340561Y0101766D01*
X0338021Y0099635D01*
X0336364Y0096765D01*
X0336364Y0096765D01*
X0335788Y0093500D01*
X0336364Y0090235D01*
X0338021Y0087365D01*
X0338021Y0087365D01*
X0340561Y0085234D01*
X0343676Y0084100D01*
X0346203Y0084100D01*
X0346991Y0084100D01*
X0346991Y0084100D01*
X0350106Y0085234D02*
X0350106Y0085234D01*
X0350286Y0085385D02*
X0358233Y0085385D01*
X0358233Y0086384D02*
X0351476Y0086384D01*
X0352645Y0087365D02*
X0352645Y0087365D01*
X0352645Y0087365D01*
X0352655Y0087382D02*
X0358233Y0087382D01*
X0358233Y0088381D02*
X0353232Y0088381D01*
X0353808Y0089379D02*
X0358233Y0089379D01*
X0358233Y0090378D02*
X0354328Y0090378D01*
X0354504Y0091376D02*
X0358233Y0091376D01*
X0358233Y0092375D02*
X0354680Y0092375D01*
X0354856Y0093373D02*
X0358233Y0093373D01*
X0358233Y0094372D02*
X0354725Y0094372D01*
X0354878Y0093500D02*
X0354878Y0093500D01*
X0354549Y0095370D02*
X0358233Y0095370D01*
X0358233Y0096369D02*
X0354372Y0096369D01*
X0354303Y0096765D02*
X0354303Y0096765D01*
X0353955Y0097368D02*
X0358233Y0097368D01*
X0358233Y0098366D02*
X0353378Y0098366D01*
X0352802Y0099365D02*
X0358233Y0099365D01*
X0358233Y0100363D02*
X0351778Y0100363D01*
X0350588Y0101362D02*
X0358233Y0101362D01*
X0358233Y0102360D02*
X0348474Y0102360D01*
X0342192Y0102360D02*
X0318976Y0102360D01*
X0318976Y0101362D02*
X0340079Y0101362D01*
X0338889Y0100363D02*
X0318976Y0100363D01*
X0318976Y0099365D02*
X0337865Y0099365D01*
X0338021Y0099635D02*
X0338021Y0099635D01*
X0338021Y0099635D01*
X0337289Y0098366D02*
X0318508Y0098366D01*
X0318976Y0103359D02*
X0358233Y0103359D01*
X0358233Y0104357D02*
X0318976Y0104357D01*
X0318976Y0105356D02*
X0358233Y0105356D01*
X0358233Y0106354D02*
X0318976Y0106354D01*
X0318976Y0112600D02*
X0318976Y0120166D01*
X0318889Y0120253D01*
X0319259Y0120100D01*
X0321407Y0120100D01*
X0323392Y0120922D01*
X0324911Y0122441D01*
X0325333Y0123460D01*
X0325755Y0122441D01*
X0327274Y0120922D01*
X0329259Y0120100D01*
X0331407Y0120100D01*
X0333392Y0120922D01*
X0334911Y0122441D01*
X0335733Y0124426D01*
X0335733Y0126574D01*
X0334956Y0128450D01*
X0351182Y0128450D01*
X0354883Y0132151D01*
X0354883Y0133095D01*
X0355504Y0133716D01*
X0355983Y0134873D01*
X0355983Y0136127D01*
X0355504Y0137284D01*
X0354618Y0138170D01*
X0353460Y0138650D01*
X0352207Y0138650D01*
X0351049Y0138170D01*
X0350333Y0137455D01*
X0349618Y0138170D01*
X0348460Y0138650D01*
X0347207Y0138650D01*
X0346049Y0138170D01*
X0345163Y0137284D01*
X0344683Y0136127D01*
X0344683Y0135050D01*
X0337782Y0135050D01*
X0339883Y0137151D01*
X0339883Y0143095D01*
X0340504Y0143716D01*
X0340983Y0144873D01*
X0340983Y0146127D01*
X0340504Y0147284D01*
X0339618Y0148170D01*
X0338460Y0148650D01*
X0337207Y0148650D01*
X0336049Y0148170D01*
X0335163Y0147284D01*
X0334683Y0146127D01*
X0334683Y0144873D01*
X0335163Y0143716D01*
X0335783Y0143095D01*
X0335783Y0138849D01*
X0334484Y0137550D01*
X0332383Y0137550D01*
X0332383Y0140550D01*
X0333537Y0140550D01*
X0334533Y0141546D01*
X0334533Y0145454D01*
X0334487Y0145500D01*
X0334533Y0145546D01*
X0334533Y0149454D01*
X0333537Y0150450D01*
X0332383Y0150450D01*
X0332383Y0156651D01*
X0332682Y0156950D01*
X0343682Y0156950D01*
X0346182Y0159450D01*
X0347383Y0160651D01*
X0347383Y0166095D01*
X0348004Y0166716D01*
X0348483Y0167873D01*
X0348483Y0169127D01*
X0348004Y0170284D01*
X0347118Y0171170D01*
X0345960Y0171650D01*
X0344707Y0171650D01*
X0343549Y0171170D01*
X0342663Y0170284D01*
X0342183Y0169127D01*
X0342183Y0167873D01*
X0342663Y0166716D01*
X0343283Y0166095D01*
X0343283Y0162349D01*
X0341984Y0161050D01*
X0330984Y0161050D01*
X0329783Y0159849D01*
X0328283Y0158349D01*
X0328283Y0150450D01*
X0327129Y0150450D01*
X0326133Y0149454D01*
X0326133Y0145546D01*
X0326179Y0145500D01*
X0326133Y0145454D01*
X0326133Y0141546D01*
X0327129Y0140550D01*
X0328283Y0140550D01*
X0328283Y0137550D01*
X0316443Y0137550D01*
X0317118Y0137830D01*
X0318004Y0138716D01*
X0318483Y0139873D01*
X0318483Y0140751D01*
X0322383Y0144651D01*
X0322383Y0168095D01*
X0323004Y0168716D01*
X0323483Y0169873D01*
X0323483Y0171127D01*
X0323004Y0172284D01*
X0322118Y0173170D01*
X0320960Y0173650D01*
X0319707Y0173650D01*
X0318549Y0173170D01*
X0317663Y0172284D01*
X0317183Y0171127D01*
X0317183Y0169873D01*
X0317663Y0168716D01*
X0318283Y0168095D01*
X0318283Y0146349D01*
X0315584Y0143650D01*
X0314707Y0143650D01*
X0313549Y0143170D01*
X0312663Y0142284D01*
X0312183Y0141127D01*
X0312183Y0139873D01*
X0312663Y0138716D01*
X0313549Y0137830D01*
X0314224Y0137550D01*
X0302383Y0137550D01*
X0302383Y0170595D01*
X0303004Y0171216D01*
X0303483Y0172373D01*
X0303483Y0173627D01*
X0303004Y0174784D01*
X0302118Y0175670D01*
X0300960Y0176150D01*
X0299707Y0176150D01*
X0298549Y0175670D01*
X0297663Y0174784D01*
X0297183Y0173627D01*
X0297183Y0172373D01*
X0297663Y0171216D01*
X0298283Y0170595D01*
X0298283Y0147550D01*
X0287738Y0147550D01*
X0287118Y0148170D01*
X0285960Y0148650D01*
X0284707Y0148650D01*
X0283549Y0148170D01*
X0282663Y0147284D01*
X0282183Y0146127D01*
X0282183Y0144873D01*
X0282663Y0143716D01*
X0283549Y0142830D01*
X0284707Y0142350D01*
X0285960Y0142350D01*
X0287118Y0142830D01*
X0287738Y0143450D01*
X0294224Y0143450D01*
X0293549Y0143170D01*
X0292663Y0142284D01*
X0292183Y0141127D01*
X0292183Y0139873D01*
X0292663Y0138716D01*
X0293283Y0138095D01*
X0293283Y0129784D01*
X0293059Y0129947D01*
X0292329Y0130319D01*
X0291551Y0130572D01*
X0290833Y0130686D01*
X0290833Y0126000D01*
X0289833Y0126000D01*
X0289833Y0125000D01*
X0285148Y0125000D01*
X0285261Y0124282D01*
X0285514Y0123504D01*
X0285886Y0122775D01*
X0286049Y0122550D01*
X0282738Y0122550D01*
X0282118Y0123170D01*
X0280960Y0123650D01*
X0279707Y0123650D01*
X0278549Y0123170D01*
X0277663Y0122284D01*
X0277183Y0121127D01*
X0277183Y0119873D01*
X0277360Y0119447D01*
X0276780Y0119833D01*
X0275074Y0119492D01*
X0274938Y0119288D01*
X0274802Y0119492D01*
X0273096Y0119833D01*
X0271883Y0119025D01*
X0271204Y0119704D01*
X0269464Y0119704D01*
X0268840Y0119080D01*
X0268234Y0118473D01*
X0268234Y0118069D01*
X0267830Y0118473D01*
X0267830Y0118473D01*
X0267464Y0118839D01*
X0266600Y0119704D01*
X0264860Y0119704D01*
X0264236Y0119080D01*
X0263630Y0118473D01*
X0263630Y0115500D01*
X0263459Y0115500D01*
X0262433Y0114474D01*
X0262433Y0151857D01*
X0269999Y0151857D01*
X0271142Y0152999D01*
X0271142Y0168001D01*
X0269999Y0169143D01*
X0262433Y0169143D01*
X0262433Y0208400D01*
X0301690Y0208400D01*
X0301690Y0200834D01*
X0302833Y0199692D01*
X0317834Y0199692D01*
X0318976Y0200834D01*
X0318976Y0208400D01*
X0358233Y0208400D01*
X0358233Y0169143D01*
X0350667Y0169143D01*
X0349525Y0168001D01*
X0349525Y0152999D01*
X0350667Y0151857D01*
X0358233Y0151857D01*
X0358233Y0112600D01*
X0318976Y0112600D01*
X0318976Y0113344D02*
X0358233Y0113344D01*
X0358233Y0114342D02*
X0318976Y0114342D01*
X0318976Y0115341D02*
X0358233Y0115341D01*
X0358233Y0116339D02*
X0318976Y0116339D01*
X0318976Y0117338D02*
X0358233Y0117338D01*
X0358233Y0118336D02*
X0318976Y0118336D01*
X0318976Y0119335D02*
X0358233Y0119335D01*
X0358233Y0120333D02*
X0331971Y0120333D01*
X0333802Y0121332D02*
X0358233Y0121332D01*
X0358233Y0122330D02*
X0334800Y0122330D01*
X0335279Y0123329D02*
X0358233Y0123329D01*
X0358233Y0124327D02*
X0335692Y0124327D01*
X0335733Y0125326D02*
X0358233Y0125326D01*
X0358233Y0126324D02*
X0335733Y0126324D01*
X0335423Y0127323D02*
X0358233Y0127323D01*
X0358233Y0128321D02*
X0335010Y0128321D01*
X0338043Y0135311D02*
X0344683Y0135311D01*
X0344759Y0136309D02*
X0339042Y0136309D01*
X0339883Y0137308D02*
X0345187Y0137308D01*
X0346377Y0138306D02*
X0339883Y0138306D01*
X0339883Y0139305D02*
X0358233Y0139305D01*
X0358233Y0140303D02*
X0339883Y0140303D01*
X0339883Y0141302D02*
X0358233Y0141302D01*
X0358233Y0142301D02*
X0339883Y0142301D01*
X0340087Y0143299D02*
X0358233Y0143299D01*
X0358233Y0144298D02*
X0340745Y0144298D01*
X0340983Y0145296D02*
X0358233Y0145296D01*
X0358233Y0146295D02*
X0340914Y0146295D01*
X0340495Y0147293D02*
X0358233Y0147293D01*
X0358233Y0148292D02*
X0339325Y0148292D01*
X0336341Y0148292D02*
X0334533Y0148292D01*
X0334533Y0149290D02*
X0358233Y0149290D01*
X0358233Y0150289D02*
X0333699Y0150289D01*
X0332383Y0151287D02*
X0358233Y0151287D01*
X0350239Y0152286D02*
X0332383Y0152286D01*
X0332383Y0153284D02*
X0349525Y0153284D01*
X0349525Y0154283D02*
X0332383Y0154283D01*
X0332383Y0155281D02*
X0349525Y0155281D01*
X0349525Y0156280D02*
X0332383Y0156280D01*
X0328283Y0156280D02*
X0322383Y0156280D01*
X0322383Y0157278D02*
X0328283Y0157278D01*
X0328283Y0158277D02*
X0322383Y0158277D01*
X0322383Y0159275D02*
X0329209Y0159275D01*
X0330208Y0160274D02*
X0322383Y0160274D01*
X0322383Y0161272D02*
X0342206Y0161272D01*
X0343205Y0162271D02*
X0322383Y0162271D01*
X0322383Y0163269D02*
X0343283Y0163269D01*
X0343283Y0164268D02*
X0322383Y0164268D01*
X0322383Y0165266D02*
X0343283Y0165266D01*
X0343114Y0166265D02*
X0322383Y0166265D01*
X0322383Y0167263D02*
X0342436Y0167263D01*
X0342183Y0168262D02*
X0322550Y0168262D01*
X0323229Y0169260D02*
X0342239Y0169260D01*
X0342652Y0170259D02*
X0323483Y0170259D01*
X0323429Y0171257D02*
X0343759Y0171257D01*
X0346908Y0171257D02*
X0358233Y0171257D01*
X0358233Y0170259D02*
X0348014Y0170259D01*
X0348428Y0169260D02*
X0358233Y0169260D01*
X0358233Y0172256D02*
X0323016Y0172256D01*
X0321915Y0173254D02*
X0358233Y0173254D01*
X0358233Y0174253D02*
X0303224Y0174253D01*
X0303483Y0173254D02*
X0318752Y0173254D01*
X0317651Y0172256D02*
X0303435Y0172256D01*
X0303021Y0171257D02*
X0317238Y0171257D01*
X0317183Y0170259D02*
X0302383Y0170259D01*
X0302383Y0169260D02*
X0317437Y0169260D01*
X0318117Y0168262D02*
X0302383Y0168262D01*
X0302383Y0167263D02*
X0318283Y0167263D01*
X0318283Y0166265D02*
X0316137Y0166265D01*
X0315865Y0166537D02*
X0304801Y0166537D01*
X0303659Y0165394D01*
X0303659Y0155511D01*
X0304801Y0154369D01*
X0306417Y0154369D01*
X0315865Y0154369D01*
X0317008Y0155511D01*
X0317008Y0165394D01*
X0315865Y0166537D01*
X0317008Y0165266D02*
X0318283Y0165266D01*
X0318283Y0164268D02*
X0317008Y0164268D01*
X0317008Y0163269D02*
X0318283Y0163269D01*
X0318283Y0162271D02*
X0317008Y0162271D01*
X0317008Y0161272D02*
X0318283Y0161272D01*
X0318283Y0160274D02*
X0317008Y0160274D01*
X0317008Y0159275D02*
X0318283Y0159275D01*
X0318283Y0158277D02*
X0317008Y0158277D01*
X0317008Y0157278D02*
X0318283Y0157278D01*
X0318283Y0156280D02*
X0317008Y0156280D01*
X0316778Y0155281D02*
X0318283Y0155281D01*
X0318283Y0154283D02*
X0302383Y0154283D01*
X0302383Y0155281D02*
X0303889Y0155281D01*
X0303659Y0156280D02*
X0302383Y0156280D01*
X0302383Y0157278D02*
X0303659Y0157278D01*
X0303659Y0158277D02*
X0302383Y0158277D01*
X0302383Y0159275D02*
X0303659Y0159275D01*
X0303659Y0160274D02*
X0302383Y0160274D01*
X0302383Y0161272D02*
X0303659Y0161272D01*
X0303659Y0162271D02*
X0302383Y0162271D01*
X0302383Y0163269D02*
X0303659Y0163269D01*
X0303659Y0164268D02*
X0302383Y0164268D01*
X0302383Y0165266D02*
X0303659Y0165266D01*
X0304529Y0166265D02*
X0302383Y0166265D01*
X0298283Y0166265D02*
X0271142Y0166265D01*
X0271142Y0167263D02*
X0298283Y0167263D01*
X0298283Y0168262D02*
X0270880Y0168262D01*
X0271142Y0165266D02*
X0298283Y0165266D01*
X0298283Y0164268D02*
X0271142Y0164268D01*
X0271142Y0163269D02*
X0298283Y0163269D01*
X0298283Y0162271D02*
X0271142Y0162271D01*
X0271142Y0161272D02*
X0298283Y0161272D01*
X0298283Y0160274D02*
X0271142Y0160274D01*
X0271142Y0159275D02*
X0298283Y0159275D01*
X0298283Y0158277D02*
X0271142Y0158277D01*
X0271142Y0157278D02*
X0298283Y0157278D01*
X0298283Y0156280D02*
X0271142Y0156280D01*
X0271142Y0155281D02*
X0298283Y0155281D01*
X0298283Y0154283D02*
X0271142Y0154283D01*
X0271142Y0153284D02*
X0298283Y0153284D01*
X0298283Y0152286D02*
X0270428Y0152286D01*
X0262433Y0151287D02*
X0298283Y0151287D01*
X0298283Y0150289D02*
X0262433Y0150289D01*
X0262433Y0149290D02*
X0298283Y0149290D01*
X0298283Y0148292D02*
X0286825Y0148292D01*
X0283841Y0148292D02*
X0262433Y0148292D01*
X0262433Y0147293D02*
X0282672Y0147293D01*
X0282253Y0146295D02*
X0262433Y0146295D01*
X0262433Y0145296D02*
X0282183Y0145296D01*
X0282422Y0144298D02*
X0262433Y0144298D01*
X0262433Y0143299D02*
X0283080Y0143299D01*
X0287587Y0143299D02*
X0293859Y0143299D01*
X0292679Y0142301D02*
X0262433Y0142301D01*
X0262433Y0141302D02*
X0292256Y0141302D01*
X0292183Y0140303D02*
X0262433Y0140303D01*
X0262433Y0139305D02*
X0292419Y0139305D01*
X0293072Y0138306D02*
X0262433Y0138306D01*
X0262433Y0137308D02*
X0293283Y0137308D01*
X0293283Y0136309D02*
X0262433Y0136309D01*
X0262433Y0135311D02*
X0293283Y0135311D01*
X0293283Y0134312D02*
X0262433Y0134312D01*
X0262433Y0133314D02*
X0293283Y0133314D01*
X0293283Y0132315D02*
X0262433Y0132315D01*
X0262433Y0131317D02*
X0293283Y0131317D01*
X0293283Y0130318D02*
X0292331Y0130318D01*
X0290833Y0130318D02*
X0289833Y0130318D01*
X0289833Y0130686D02*
X0289116Y0130572D01*
X0288337Y0130319D01*
X0287608Y0129947D01*
X0286946Y0129466D01*
X0286367Y0128888D01*
X0285886Y0128225D01*
X0285514Y0127496D01*
X0285261Y0126718D01*
X0285148Y0126000D01*
X0289833Y0126000D01*
X0289833Y0130686D01*
X0289833Y0129320D02*
X0290833Y0129320D01*
X0290833Y0128321D02*
X0289833Y0128321D01*
X0289833Y0127323D02*
X0290833Y0127323D01*
X0290833Y0126324D02*
X0289833Y0126324D01*
X0289833Y0125326D02*
X0262433Y0125326D01*
X0262433Y0126324D02*
X0285199Y0126324D01*
X0285458Y0127323D02*
X0262433Y0127323D01*
X0262433Y0128321D02*
X0285956Y0128321D01*
X0286799Y0129320D02*
X0262433Y0129320D01*
X0262433Y0130318D02*
X0288336Y0130318D01*
X0285254Y0124327D02*
X0262433Y0124327D01*
X0262433Y0123329D02*
X0278931Y0123329D01*
X0277709Y0122330D02*
X0262433Y0122330D01*
X0262433Y0121332D02*
X0277268Y0121332D01*
X0277183Y0120333D02*
X0262433Y0120333D01*
X0262433Y0119335D02*
X0264492Y0119335D01*
X0263630Y0118336D02*
X0262433Y0118336D01*
X0262433Y0117338D02*
X0263630Y0117338D01*
X0263630Y0116339D02*
X0262433Y0116339D01*
X0262433Y0115341D02*
X0263300Y0115341D01*
X0266969Y0119335D02*
X0269095Y0119335D01*
X0268234Y0118336D02*
X0267967Y0118336D01*
X0271573Y0119335D02*
X0272348Y0119335D01*
X0274907Y0119335D02*
X0274969Y0119335D01*
X0281735Y0123329D02*
X0285604Y0123329D01*
X0302383Y0138306D02*
X0313072Y0138306D01*
X0312419Y0139305D02*
X0302383Y0139305D01*
X0302383Y0140303D02*
X0312183Y0140303D01*
X0312256Y0141302D02*
X0302383Y0141302D01*
X0302383Y0142301D02*
X0312679Y0142301D01*
X0313859Y0143299D02*
X0302383Y0143299D01*
X0302383Y0144298D02*
X0316232Y0144298D01*
X0317230Y0145296D02*
X0302383Y0145296D01*
X0302383Y0146295D02*
X0318229Y0146295D01*
X0318283Y0147293D02*
X0302383Y0147293D01*
X0302383Y0148292D02*
X0318283Y0148292D01*
X0318283Y0149290D02*
X0302383Y0149290D01*
X0302383Y0150289D02*
X0318283Y0150289D01*
X0318283Y0151287D02*
X0302383Y0151287D01*
X0302383Y0152286D02*
X0318283Y0152286D01*
X0318283Y0153284D02*
X0302383Y0153284D01*
X0318483Y0140303D02*
X0328283Y0140303D01*
X0328283Y0139305D02*
X0318248Y0139305D01*
X0317595Y0138306D02*
X0328283Y0138306D01*
X0326377Y0141302D02*
X0319034Y0141302D01*
X0320033Y0142301D02*
X0326133Y0142301D01*
X0326133Y0143299D02*
X0321031Y0143299D01*
X0322030Y0144298D02*
X0326133Y0144298D01*
X0326133Y0145296D02*
X0322383Y0145296D01*
X0322383Y0146295D02*
X0326133Y0146295D01*
X0326133Y0147293D02*
X0322383Y0147293D01*
X0322383Y0148292D02*
X0326133Y0148292D01*
X0326133Y0149290D02*
X0322383Y0149290D01*
X0322383Y0150289D02*
X0326968Y0150289D01*
X0328283Y0151287D02*
X0322383Y0151287D01*
X0322383Y0152286D02*
X0328283Y0152286D01*
X0328283Y0153284D02*
X0322383Y0153284D01*
X0322383Y0154283D02*
X0328283Y0154283D01*
X0328283Y0155281D02*
X0322383Y0155281D01*
X0330333Y0147500D02*
X0330333Y0143500D01*
X0332383Y0140303D02*
X0335783Y0140303D01*
X0335783Y0139305D02*
X0332383Y0139305D01*
X0332383Y0138306D02*
X0335241Y0138306D01*
X0335783Y0141302D02*
X0334289Y0141302D01*
X0334533Y0142301D02*
X0335783Y0142301D01*
X0335580Y0143299D02*
X0334533Y0143299D01*
X0334533Y0144298D02*
X0334922Y0144298D01*
X0334683Y0145296D02*
X0334533Y0145296D01*
X0334533Y0146295D02*
X0334753Y0146295D01*
X0334533Y0147293D02*
X0335172Y0147293D01*
X0344011Y0157278D02*
X0349525Y0157278D01*
X0349525Y0158277D02*
X0345009Y0158277D01*
X0346008Y0159275D02*
X0349525Y0159275D01*
X0349525Y0160274D02*
X0347006Y0160274D01*
X0347383Y0161272D02*
X0349525Y0161272D01*
X0349525Y0162271D02*
X0347383Y0162271D01*
X0347383Y0163269D02*
X0349525Y0163269D01*
X0349525Y0164268D02*
X0347383Y0164268D01*
X0347383Y0165266D02*
X0349525Y0165266D01*
X0349525Y0166265D02*
X0347553Y0166265D01*
X0348231Y0167263D02*
X0349525Y0167263D01*
X0349786Y0168262D02*
X0348483Y0168262D01*
X0358233Y0175251D02*
X0302537Y0175251D01*
X0298130Y0175251D02*
X0262433Y0175251D01*
X0262433Y0174253D02*
X0297443Y0174253D01*
X0297183Y0173254D02*
X0262433Y0173254D01*
X0262433Y0172256D02*
X0297232Y0172256D01*
X0297646Y0171257D02*
X0262433Y0171257D01*
X0262433Y0170259D02*
X0298283Y0170259D01*
X0298283Y0169260D02*
X0262433Y0169260D01*
X0256233Y0169260D02*
X0246428Y0169260D01*
X0246483Y0169127D02*
X0246004Y0170284D01*
X0245118Y0171170D01*
X0243960Y0171650D01*
X0242707Y0171650D01*
X0241549Y0171170D01*
X0240663Y0170284D01*
X0240183Y0169127D01*
X0240183Y0167873D01*
X0240663Y0166716D01*
X0241283Y0166095D01*
X0241283Y0162349D01*
X0239984Y0161050D01*
X0228984Y0161050D01*
X0227783Y0159849D01*
X0226283Y0158349D01*
X0226283Y0150450D01*
X0225129Y0150450D01*
X0224133Y0149454D01*
X0224133Y0145546D01*
X0224179Y0145500D01*
X0224133Y0145454D01*
X0224133Y0141546D01*
X0225129Y0140550D01*
X0226283Y0140550D01*
X0226283Y0137550D01*
X0214443Y0137550D01*
X0215118Y0137830D01*
X0216004Y0138716D01*
X0216483Y0139873D01*
X0216483Y0140751D01*
X0220383Y0144651D01*
X0220383Y0168095D01*
X0221004Y0168716D01*
X0221483Y0169873D01*
X0221483Y0171127D01*
X0221004Y0172284D01*
X0220118Y0173170D01*
X0218960Y0173650D01*
X0217707Y0173650D01*
X0216549Y0173170D01*
X0215663Y0172284D01*
X0215183Y0171127D01*
X0215183Y0169873D01*
X0215663Y0168716D01*
X0216283Y0168095D01*
X0216283Y0146349D01*
X0213584Y0143650D01*
X0212707Y0143650D01*
X0211549Y0143170D01*
X0210663Y0142284D01*
X0210183Y0141127D01*
X0210183Y0139873D01*
X0210663Y0138716D01*
X0211549Y0137830D01*
X0212224Y0137550D01*
X0200383Y0137550D01*
X0200383Y0170595D01*
X0201004Y0171216D01*
X0201483Y0172373D01*
X0201483Y0173627D01*
X0201004Y0174784D01*
X0200118Y0175670D01*
X0198960Y0176150D01*
X0197707Y0176150D01*
X0196549Y0175670D01*
X0195663Y0174784D01*
X0195183Y0173627D01*
X0195183Y0172373D01*
X0195663Y0171216D01*
X0196283Y0170595D01*
X0196283Y0147550D01*
X0185738Y0147550D01*
X0185118Y0148170D01*
X0183960Y0148650D01*
X0182707Y0148650D01*
X0181549Y0148170D01*
X0180663Y0147284D01*
X0180183Y0146127D01*
X0180183Y0144873D01*
X0180663Y0143716D01*
X0181549Y0142830D01*
X0182707Y0142350D01*
X0183960Y0142350D01*
X0185118Y0142830D01*
X0185738Y0143450D01*
X0192224Y0143450D01*
X0191549Y0143170D01*
X0190663Y0142284D01*
X0190183Y0141127D01*
X0190183Y0139873D01*
X0190663Y0138716D01*
X0191283Y0138095D01*
X0191283Y0129784D01*
X0191059Y0129947D01*
X0190329Y0130319D01*
X0189551Y0130572D01*
X0188833Y0130686D01*
X0188833Y0126000D01*
X0187833Y0126000D01*
X0187833Y0125000D01*
X0183148Y0125000D01*
X0183261Y0124282D01*
X0183514Y0123504D01*
X0183886Y0122775D01*
X0184049Y0122550D01*
X0180738Y0122550D01*
X0180118Y0123170D01*
X0178960Y0123650D01*
X0177707Y0123650D01*
X0176549Y0123170D01*
X0175663Y0122284D01*
X0175183Y0121127D01*
X0175183Y0119873D01*
X0175360Y0119447D01*
X0174780Y0119833D01*
X0173074Y0119492D01*
X0172938Y0119288D01*
X0172802Y0119492D01*
X0171096Y0119833D01*
X0169883Y0119025D01*
X0169204Y0119704D01*
X0167464Y0119704D01*
X0166840Y0119080D01*
X0166234Y0118473D01*
X0166234Y0118069D01*
X0165830Y0118473D01*
X0165830Y0118473D01*
X0165464Y0118839D01*
X0164600Y0119704D01*
X0162860Y0119704D01*
X0162236Y0119080D01*
X0161630Y0118473D01*
X0161630Y0115500D01*
X0161459Y0115500D01*
X0160433Y0114474D01*
X0160433Y0151857D01*
X0167999Y0151857D01*
X0169142Y0152999D01*
X0169142Y0168001D01*
X0167999Y0169143D01*
X0160433Y0169143D01*
X0160433Y0208400D01*
X0199690Y0208400D01*
X0199690Y0200834D01*
X0200833Y0199692D01*
X0215834Y0199692D01*
X0216976Y0200834D01*
X0216976Y0208400D01*
X0256233Y0208400D01*
X0256233Y0169143D01*
X0248667Y0169143D01*
X0247525Y0168001D01*
X0247525Y0152999D01*
X0248667Y0151857D01*
X0256233Y0151857D01*
X0256233Y0112600D01*
X0216976Y0112600D01*
X0216976Y0120166D01*
X0216889Y0120253D01*
X0217259Y0120100D01*
X0219407Y0120100D01*
X0221392Y0120922D01*
X0222911Y0122441D01*
X0223333Y0123460D01*
X0223755Y0122441D01*
X0225274Y0120922D01*
X0227259Y0120100D01*
X0229407Y0120100D01*
X0231392Y0120922D01*
X0232911Y0122441D01*
X0233733Y0124426D01*
X0233733Y0126574D01*
X0232956Y0128450D01*
X0249182Y0128450D01*
X0252883Y0132151D01*
X0252883Y0133095D01*
X0253504Y0133716D01*
X0253983Y0134873D01*
X0253983Y0136127D01*
X0253504Y0137284D01*
X0252618Y0138170D01*
X0251460Y0138650D01*
X0250207Y0138650D01*
X0249049Y0138170D01*
X0248333Y0137455D01*
X0247618Y0138170D01*
X0246460Y0138650D01*
X0245207Y0138650D01*
X0244049Y0138170D01*
X0243163Y0137284D01*
X0242683Y0136127D01*
X0242683Y0135050D01*
X0235782Y0135050D01*
X0236682Y0135950D01*
X0236682Y0135950D01*
X0237883Y0137151D01*
X0237883Y0143095D01*
X0238504Y0143716D01*
X0238983Y0144873D01*
X0238983Y0146127D01*
X0238504Y0147284D01*
X0237618Y0148170D01*
X0236460Y0148650D01*
X0235207Y0148650D01*
X0234049Y0148170D01*
X0233163Y0147284D01*
X0232683Y0146127D01*
X0232683Y0144873D01*
X0233163Y0143716D01*
X0233783Y0143095D01*
X0233783Y0138849D01*
X0232484Y0137550D01*
X0230383Y0137550D01*
X0230383Y0140550D01*
X0231537Y0140550D01*
X0232533Y0141546D01*
X0232533Y0145454D01*
X0232487Y0145500D01*
X0232533Y0145546D01*
X0232533Y0149454D01*
X0231537Y0150450D01*
X0230383Y0150450D01*
X0230383Y0156651D01*
X0230682Y0156950D01*
X0241682Y0156950D01*
X0242883Y0158151D01*
X0244182Y0159450D01*
X0244182Y0159450D01*
X0245383Y0160651D01*
X0245383Y0166095D01*
X0246004Y0166716D01*
X0246483Y0167873D01*
X0246483Y0169127D01*
X0246483Y0168262D02*
X0247786Y0168262D01*
X0247525Y0167263D02*
X0246231Y0167263D01*
X0245553Y0166265D02*
X0247525Y0166265D01*
X0247525Y0165266D02*
X0245383Y0165266D01*
X0245383Y0164268D02*
X0247525Y0164268D01*
X0247525Y0163269D02*
X0245383Y0163269D01*
X0245383Y0162271D02*
X0247525Y0162271D01*
X0247525Y0161272D02*
X0245383Y0161272D01*
X0245006Y0160274D02*
X0247525Y0160274D01*
X0247525Y0159275D02*
X0244008Y0159275D01*
X0243009Y0158277D02*
X0247525Y0158277D01*
X0247525Y0157278D02*
X0242011Y0157278D01*
X0242883Y0158151D02*
X0242883Y0158151D01*
X0240206Y0161272D02*
X0220383Y0161272D01*
X0220383Y0160274D02*
X0228208Y0160274D01*
X0227209Y0159275D02*
X0220383Y0159275D01*
X0220383Y0158277D02*
X0226283Y0158277D01*
X0226283Y0157278D02*
X0220383Y0157278D01*
X0220383Y0156280D02*
X0226283Y0156280D01*
X0226283Y0155281D02*
X0220383Y0155281D01*
X0220383Y0154283D02*
X0226283Y0154283D01*
X0226283Y0153284D02*
X0220383Y0153284D01*
X0220383Y0152286D02*
X0226283Y0152286D01*
X0226283Y0151287D02*
X0220383Y0151287D01*
X0220383Y0150289D02*
X0224968Y0150289D01*
X0224133Y0149290D02*
X0220383Y0149290D01*
X0220383Y0148292D02*
X0224133Y0148292D01*
X0224133Y0147293D02*
X0220383Y0147293D01*
X0220383Y0146295D02*
X0224133Y0146295D01*
X0224133Y0145296D02*
X0220383Y0145296D01*
X0220030Y0144298D02*
X0224133Y0144298D01*
X0224133Y0143299D02*
X0219031Y0143299D01*
X0218033Y0142301D02*
X0224133Y0142301D01*
X0224377Y0141302D02*
X0217034Y0141302D01*
X0216483Y0140303D02*
X0226283Y0140303D01*
X0226283Y0139305D02*
X0216248Y0139305D01*
X0215595Y0138306D02*
X0226283Y0138306D01*
X0230383Y0138306D02*
X0233241Y0138306D01*
X0233783Y0139305D02*
X0230383Y0139305D01*
X0230383Y0140303D02*
X0233783Y0140303D01*
X0233783Y0141302D02*
X0232289Y0141302D01*
X0232533Y0142301D02*
X0233783Y0142301D01*
X0233580Y0143299D02*
X0232533Y0143299D01*
X0232533Y0144298D02*
X0232922Y0144298D01*
X0232683Y0145296D02*
X0232533Y0145296D01*
X0232533Y0146295D02*
X0232753Y0146295D01*
X0232533Y0147293D02*
X0233172Y0147293D01*
X0232533Y0148292D02*
X0234341Y0148292D01*
X0232533Y0149290D02*
X0256233Y0149290D01*
X0256233Y0148292D02*
X0237325Y0148292D01*
X0238495Y0147293D02*
X0256233Y0147293D01*
X0256233Y0146295D02*
X0238914Y0146295D01*
X0238983Y0145296D02*
X0256233Y0145296D01*
X0256233Y0144298D02*
X0238745Y0144298D01*
X0238087Y0143299D02*
X0256233Y0143299D01*
X0256233Y0142301D02*
X0237883Y0142301D01*
X0237883Y0141302D02*
X0256233Y0141302D01*
X0256233Y0140303D02*
X0237883Y0140303D01*
X0237883Y0139305D02*
X0256233Y0139305D01*
X0256233Y0138306D02*
X0252289Y0138306D01*
X0253480Y0137308D02*
X0256233Y0137308D01*
X0256233Y0136309D02*
X0253908Y0136309D01*
X0253983Y0135311D02*
X0256233Y0135311D01*
X0256233Y0134312D02*
X0253751Y0134312D01*
X0253102Y0133314D02*
X0256233Y0133314D01*
X0256233Y0132315D02*
X0252883Y0132315D01*
X0252049Y0131317D02*
X0256233Y0131317D01*
X0256233Y0130318D02*
X0251051Y0130318D01*
X0250052Y0129320D02*
X0256233Y0129320D01*
X0256233Y0128321D02*
X0233010Y0128321D01*
X0233423Y0127323D02*
X0256233Y0127323D01*
X0256233Y0126324D02*
X0233733Y0126324D01*
X0233733Y0125326D02*
X0256233Y0125326D01*
X0256233Y0124327D02*
X0233692Y0124327D01*
X0233279Y0123329D02*
X0256233Y0123329D01*
X0256233Y0122330D02*
X0232800Y0122330D01*
X0231802Y0121332D02*
X0256233Y0121332D01*
X0256233Y0120333D02*
X0229971Y0120333D01*
X0226696Y0120333D02*
X0219971Y0120333D01*
X0221802Y0121332D02*
X0224865Y0121332D01*
X0223866Y0122330D02*
X0222800Y0122330D01*
X0223279Y0123329D02*
X0223388Y0123329D01*
X0216976Y0119335D02*
X0256233Y0119335D01*
X0256233Y0118336D02*
X0216976Y0118336D01*
X0216976Y0117338D02*
X0256233Y0117338D01*
X0256233Y0116339D02*
X0216976Y0116339D01*
X0216976Y0115341D02*
X0256233Y0115341D01*
X0256233Y0114342D02*
X0216976Y0114342D01*
X0216976Y0113344D02*
X0256233Y0113344D01*
X0256233Y0106354D02*
X0216976Y0106354D01*
X0216976Y0105356D02*
X0256233Y0105356D01*
X0256233Y0104357D02*
X0216976Y0104357D01*
X0216976Y0103359D02*
X0256233Y0103359D01*
X0256233Y0102360D02*
X0246474Y0102360D01*
X0244991Y0102900D02*
X0241676Y0102900D01*
X0238561Y0101766D01*
X0236021Y0099635D01*
X0234364Y0096765D01*
X0234364Y0096765D01*
X0233788Y0093500D01*
X0234364Y0090235D01*
X0236021Y0087365D01*
X0236021Y0087365D01*
X0238561Y0085234D01*
X0241676Y0084100D01*
X0242463Y0084100D01*
X0244991Y0084100D01*
X0248106Y0085234D01*
X0250645Y0087365D01*
X0252303Y0090235D01*
X0252303Y0090235D01*
X0252878Y0093500D01*
X0252303Y0096765D01*
X0250645Y0099635D01*
X0250645Y0099635D01*
X0248106Y0101766D01*
X0248106Y0101766D01*
X0244991Y0102900D01*
X0248588Y0101362D02*
X0256233Y0101362D01*
X0256233Y0100363D02*
X0249778Y0100363D01*
X0250802Y0099365D02*
X0256233Y0099365D01*
X0256233Y0098366D02*
X0251378Y0098366D01*
X0251955Y0097368D02*
X0256233Y0097368D01*
X0256233Y0096369D02*
X0252372Y0096369D01*
X0252303Y0096765D02*
X0252303Y0096765D01*
X0252549Y0095370D02*
X0256233Y0095370D01*
X0256233Y0094372D02*
X0252725Y0094372D01*
X0252878Y0093500D02*
X0252878Y0093500D01*
X0252856Y0093373D02*
X0256233Y0093373D01*
X0256233Y0092375D02*
X0252680Y0092375D01*
X0252504Y0091376D02*
X0256233Y0091376D01*
X0256233Y0090378D02*
X0252328Y0090378D01*
X0251808Y0089379D02*
X0256233Y0089379D01*
X0256233Y0088381D02*
X0251232Y0088381D01*
X0250655Y0087382D02*
X0256233Y0087382D01*
X0256233Y0086384D02*
X0249476Y0086384D01*
X0250645Y0087365D02*
X0250645Y0087365D01*
X0250645Y0087365D01*
X0248286Y0085385D02*
X0256233Y0085385D01*
X0256233Y0084387D02*
X0245779Y0084387D01*
X0248106Y0085234D02*
X0248106Y0085234D01*
X0240888Y0084387D02*
X0175779Y0084387D01*
X0174991Y0084100D02*
X0178106Y0085234D01*
X0180645Y0087365D01*
X0182303Y0090235D01*
X0182303Y0090235D01*
X0182878Y0093500D01*
X0182303Y0096765D01*
X0180645Y0099635D01*
X0180645Y0099635D01*
X0178106Y0101766D01*
X0178106Y0101766D01*
X0174991Y0102900D01*
X0171676Y0102900D01*
X0168561Y0101766D01*
X0168561Y0101766D01*
X0166021Y0099635D01*
X0164364Y0096765D01*
X0164364Y0096765D01*
X0163788Y0093500D01*
X0164364Y0090235D01*
X0166021Y0087365D01*
X0166021Y0087365D01*
X0168561Y0085234D01*
X0171676Y0084100D01*
X0172463Y0084100D01*
X0174991Y0084100D01*
X0178286Y0085385D02*
X0238380Y0085385D01*
X0238561Y0085234D02*
X0238561Y0085234D01*
X0237190Y0086384D02*
X0179476Y0086384D01*
X0180645Y0087365D02*
X0180645Y0087365D01*
X0180656Y0087382D02*
X0236011Y0087382D01*
X0235435Y0088381D02*
X0181232Y0088381D01*
X0181808Y0089379D02*
X0234858Y0089379D01*
X0234364Y0090235D02*
X0234364Y0090235D01*
X0234339Y0090378D02*
X0182328Y0090378D01*
X0182504Y0091376D02*
X0234163Y0091376D01*
X0233987Y0092375D02*
X0182680Y0092375D01*
X0182856Y0093373D02*
X0233811Y0093373D01*
X0233788Y0093500D02*
X0233788Y0093500D01*
X0233942Y0094372D02*
X0182725Y0094372D01*
X0182878Y0093500D02*
X0182878Y0093500D01*
X0182549Y0095370D02*
X0234118Y0095370D01*
X0234294Y0096369D02*
X0182372Y0096369D01*
X0182303Y0096765D02*
X0182303Y0096765D01*
X0181955Y0097368D02*
X0234712Y0097368D01*
X0235289Y0098366D02*
X0216508Y0098366D01*
X0216976Y0099365D02*
X0235865Y0099365D01*
X0236021Y0099635D02*
X0236021Y0099635D01*
X0236021Y0099635D01*
X0236889Y0100363D02*
X0216976Y0100363D01*
X0216976Y0101362D02*
X0238079Y0101362D01*
X0240192Y0102360D02*
X0216976Y0102360D01*
X0200158Y0098366D02*
X0181378Y0098366D01*
X0180802Y0099365D02*
X0199690Y0099365D01*
X0199690Y0100363D02*
X0179778Y0100363D01*
X0178588Y0101362D02*
X0199690Y0101362D01*
X0199690Y0102360D02*
X0176474Y0102360D01*
X0170192Y0102360D02*
X0160433Y0102360D01*
X0160433Y0101362D02*
X0168079Y0101362D01*
X0166889Y0100363D02*
X0160433Y0100363D01*
X0160433Y0099365D02*
X0165865Y0099365D01*
X0166021Y0099635D02*
X0166021Y0099635D01*
X0166021Y0099635D01*
X0165289Y0098366D02*
X0160433Y0098366D01*
X0160433Y0097368D02*
X0164712Y0097368D01*
X0164294Y0096369D02*
X0160433Y0096369D01*
X0160433Y0095370D02*
X0164118Y0095370D01*
X0163942Y0094372D02*
X0160433Y0094372D01*
X0160433Y0093373D02*
X0163811Y0093373D01*
X0163788Y0093500D02*
X0163788Y0093500D01*
X0163987Y0092375D02*
X0160433Y0092375D01*
X0160433Y0091376D02*
X0164163Y0091376D01*
X0164339Y0090378D02*
X0160433Y0090378D01*
X0160433Y0089379D02*
X0164858Y0089379D01*
X0164364Y0090235D02*
X0164364Y0090235D01*
X0165435Y0088381D02*
X0160433Y0088381D01*
X0160433Y0087382D02*
X0166011Y0087382D01*
X0167190Y0086384D02*
X0160433Y0086384D01*
X0160433Y0085385D02*
X0168380Y0085385D01*
X0168561Y0085234D02*
X0168561Y0085234D01*
X0170888Y0084387D02*
X0160433Y0084387D01*
X0160433Y0083388D02*
X0256233Y0083388D01*
X0256233Y0082390D02*
X0160433Y0082390D01*
X0160433Y0081391D02*
X0256233Y0081391D01*
X0256233Y0080393D02*
X0160433Y0080393D01*
X0160433Y0079394D02*
X0256233Y0079394D01*
X0256233Y0078396D02*
X0160433Y0078396D01*
X0160433Y0077397D02*
X0256233Y0077397D01*
X0256233Y0076399D02*
X0160433Y0076399D01*
X0160433Y0075400D02*
X0256233Y0075400D01*
X0256233Y0074402D02*
X0160433Y0074402D01*
X0154233Y0074402D02*
X0058433Y0074402D01*
X0058433Y0075400D02*
X0154233Y0075400D01*
X0154233Y0076399D02*
X0058433Y0076399D01*
X0058433Y0077397D02*
X0154233Y0077397D01*
X0154233Y0078396D02*
X0058433Y0078396D01*
X0058433Y0079394D02*
X0154233Y0079394D01*
X0154233Y0080393D02*
X0058433Y0080393D01*
X0058433Y0081391D02*
X0154233Y0081391D01*
X0154233Y0082390D02*
X0058433Y0082390D01*
X0058433Y0083388D02*
X0154233Y0083388D01*
X0154233Y0084387D02*
X0143779Y0084387D01*
X0142991Y0084100D02*
X0142203Y0084100D01*
X0139676Y0084100D01*
X0136561Y0085234D01*
X0136561Y0085234D01*
X0134021Y0087365D01*
X0134021Y0087365D01*
X0132364Y0090235D01*
X0132364Y0090235D01*
X0131788Y0093500D01*
X0131788Y0093500D01*
X0132364Y0096765D01*
X0132364Y0096765D01*
X0134021Y0099635D01*
X0134021Y0099635D01*
X0134021Y0099635D01*
X0136561Y0101766D01*
X0136561Y0101766D01*
X0139676Y0102900D01*
X0142991Y0102900D01*
X0146106Y0101766D01*
X0146106Y0101766D01*
X0148645Y0099635D01*
X0148645Y0099635D01*
X0150303Y0096765D01*
X0150303Y0096765D01*
X0150878Y0093500D01*
X0150878Y0093500D01*
X0150303Y0090235D01*
X0150303Y0090235D01*
X0148645Y0087365D01*
X0148645Y0087365D01*
X0148645Y0087365D01*
X0146106Y0085234D01*
X0146106Y0085234D01*
X0142991Y0084100D01*
X0146286Y0085385D02*
X0154233Y0085385D01*
X0154233Y0086384D02*
X0147476Y0086384D01*
X0148655Y0087382D02*
X0154233Y0087382D01*
X0154233Y0088381D02*
X0149232Y0088381D01*
X0149808Y0089379D02*
X0154233Y0089379D01*
X0154233Y0090378D02*
X0150328Y0090378D01*
X0150504Y0091376D02*
X0154233Y0091376D01*
X0154233Y0092375D02*
X0150680Y0092375D01*
X0150856Y0093373D02*
X0154233Y0093373D01*
X0154233Y0094372D02*
X0150725Y0094372D01*
X0150549Y0095370D02*
X0154233Y0095370D01*
X0154233Y0096369D02*
X0150372Y0096369D01*
X0149955Y0097368D02*
X0154233Y0097368D01*
X0154233Y0098366D02*
X0149378Y0098366D01*
X0148802Y0099365D02*
X0154233Y0099365D01*
X0154233Y0100363D02*
X0147778Y0100363D01*
X0146588Y0101362D02*
X0154233Y0101362D01*
X0154233Y0102360D02*
X0144474Y0102360D01*
X0138192Y0102360D02*
X0114976Y0102360D01*
X0114976Y0101362D02*
X0136079Y0101362D01*
X0134889Y0100363D02*
X0114976Y0100363D01*
X0114976Y0099365D02*
X0133865Y0099365D01*
X0133289Y0098366D02*
X0114508Y0098366D01*
X0114976Y0103359D02*
X0154233Y0103359D01*
X0154233Y0104357D02*
X0114976Y0104357D01*
X0114976Y0105356D02*
X0154233Y0105356D01*
X0154233Y0106354D02*
X0114976Y0106354D01*
X0114976Y0112600D02*
X0114976Y0120166D01*
X0114889Y0120253D01*
X0115259Y0120100D01*
X0117407Y0120100D01*
X0119392Y0120922D01*
X0120911Y0122441D01*
X0121333Y0123460D01*
X0121755Y0122441D01*
X0123274Y0120922D01*
X0125259Y0120100D01*
X0127407Y0120100D01*
X0129392Y0120922D01*
X0130911Y0122441D01*
X0131733Y0124426D01*
X0131733Y0126574D01*
X0130956Y0128450D01*
X0147182Y0128450D01*
X0150883Y0132151D01*
X0150883Y0133095D01*
X0151504Y0133716D01*
X0151983Y0134873D01*
X0151983Y0136127D01*
X0151504Y0137284D01*
X0150618Y0138170D01*
X0149460Y0138650D01*
X0148207Y0138650D01*
X0147049Y0138170D01*
X0146333Y0137455D01*
X0145618Y0138170D01*
X0144460Y0138650D01*
X0143207Y0138650D01*
X0142049Y0138170D01*
X0141163Y0137284D01*
X0140683Y0136127D01*
X0140683Y0135050D01*
X0133782Y0135050D01*
X0134682Y0135950D01*
X0134682Y0135950D01*
X0135883Y0137151D01*
X0135883Y0143095D01*
X0136504Y0143716D01*
X0136983Y0144873D01*
X0136983Y0146127D01*
X0136504Y0147284D01*
X0135618Y0148170D01*
X0134460Y0148650D01*
X0133207Y0148650D01*
X0132049Y0148170D01*
X0131163Y0147284D01*
X0130683Y0146127D01*
X0130683Y0144873D01*
X0131163Y0143716D01*
X0131783Y0143095D01*
X0131783Y0138849D01*
X0130484Y0137550D01*
X0128383Y0137550D01*
X0128383Y0140550D01*
X0129537Y0140550D01*
X0130533Y0141546D01*
X0130533Y0145454D01*
X0130487Y0145500D01*
X0130533Y0145546D01*
X0130533Y0149454D01*
X0129537Y0150450D01*
X0128383Y0150450D01*
X0128383Y0156651D01*
X0128682Y0156950D01*
X0139682Y0156950D01*
X0142182Y0159450D01*
X0143383Y0160651D01*
X0143383Y0166095D01*
X0144004Y0166716D01*
X0144483Y0167873D01*
X0144483Y0169127D01*
X0144004Y0170284D01*
X0143118Y0171170D01*
X0141960Y0171650D01*
X0140707Y0171650D01*
X0139549Y0171170D01*
X0138663Y0170284D01*
X0138183Y0169127D01*
X0138183Y0167873D01*
X0138663Y0166716D01*
X0139283Y0166095D01*
X0139283Y0162349D01*
X0137984Y0161050D01*
X0126984Y0161050D01*
X0125783Y0159849D01*
X0124283Y0158349D01*
X0124283Y0150450D01*
X0123129Y0150450D01*
X0122133Y0149454D01*
X0122133Y0145546D01*
X0122179Y0145500D01*
X0122133Y0145454D01*
X0122133Y0141546D01*
X0123129Y0140550D01*
X0124283Y0140550D01*
X0124283Y0137550D01*
X0112443Y0137550D01*
X0113118Y0137830D01*
X0114004Y0138716D01*
X0114483Y0139873D01*
X0114483Y0140751D01*
X0118383Y0144651D01*
X0118383Y0168095D01*
X0119004Y0168716D01*
X0119483Y0169873D01*
X0119483Y0171127D01*
X0119004Y0172284D01*
X0118118Y0173170D01*
X0116960Y0173650D01*
X0115707Y0173650D01*
X0114549Y0173170D01*
X0113663Y0172284D01*
X0113183Y0171127D01*
X0113183Y0169873D01*
X0113663Y0168716D01*
X0114283Y0168095D01*
X0114283Y0146349D01*
X0111584Y0143650D01*
X0110707Y0143650D01*
X0109549Y0143170D01*
X0108663Y0142284D01*
X0108183Y0141127D01*
X0108183Y0139873D01*
X0108663Y0138716D01*
X0109549Y0137830D01*
X0110224Y0137550D01*
X0098383Y0137550D01*
X0098383Y0170595D01*
X0099004Y0171216D01*
X0099483Y0172373D01*
X0099483Y0173627D01*
X0099004Y0174784D01*
X0098118Y0175670D01*
X0096960Y0176150D01*
X0095707Y0176150D01*
X0094549Y0175670D01*
X0093663Y0174784D01*
X0093183Y0173627D01*
X0093183Y0172373D01*
X0093663Y0171216D01*
X0094283Y0170595D01*
X0094283Y0147550D01*
X0083738Y0147550D01*
X0083118Y0148170D01*
X0081960Y0148650D01*
X0080707Y0148650D01*
X0079549Y0148170D01*
X0078663Y0147284D01*
X0078183Y0146127D01*
X0078183Y0144873D01*
X0078663Y0143716D01*
X0079549Y0142830D01*
X0080707Y0142350D01*
X0081960Y0142350D01*
X0083118Y0142830D01*
X0083738Y0143450D01*
X0090224Y0143450D01*
X0089549Y0143170D01*
X0088663Y0142284D01*
X0088183Y0141127D01*
X0088183Y0139873D01*
X0088663Y0138716D01*
X0089283Y0138095D01*
X0089283Y0129784D01*
X0089059Y0129947D01*
X0088329Y0130319D01*
X0087551Y0130572D01*
X0086833Y0130686D01*
X0086833Y0126000D01*
X0085833Y0126000D01*
X0085833Y0125000D01*
X0081148Y0125000D01*
X0081261Y0124282D01*
X0081514Y0123504D01*
X0081886Y0122775D01*
X0082049Y0122550D01*
X0078738Y0122550D01*
X0078118Y0123170D01*
X0076960Y0123650D01*
X0075707Y0123650D01*
X0074549Y0123170D01*
X0073663Y0122284D01*
X0073183Y0121127D01*
X0073183Y0119873D01*
X0073360Y0119447D01*
X0072780Y0119833D01*
X0071074Y0119492D01*
X0070938Y0119288D01*
X0070802Y0119492D01*
X0069096Y0119833D01*
X0067883Y0119025D01*
X0067204Y0119704D01*
X0065464Y0119704D01*
X0064840Y0119080D01*
X0064234Y0118473D01*
X0064234Y0118069D01*
X0063830Y0118473D01*
X0063830Y0118473D01*
X0063464Y0118839D01*
X0062600Y0119704D01*
X0060860Y0119704D01*
X0060236Y0119080D01*
X0059630Y0118473D01*
X0059630Y0115500D01*
X0059459Y0115500D01*
X0058433Y0114474D01*
X0058433Y0151857D01*
X0065999Y0151857D01*
X0067142Y0152999D01*
X0067142Y0168001D01*
X0065999Y0169143D01*
X0058433Y0169143D01*
X0058433Y0208400D01*
X0097690Y0208400D01*
X0097690Y0200834D01*
X0098833Y0199692D01*
X0113834Y0199692D01*
X0114976Y0200834D01*
X0114976Y0208400D01*
X0154233Y0208400D01*
X0154233Y0169143D01*
X0146667Y0169143D01*
X0145525Y0168001D01*
X0145525Y0152999D01*
X0146667Y0151857D01*
X0154233Y0151857D01*
X0154233Y0112600D01*
X0114976Y0112600D01*
X0114976Y0113344D02*
X0154233Y0113344D01*
X0154233Y0114342D02*
X0114976Y0114342D01*
X0114976Y0115341D02*
X0154233Y0115341D01*
X0154233Y0116339D02*
X0114976Y0116339D01*
X0114976Y0117338D02*
X0154233Y0117338D01*
X0154233Y0118336D02*
X0114976Y0118336D01*
X0114976Y0119335D02*
X0154233Y0119335D01*
X0154233Y0120333D02*
X0127971Y0120333D01*
X0129802Y0121332D02*
X0154233Y0121332D01*
X0154233Y0122330D02*
X0130800Y0122330D01*
X0131279Y0123329D02*
X0154233Y0123329D01*
X0154233Y0124327D02*
X0131692Y0124327D01*
X0131733Y0125326D02*
X0154233Y0125326D01*
X0154233Y0126324D02*
X0131733Y0126324D01*
X0131423Y0127323D02*
X0154233Y0127323D01*
X0154233Y0128321D02*
X0131010Y0128321D01*
X0134043Y0135311D02*
X0140683Y0135311D01*
X0140759Y0136309D02*
X0135042Y0136309D01*
X0135883Y0137308D02*
X0141187Y0137308D01*
X0142377Y0138306D02*
X0135883Y0138306D01*
X0135883Y0139305D02*
X0154233Y0139305D01*
X0154233Y0140303D02*
X0135883Y0140303D01*
X0135883Y0141302D02*
X0154233Y0141302D01*
X0154233Y0142301D02*
X0135883Y0142301D01*
X0136087Y0143299D02*
X0154233Y0143299D01*
X0154233Y0144298D02*
X0136745Y0144298D01*
X0136983Y0145296D02*
X0154233Y0145296D01*
X0154233Y0146295D02*
X0136914Y0146295D01*
X0136495Y0147293D02*
X0154233Y0147293D01*
X0154233Y0148292D02*
X0135325Y0148292D01*
X0132341Y0148292D02*
X0130533Y0148292D01*
X0130533Y0149290D02*
X0154233Y0149290D01*
X0154233Y0150289D02*
X0129699Y0150289D01*
X0128383Y0151287D02*
X0154233Y0151287D01*
X0160433Y0151287D02*
X0196283Y0151287D01*
X0196283Y0150289D02*
X0160433Y0150289D01*
X0160433Y0149290D02*
X0196283Y0149290D01*
X0196283Y0148292D02*
X0184825Y0148292D01*
X0181841Y0148292D02*
X0160433Y0148292D01*
X0160433Y0147293D02*
X0180672Y0147293D01*
X0180253Y0146295D02*
X0160433Y0146295D01*
X0160433Y0145296D02*
X0180183Y0145296D01*
X0180422Y0144298D02*
X0160433Y0144298D01*
X0160433Y0143299D02*
X0181080Y0143299D01*
X0185587Y0143299D02*
X0191859Y0143299D01*
X0190679Y0142301D02*
X0160433Y0142301D01*
X0160433Y0141302D02*
X0190256Y0141302D01*
X0190183Y0140303D02*
X0160433Y0140303D01*
X0160433Y0139305D02*
X0190419Y0139305D01*
X0191072Y0138306D02*
X0160433Y0138306D01*
X0160433Y0137308D02*
X0191283Y0137308D01*
X0191283Y0136309D02*
X0160433Y0136309D01*
X0160433Y0135311D02*
X0191283Y0135311D01*
X0191283Y0134312D02*
X0160433Y0134312D01*
X0160433Y0133314D02*
X0191283Y0133314D01*
X0191283Y0132315D02*
X0160433Y0132315D01*
X0160433Y0131317D02*
X0191283Y0131317D01*
X0191283Y0130318D02*
X0190331Y0130318D01*
X0188833Y0130318D02*
X0187833Y0130318D01*
X0187833Y0130686D02*
X0187116Y0130572D01*
X0186337Y0130319D01*
X0185608Y0129947D01*
X0184946Y0129466D01*
X0184367Y0128888D01*
X0183886Y0128225D01*
X0183514Y0127496D01*
X0183261Y0126718D01*
X0183148Y0126000D01*
X0187833Y0126000D01*
X0187833Y0130686D01*
X0187833Y0129320D02*
X0188833Y0129320D01*
X0188833Y0128321D02*
X0187833Y0128321D01*
X0187833Y0127323D02*
X0188833Y0127323D01*
X0188833Y0126324D02*
X0187833Y0126324D01*
X0187833Y0125326D02*
X0160433Y0125326D01*
X0160433Y0126324D02*
X0183199Y0126324D01*
X0183458Y0127323D02*
X0160433Y0127323D01*
X0160433Y0128321D02*
X0183956Y0128321D01*
X0184799Y0129320D02*
X0160433Y0129320D01*
X0160433Y0130318D02*
X0186336Y0130318D01*
X0183254Y0124327D02*
X0160433Y0124327D01*
X0160433Y0123329D02*
X0176931Y0123329D01*
X0175709Y0122330D02*
X0160433Y0122330D01*
X0160433Y0121332D02*
X0175268Y0121332D01*
X0175183Y0120333D02*
X0160433Y0120333D01*
X0160433Y0119335D02*
X0162491Y0119335D01*
X0161630Y0118336D02*
X0160433Y0118336D01*
X0160433Y0117338D02*
X0161630Y0117338D01*
X0161630Y0116339D02*
X0160433Y0116339D01*
X0160433Y0115341D02*
X0161300Y0115341D01*
X0164969Y0119335D02*
X0167095Y0119335D01*
X0166234Y0118336D02*
X0165967Y0118336D01*
X0169573Y0119335D02*
X0170348Y0119335D01*
X0172907Y0119335D02*
X0172969Y0119335D01*
X0179735Y0123329D02*
X0183604Y0123329D01*
X0200383Y0138306D02*
X0211072Y0138306D01*
X0210419Y0139305D02*
X0200383Y0139305D01*
X0200383Y0140303D02*
X0210183Y0140303D01*
X0210256Y0141302D02*
X0200383Y0141302D01*
X0200383Y0142301D02*
X0210679Y0142301D01*
X0211859Y0143299D02*
X0200383Y0143299D01*
X0200383Y0144298D02*
X0214232Y0144298D01*
X0215230Y0145296D02*
X0200383Y0145296D01*
X0200383Y0146295D02*
X0216229Y0146295D01*
X0216283Y0147293D02*
X0200383Y0147293D01*
X0200383Y0148292D02*
X0216283Y0148292D01*
X0216283Y0149290D02*
X0200383Y0149290D01*
X0200383Y0150289D02*
X0216283Y0150289D01*
X0216283Y0151287D02*
X0200383Y0151287D01*
X0200383Y0152286D02*
X0216283Y0152286D01*
X0216283Y0153284D02*
X0200383Y0153284D01*
X0200383Y0154283D02*
X0216283Y0154283D01*
X0216283Y0155281D02*
X0214778Y0155281D01*
X0215008Y0155511D02*
X0215008Y0165394D01*
X0213865Y0166537D01*
X0202801Y0166537D01*
X0201659Y0165394D01*
X0201659Y0155511D01*
X0202801Y0154369D01*
X0204417Y0154369D01*
X0213865Y0154369D01*
X0215008Y0155511D01*
X0215008Y0156280D02*
X0216283Y0156280D01*
X0216283Y0157278D02*
X0215008Y0157278D01*
X0215008Y0158277D02*
X0216283Y0158277D01*
X0216283Y0159275D02*
X0215008Y0159275D01*
X0215008Y0160274D02*
X0216283Y0160274D01*
X0216283Y0161272D02*
X0215008Y0161272D01*
X0215008Y0162271D02*
X0216283Y0162271D01*
X0216283Y0163269D02*
X0215008Y0163269D01*
X0215008Y0164268D02*
X0216283Y0164268D01*
X0216283Y0165266D02*
X0215008Y0165266D01*
X0214137Y0166265D02*
X0216283Y0166265D01*
X0216283Y0167263D02*
X0200383Y0167263D01*
X0200383Y0166265D02*
X0202529Y0166265D01*
X0201659Y0165266D02*
X0200383Y0165266D01*
X0200383Y0164268D02*
X0201659Y0164268D01*
X0201659Y0163269D02*
X0200383Y0163269D01*
X0200383Y0162271D02*
X0201659Y0162271D01*
X0201659Y0161272D02*
X0200383Y0161272D01*
X0200383Y0160274D02*
X0201659Y0160274D01*
X0201659Y0159275D02*
X0200383Y0159275D01*
X0200383Y0158277D02*
X0201659Y0158277D01*
X0201659Y0157278D02*
X0200383Y0157278D01*
X0200383Y0156280D02*
X0201659Y0156280D01*
X0201889Y0155281D02*
X0200383Y0155281D01*
X0196283Y0155281D02*
X0169142Y0155281D01*
X0169142Y0154283D02*
X0196283Y0154283D01*
X0196283Y0153284D02*
X0169142Y0153284D01*
X0168428Y0152286D02*
X0196283Y0152286D01*
X0196283Y0156280D02*
X0169142Y0156280D01*
X0169142Y0157278D02*
X0196283Y0157278D01*
X0196283Y0158277D02*
X0169142Y0158277D01*
X0169142Y0159275D02*
X0196283Y0159275D01*
X0196283Y0160274D02*
X0169142Y0160274D01*
X0169142Y0161272D02*
X0196283Y0161272D01*
X0196283Y0162271D02*
X0169142Y0162271D01*
X0169142Y0163269D02*
X0196283Y0163269D01*
X0196283Y0164268D02*
X0169142Y0164268D01*
X0169142Y0165266D02*
X0196283Y0165266D01*
X0196283Y0166265D02*
X0169142Y0166265D01*
X0169142Y0167263D02*
X0196283Y0167263D01*
X0196283Y0168262D02*
X0168880Y0168262D01*
X0160433Y0169260D02*
X0196283Y0169260D01*
X0196283Y0170259D02*
X0160433Y0170259D01*
X0160433Y0171257D02*
X0195646Y0171257D01*
X0195232Y0172256D02*
X0160433Y0172256D01*
X0160433Y0173254D02*
X0195183Y0173254D01*
X0195443Y0174253D02*
X0160433Y0174253D01*
X0160433Y0175251D02*
X0196130Y0175251D01*
X0200537Y0175251D02*
X0256233Y0175251D01*
X0256233Y0174253D02*
X0201224Y0174253D01*
X0201483Y0173254D02*
X0216752Y0173254D01*
X0215651Y0172256D02*
X0201435Y0172256D01*
X0201021Y0171257D02*
X0215237Y0171257D01*
X0215183Y0170259D02*
X0200383Y0170259D01*
X0200383Y0169260D02*
X0215437Y0169260D01*
X0216117Y0168262D02*
X0200383Y0168262D01*
X0220383Y0167263D02*
X0240436Y0167263D01*
X0240183Y0168262D02*
X0220550Y0168262D01*
X0221229Y0169260D02*
X0240239Y0169260D01*
X0240652Y0170259D02*
X0221483Y0170259D01*
X0221429Y0171257D02*
X0241759Y0171257D01*
X0244908Y0171257D02*
X0256233Y0171257D01*
X0256233Y0170259D02*
X0246014Y0170259D01*
X0241114Y0166265D02*
X0220383Y0166265D01*
X0220383Y0165266D02*
X0241283Y0165266D01*
X0241283Y0164268D02*
X0220383Y0164268D01*
X0220383Y0163269D02*
X0241283Y0163269D01*
X0241205Y0162271D02*
X0220383Y0162271D01*
X0221016Y0172256D02*
X0256233Y0172256D01*
X0256233Y0173254D02*
X0219915Y0173254D01*
X0230383Y0156280D02*
X0247525Y0156280D01*
X0247525Y0155281D02*
X0230383Y0155281D01*
X0230383Y0154283D02*
X0247525Y0154283D01*
X0247525Y0153284D02*
X0230383Y0153284D01*
X0230383Y0152286D02*
X0248239Y0152286D01*
X0256233Y0151287D02*
X0230383Y0151287D01*
X0231699Y0150289D02*
X0256233Y0150289D01*
X0249377Y0138306D02*
X0247289Y0138306D01*
X0244377Y0138306D02*
X0237883Y0138306D01*
X0237883Y0137308D02*
X0243187Y0137308D01*
X0242759Y0136309D02*
X0237042Y0136309D01*
X0236043Y0135311D02*
X0242683Y0135311D01*
X0228333Y0143500D02*
X0228333Y0147500D01*
X0256233Y0176250D02*
X0160433Y0176250D01*
X0160433Y0177248D02*
X0256233Y0177248D01*
X0256233Y0178247D02*
X0160433Y0178247D01*
X0160433Y0179245D02*
X0256233Y0179245D01*
X0256233Y0180244D02*
X0160433Y0180244D01*
X0160433Y0181242D02*
X0256233Y0181242D01*
X0256233Y0182241D02*
X0160433Y0182241D01*
X0160433Y0183239D02*
X0256233Y0183239D01*
X0256233Y0184238D02*
X0160433Y0184238D01*
X0160433Y0185237D02*
X0256233Y0185237D01*
X0256233Y0186235D02*
X0245362Y0186235D01*
X0244991Y0186100D02*
X0248106Y0187234D01*
X0250645Y0189365D01*
X0252303Y0192235D01*
X0252303Y0192235D01*
X0252878Y0195500D01*
X0252303Y0198765D01*
X0250645Y0201635D01*
X0250645Y0201635D01*
X0248106Y0203766D01*
X0248106Y0203766D01*
X0244991Y0204900D01*
X0241676Y0204900D01*
X0238561Y0203766D01*
X0236021Y0201635D01*
X0234364Y0198765D01*
X0233788Y0195500D01*
X0234364Y0192235D01*
X0236021Y0189365D01*
X0236021Y0189365D01*
X0238561Y0187234D01*
X0241676Y0186100D01*
X0242463Y0186100D01*
X0244991Y0186100D01*
X0248105Y0187234D02*
X0256233Y0187234D01*
X0256233Y0188232D02*
X0249296Y0188232D01*
X0250485Y0189231D02*
X0256233Y0189231D01*
X0256233Y0190229D02*
X0251144Y0190229D01*
X0250645Y0189365D02*
X0250645Y0189365D01*
X0250645Y0189365D01*
X0251721Y0191228D02*
X0256233Y0191228D01*
X0256233Y0192226D02*
X0252297Y0192226D01*
X0252477Y0193225D02*
X0256233Y0193225D01*
X0256233Y0194223D02*
X0252653Y0194223D01*
X0252829Y0195222D02*
X0256233Y0195222D01*
X0256233Y0196220D02*
X0252751Y0196220D01*
X0252878Y0195500D02*
X0252878Y0195500D01*
X0252575Y0197219D02*
X0256233Y0197219D01*
X0256233Y0198217D02*
X0252399Y0198217D01*
X0252303Y0198765D02*
X0252303Y0198765D01*
X0252042Y0199216D02*
X0256233Y0199216D01*
X0256233Y0200214D02*
X0251466Y0200214D01*
X0250889Y0201213D02*
X0256233Y0201213D01*
X0256233Y0202211D02*
X0249959Y0202211D01*
X0248769Y0203210D02*
X0256233Y0203210D01*
X0256233Y0204208D02*
X0246891Y0204208D01*
X0239775Y0204208D02*
X0216976Y0204208D01*
X0216976Y0203210D02*
X0237898Y0203210D01*
X0238561Y0203766D02*
X0238561Y0203766D01*
X0236708Y0202211D02*
X0216976Y0202211D01*
X0216976Y0201213D02*
X0235777Y0201213D01*
X0236021Y0201635D02*
X0236021Y0201635D01*
X0235201Y0200214D02*
X0216356Y0200214D01*
X0216976Y0205207D02*
X0256233Y0205207D01*
X0256233Y0206205D02*
X0216976Y0206205D01*
X0216976Y0207204D02*
X0256233Y0207204D01*
X0256233Y0208202D02*
X0216976Y0208202D01*
X0216976Y0214600D02*
X0216976Y0222166D01*
X0216889Y0222253D01*
X0217259Y0222100D01*
X0219407Y0222100D01*
X0221392Y0222922D01*
X0222911Y0224441D01*
X0223333Y0225460D01*
X0223755Y0224441D01*
X0225274Y0222922D01*
X0227259Y0222100D01*
X0229407Y0222100D01*
X0231392Y0222922D01*
X0232911Y0224441D01*
X0233733Y0226426D01*
X0233733Y0228574D01*
X0232956Y0230450D01*
X0249182Y0230450D01*
X0250383Y0231651D01*
X0252883Y0234151D01*
X0252883Y0235095D01*
X0253504Y0235716D01*
X0253983Y0236873D01*
X0253983Y0238127D01*
X0253504Y0239284D01*
X0252618Y0240170D01*
X0251460Y0240650D01*
X0250207Y0240650D01*
X0249049Y0240170D01*
X0248333Y0239455D01*
X0247618Y0240170D01*
X0246460Y0240650D01*
X0245207Y0240650D01*
X0244049Y0240170D01*
X0243163Y0239284D01*
X0242683Y0238127D01*
X0242683Y0237050D01*
X0235782Y0237050D01*
X0237883Y0239151D01*
X0237883Y0245095D01*
X0238504Y0245716D01*
X0238983Y0246873D01*
X0238983Y0248127D01*
X0238504Y0249284D01*
X0237618Y0250170D01*
X0236460Y0250650D01*
X0235207Y0250650D01*
X0234049Y0250170D01*
X0233163Y0249284D01*
X0232683Y0248127D01*
X0232683Y0246873D01*
X0233163Y0245716D01*
X0233783Y0245095D01*
X0233783Y0240849D01*
X0232484Y0239550D01*
X0230383Y0239550D01*
X0230383Y0242550D01*
X0231537Y0242550D01*
X0232533Y0243546D01*
X0232533Y0247454D01*
X0232487Y0247500D01*
X0232533Y0247546D01*
X0232533Y0251454D01*
X0231537Y0252450D01*
X0230383Y0252450D01*
X0230383Y0258651D01*
X0230682Y0258950D01*
X0241682Y0258950D01*
X0244182Y0261450D01*
X0245383Y0262651D01*
X0245383Y0268095D01*
X0246004Y0268716D01*
X0246483Y0269873D01*
X0246483Y0271127D01*
X0246004Y0272284D01*
X0245118Y0273170D01*
X0243960Y0273650D01*
X0242707Y0273650D01*
X0241549Y0273170D01*
X0240663Y0272284D01*
X0240183Y0271127D01*
X0240183Y0269873D01*
X0240663Y0268716D01*
X0241283Y0268095D01*
X0241283Y0264349D01*
X0239984Y0263050D01*
X0228984Y0263050D01*
X0227783Y0261849D01*
X0226283Y0260349D01*
X0226283Y0252450D01*
X0225129Y0252450D01*
X0224133Y0251454D01*
X0224133Y0247546D01*
X0224179Y0247500D01*
X0224133Y0247454D01*
X0224133Y0243546D01*
X0225129Y0242550D01*
X0226283Y0242550D01*
X0226283Y0239550D01*
X0214443Y0239550D01*
X0215118Y0239830D01*
X0216004Y0240716D01*
X0216483Y0241873D01*
X0216483Y0242751D01*
X0220383Y0246651D01*
X0220383Y0270095D01*
X0221004Y0270716D01*
X0221483Y0271873D01*
X0221483Y0273127D01*
X0221004Y0274284D01*
X0220118Y0275170D01*
X0218960Y0275650D01*
X0217707Y0275650D01*
X0216549Y0275170D01*
X0215663Y0274284D01*
X0215183Y0273127D01*
X0215183Y0271873D01*
X0215663Y0270716D01*
X0216283Y0270095D01*
X0216283Y0248349D01*
X0213584Y0245650D01*
X0212707Y0245650D01*
X0211549Y0245170D01*
X0210663Y0244284D01*
X0210183Y0243127D01*
X0210183Y0241873D01*
X0210663Y0240716D01*
X0211549Y0239830D01*
X0212224Y0239550D01*
X0200383Y0239550D01*
X0200383Y0272595D01*
X0201004Y0273216D01*
X0201483Y0274373D01*
X0201483Y0275627D01*
X0201004Y0276784D01*
X0200118Y0277670D01*
X0198960Y0278150D01*
X0197707Y0278150D01*
X0196549Y0277670D01*
X0195663Y0276784D01*
X0195183Y0275627D01*
X0195183Y0274373D01*
X0195663Y0273216D01*
X0196283Y0272595D01*
X0196283Y0249550D01*
X0185738Y0249550D01*
X0185118Y0250170D01*
X0183960Y0250650D01*
X0182707Y0250650D01*
X0181549Y0250170D01*
X0180663Y0249284D01*
X0180183Y0248127D01*
X0180183Y0246873D01*
X0180663Y0245716D01*
X0181549Y0244830D01*
X0182707Y0244350D01*
X0183960Y0244350D01*
X0185118Y0244830D01*
X0185738Y0245450D01*
X0192224Y0245450D01*
X0191549Y0245170D01*
X0190663Y0244284D01*
X0190183Y0243127D01*
X0190183Y0241873D01*
X0190663Y0240716D01*
X0191283Y0240095D01*
X0191283Y0231784D01*
X0191059Y0231947D01*
X0190329Y0232319D01*
X0189551Y0232572D01*
X0188833Y0232686D01*
X0188833Y0228000D01*
X0187833Y0228000D01*
X0187833Y0227000D01*
X0183148Y0227000D01*
X0183261Y0226282D01*
X0183514Y0225504D01*
X0183886Y0224775D01*
X0184049Y0224550D01*
X0180738Y0224550D01*
X0180118Y0225170D01*
X0178960Y0225650D01*
X0177707Y0225650D01*
X0176549Y0225170D01*
X0175663Y0224284D01*
X0175183Y0223127D01*
X0175183Y0221873D01*
X0175360Y0221447D01*
X0174780Y0221833D01*
X0173074Y0221492D01*
X0172938Y0221288D01*
X0172802Y0221492D01*
X0171096Y0221833D01*
X0169883Y0221025D01*
X0169204Y0221704D01*
X0167464Y0221704D01*
X0166840Y0221080D01*
X0166234Y0220473D01*
X0166234Y0220069D01*
X0165830Y0220473D01*
X0165830Y0220473D01*
X0165464Y0220839D01*
X0164600Y0221704D01*
X0162860Y0221704D01*
X0162236Y0221080D01*
X0161630Y0220473D01*
X0161630Y0217500D01*
X0161459Y0217500D01*
X0160433Y0216474D01*
X0160433Y0253857D01*
X0167999Y0253857D01*
X0169142Y0254999D01*
X0169142Y0270001D01*
X0167999Y0271143D01*
X0160433Y0271143D01*
X0160433Y0310400D01*
X0199690Y0310400D01*
X0199690Y0302834D01*
X0200833Y0301692D01*
X0215834Y0301692D01*
X0216976Y0302834D01*
X0216976Y0310400D01*
X0256233Y0310400D01*
X0256233Y0271143D01*
X0248667Y0271143D01*
X0247525Y0270001D01*
X0247525Y0254999D01*
X0248667Y0253857D01*
X0256233Y0253857D01*
X0256233Y0214600D01*
X0216976Y0214600D01*
X0216976Y0215192D02*
X0256233Y0215192D01*
X0256233Y0216190D02*
X0216976Y0216190D01*
X0216976Y0217189D02*
X0256233Y0217189D01*
X0256233Y0218187D02*
X0216976Y0218187D01*
X0216976Y0219186D02*
X0256233Y0219186D01*
X0256233Y0220184D02*
X0216976Y0220184D01*
X0216976Y0221183D02*
X0256233Y0221183D01*
X0256233Y0222181D02*
X0229604Y0222181D01*
X0231650Y0223180D02*
X0256233Y0223180D01*
X0256233Y0224178D02*
X0232649Y0224178D01*
X0233216Y0225177D02*
X0256233Y0225177D01*
X0256233Y0226175D02*
X0233630Y0226175D01*
X0233733Y0227174D02*
X0256233Y0227174D01*
X0256233Y0228172D02*
X0233733Y0228172D01*
X0233486Y0229171D02*
X0256233Y0229171D01*
X0256233Y0230170D02*
X0233072Y0230170D01*
X0235892Y0237159D02*
X0242683Y0237159D01*
X0242696Y0238158D02*
X0236890Y0238158D01*
X0237883Y0239156D02*
X0243110Y0239156D01*
X0244033Y0240155D02*
X0237883Y0240155D01*
X0237883Y0241153D02*
X0256233Y0241153D01*
X0256233Y0240155D02*
X0252633Y0240155D01*
X0253557Y0239156D02*
X0256233Y0239156D01*
X0256233Y0238158D02*
X0253970Y0238158D01*
X0253983Y0237159D02*
X0256233Y0237159D01*
X0256233Y0236161D02*
X0253688Y0236161D01*
X0252950Y0235162D02*
X0256233Y0235162D01*
X0256233Y0234164D02*
X0252883Y0234164D01*
X0251898Y0233165D02*
X0256233Y0233165D01*
X0256233Y0232167D02*
X0250899Y0232167D01*
X0250383Y0231651D02*
X0250383Y0231651D01*
X0249900Y0231168D02*
X0256233Y0231168D01*
X0262433Y0231168D02*
X0286647Y0231168D01*
X0286367Y0230888D02*
X0285886Y0230225D01*
X0285514Y0229496D01*
X0285261Y0228718D01*
X0285148Y0228000D01*
X0289833Y0228000D01*
X0289833Y0227000D01*
X0285148Y0227000D01*
X0285261Y0226282D01*
X0285514Y0225504D01*
X0285886Y0224775D01*
X0286049Y0224550D01*
X0282738Y0224550D01*
X0282118Y0225170D01*
X0280960Y0225650D01*
X0279707Y0225650D01*
X0278549Y0225170D01*
X0277663Y0224284D01*
X0277183Y0223127D01*
X0277183Y0221873D01*
X0277360Y0221447D01*
X0276780Y0221833D01*
X0275074Y0221492D01*
X0274938Y0221288D01*
X0274802Y0221492D01*
X0273096Y0221833D01*
X0271883Y0221025D01*
X0271204Y0221704D01*
X0269464Y0221704D01*
X0268840Y0221080D01*
X0268234Y0220473D01*
X0268234Y0220069D01*
X0267830Y0220473D01*
X0267830Y0220473D01*
X0267464Y0220839D01*
X0266600Y0221704D01*
X0264860Y0221704D01*
X0264236Y0221080D01*
X0263630Y0220473D01*
X0263630Y0217500D01*
X0263459Y0217500D01*
X0262433Y0216474D01*
X0262433Y0253857D01*
X0269999Y0253857D01*
X0271142Y0254999D01*
X0271142Y0270001D01*
X0269999Y0271143D01*
X0262433Y0271143D01*
X0262433Y0310400D01*
X0301690Y0310400D01*
X0301690Y0302834D01*
X0302833Y0301692D01*
X0317834Y0301692D01*
X0318976Y0302834D01*
X0318976Y0310400D01*
X0358233Y0310400D01*
X0358233Y0271143D01*
X0350667Y0271143D01*
X0349525Y0270001D01*
X0349525Y0254999D01*
X0350667Y0253857D01*
X0358233Y0253857D01*
X0358233Y0214600D01*
X0318976Y0214600D01*
X0318976Y0222166D01*
X0318889Y0222253D01*
X0319259Y0222100D01*
X0321407Y0222100D01*
X0323392Y0222922D01*
X0324911Y0224441D01*
X0325333Y0225460D01*
X0325755Y0224441D01*
X0327274Y0222922D01*
X0329259Y0222100D01*
X0331407Y0222100D01*
X0333392Y0222922D01*
X0334911Y0224441D01*
X0335733Y0226426D01*
X0335733Y0228574D01*
X0334956Y0230450D01*
X0351182Y0230450D01*
X0354883Y0234151D01*
X0354883Y0235095D01*
X0355504Y0235716D01*
X0355983Y0236873D01*
X0355983Y0238127D01*
X0355504Y0239284D01*
X0354618Y0240170D01*
X0353460Y0240650D01*
X0352207Y0240650D01*
X0351049Y0240170D01*
X0350333Y0239455D01*
X0349618Y0240170D01*
X0348460Y0240650D01*
X0347207Y0240650D01*
X0346049Y0240170D01*
X0345163Y0239284D01*
X0344683Y0238127D01*
X0344683Y0237050D01*
X0337782Y0237050D01*
X0339883Y0239151D01*
X0339883Y0245095D01*
X0340504Y0245716D01*
X0340983Y0246873D01*
X0340983Y0248127D01*
X0340504Y0249284D01*
X0339618Y0250170D01*
X0338460Y0250650D01*
X0337207Y0250650D01*
X0336049Y0250170D01*
X0335163Y0249284D01*
X0334683Y0248127D01*
X0334683Y0246873D01*
X0335163Y0245716D01*
X0335783Y0245095D01*
X0335783Y0240849D01*
X0334484Y0239550D01*
X0332383Y0239550D01*
X0332383Y0242550D01*
X0333537Y0242550D01*
X0334533Y0243546D01*
X0334533Y0247454D01*
X0334487Y0247500D01*
X0334533Y0247546D01*
X0334533Y0251454D01*
X0333537Y0252450D01*
X0332383Y0252450D01*
X0332383Y0258651D01*
X0332682Y0258950D01*
X0343682Y0258950D01*
X0346182Y0261450D01*
X0347383Y0262651D01*
X0347383Y0268095D01*
X0348004Y0268716D01*
X0348483Y0269873D01*
X0348483Y0271127D01*
X0348004Y0272284D01*
X0347118Y0273170D01*
X0345960Y0273650D01*
X0344707Y0273650D01*
X0343549Y0273170D01*
X0342663Y0272284D01*
X0342183Y0271127D01*
X0342183Y0269873D01*
X0342663Y0268716D01*
X0343283Y0268095D01*
X0343283Y0264349D01*
X0341984Y0263050D01*
X0330984Y0263050D01*
X0329783Y0261849D01*
X0328283Y0260349D01*
X0328283Y0252450D01*
X0327129Y0252450D01*
X0326133Y0251454D01*
X0326133Y0247546D01*
X0326179Y0247500D01*
X0326133Y0247454D01*
X0326133Y0243546D01*
X0327129Y0242550D01*
X0328283Y0242550D01*
X0328283Y0239550D01*
X0316443Y0239550D01*
X0317118Y0239830D01*
X0318004Y0240716D01*
X0318483Y0241873D01*
X0318483Y0242751D01*
X0322383Y0246651D01*
X0322383Y0270095D01*
X0323004Y0270716D01*
X0323483Y0271873D01*
X0323483Y0273127D01*
X0323004Y0274284D01*
X0322118Y0275170D01*
X0320960Y0275650D01*
X0319707Y0275650D01*
X0318549Y0275170D01*
X0317663Y0274284D01*
X0317183Y0273127D01*
X0317183Y0271873D01*
X0317663Y0270716D01*
X0318283Y0270095D01*
X0318283Y0248349D01*
X0315584Y0245650D01*
X0314707Y0245650D01*
X0313549Y0245170D01*
X0312663Y0244284D01*
X0312183Y0243127D01*
X0312183Y0241873D01*
X0312663Y0240716D01*
X0313549Y0239830D01*
X0314224Y0239550D01*
X0302383Y0239550D01*
X0302383Y0272595D01*
X0303004Y0273216D01*
X0303483Y0274373D01*
X0303483Y0275627D01*
X0303004Y0276784D01*
X0302118Y0277670D01*
X0300960Y0278150D01*
X0299707Y0278150D01*
X0298549Y0277670D01*
X0297663Y0276784D01*
X0297183Y0275627D01*
X0297183Y0274373D01*
X0297663Y0273216D01*
X0298283Y0272595D01*
X0298283Y0249550D01*
X0287738Y0249550D01*
X0287118Y0250170D01*
X0285960Y0250650D01*
X0284707Y0250650D01*
X0283549Y0250170D01*
X0282663Y0249284D01*
X0282183Y0248127D01*
X0282183Y0246873D01*
X0282663Y0245716D01*
X0283549Y0244830D01*
X0284707Y0244350D01*
X0285960Y0244350D01*
X0287118Y0244830D01*
X0287738Y0245450D01*
X0294224Y0245450D01*
X0293549Y0245170D01*
X0292663Y0244284D01*
X0292183Y0243127D01*
X0292183Y0241873D01*
X0292663Y0240716D01*
X0293283Y0240095D01*
X0293283Y0231784D01*
X0293059Y0231947D01*
X0292329Y0232319D01*
X0291551Y0232572D01*
X0290833Y0232686D01*
X0290833Y0228000D01*
X0289833Y0228000D01*
X0289833Y0232686D01*
X0289116Y0232572D01*
X0288337Y0232319D01*
X0287608Y0231947D01*
X0286946Y0231466D01*
X0286367Y0230888D01*
X0285857Y0230170D02*
X0262433Y0230170D01*
X0262433Y0229171D02*
X0285409Y0229171D01*
X0285175Y0228172D02*
X0262433Y0228172D01*
X0262433Y0227174D02*
X0289833Y0227174D01*
X0289833Y0228172D02*
X0290833Y0228172D01*
X0290833Y0229171D02*
X0289833Y0229171D01*
X0289833Y0230170D02*
X0290833Y0230170D01*
X0290833Y0231168D02*
X0289833Y0231168D01*
X0289833Y0232167D02*
X0290833Y0232167D01*
X0292629Y0232167D02*
X0293283Y0232167D01*
X0293283Y0233165D02*
X0262433Y0233165D01*
X0262433Y0232167D02*
X0288038Y0232167D01*
X0293283Y0234164D02*
X0262433Y0234164D01*
X0262433Y0235162D02*
X0293283Y0235162D01*
X0293283Y0236161D02*
X0262433Y0236161D01*
X0262433Y0237159D02*
X0293283Y0237159D01*
X0293283Y0238158D02*
X0262433Y0238158D01*
X0262433Y0239156D02*
X0293283Y0239156D01*
X0293224Y0240155D02*
X0262433Y0240155D01*
X0262433Y0241153D02*
X0292482Y0241153D01*
X0292183Y0242152D02*
X0262433Y0242152D01*
X0262433Y0243150D02*
X0292193Y0243150D01*
X0292607Y0244149D02*
X0262433Y0244149D01*
X0262433Y0245147D02*
X0283231Y0245147D01*
X0282485Y0246146D02*
X0262433Y0246146D01*
X0262433Y0247144D02*
X0282183Y0247144D01*
X0282190Y0248143D02*
X0262433Y0248143D01*
X0262433Y0249141D02*
X0282604Y0249141D01*
X0283518Y0250140D02*
X0262433Y0250140D01*
X0262433Y0251138D02*
X0298283Y0251138D01*
X0298283Y0250140D02*
X0287148Y0250140D01*
X0287435Y0245147D02*
X0293526Y0245147D01*
X0302383Y0245147D02*
X0313526Y0245147D01*
X0312607Y0244149D02*
X0302383Y0244149D01*
X0302383Y0243150D02*
X0312193Y0243150D01*
X0312183Y0242152D02*
X0302383Y0242152D01*
X0302383Y0241153D02*
X0312482Y0241153D01*
X0313224Y0240155D02*
X0302383Y0240155D01*
X0302383Y0246146D02*
X0316080Y0246146D01*
X0317078Y0247144D02*
X0302383Y0247144D01*
X0302383Y0248143D02*
X0318077Y0248143D01*
X0318283Y0249141D02*
X0302383Y0249141D01*
X0302383Y0250140D02*
X0318283Y0250140D01*
X0318283Y0251138D02*
X0302383Y0251138D01*
X0302383Y0252137D02*
X0318283Y0252137D01*
X0318283Y0253135D02*
X0302383Y0253135D01*
X0302383Y0254134D02*
X0318283Y0254134D01*
X0318283Y0255132D02*
X0302383Y0255132D01*
X0302383Y0256131D02*
X0318283Y0256131D01*
X0318283Y0257129D02*
X0316626Y0257129D01*
X0317008Y0257511D02*
X0317008Y0267394D01*
X0315865Y0268537D01*
X0304801Y0268537D01*
X0303659Y0267394D01*
X0303659Y0257511D01*
X0304801Y0256369D01*
X0306417Y0256369D01*
X0315865Y0256369D01*
X0317008Y0257511D01*
X0317008Y0258128D02*
X0318283Y0258128D01*
X0318283Y0259126D02*
X0317008Y0259126D01*
X0317008Y0260125D02*
X0318283Y0260125D01*
X0318283Y0261123D02*
X0317008Y0261123D01*
X0317008Y0262122D02*
X0318283Y0262122D01*
X0318283Y0263120D02*
X0317008Y0263120D01*
X0317008Y0264119D02*
X0318283Y0264119D01*
X0318283Y0265117D02*
X0317008Y0265117D01*
X0317008Y0266116D02*
X0318283Y0266116D01*
X0318283Y0267114D02*
X0317008Y0267114D01*
X0316289Y0268113D02*
X0318283Y0268113D01*
X0318283Y0269111D02*
X0302383Y0269111D01*
X0302383Y0268113D02*
X0304378Y0268113D01*
X0303659Y0267114D02*
X0302383Y0267114D01*
X0302383Y0266116D02*
X0303659Y0266116D01*
X0303659Y0265117D02*
X0302383Y0265117D01*
X0302383Y0264119D02*
X0303659Y0264119D01*
X0303659Y0263120D02*
X0302383Y0263120D01*
X0302383Y0262122D02*
X0303659Y0262122D01*
X0303659Y0261123D02*
X0302383Y0261123D01*
X0302383Y0260125D02*
X0303659Y0260125D01*
X0303659Y0259126D02*
X0302383Y0259126D01*
X0302383Y0258128D02*
X0303659Y0258128D01*
X0304041Y0257129D02*
X0302383Y0257129D01*
X0298283Y0257129D02*
X0271142Y0257129D01*
X0271142Y0256131D02*
X0298283Y0256131D01*
X0298283Y0255132D02*
X0271142Y0255132D01*
X0270276Y0254134D02*
X0298283Y0254134D01*
X0298283Y0253135D02*
X0262433Y0253135D01*
X0262433Y0252137D02*
X0298283Y0252137D01*
X0298283Y0258128D02*
X0271142Y0258128D01*
X0271142Y0259126D02*
X0298283Y0259126D01*
X0298283Y0260125D02*
X0271142Y0260125D01*
X0271142Y0261123D02*
X0298283Y0261123D01*
X0298283Y0262122D02*
X0271142Y0262122D01*
X0271142Y0263120D02*
X0298283Y0263120D01*
X0298283Y0264119D02*
X0271142Y0264119D01*
X0271142Y0265117D02*
X0298283Y0265117D01*
X0298283Y0266116D02*
X0271142Y0266116D01*
X0271142Y0267114D02*
X0298283Y0267114D01*
X0298283Y0268113D02*
X0271142Y0268113D01*
X0271142Y0269111D02*
X0298283Y0269111D01*
X0298283Y0270110D02*
X0271032Y0270110D01*
X0270034Y0271108D02*
X0298283Y0271108D01*
X0298283Y0272107D02*
X0262433Y0272107D01*
X0262433Y0273105D02*
X0297773Y0273105D01*
X0297295Y0274104D02*
X0262433Y0274104D01*
X0262433Y0275103D02*
X0297183Y0275103D01*
X0297380Y0276101D02*
X0262433Y0276101D01*
X0262433Y0277100D02*
X0297978Y0277100D01*
X0299581Y0278098D02*
X0262433Y0278098D01*
X0262433Y0279097D02*
X0358233Y0279097D01*
X0358233Y0280095D02*
X0262433Y0280095D01*
X0262433Y0281094D02*
X0358233Y0281094D01*
X0358233Y0282092D02*
X0262433Y0282092D01*
X0262433Y0283091D02*
X0358233Y0283091D01*
X0358233Y0284089D02*
X0262433Y0284089D01*
X0262433Y0285088D02*
X0358233Y0285088D01*
X0358233Y0286086D02*
X0262433Y0286086D01*
X0262433Y0287085D02*
X0358233Y0287085D01*
X0358233Y0288083D02*
X0262433Y0288083D01*
X0262433Y0289082D02*
X0270979Y0289082D01*
X0270561Y0289234D02*
X0273676Y0288100D01*
X0274463Y0288100D01*
X0276991Y0288100D01*
X0280106Y0289234D01*
X0282645Y0291365D01*
X0284303Y0294235D01*
X0284303Y0294235D01*
X0284878Y0297500D01*
X0284303Y0300765D01*
X0282645Y0303635D01*
X0282645Y0303635D01*
X0280106Y0305766D01*
X0280106Y0305766D01*
X0276991Y0306900D01*
X0273676Y0306900D01*
X0270561Y0305766D01*
X0270561Y0305766D01*
X0268021Y0303635D01*
X0266364Y0300765D01*
X0266364Y0300765D01*
X0265788Y0297500D01*
X0266364Y0294235D01*
X0268021Y0291365D01*
X0270561Y0289234D01*
X0270561Y0289234D01*
X0269552Y0290080D02*
X0262433Y0290080D01*
X0262433Y0291079D02*
X0268362Y0291079D01*
X0268021Y0291365D02*
X0268021Y0291365D01*
X0267610Y0292077D02*
X0262433Y0292077D01*
X0262433Y0293076D02*
X0267033Y0293076D01*
X0266457Y0294074D02*
X0262433Y0294074D01*
X0262433Y0295073D02*
X0266216Y0295073D01*
X0266364Y0294235D02*
X0266364Y0294235D01*
X0266040Y0296071D02*
X0262433Y0296071D01*
X0262433Y0297070D02*
X0265864Y0297070D01*
X0265788Y0297500D02*
X0265788Y0297500D01*
X0265889Y0298068D02*
X0262433Y0298068D01*
X0262433Y0299067D02*
X0266065Y0299067D01*
X0266241Y0300065D02*
X0262433Y0300065D01*
X0262433Y0301064D02*
X0266537Y0301064D01*
X0267113Y0302062D02*
X0262433Y0302062D01*
X0262433Y0303061D02*
X0267690Y0303061D01*
X0268021Y0303635D02*
X0268021Y0303635D01*
X0268021Y0303635D01*
X0268527Y0304059D02*
X0262433Y0304059D01*
X0262433Y0305058D02*
X0269717Y0305058D01*
X0271358Y0306056D02*
X0262433Y0306056D01*
X0262433Y0307055D02*
X0301690Y0307055D01*
X0301690Y0308053D02*
X0262433Y0308053D01*
X0262433Y0309052D02*
X0301690Y0309052D01*
X0301690Y0310050D02*
X0262433Y0310050D01*
X0256233Y0310050D02*
X0216976Y0310050D01*
X0216976Y0309052D02*
X0256233Y0309052D01*
X0256233Y0308053D02*
X0216976Y0308053D01*
X0216976Y0307055D02*
X0256233Y0307055D01*
X0256233Y0306056D02*
X0247309Y0306056D01*
X0248106Y0305766D02*
X0244991Y0306900D01*
X0241676Y0306900D01*
X0238561Y0305766D01*
X0238561Y0305766D01*
X0236021Y0303635D01*
X0234364Y0300765D01*
X0234364Y0300765D01*
X0233788Y0297500D01*
X0233788Y0297500D01*
X0234364Y0294235D01*
X0236021Y0291365D01*
X0238561Y0289234D01*
X0238561Y0289234D01*
X0241676Y0288100D01*
X0242463Y0288100D01*
X0244991Y0288100D01*
X0248106Y0289234D01*
X0250645Y0291365D01*
X0252303Y0294235D01*
X0252303Y0294235D01*
X0252878Y0297500D01*
X0252303Y0300765D01*
X0250645Y0303635D01*
X0250645Y0303635D01*
X0248106Y0305766D01*
X0248106Y0305766D01*
X0248950Y0305058D02*
X0256233Y0305058D01*
X0256233Y0304059D02*
X0250140Y0304059D01*
X0250977Y0303061D02*
X0256233Y0303061D01*
X0256233Y0302062D02*
X0251553Y0302062D01*
X0252130Y0301064D02*
X0256233Y0301064D01*
X0256233Y0300065D02*
X0252426Y0300065D01*
X0252303Y0300765D02*
X0252303Y0300765D01*
X0252602Y0299067D02*
X0256233Y0299067D01*
X0256233Y0298068D02*
X0252778Y0298068D01*
X0252878Y0297500D02*
X0252878Y0297500D01*
X0252802Y0297070D02*
X0256233Y0297070D01*
X0256233Y0296071D02*
X0252626Y0296071D01*
X0252450Y0295073D02*
X0256233Y0295073D01*
X0256233Y0294074D02*
X0252210Y0294074D01*
X0251633Y0293076D02*
X0256233Y0293076D01*
X0256233Y0292077D02*
X0251057Y0292077D01*
X0250645Y0291365D02*
X0250645Y0291365D01*
X0250645Y0291365D01*
X0250305Y0291079D02*
X0256233Y0291079D01*
X0256233Y0290080D02*
X0249115Y0290080D01*
X0248106Y0289234D02*
X0248106Y0289234D01*
X0247688Y0289082D02*
X0256233Y0289082D01*
X0256233Y0288083D02*
X0160433Y0288083D01*
X0160433Y0287085D02*
X0256233Y0287085D01*
X0256233Y0286086D02*
X0160433Y0286086D01*
X0160433Y0285088D02*
X0256233Y0285088D01*
X0256233Y0284089D02*
X0160433Y0284089D01*
X0160433Y0283091D02*
X0256233Y0283091D01*
X0256233Y0282092D02*
X0160433Y0282092D01*
X0160433Y0281094D02*
X0256233Y0281094D01*
X0256233Y0280095D02*
X0160433Y0280095D01*
X0160433Y0279097D02*
X0256233Y0279097D01*
X0256233Y0278098D02*
X0199085Y0278098D01*
X0197581Y0278098D02*
X0160433Y0278098D01*
X0160433Y0277100D02*
X0195978Y0277100D01*
X0195380Y0276101D02*
X0160433Y0276101D01*
X0160433Y0275103D02*
X0195183Y0275103D01*
X0195295Y0274104D02*
X0160433Y0274104D01*
X0160433Y0273105D02*
X0195773Y0273105D01*
X0196283Y0272107D02*
X0160433Y0272107D01*
X0154233Y0272107D02*
X0144077Y0272107D01*
X0144004Y0272284D02*
X0143118Y0273170D01*
X0141960Y0273650D01*
X0140707Y0273650D01*
X0139549Y0273170D01*
X0138663Y0272284D01*
X0138183Y0271127D01*
X0138183Y0269873D01*
X0138663Y0268716D01*
X0139283Y0268095D01*
X0139283Y0264349D01*
X0137984Y0263050D01*
X0126984Y0263050D01*
X0125783Y0261849D01*
X0124283Y0260349D01*
X0124283Y0252450D01*
X0123129Y0252450D01*
X0122133Y0251454D01*
X0122133Y0247546D01*
X0122179Y0247500D01*
X0122133Y0247454D01*
X0122133Y0243546D01*
X0123129Y0242550D01*
X0124283Y0242550D01*
X0124283Y0239550D01*
X0112443Y0239550D01*
X0113118Y0239830D01*
X0114004Y0240716D01*
X0114483Y0241873D01*
X0114483Y0242751D01*
X0118383Y0246651D01*
X0118383Y0270095D01*
X0119004Y0270716D01*
X0119483Y0271873D01*
X0119483Y0273127D01*
X0119004Y0274284D01*
X0118118Y0275170D01*
X0116960Y0275650D01*
X0115707Y0275650D01*
X0114549Y0275170D01*
X0113663Y0274284D01*
X0113183Y0273127D01*
X0113183Y0271873D01*
X0113663Y0270716D01*
X0114283Y0270095D01*
X0114283Y0248349D01*
X0111584Y0245650D01*
X0110707Y0245650D01*
X0109549Y0245170D01*
X0108663Y0244284D01*
X0108183Y0243127D01*
X0108183Y0241873D01*
X0108663Y0240716D01*
X0109549Y0239830D01*
X0110224Y0239550D01*
X0098383Y0239550D01*
X0098383Y0272595D01*
X0099004Y0273216D01*
X0099483Y0274373D01*
X0099483Y0275627D01*
X0099004Y0276784D01*
X0098118Y0277670D01*
X0096960Y0278150D01*
X0095707Y0278150D01*
X0094549Y0277670D01*
X0093663Y0276784D01*
X0093183Y0275627D01*
X0093183Y0274373D01*
X0093663Y0273216D01*
X0094283Y0272595D01*
X0094283Y0249550D01*
X0083738Y0249550D01*
X0083118Y0250170D01*
X0081960Y0250650D01*
X0080707Y0250650D01*
X0079549Y0250170D01*
X0078663Y0249284D01*
X0078183Y0248127D01*
X0078183Y0246873D01*
X0078663Y0245716D01*
X0079549Y0244830D01*
X0080707Y0244350D01*
X0081960Y0244350D01*
X0083118Y0244830D01*
X0083738Y0245450D01*
X0090224Y0245450D01*
X0089549Y0245170D01*
X0088663Y0244284D01*
X0088183Y0243127D01*
X0088183Y0241873D01*
X0088663Y0240716D01*
X0089283Y0240095D01*
X0089283Y0231784D01*
X0089059Y0231947D01*
X0088329Y0232319D01*
X0087551Y0232572D01*
X0086833Y0232686D01*
X0086833Y0228000D01*
X0085833Y0228000D01*
X0085833Y0227000D01*
X0081148Y0227000D01*
X0081261Y0226282D01*
X0081514Y0225504D01*
X0081886Y0224775D01*
X0082049Y0224550D01*
X0078738Y0224550D01*
X0078118Y0225170D01*
X0076960Y0225650D01*
X0075707Y0225650D01*
X0074549Y0225170D01*
X0073663Y0224284D01*
X0073183Y0223127D01*
X0073183Y0221873D01*
X0073360Y0221447D01*
X0072780Y0221833D01*
X0071074Y0221492D01*
X0070938Y0221288D01*
X0070802Y0221492D01*
X0069096Y0221833D01*
X0067883Y0221025D01*
X0067204Y0221704D01*
X0065464Y0221704D01*
X0064840Y0221080D01*
X0064234Y0220473D01*
X0064234Y0220069D01*
X0063830Y0220473D01*
X0063830Y0220473D01*
X0063464Y0220839D01*
X0062600Y0221704D01*
X0060860Y0221704D01*
X0060236Y0221080D01*
X0059630Y0220473D01*
X0059630Y0217500D01*
X0059459Y0217500D01*
X0058433Y0216474D01*
X0058433Y0253857D01*
X0065999Y0253857D01*
X0067142Y0254999D01*
X0067142Y0270001D01*
X0065999Y0271143D01*
X0058433Y0271143D01*
X0058433Y0310400D01*
X0097690Y0310400D01*
X0097690Y0302834D01*
X0098833Y0301692D01*
X0113834Y0301692D01*
X0114976Y0302834D01*
X0114976Y0310400D01*
X0154233Y0310400D01*
X0154233Y0271143D01*
X0146667Y0271143D01*
X0145525Y0270001D01*
X0145525Y0254999D01*
X0146667Y0253857D01*
X0154233Y0253857D01*
X0154233Y0214600D01*
X0114976Y0214600D01*
X0114976Y0222166D01*
X0114889Y0222253D01*
X0115259Y0222100D01*
X0117407Y0222100D01*
X0119392Y0222922D01*
X0120911Y0224441D01*
X0121333Y0225460D01*
X0121755Y0224441D01*
X0123274Y0222922D01*
X0125259Y0222100D01*
X0127407Y0222100D01*
X0129392Y0222922D01*
X0130911Y0224441D01*
X0131733Y0226426D01*
X0131733Y0228574D01*
X0130956Y0230450D01*
X0147182Y0230450D01*
X0150883Y0234151D01*
X0150883Y0235095D01*
X0151504Y0235716D01*
X0151983Y0236873D01*
X0151983Y0238127D01*
X0151504Y0239284D01*
X0150618Y0240170D01*
X0149460Y0240650D01*
X0148207Y0240650D01*
X0147049Y0240170D01*
X0146333Y0239455D01*
X0145618Y0240170D01*
X0144460Y0240650D01*
X0143207Y0240650D01*
X0142049Y0240170D01*
X0141163Y0239284D01*
X0140683Y0238127D01*
X0140683Y0237050D01*
X0133782Y0237050D01*
X0135883Y0239151D01*
X0135883Y0245095D01*
X0136504Y0245716D01*
X0136983Y0246873D01*
X0136983Y0248127D01*
X0136504Y0249284D01*
X0135618Y0250170D01*
X0134460Y0250650D01*
X0133207Y0250650D01*
X0132049Y0250170D01*
X0131163Y0249284D01*
X0130683Y0248127D01*
X0130683Y0246873D01*
X0131163Y0245716D01*
X0131783Y0245095D01*
X0131783Y0240849D01*
X0130484Y0239550D01*
X0128383Y0239550D01*
X0128383Y0242550D01*
X0129537Y0242550D01*
X0130533Y0243546D01*
X0130533Y0247454D01*
X0130487Y0247500D01*
X0130533Y0247546D01*
X0130533Y0251454D01*
X0129537Y0252450D01*
X0128383Y0252450D01*
X0128383Y0258651D01*
X0128682Y0258950D01*
X0139682Y0258950D01*
X0142182Y0261450D01*
X0143383Y0262651D01*
X0143383Y0268095D01*
X0144004Y0268716D01*
X0144483Y0269873D01*
X0144483Y0271127D01*
X0144004Y0272284D01*
X0143183Y0273105D02*
X0154233Y0273105D01*
X0154233Y0274104D02*
X0119078Y0274104D01*
X0119483Y0273105D02*
X0139484Y0273105D01*
X0138589Y0272107D02*
X0119483Y0272107D01*
X0119166Y0271108D02*
X0138183Y0271108D01*
X0138183Y0270110D02*
X0118398Y0270110D01*
X0118383Y0269111D02*
X0138499Y0269111D01*
X0139266Y0268113D02*
X0118383Y0268113D01*
X0118383Y0267114D02*
X0139283Y0267114D01*
X0139283Y0266116D02*
X0118383Y0266116D01*
X0118383Y0265117D02*
X0139283Y0265117D01*
X0139053Y0264119D02*
X0118383Y0264119D01*
X0118383Y0263120D02*
X0138055Y0263120D01*
X0140857Y0260125D02*
X0145525Y0260125D01*
X0145525Y0261123D02*
X0141856Y0261123D01*
X0142854Y0262122D02*
X0145525Y0262122D01*
X0145525Y0263120D02*
X0143383Y0263120D01*
X0143383Y0264119D02*
X0145525Y0264119D01*
X0145525Y0265117D02*
X0143383Y0265117D01*
X0143383Y0266116D02*
X0145525Y0266116D01*
X0145525Y0267114D02*
X0143383Y0267114D01*
X0143401Y0268113D02*
X0145525Y0268113D01*
X0145525Y0269111D02*
X0144168Y0269111D01*
X0144483Y0270110D02*
X0145634Y0270110D01*
X0146633Y0271108D02*
X0144483Y0271108D01*
X0154233Y0275103D02*
X0118186Y0275103D01*
X0114481Y0275103D02*
X0099483Y0275103D01*
X0099372Y0274104D02*
X0113588Y0274104D01*
X0113183Y0273105D02*
X0098894Y0273105D01*
X0098383Y0272107D02*
X0113183Y0272107D01*
X0113500Y0271108D02*
X0098383Y0271108D01*
X0098383Y0270110D02*
X0114269Y0270110D01*
X0114283Y0269111D02*
X0098383Y0269111D01*
X0098383Y0268113D02*
X0100378Y0268113D01*
X0100801Y0268537D02*
X0099659Y0267394D01*
X0099659Y0257511D01*
X0100801Y0256369D01*
X0102417Y0256369D01*
X0111865Y0256369D01*
X0113008Y0257511D01*
X0113008Y0267394D01*
X0111865Y0268537D01*
X0100801Y0268537D01*
X0099659Y0267114D02*
X0098383Y0267114D01*
X0098383Y0266116D02*
X0099659Y0266116D01*
X0099659Y0265117D02*
X0098383Y0265117D01*
X0098383Y0264119D02*
X0099659Y0264119D01*
X0099659Y0263120D02*
X0098383Y0263120D01*
X0098383Y0262122D02*
X0099659Y0262122D01*
X0099659Y0261123D02*
X0098383Y0261123D01*
X0098383Y0260125D02*
X0099659Y0260125D01*
X0099659Y0259126D02*
X0098383Y0259126D01*
X0098383Y0258128D02*
X0099659Y0258128D01*
X0100041Y0257129D02*
X0098383Y0257129D01*
X0098383Y0256131D02*
X0114283Y0256131D01*
X0114283Y0257129D02*
X0112626Y0257129D01*
X0113008Y0258128D02*
X0114283Y0258128D01*
X0114283Y0259126D02*
X0113008Y0259126D01*
X0113008Y0260125D02*
X0114283Y0260125D01*
X0114283Y0261123D02*
X0113008Y0261123D01*
X0113008Y0262122D02*
X0114283Y0262122D01*
X0114283Y0263120D02*
X0113008Y0263120D01*
X0113008Y0264119D02*
X0114283Y0264119D01*
X0114283Y0265117D02*
X0113008Y0265117D01*
X0113008Y0266116D02*
X0114283Y0266116D01*
X0114283Y0267114D02*
X0113008Y0267114D01*
X0112289Y0268113D02*
X0114283Y0268113D01*
X0118383Y0262122D02*
X0126056Y0262122D01*
X0125058Y0261123D02*
X0118383Y0261123D01*
X0118383Y0260125D02*
X0124283Y0260125D01*
X0124283Y0259126D02*
X0118383Y0259126D01*
X0118383Y0258128D02*
X0124283Y0258128D01*
X0124283Y0257129D02*
X0118383Y0257129D01*
X0118383Y0256131D02*
X0124283Y0256131D01*
X0124283Y0255132D02*
X0118383Y0255132D01*
X0118383Y0254134D02*
X0124283Y0254134D01*
X0124283Y0253135D02*
X0118383Y0253135D01*
X0118383Y0252137D02*
X0122816Y0252137D01*
X0122133Y0251138D02*
X0118383Y0251138D01*
X0118383Y0250140D02*
X0122133Y0250140D01*
X0122133Y0249141D02*
X0118383Y0249141D01*
X0118383Y0248143D02*
X0122133Y0248143D01*
X0122133Y0247144D02*
X0118383Y0247144D01*
X0117878Y0246146D02*
X0122133Y0246146D01*
X0122133Y0245147D02*
X0116880Y0245147D01*
X0115881Y0244149D02*
X0122133Y0244149D01*
X0122529Y0243150D02*
X0114883Y0243150D01*
X0114483Y0242152D02*
X0124283Y0242152D01*
X0124283Y0241153D02*
X0114185Y0241153D01*
X0113443Y0240155D02*
X0124283Y0240155D01*
X0128383Y0240155D02*
X0131089Y0240155D01*
X0131783Y0241153D02*
X0128383Y0241153D01*
X0128383Y0242152D02*
X0131783Y0242152D01*
X0131783Y0243150D02*
X0130138Y0243150D01*
X0130533Y0244149D02*
X0131783Y0244149D01*
X0131731Y0245147D02*
X0130533Y0245147D01*
X0130533Y0246146D02*
X0130985Y0246146D01*
X0130683Y0247144D02*
X0130533Y0247144D01*
X0130533Y0248143D02*
X0130690Y0248143D01*
X0130533Y0249141D02*
X0131104Y0249141D01*
X0130533Y0250140D02*
X0132018Y0250140D01*
X0130533Y0251138D02*
X0154233Y0251138D01*
X0154233Y0250140D02*
X0135648Y0250140D01*
X0136563Y0249141D02*
X0154233Y0249141D01*
X0154233Y0248143D02*
X0136977Y0248143D01*
X0136983Y0247144D02*
X0154233Y0247144D01*
X0154233Y0246146D02*
X0136682Y0246146D01*
X0135935Y0245147D02*
X0154233Y0245147D01*
X0154233Y0244149D02*
X0135883Y0244149D01*
X0135883Y0243150D02*
X0154233Y0243150D01*
X0154233Y0242152D02*
X0135883Y0242152D01*
X0135883Y0241153D02*
X0154233Y0241153D01*
X0154233Y0240155D02*
X0150633Y0240155D01*
X0151557Y0239156D02*
X0154233Y0239156D01*
X0154233Y0238158D02*
X0151970Y0238158D01*
X0151983Y0237159D02*
X0154233Y0237159D01*
X0154233Y0236161D02*
X0151688Y0236161D01*
X0150950Y0235162D02*
X0154233Y0235162D01*
X0154233Y0234164D02*
X0150883Y0234164D01*
X0149898Y0233165D02*
X0154233Y0233165D01*
X0154233Y0232167D02*
X0148899Y0232167D01*
X0147900Y0231168D02*
X0154233Y0231168D01*
X0154233Y0230170D02*
X0131072Y0230170D01*
X0131486Y0229171D02*
X0154233Y0229171D01*
X0154233Y0228172D02*
X0131733Y0228172D01*
X0131733Y0227174D02*
X0154233Y0227174D01*
X0154233Y0226175D02*
X0131630Y0226175D01*
X0131216Y0225177D02*
X0154233Y0225177D01*
X0154233Y0224178D02*
X0130649Y0224178D01*
X0129650Y0223180D02*
X0154233Y0223180D01*
X0154233Y0222181D02*
X0127604Y0222181D01*
X0125063Y0222181D02*
X0117604Y0222181D01*
X0119650Y0223180D02*
X0123017Y0223180D01*
X0122018Y0224178D02*
X0120649Y0224178D01*
X0121216Y0225177D02*
X0121451Y0225177D01*
X0115063Y0222181D02*
X0114961Y0222181D01*
X0114976Y0221183D02*
X0154233Y0221183D01*
X0154233Y0220184D02*
X0114976Y0220184D01*
X0114976Y0219186D02*
X0154233Y0219186D01*
X0154233Y0218187D02*
X0114976Y0218187D01*
X0114976Y0217189D02*
X0154233Y0217189D01*
X0154233Y0216190D02*
X0114976Y0216190D01*
X0114976Y0215192D02*
X0154233Y0215192D01*
X0160433Y0217189D02*
X0161148Y0217189D01*
X0161630Y0218187D02*
X0160433Y0218187D01*
X0160433Y0219186D02*
X0161630Y0219186D01*
X0161630Y0220184D02*
X0160433Y0220184D01*
X0160433Y0221183D02*
X0162340Y0221183D01*
X0160433Y0222181D02*
X0175183Y0222181D01*
X0175205Y0223180D02*
X0160433Y0223180D01*
X0160433Y0224178D02*
X0175619Y0224178D01*
X0176565Y0225177D02*
X0160433Y0225177D01*
X0160433Y0226175D02*
X0183296Y0226175D01*
X0183681Y0225177D02*
X0180102Y0225177D01*
X0183148Y0228000D02*
X0183261Y0228718D01*
X0183514Y0229496D01*
X0183886Y0230225D01*
X0184367Y0230888D01*
X0184946Y0231466D01*
X0185608Y0231947D01*
X0186337Y0232319D01*
X0187116Y0232572D01*
X0187833Y0232686D01*
X0187833Y0228000D01*
X0183148Y0228000D01*
X0183175Y0228172D02*
X0160433Y0228172D01*
X0160433Y0227174D02*
X0187833Y0227174D01*
X0187833Y0228172D02*
X0188833Y0228172D01*
X0188833Y0229171D02*
X0187833Y0229171D01*
X0187833Y0230170D02*
X0188833Y0230170D01*
X0188833Y0231168D02*
X0187833Y0231168D01*
X0187833Y0232167D02*
X0188833Y0232167D01*
X0190629Y0232167D02*
X0191283Y0232167D01*
X0191283Y0233165D02*
X0160433Y0233165D01*
X0160433Y0232167D02*
X0186038Y0232167D01*
X0184647Y0231168D02*
X0160433Y0231168D01*
X0160433Y0230170D02*
X0183857Y0230170D01*
X0183409Y0229171D02*
X0160433Y0229171D01*
X0160433Y0234164D02*
X0191283Y0234164D01*
X0191283Y0235162D02*
X0160433Y0235162D01*
X0160433Y0236161D02*
X0191283Y0236161D01*
X0191283Y0237159D02*
X0160433Y0237159D01*
X0160433Y0238158D02*
X0191283Y0238158D01*
X0191283Y0239156D02*
X0160433Y0239156D01*
X0160433Y0240155D02*
X0191224Y0240155D01*
X0190482Y0241153D02*
X0160433Y0241153D01*
X0160433Y0242152D02*
X0190183Y0242152D01*
X0190193Y0243150D02*
X0160433Y0243150D01*
X0160433Y0244149D02*
X0190607Y0244149D01*
X0191526Y0245147D02*
X0185435Y0245147D01*
X0181231Y0245147D02*
X0160433Y0245147D01*
X0160433Y0246146D02*
X0180485Y0246146D01*
X0180183Y0247144D02*
X0160433Y0247144D01*
X0160433Y0248143D02*
X0180190Y0248143D01*
X0180604Y0249141D02*
X0160433Y0249141D01*
X0160433Y0250140D02*
X0181518Y0250140D01*
X0185148Y0250140D02*
X0196283Y0250140D01*
X0196283Y0251138D02*
X0160433Y0251138D01*
X0160433Y0252137D02*
X0196283Y0252137D01*
X0196283Y0253135D02*
X0160433Y0253135D01*
X0154233Y0253135D02*
X0128383Y0253135D01*
X0128383Y0254134D02*
X0146391Y0254134D01*
X0145525Y0255132D02*
X0128383Y0255132D01*
X0128383Y0256131D02*
X0145525Y0256131D01*
X0145525Y0257129D02*
X0128383Y0257129D01*
X0128383Y0258128D02*
X0145525Y0258128D01*
X0145525Y0259126D02*
X0139859Y0259126D01*
X0129851Y0252137D02*
X0154233Y0252137D01*
X0147033Y0240155D02*
X0145633Y0240155D01*
X0142033Y0240155D02*
X0135883Y0240155D01*
X0135883Y0239156D02*
X0141110Y0239156D01*
X0140696Y0238158D02*
X0134890Y0238158D01*
X0133892Y0237159D02*
X0140683Y0237159D01*
X0126333Y0245500D02*
X0126333Y0249500D01*
X0114283Y0249141D02*
X0098383Y0249141D01*
X0098383Y0248143D02*
X0114077Y0248143D01*
X0113078Y0247144D02*
X0098383Y0247144D01*
X0098383Y0246146D02*
X0112080Y0246146D01*
X0109526Y0245147D02*
X0098383Y0245147D01*
X0098383Y0244149D02*
X0108607Y0244149D01*
X0108193Y0243150D02*
X0098383Y0243150D01*
X0098383Y0242152D02*
X0108183Y0242152D01*
X0108482Y0241153D02*
X0098383Y0241153D01*
X0098383Y0240155D02*
X0109224Y0240155D01*
X0114283Y0250140D02*
X0098383Y0250140D01*
X0098383Y0251138D02*
X0114283Y0251138D01*
X0114283Y0252137D02*
X0098383Y0252137D01*
X0098383Y0253135D02*
X0114283Y0253135D01*
X0114283Y0254134D02*
X0098383Y0254134D01*
X0098383Y0255132D02*
X0114283Y0255132D01*
X0094283Y0255132D02*
X0067142Y0255132D01*
X0067142Y0256131D02*
X0094283Y0256131D01*
X0094283Y0257129D02*
X0067142Y0257129D01*
X0067142Y0258128D02*
X0094283Y0258128D01*
X0094283Y0259126D02*
X0067142Y0259126D01*
X0067142Y0260125D02*
X0094283Y0260125D01*
X0094283Y0261123D02*
X0067142Y0261123D01*
X0067142Y0262122D02*
X0094283Y0262122D01*
X0094283Y0263120D02*
X0067142Y0263120D01*
X0067142Y0264119D02*
X0094283Y0264119D01*
X0094283Y0265117D02*
X0067142Y0265117D01*
X0067142Y0266116D02*
X0094283Y0266116D01*
X0094283Y0267114D02*
X0067142Y0267114D01*
X0067142Y0268113D02*
X0094283Y0268113D01*
X0094283Y0269111D02*
X0067142Y0269111D01*
X0067032Y0270110D02*
X0094283Y0270110D01*
X0094283Y0271108D02*
X0066034Y0271108D01*
X0058433Y0272107D02*
X0094283Y0272107D01*
X0093773Y0273105D02*
X0058433Y0273105D01*
X0058433Y0274104D02*
X0093295Y0274104D01*
X0093183Y0275103D02*
X0058433Y0275103D01*
X0058433Y0276101D02*
X0093380Y0276101D01*
X0093978Y0277100D02*
X0058433Y0277100D01*
X0058433Y0278098D02*
X0095581Y0278098D01*
X0097085Y0278098D02*
X0154233Y0278098D01*
X0154233Y0277100D02*
X0098689Y0277100D01*
X0099287Y0276101D02*
X0154233Y0276101D01*
X0154233Y0279097D02*
X0058433Y0279097D01*
X0058433Y0280095D02*
X0154233Y0280095D01*
X0154233Y0281094D02*
X0058433Y0281094D01*
X0058433Y0282092D02*
X0154233Y0282092D01*
X0154233Y0283091D02*
X0058433Y0283091D01*
X0058433Y0284089D02*
X0154233Y0284089D01*
X0154233Y0285088D02*
X0058433Y0285088D01*
X0058433Y0286086D02*
X0154233Y0286086D01*
X0154233Y0287085D02*
X0058433Y0287085D01*
X0058433Y0288083D02*
X0154233Y0288083D01*
X0154233Y0289082D02*
X0145688Y0289082D01*
X0146106Y0289234D02*
X0146106Y0289234D01*
X0148645Y0291365D01*
X0150303Y0294235D01*
X0150878Y0297500D01*
X0150303Y0300765D01*
X0148645Y0303635D01*
X0146106Y0305766D01*
X0146106Y0305766D01*
X0142991Y0306900D01*
X0139676Y0306900D01*
X0136561Y0305766D01*
X0136561Y0305766D01*
X0134021Y0303635D01*
X0132364Y0300765D01*
X0132364Y0300765D01*
X0131788Y0297500D01*
X0132364Y0294235D01*
X0134021Y0291365D01*
X0134021Y0291365D01*
X0136561Y0289234D01*
X0139676Y0288100D01*
X0140463Y0288100D01*
X0142991Y0288100D01*
X0146106Y0289234D01*
X0147115Y0290080D02*
X0154233Y0290080D01*
X0154233Y0291079D02*
X0148305Y0291079D01*
X0148645Y0291365D02*
X0148645Y0291365D01*
X0148645Y0291365D01*
X0149057Y0292077D02*
X0154233Y0292077D01*
X0154233Y0293076D02*
X0149633Y0293076D01*
X0150210Y0294074D02*
X0154233Y0294074D01*
X0154233Y0295073D02*
X0150450Y0295073D01*
X0150626Y0296071D02*
X0154233Y0296071D01*
X0154233Y0297070D02*
X0150802Y0297070D01*
X0150778Y0298068D02*
X0154233Y0298068D01*
X0154233Y0299067D02*
X0150602Y0299067D01*
X0150426Y0300065D02*
X0154233Y0300065D01*
X0154233Y0301064D02*
X0150130Y0301064D01*
X0149553Y0302062D02*
X0154233Y0302062D01*
X0154233Y0303061D02*
X0148977Y0303061D01*
X0148140Y0304059D02*
X0154233Y0304059D01*
X0154233Y0305058D02*
X0146950Y0305058D01*
X0145309Y0306056D02*
X0154233Y0306056D01*
X0154233Y0307055D02*
X0114976Y0307055D01*
X0114976Y0308053D02*
X0154233Y0308053D01*
X0154233Y0309052D02*
X0114976Y0309052D01*
X0114976Y0310050D02*
X0154233Y0310050D01*
X0160433Y0310050D02*
X0199690Y0310050D01*
X0199690Y0309052D02*
X0160433Y0309052D01*
X0160433Y0308053D02*
X0199690Y0308053D01*
X0199690Y0307055D02*
X0160433Y0307055D01*
X0160433Y0306056D02*
X0169358Y0306056D01*
X0168561Y0305766D02*
X0168561Y0305766D01*
X0171676Y0306900D01*
X0174991Y0306900D01*
X0178106Y0305766D01*
X0178106Y0305766D01*
X0180645Y0303635D01*
X0182303Y0300765D01*
X0182303Y0300765D01*
X0182878Y0297500D01*
X0182878Y0297500D01*
X0182303Y0294235D01*
X0182303Y0294235D01*
X0180645Y0291365D01*
X0180645Y0291365D01*
X0180645Y0291365D01*
X0178106Y0289234D01*
X0178106Y0289234D01*
X0174991Y0288100D01*
X0172463Y0288100D01*
X0171676Y0288100D01*
X0168561Y0289234D01*
X0168561Y0289234D01*
X0166021Y0291365D01*
X0166021Y0291365D01*
X0164364Y0294235D01*
X0164364Y0294235D01*
X0163788Y0297500D01*
X0163788Y0297500D01*
X0164364Y0300765D01*
X0164364Y0300765D01*
X0166021Y0303635D01*
X0166021Y0303635D01*
X0166021Y0303635D01*
X0168561Y0305766D01*
X0167717Y0305058D02*
X0160433Y0305058D01*
X0160433Y0304059D02*
X0166527Y0304059D01*
X0165690Y0303061D02*
X0160433Y0303061D01*
X0160433Y0302062D02*
X0165113Y0302062D01*
X0164537Y0301064D02*
X0160433Y0301064D01*
X0160433Y0300065D02*
X0164241Y0300065D01*
X0164065Y0299067D02*
X0160433Y0299067D01*
X0160433Y0298068D02*
X0163889Y0298068D01*
X0163864Y0297070D02*
X0160433Y0297070D01*
X0160433Y0296071D02*
X0164040Y0296071D01*
X0164216Y0295073D02*
X0160433Y0295073D01*
X0160433Y0294074D02*
X0164457Y0294074D01*
X0165033Y0293076D02*
X0160433Y0293076D01*
X0160433Y0292077D02*
X0165610Y0292077D01*
X0166362Y0291079D02*
X0160433Y0291079D01*
X0160433Y0290080D02*
X0167552Y0290080D01*
X0168979Y0289082D02*
X0160433Y0289082D01*
X0177688Y0289082D02*
X0238979Y0289082D01*
X0237552Y0290080D02*
X0179115Y0290080D01*
X0180305Y0291079D02*
X0236362Y0291079D01*
X0235610Y0292077D02*
X0181057Y0292077D01*
X0181633Y0293076D02*
X0235033Y0293076D01*
X0234457Y0294074D02*
X0182210Y0294074D01*
X0182450Y0295073D02*
X0234216Y0295073D01*
X0234040Y0296071D02*
X0182626Y0296071D01*
X0182802Y0297070D02*
X0233864Y0297070D01*
X0233889Y0298068D02*
X0182778Y0298068D01*
X0182602Y0299067D02*
X0234065Y0299067D01*
X0234241Y0300065D02*
X0182426Y0300065D01*
X0182130Y0301064D02*
X0234537Y0301064D01*
X0235113Y0302062D02*
X0216205Y0302062D01*
X0216976Y0303061D02*
X0235690Y0303061D01*
X0236021Y0303635D02*
X0236021Y0303635D01*
X0236021Y0303635D01*
X0236527Y0304059D02*
X0216976Y0304059D01*
X0216976Y0305058D02*
X0237717Y0305058D01*
X0239358Y0306056D02*
X0216976Y0306056D01*
X0200462Y0302062D02*
X0181553Y0302062D01*
X0180977Y0303061D02*
X0199690Y0303061D01*
X0199690Y0304059D02*
X0180140Y0304059D01*
X0178950Y0305058D02*
X0199690Y0305058D01*
X0199690Y0306056D02*
X0177309Y0306056D01*
X0200689Y0277100D02*
X0256233Y0277100D01*
X0256233Y0276101D02*
X0201287Y0276101D01*
X0201483Y0275103D02*
X0216481Y0275103D01*
X0215588Y0274104D02*
X0201372Y0274104D01*
X0200894Y0273105D02*
X0215183Y0273105D01*
X0215183Y0272107D02*
X0200383Y0272107D01*
X0200383Y0271108D02*
X0215500Y0271108D01*
X0216269Y0270110D02*
X0200383Y0270110D01*
X0200383Y0269111D02*
X0216283Y0269111D01*
X0216283Y0268113D02*
X0214289Y0268113D01*
X0213865Y0268537D02*
X0202801Y0268537D01*
X0201659Y0267394D01*
X0201659Y0257511D01*
X0202801Y0256369D01*
X0204417Y0256369D01*
X0213865Y0256369D01*
X0215008Y0257511D01*
X0215008Y0267394D01*
X0213865Y0268537D01*
X0215008Y0267114D02*
X0216283Y0267114D01*
X0216283Y0266116D02*
X0215008Y0266116D01*
X0215008Y0265117D02*
X0216283Y0265117D01*
X0216283Y0264119D02*
X0215008Y0264119D01*
X0215008Y0263120D02*
X0216283Y0263120D01*
X0216283Y0262122D02*
X0215008Y0262122D01*
X0215008Y0261123D02*
X0216283Y0261123D01*
X0216283Y0260125D02*
X0215008Y0260125D01*
X0215008Y0259126D02*
X0216283Y0259126D01*
X0216283Y0258128D02*
X0215008Y0258128D01*
X0214626Y0257129D02*
X0216283Y0257129D01*
X0216283Y0256131D02*
X0200383Y0256131D01*
X0200383Y0257129D02*
X0202041Y0257129D01*
X0201659Y0258128D02*
X0200383Y0258128D01*
X0200383Y0259126D02*
X0201659Y0259126D01*
X0201659Y0260125D02*
X0200383Y0260125D01*
X0200383Y0261123D02*
X0201659Y0261123D01*
X0201659Y0262122D02*
X0200383Y0262122D01*
X0200383Y0263120D02*
X0201659Y0263120D01*
X0201659Y0264119D02*
X0200383Y0264119D01*
X0200383Y0265117D02*
X0201659Y0265117D01*
X0201659Y0266116D02*
X0200383Y0266116D01*
X0200383Y0267114D02*
X0201659Y0267114D01*
X0202378Y0268113D02*
X0200383Y0268113D01*
X0196283Y0268113D02*
X0169142Y0268113D01*
X0169142Y0269111D02*
X0196283Y0269111D01*
X0196283Y0270110D02*
X0169032Y0270110D01*
X0168034Y0271108D02*
X0196283Y0271108D01*
X0196283Y0267114D02*
X0169142Y0267114D01*
X0169142Y0266116D02*
X0196283Y0266116D01*
X0196283Y0265117D02*
X0169142Y0265117D01*
X0169142Y0264119D02*
X0196283Y0264119D01*
X0196283Y0263120D02*
X0169142Y0263120D01*
X0169142Y0262122D02*
X0196283Y0262122D01*
X0196283Y0261123D02*
X0169142Y0261123D01*
X0169142Y0260125D02*
X0196283Y0260125D01*
X0196283Y0259126D02*
X0169142Y0259126D01*
X0169142Y0258128D02*
X0196283Y0258128D01*
X0196283Y0257129D02*
X0169142Y0257129D01*
X0169142Y0256131D02*
X0196283Y0256131D01*
X0196283Y0255132D02*
X0169142Y0255132D01*
X0168276Y0254134D02*
X0196283Y0254134D01*
X0200383Y0254134D02*
X0216283Y0254134D01*
X0216283Y0255132D02*
X0200383Y0255132D01*
X0200383Y0253135D02*
X0216283Y0253135D01*
X0216283Y0252137D02*
X0200383Y0252137D01*
X0200383Y0251138D02*
X0216283Y0251138D01*
X0216283Y0250140D02*
X0200383Y0250140D01*
X0200383Y0249141D02*
X0216283Y0249141D01*
X0216077Y0248143D02*
X0200383Y0248143D01*
X0200383Y0247144D02*
X0215078Y0247144D01*
X0214080Y0246146D02*
X0200383Y0246146D01*
X0200383Y0245147D02*
X0211526Y0245147D01*
X0210607Y0244149D02*
X0200383Y0244149D01*
X0200383Y0243150D02*
X0210193Y0243150D01*
X0210183Y0242152D02*
X0200383Y0242152D01*
X0200383Y0241153D02*
X0210482Y0241153D01*
X0211224Y0240155D02*
X0200383Y0240155D01*
X0215443Y0240155D02*
X0226283Y0240155D01*
X0226283Y0241153D02*
X0216185Y0241153D01*
X0216483Y0242152D02*
X0226283Y0242152D01*
X0224529Y0243150D02*
X0216883Y0243150D01*
X0217881Y0244149D02*
X0224133Y0244149D01*
X0224133Y0245147D02*
X0218880Y0245147D01*
X0219878Y0246146D02*
X0224133Y0246146D01*
X0224133Y0247144D02*
X0220383Y0247144D01*
X0220383Y0248143D02*
X0224133Y0248143D01*
X0224133Y0249141D02*
X0220383Y0249141D01*
X0220383Y0250140D02*
X0224133Y0250140D01*
X0224133Y0251138D02*
X0220383Y0251138D01*
X0220383Y0252137D02*
X0224816Y0252137D01*
X0226283Y0253135D02*
X0220383Y0253135D01*
X0220383Y0254134D02*
X0226283Y0254134D01*
X0226283Y0255132D02*
X0220383Y0255132D01*
X0220383Y0256131D02*
X0226283Y0256131D01*
X0226283Y0257129D02*
X0220383Y0257129D01*
X0220383Y0258128D02*
X0226283Y0258128D01*
X0226283Y0259126D02*
X0220383Y0259126D01*
X0220383Y0260125D02*
X0226283Y0260125D01*
X0227058Y0261123D02*
X0220383Y0261123D01*
X0220383Y0262122D02*
X0228056Y0262122D01*
X0230383Y0258128D02*
X0247525Y0258128D01*
X0247525Y0259126D02*
X0241859Y0259126D01*
X0242857Y0260125D02*
X0247525Y0260125D01*
X0247525Y0261123D02*
X0243856Y0261123D01*
X0244854Y0262122D02*
X0247525Y0262122D01*
X0247525Y0263120D02*
X0245383Y0263120D01*
X0245383Y0264119D02*
X0247525Y0264119D01*
X0247525Y0265117D02*
X0245383Y0265117D01*
X0245383Y0266116D02*
X0247525Y0266116D01*
X0247525Y0267114D02*
X0245383Y0267114D01*
X0245401Y0268113D02*
X0247525Y0268113D01*
X0247525Y0269111D02*
X0246168Y0269111D01*
X0246483Y0270110D02*
X0247634Y0270110D01*
X0248633Y0271108D02*
X0246483Y0271108D01*
X0246077Y0272107D02*
X0256233Y0272107D01*
X0256233Y0273105D02*
X0245183Y0273105D01*
X0241484Y0273105D02*
X0221483Y0273105D01*
X0221483Y0272107D02*
X0240589Y0272107D01*
X0240183Y0271108D02*
X0221166Y0271108D01*
X0220398Y0270110D02*
X0240183Y0270110D01*
X0240499Y0269111D02*
X0220383Y0269111D01*
X0220383Y0268113D02*
X0241266Y0268113D01*
X0241283Y0267114D02*
X0220383Y0267114D01*
X0220383Y0266116D02*
X0241283Y0266116D01*
X0241283Y0265117D02*
X0220383Y0265117D01*
X0220383Y0264119D02*
X0241053Y0264119D01*
X0240055Y0263120D02*
X0220383Y0263120D01*
X0221078Y0274104D02*
X0256233Y0274104D01*
X0256233Y0275103D02*
X0220186Y0275103D01*
X0230383Y0257129D02*
X0247525Y0257129D01*
X0247525Y0256131D02*
X0230383Y0256131D01*
X0230383Y0255132D02*
X0247525Y0255132D01*
X0248391Y0254134D02*
X0230383Y0254134D01*
X0230383Y0253135D02*
X0256233Y0253135D01*
X0256233Y0252137D02*
X0231851Y0252137D01*
X0232533Y0251138D02*
X0256233Y0251138D01*
X0256233Y0250140D02*
X0237648Y0250140D01*
X0238563Y0249141D02*
X0256233Y0249141D01*
X0256233Y0248143D02*
X0238977Y0248143D01*
X0238983Y0247144D02*
X0256233Y0247144D01*
X0256233Y0246146D02*
X0238682Y0246146D01*
X0237935Y0245147D02*
X0256233Y0245147D01*
X0256233Y0244149D02*
X0237883Y0244149D01*
X0237883Y0243150D02*
X0256233Y0243150D01*
X0256233Y0242152D02*
X0237883Y0242152D01*
X0233783Y0242152D02*
X0230383Y0242152D01*
X0230383Y0241153D02*
X0233783Y0241153D01*
X0233089Y0240155D02*
X0230383Y0240155D01*
X0232138Y0243150D02*
X0233783Y0243150D01*
X0233783Y0244149D02*
X0232533Y0244149D01*
X0232533Y0245147D02*
X0233731Y0245147D01*
X0232985Y0246146D02*
X0232533Y0246146D01*
X0232533Y0247144D02*
X0232683Y0247144D01*
X0232690Y0248143D02*
X0232533Y0248143D01*
X0232533Y0249141D02*
X0233104Y0249141D01*
X0232533Y0250140D02*
X0234018Y0250140D01*
X0228333Y0249500D02*
X0228333Y0245500D01*
X0247633Y0240155D02*
X0249033Y0240155D01*
X0262433Y0226175D02*
X0285296Y0226175D01*
X0285681Y0225177D02*
X0282102Y0225177D01*
X0278565Y0225177D02*
X0262433Y0225177D01*
X0262433Y0224178D02*
X0277619Y0224178D01*
X0277205Y0223180D02*
X0262433Y0223180D01*
X0262433Y0222181D02*
X0277183Y0222181D01*
X0272120Y0221183D02*
X0271725Y0221183D01*
X0268944Y0221183D02*
X0267121Y0221183D01*
X0268119Y0220184D02*
X0268234Y0220184D01*
X0264340Y0221183D02*
X0262433Y0221183D01*
X0262433Y0220184D02*
X0263630Y0220184D01*
X0263630Y0219186D02*
X0262433Y0219186D01*
X0262433Y0218187D02*
X0263630Y0218187D01*
X0263148Y0217189D02*
X0262433Y0217189D01*
X0262433Y0208202D02*
X0301690Y0208202D01*
X0301690Y0207204D02*
X0262433Y0207204D01*
X0262433Y0206205D02*
X0301690Y0206205D01*
X0301690Y0205207D02*
X0262433Y0205207D01*
X0262433Y0204208D02*
X0271775Y0204208D01*
X0270561Y0203766D02*
X0273676Y0204900D01*
X0276991Y0204900D01*
X0280106Y0203766D01*
X0280106Y0203766D01*
X0282645Y0201635D01*
X0282645Y0201635D01*
X0284303Y0198765D01*
X0284303Y0198765D01*
X0284878Y0195500D01*
X0284878Y0195500D01*
X0284303Y0192235D01*
X0284303Y0192235D01*
X0282645Y0189365D01*
X0282645Y0189365D01*
X0282645Y0189365D01*
X0280106Y0187234D01*
X0280106Y0187234D01*
X0276991Y0186100D01*
X0274463Y0186100D01*
X0273676Y0186100D01*
X0270561Y0187234D01*
X0270561Y0187234D01*
X0268021Y0189365D01*
X0266364Y0192235D01*
X0265788Y0195500D01*
X0266364Y0198765D01*
X0268021Y0201635D01*
X0268021Y0201635D01*
X0268021Y0201635D01*
X0270561Y0203766D01*
X0270561Y0203766D01*
X0269898Y0203210D02*
X0262433Y0203210D01*
X0262433Y0202211D02*
X0268708Y0202211D01*
X0267777Y0201213D02*
X0262433Y0201213D01*
X0262433Y0200214D02*
X0267201Y0200214D01*
X0266624Y0199216D02*
X0262433Y0199216D01*
X0262433Y0198217D02*
X0266267Y0198217D01*
X0266091Y0197219D02*
X0262433Y0197219D01*
X0262433Y0196220D02*
X0265915Y0196220D01*
X0265837Y0195222D02*
X0262433Y0195222D01*
X0262433Y0194223D02*
X0266013Y0194223D01*
X0266190Y0193225D02*
X0262433Y0193225D01*
X0262433Y0192226D02*
X0266369Y0192226D01*
X0266946Y0191228D02*
X0262433Y0191228D01*
X0262433Y0190229D02*
X0267522Y0190229D01*
X0268181Y0189231D02*
X0262433Y0189231D01*
X0262433Y0188232D02*
X0269371Y0188232D01*
X0270561Y0187234D02*
X0262433Y0187234D01*
X0262433Y0186235D02*
X0273305Y0186235D01*
X0277362Y0186235D02*
X0343305Y0186235D01*
X0343676Y0186100D02*
X0346203Y0186100D01*
X0346991Y0186100D01*
X0350106Y0187234D01*
X0352645Y0189365D01*
X0354303Y0192235D01*
X0354303Y0192235D01*
X0354878Y0195500D01*
X0354303Y0198765D01*
X0352645Y0201635D01*
X0352645Y0201635D01*
X0350106Y0203766D01*
X0350106Y0203766D01*
X0346991Y0204900D01*
X0343676Y0204900D01*
X0340561Y0203766D01*
X0340561Y0203766D01*
X0338021Y0201635D01*
X0336364Y0198765D01*
X0336364Y0198765D01*
X0335788Y0195500D01*
X0336364Y0192235D01*
X0338021Y0189365D01*
X0338021Y0189365D01*
X0340561Y0187234D01*
X0343676Y0186100D01*
X0340561Y0187234D02*
X0280105Y0187234D01*
X0281296Y0188232D02*
X0339371Y0188232D01*
X0340561Y0187234D02*
X0340561Y0187234D01*
X0338181Y0189231D02*
X0282485Y0189231D01*
X0283144Y0190229D02*
X0337522Y0190229D01*
X0336946Y0191228D02*
X0283721Y0191228D01*
X0284297Y0192226D02*
X0336369Y0192226D01*
X0336364Y0192235D02*
X0336364Y0192235D01*
X0336190Y0193225D02*
X0284477Y0193225D01*
X0284653Y0194223D02*
X0336013Y0194223D01*
X0335837Y0195222D02*
X0284829Y0195222D01*
X0284751Y0196220D02*
X0335915Y0196220D01*
X0335788Y0195500D02*
X0335788Y0195500D01*
X0336091Y0197219D02*
X0284575Y0197219D01*
X0284399Y0198217D02*
X0336267Y0198217D01*
X0336624Y0199216D02*
X0284042Y0199216D01*
X0283466Y0200214D02*
X0302310Y0200214D01*
X0301690Y0201213D02*
X0282889Y0201213D01*
X0281959Y0202211D02*
X0301690Y0202211D01*
X0301690Y0203210D02*
X0280769Y0203210D01*
X0278891Y0204208D02*
X0301690Y0204208D01*
X0318356Y0200214D02*
X0337201Y0200214D01*
X0337777Y0201213D02*
X0318976Y0201213D01*
X0318976Y0202211D02*
X0338708Y0202211D01*
X0338021Y0201635D02*
X0338021Y0201635D01*
X0338021Y0201635D01*
X0339898Y0203210D02*
X0318976Y0203210D01*
X0318976Y0204208D02*
X0341775Y0204208D01*
X0348891Y0204208D02*
X0358233Y0204208D01*
X0358233Y0203210D02*
X0350769Y0203210D01*
X0351959Y0202211D02*
X0358233Y0202211D01*
X0358233Y0201213D02*
X0352889Y0201213D01*
X0353466Y0200214D02*
X0358233Y0200214D01*
X0358233Y0199216D02*
X0354042Y0199216D01*
X0354303Y0198765D02*
X0354303Y0198765D01*
X0354399Y0198217D02*
X0358233Y0198217D01*
X0358233Y0197219D02*
X0354575Y0197219D01*
X0354751Y0196220D02*
X0358233Y0196220D01*
X0358233Y0195222D02*
X0354829Y0195222D01*
X0354878Y0195500D02*
X0354878Y0195500D01*
X0354653Y0194223D02*
X0358233Y0194223D01*
X0358233Y0193225D02*
X0354477Y0193225D01*
X0354297Y0192226D02*
X0358233Y0192226D01*
X0358233Y0191228D02*
X0353721Y0191228D01*
X0353144Y0190229D02*
X0358233Y0190229D01*
X0358233Y0189231D02*
X0352485Y0189231D01*
X0352645Y0189365D02*
X0352645Y0189365D01*
X0352645Y0189365D01*
X0351296Y0188232D02*
X0358233Y0188232D01*
X0358233Y0187234D02*
X0350105Y0187234D01*
X0350106Y0187234D02*
X0350106Y0187234D01*
X0347362Y0186235D02*
X0358233Y0186235D01*
X0358233Y0185237D02*
X0262433Y0185237D01*
X0262433Y0184238D02*
X0358233Y0184238D01*
X0358233Y0183239D02*
X0262433Y0183239D01*
X0262433Y0182241D02*
X0358233Y0182241D01*
X0358233Y0181242D02*
X0262433Y0181242D01*
X0262433Y0180244D02*
X0358233Y0180244D01*
X0358233Y0179245D02*
X0262433Y0179245D01*
X0262433Y0178247D02*
X0358233Y0178247D01*
X0358233Y0177248D02*
X0262433Y0177248D01*
X0262433Y0176250D02*
X0358233Y0176250D01*
X0346991Y0186100D02*
X0346991Y0186100D01*
X0358233Y0205207D02*
X0318976Y0205207D01*
X0318976Y0206205D02*
X0358233Y0206205D01*
X0358233Y0207204D02*
X0318976Y0207204D01*
X0318976Y0208202D02*
X0358233Y0208202D01*
X0358233Y0215192D02*
X0318976Y0215192D01*
X0318976Y0216190D02*
X0358233Y0216190D01*
X0358233Y0217189D02*
X0318976Y0217189D01*
X0318976Y0218187D02*
X0358233Y0218187D01*
X0358233Y0219186D02*
X0318976Y0219186D01*
X0318976Y0220184D02*
X0358233Y0220184D01*
X0358233Y0221183D02*
X0318976Y0221183D01*
X0318961Y0222181D02*
X0319063Y0222181D01*
X0321604Y0222181D02*
X0329063Y0222181D01*
X0327017Y0223180D02*
X0323650Y0223180D01*
X0324649Y0224178D02*
X0326018Y0224178D01*
X0325451Y0225177D02*
X0325216Y0225177D01*
X0331604Y0222181D02*
X0358233Y0222181D01*
X0358233Y0223180D02*
X0333650Y0223180D01*
X0334649Y0224178D02*
X0358233Y0224178D01*
X0358233Y0225177D02*
X0335216Y0225177D01*
X0335630Y0226175D02*
X0358233Y0226175D01*
X0358233Y0227174D02*
X0335733Y0227174D01*
X0335733Y0228172D02*
X0358233Y0228172D01*
X0358233Y0229171D02*
X0335486Y0229171D01*
X0335072Y0230170D02*
X0358233Y0230170D01*
X0358233Y0231168D02*
X0351900Y0231168D01*
X0352899Y0232167D02*
X0358233Y0232167D01*
X0358233Y0233165D02*
X0353898Y0233165D01*
X0354883Y0234164D02*
X0358233Y0234164D01*
X0358233Y0235162D02*
X0354950Y0235162D01*
X0355688Y0236161D02*
X0358233Y0236161D01*
X0358233Y0237159D02*
X0355983Y0237159D01*
X0355970Y0238158D02*
X0358233Y0238158D01*
X0358233Y0239156D02*
X0355557Y0239156D01*
X0354633Y0240155D02*
X0358233Y0240155D01*
X0358233Y0241153D02*
X0339883Y0241153D01*
X0339883Y0240155D02*
X0346033Y0240155D01*
X0345110Y0239156D02*
X0339883Y0239156D01*
X0338890Y0238158D02*
X0344696Y0238158D01*
X0344683Y0237159D02*
X0337892Y0237159D01*
X0335089Y0240155D02*
X0332383Y0240155D01*
X0332383Y0241153D02*
X0335783Y0241153D01*
X0335783Y0242152D02*
X0332383Y0242152D01*
X0334138Y0243150D02*
X0335783Y0243150D01*
X0335783Y0244149D02*
X0334533Y0244149D01*
X0334533Y0245147D02*
X0335731Y0245147D01*
X0334985Y0246146D02*
X0334533Y0246146D01*
X0334533Y0247144D02*
X0334683Y0247144D01*
X0334690Y0248143D02*
X0334533Y0248143D01*
X0334533Y0249141D02*
X0335104Y0249141D01*
X0334533Y0250140D02*
X0336018Y0250140D01*
X0334533Y0251138D02*
X0358233Y0251138D01*
X0358233Y0250140D02*
X0339648Y0250140D01*
X0340563Y0249141D02*
X0358233Y0249141D01*
X0358233Y0248143D02*
X0340977Y0248143D01*
X0340983Y0247144D02*
X0358233Y0247144D01*
X0358233Y0246146D02*
X0340682Y0246146D01*
X0339935Y0245147D02*
X0358233Y0245147D01*
X0358233Y0244149D02*
X0339883Y0244149D01*
X0339883Y0243150D02*
X0358233Y0243150D01*
X0358233Y0242152D02*
X0339883Y0242152D01*
X0330333Y0245500D02*
X0330333Y0249500D01*
X0328283Y0253135D02*
X0322383Y0253135D01*
X0322383Y0252137D02*
X0326816Y0252137D01*
X0326133Y0251138D02*
X0322383Y0251138D01*
X0322383Y0250140D02*
X0326133Y0250140D01*
X0326133Y0249141D02*
X0322383Y0249141D01*
X0322383Y0248143D02*
X0326133Y0248143D01*
X0326133Y0247144D02*
X0322383Y0247144D01*
X0321878Y0246146D02*
X0326133Y0246146D01*
X0326133Y0245147D02*
X0320880Y0245147D01*
X0319881Y0244149D02*
X0326133Y0244149D01*
X0326529Y0243150D02*
X0318883Y0243150D01*
X0318483Y0242152D02*
X0328283Y0242152D01*
X0328283Y0241153D02*
X0318185Y0241153D01*
X0317443Y0240155D02*
X0328283Y0240155D01*
X0333851Y0252137D02*
X0358233Y0252137D01*
X0358233Y0253135D02*
X0332383Y0253135D01*
X0332383Y0254134D02*
X0350391Y0254134D01*
X0349525Y0255132D02*
X0332383Y0255132D01*
X0332383Y0256131D02*
X0349525Y0256131D01*
X0349525Y0257129D02*
X0332383Y0257129D01*
X0332383Y0258128D02*
X0349525Y0258128D01*
X0349525Y0259126D02*
X0343859Y0259126D01*
X0344857Y0260125D02*
X0349525Y0260125D01*
X0349525Y0261123D02*
X0345856Y0261123D01*
X0346854Y0262122D02*
X0349525Y0262122D01*
X0349525Y0263120D02*
X0347383Y0263120D01*
X0347383Y0264119D02*
X0349525Y0264119D01*
X0349525Y0265117D02*
X0347383Y0265117D01*
X0347383Y0266116D02*
X0349525Y0266116D01*
X0349525Y0267114D02*
X0347383Y0267114D01*
X0347401Y0268113D02*
X0349525Y0268113D01*
X0349525Y0269111D02*
X0348168Y0269111D01*
X0348483Y0270110D02*
X0349634Y0270110D01*
X0350633Y0271108D02*
X0348483Y0271108D01*
X0348077Y0272107D02*
X0358233Y0272107D01*
X0358233Y0273105D02*
X0347183Y0273105D01*
X0343484Y0273105D02*
X0323483Y0273105D01*
X0323483Y0272107D02*
X0342589Y0272107D01*
X0342183Y0271108D02*
X0323166Y0271108D01*
X0322398Y0270110D02*
X0342183Y0270110D01*
X0342499Y0269111D02*
X0322383Y0269111D01*
X0322383Y0268113D02*
X0343266Y0268113D01*
X0343283Y0267114D02*
X0322383Y0267114D01*
X0322383Y0266116D02*
X0343283Y0266116D01*
X0343283Y0265117D02*
X0322383Y0265117D01*
X0322383Y0264119D02*
X0343053Y0264119D01*
X0342055Y0263120D02*
X0322383Y0263120D01*
X0322383Y0262122D02*
X0330056Y0262122D01*
X0329058Y0261123D02*
X0322383Y0261123D01*
X0322383Y0260125D02*
X0328283Y0260125D01*
X0328283Y0259126D02*
X0322383Y0259126D01*
X0322383Y0258128D02*
X0328283Y0258128D01*
X0328283Y0257129D02*
X0322383Y0257129D01*
X0322383Y0256131D02*
X0328283Y0256131D01*
X0328283Y0255132D02*
X0322383Y0255132D01*
X0322383Y0254134D02*
X0328283Y0254134D01*
X0318269Y0270110D02*
X0302383Y0270110D01*
X0302383Y0271108D02*
X0317500Y0271108D01*
X0317183Y0272107D02*
X0302383Y0272107D01*
X0302894Y0273105D02*
X0317183Y0273105D01*
X0317588Y0274104D02*
X0303372Y0274104D01*
X0303483Y0275103D02*
X0318481Y0275103D01*
X0322186Y0275103D02*
X0358233Y0275103D01*
X0358233Y0276101D02*
X0303287Y0276101D01*
X0302689Y0277100D02*
X0358233Y0277100D01*
X0358233Y0278098D02*
X0301085Y0278098D01*
X0282645Y0291365D02*
X0282645Y0291365D01*
X0282645Y0291365D01*
X0282305Y0291079D02*
X0338362Y0291079D01*
X0338021Y0291365D02*
X0340561Y0289234D01*
X0343676Y0288100D01*
X0346203Y0288100D01*
X0346991Y0288100D01*
X0350106Y0289234D01*
X0352645Y0291365D01*
X0354303Y0294235D01*
X0354303Y0294235D01*
X0354878Y0297500D01*
X0354303Y0300765D01*
X0352645Y0303635D01*
X0352645Y0303635D01*
X0350106Y0305766D01*
X0350106Y0305766D01*
X0346991Y0306900D01*
X0343676Y0306900D01*
X0340561Y0305766D01*
X0340561Y0305766D01*
X0338021Y0303635D01*
X0336364Y0300765D01*
X0336364Y0300765D01*
X0335788Y0297500D01*
X0336364Y0294235D01*
X0338021Y0291365D01*
X0338021Y0291365D01*
X0337610Y0292077D02*
X0283057Y0292077D01*
X0283633Y0293076D02*
X0337033Y0293076D01*
X0336457Y0294074D02*
X0284210Y0294074D01*
X0284450Y0295073D02*
X0336216Y0295073D01*
X0336364Y0294235D02*
X0336364Y0294235D01*
X0336040Y0296071D02*
X0284626Y0296071D01*
X0284802Y0297070D02*
X0335864Y0297070D01*
X0335788Y0297500D02*
X0335788Y0297500D01*
X0335889Y0298068D02*
X0284778Y0298068D01*
X0284878Y0297500D02*
X0284878Y0297500D01*
X0284602Y0299067D02*
X0336065Y0299067D01*
X0336241Y0300065D02*
X0284426Y0300065D01*
X0284303Y0300765D02*
X0284303Y0300765D01*
X0284130Y0301064D02*
X0336537Y0301064D01*
X0337113Y0302062D02*
X0318205Y0302062D01*
X0318976Y0303061D02*
X0337690Y0303061D01*
X0338021Y0303635D02*
X0338021Y0303635D01*
X0338021Y0303635D01*
X0338527Y0304059D02*
X0318976Y0304059D01*
X0318976Y0305058D02*
X0339717Y0305058D01*
X0341358Y0306056D02*
X0318976Y0306056D01*
X0318976Y0307055D02*
X0358233Y0307055D01*
X0358233Y0308053D02*
X0318976Y0308053D01*
X0318976Y0309052D02*
X0358233Y0309052D01*
X0358233Y0310050D02*
X0318976Y0310050D01*
X0301690Y0306056D02*
X0279309Y0306056D01*
X0280950Y0305058D02*
X0301690Y0305058D01*
X0301690Y0304059D02*
X0282140Y0304059D01*
X0282977Y0303061D02*
X0301690Y0303061D01*
X0302462Y0302062D02*
X0283553Y0302062D01*
X0281115Y0290080D02*
X0339552Y0290080D01*
X0340561Y0289234D02*
X0340561Y0289234D01*
X0340979Y0289082D02*
X0279688Y0289082D01*
X0280106Y0289234D02*
X0280106Y0289234D01*
X0323078Y0274104D02*
X0358233Y0274104D01*
X0346991Y0288100D02*
X0346991Y0288100D01*
X0349688Y0289082D02*
X0358233Y0289082D01*
X0358233Y0290080D02*
X0351115Y0290080D01*
X0350106Y0289234D02*
X0350106Y0289234D01*
X0352305Y0291079D02*
X0358233Y0291079D01*
X0358233Y0292077D02*
X0353057Y0292077D01*
X0352645Y0291365D02*
X0352645Y0291365D01*
X0352645Y0291365D01*
X0353633Y0293076D02*
X0358233Y0293076D01*
X0358233Y0294074D02*
X0354210Y0294074D01*
X0354450Y0295073D02*
X0358233Y0295073D01*
X0358233Y0296071D02*
X0354626Y0296071D01*
X0354802Y0297070D02*
X0358233Y0297070D01*
X0358233Y0298068D02*
X0354778Y0298068D01*
X0354878Y0297500D02*
X0354878Y0297500D01*
X0354602Y0299067D02*
X0358233Y0299067D01*
X0358233Y0300065D02*
X0354426Y0300065D01*
X0354303Y0300765D02*
X0354303Y0300765D01*
X0354130Y0301064D02*
X0358233Y0301064D01*
X0358233Y0302062D02*
X0353553Y0302062D01*
X0352977Y0303061D02*
X0358233Y0303061D01*
X0358233Y0304059D02*
X0352140Y0304059D01*
X0350950Y0305058D02*
X0358233Y0305058D01*
X0358233Y0306056D02*
X0349309Y0306056D01*
X0349633Y0240155D02*
X0351033Y0240155D01*
X0248106Y0187234D02*
X0248106Y0187234D01*
X0241305Y0186235D02*
X0175362Y0186235D01*
X0174991Y0186100D02*
X0178106Y0187234D01*
X0180645Y0189365D01*
X0182303Y0192235D01*
X0182878Y0195500D01*
X0182303Y0198765D01*
X0180645Y0201635D01*
X0180645Y0201635D01*
X0178106Y0203766D01*
X0178106Y0203766D01*
X0174991Y0204900D01*
X0171676Y0204900D01*
X0168561Y0203766D01*
X0168561Y0203766D01*
X0166021Y0201635D01*
X0164364Y0198765D01*
X0164364Y0198765D01*
X0163788Y0195500D01*
X0164364Y0192235D01*
X0166021Y0189365D01*
X0166021Y0189365D01*
X0168561Y0187234D01*
X0171676Y0186100D01*
X0172463Y0186100D01*
X0174991Y0186100D01*
X0178105Y0187234D02*
X0238561Y0187234D01*
X0238561Y0187234D01*
X0237371Y0188232D02*
X0179296Y0188232D01*
X0180485Y0189231D02*
X0236181Y0189231D01*
X0235522Y0190229D02*
X0181144Y0190229D01*
X0181721Y0191228D02*
X0234946Y0191228D01*
X0234369Y0192226D02*
X0182297Y0192226D01*
X0182303Y0192235D02*
X0182303Y0192235D01*
X0182477Y0193225D02*
X0234190Y0193225D01*
X0234364Y0192235D02*
X0234364Y0192235D01*
X0234013Y0194223D02*
X0182653Y0194223D01*
X0182829Y0195222D02*
X0233837Y0195222D01*
X0233915Y0196220D02*
X0182751Y0196220D01*
X0182575Y0197219D02*
X0234091Y0197219D01*
X0234267Y0198217D02*
X0182399Y0198217D01*
X0182042Y0199216D02*
X0234624Y0199216D01*
X0227063Y0222181D02*
X0219604Y0222181D01*
X0221650Y0223180D02*
X0225017Y0223180D01*
X0224018Y0224178D02*
X0222649Y0224178D01*
X0223216Y0225177D02*
X0223451Y0225177D01*
X0217063Y0222181D02*
X0216961Y0222181D01*
X0199690Y0208202D02*
X0160433Y0208202D01*
X0160433Y0207204D02*
X0199690Y0207204D01*
X0199690Y0206205D02*
X0160433Y0206205D01*
X0160433Y0205207D02*
X0199690Y0205207D01*
X0199690Y0204208D02*
X0176891Y0204208D01*
X0178769Y0203210D02*
X0199690Y0203210D01*
X0199690Y0202211D02*
X0179959Y0202211D01*
X0180889Y0201213D02*
X0199690Y0201213D01*
X0200310Y0200214D02*
X0181466Y0200214D01*
X0169775Y0204208D02*
X0160433Y0204208D01*
X0160433Y0203210D02*
X0167898Y0203210D01*
X0166708Y0202211D02*
X0160433Y0202211D01*
X0160433Y0201213D02*
X0165777Y0201213D01*
X0166021Y0201635D02*
X0166021Y0201635D01*
X0166021Y0201635D01*
X0165201Y0200214D02*
X0160433Y0200214D01*
X0160433Y0199216D02*
X0164624Y0199216D01*
X0164267Y0198217D02*
X0160433Y0198217D01*
X0160433Y0197219D02*
X0164091Y0197219D01*
X0163915Y0196220D02*
X0160433Y0196220D01*
X0160433Y0195222D02*
X0163837Y0195222D01*
X0163788Y0195500D02*
X0163788Y0195500D01*
X0164013Y0194223D02*
X0160433Y0194223D01*
X0160433Y0193225D02*
X0164190Y0193225D01*
X0164364Y0192235D02*
X0164364Y0192235D01*
X0164369Y0192226D02*
X0160433Y0192226D01*
X0160433Y0191228D02*
X0164946Y0191228D01*
X0165522Y0190229D02*
X0160433Y0190229D01*
X0160433Y0189231D02*
X0166181Y0189231D01*
X0167371Y0188232D02*
X0160433Y0188232D01*
X0160433Y0187234D02*
X0168561Y0187234D01*
X0168561Y0187234D01*
X0171305Y0186235D02*
X0160433Y0186235D01*
X0154233Y0186235D02*
X0143362Y0186235D01*
X0142991Y0186100D02*
X0146106Y0187234D01*
X0148645Y0189365D01*
X0150303Y0192235D01*
X0150878Y0195500D01*
X0150303Y0198765D01*
X0148645Y0201635D01*
X0148645Y0201635D01*
X0146106Y0203766D01*
X0146106Y0203766D01*
X0142991Y0204900D01*
X0139676Y0204900D01*
X0136561Y0203766D01*
X0136561Y0203766D01*
X0134021Y0201635D01*
X0132364Y0198765D01*
X0132364Y0198765D01*
X0131788Y0195500D01*
X0132364Y0192235D01*
X0134021Y0189365D01*
X0134021Y0189365D01*
X0136561Y0187234D01*
X0139676Y0186100D01*
X0140463Y0186100D01*
X0142991Y0186100D01*
X0142991Y0186100D01*
X0146105Y0187234D02*
X0154233Y0187234D01*
X0154233Y0188232D02*
X0147295Y0188232D01*
X0148485Y0189231D02*
X0154233Y0189231D01*
X0154233Y0190229D02*
X0149144Y0190229D01*
X0148645Y0189365D02*
X0148645Y0189365D01*
X0149721Y0191228D02*
X0154233Y0191228D01*
X0154233Y0192226D02*
X0150297Y0192226D01*
X0150477Y0193225D02*
X0154233Y0193225D01*
X0154233Y0194223D02*
X0150653Y0194223D01*
X0150829Y0195222D02*
X0154233Y0195222D01*
X0154233Y0196220D02*
X0150751Y0196220D01*
X0150878Y0195500D02*
X0150878Y0195500D01*
X0150575Y0197219D02*
X0154233Y0197219D01*
X0154233Y0198217D02*
X0150399Y0198217D01*
X0150303Y0198765D02*
X0150303Y0198765D01*
X0150042Y0199216D02*
X0154233Y0199216D01*
X0154233Y0200214D02*
X0149466Y0200214D01*
X0148889Y0201213D02*
X0154233Y0201213D01*
X0154233Y0202211D02*
X0147959Y0202211D01*
X0146769Y0203210D02*
X0154233Y0203210D01*
X0154233Y0204208D02*
X0144891Y0204208D01*
X0137775Y0204208D02*
X0114976Y0204208D01*
X0114976Y0203210D02*
X0135898Y0203210D01*
X0134708Y0202211D02*
X0114976Y0202211D01*
X0114976Y0201213D02*
X0133777Y0201213D01*
X0134021Y0201635D02*
X0134021Y0201635D01*
X0134021Y0201635D01*
X0133201Y0200214D02*
X0114356Y0200214D01*
X0114976Y0205207D02*
X0154233Y0205207D01*
X0154233Y0206205D02*
X0114976Y0206205D01*
X0114976Y0207204D02*
X0154233Y0207204D01*
X0154233Y0208202D02*
X0114976Y0208202D01*
X0132624Y0199216D02*
X0080042Y0199216D01*
X0080303Y0198765D02*
X0078645Y0201635D01*
X0078645Y0201635D01*
X0076106Y0203766D01*
X0076106Y0203766D01*
X0072991Y0204900D01*
X0069676Y0204900D01*
X0066561Y0203766D01*
X0066561Y0203766D01*
X0064021Y0201635D01*
X0062364Y0198765D01*
X0062364Y0198765D01*
X0061788Y0195500D01*
X0062364Y0192235D01*
X0064021Y0189365D01*
X0064021Y0189365D01*
X0066561Y0187234D01*
X0069676Y0186100D01*
X0072203Y0186100D01*
X0072991Y0186100D01*
X0076106Y0187234D01*
X0078645Y0189365D01*
X0080303Y0192235D01*
X0080303Y0192235D01*
X0080878Y0195500D01*
X0080303Y0198765D01*
X0080303Y0198765D01*
X0080399Y0198217D02*
X0132267Y0198217D01*
X0132091Y0197219D02*
X0080575Y0197219D01*
X0080751Y0196220D02*
X0131915Y0196220D01*
X0131788Y0195500D02*
X0131788Y0195500D01*
X0131837Y0195222D02*
X0080829Y0195222D01*
X0080878Y0195500D02*
X0080878Y0195500D01*
X0080653Y0194223D02*
X0132013Y0194223D01*
X0132190Y0193225D02*
X0080477Y0193225D01*
X0080297Y0192226D02*
X0132369Y0192226D01*
X0132364Y0192235D02*
X0132364Y0192235D01*
X0132946Y0191228D02*
X0079721Y0191228D01*
X0079144Y0190229D02*
X0133522Y0190229D01*
X0134181Y0189231D02*
X0078485Y0189231D01*
X0078645Y0189365D02*
X0078645Y0189365D01*
X0078645Y0189365D01*
X0077296Y0188232D02*
X0135371Y0188232D01*
X0136561Y0187234D02*
X0136561Y0187234D01*
X0076105Y0187234D01*
X0076106Y0187234D02*
X0076106Y0187234D01*
X0073362Y0186235D02*
X0139305Y0186235D01*
X0154233Y0185237D02*
X0058433Y0185237D01*
X0058433Y0186235D02*
X0069305Y0186235D01*
X0066561Y0187234D02*
X0058433Y0187234D01*
X0058433Y0188232D02*
X0065371Y0188232D01*
X0066561Y0187234D02*
X0066561Y0187234D01*
X0064181Y0189231D02*
X0058433Y0189231D01*
X0058433Y0190229D02*
X0063522Y0190229D01*
X0062946Y0191228D02*
X0058433Y0191228D01*
X0058433Y0192226D02*
X0062369Y0192226D01*
X0062364Y0192235D02*
X0062364Y0192235D01*
X0062190Y0193225D02*
X0058433Y0193225D01*
X0058433Y0194223D02*
X0062013Y0194223D01*
X0061837Y0195222D02*
X0058433Y0195222D01*
X0058433Y0196220D02*
X0061915Y0196220D01*
X0061788Y0195500D02*
X0061788Y0195500D01*
X0062091Y0197219D02*
X0058433Y0197219D01*
X0058433Y0198217D02*
X0062267Y0198217D01*
X0062624Y0199216D02*
X0058433Y0199216D01*
X0058433Y0200214D02*
X0063201Y0200214D01*
X0063777Y0201213D02*
X0058433Y0201213D01*
X0058433Y0202211D02*
X0064708Y0202211D01*
X0064021Y0201635D02*
X0064021Y0201635D01*
X0064021Y0201635D01*
X0065898Y0203210D02*
X0058433Y0203210D01*
X0058433Y0204208D02*
X0067775Y0204208D01*
X0074891Y0204208D02*
X0097690Y0204208D01*
X0097690Y0203210D02*
X0076769Y0203210D01*
X0077959Y0202211D02*
X0097690Y0202211D01*
X0097690Y0201213D02*
X0078889Y0201213D01*
X0079466Y0200214D02*
X0098310Y0200214D01*
X0097690Y0205207D02*
X0058433Y0205207D01*
X0058433Y0206205D02*
X0097690Y0206205D01*
X0097690Y0207204D02*
X0058433Y0207204D01*
X0058433Y0208202D02*
X0097690Y0208202D01*
X0085833Y0227174D02*
X0058433Y0227174D01*
X0058433Y0228172D02*
X0081175Y0228172D01*
X0081148Y0228000D02*
X0085833Y0228000D01*
X0085833Y0232686D01*
X0085116Y0232572D01*
X0084337Y0232319D01*
X0083608Y0231947D01*
X0082946Y0231466D01*
X0082367Y0230888D01*
X0081886Y0230225D01*
X0081514Y0229496D01*
X0081261Y0228718D01*
X0081148Y0228000D01*
X0081409Y0229171D02*
X0058433Y0229171D01*
X0058433Y0230170D02*
X0081857Y0230170D01*
X0082647Y0231168D02*
X0058433Y0231168D01*
X0058433Y0232167D02*
X0084038Y0232167D01*
X0085833Y0232167D02*
X0086833Y0232167D01*
X0086833Y0231168D02*
X0085833Y0231168D01*
X0085833Y0230170D02*
X0086833Y0230170D01*
X0086833Y0229171D02*
X0085833Y0229171D01*
X0085833Y0228172D02*
X0086833Y0228172D01*
X0081681Y0225177D02*
X0078102Y0225177D01*
X0081296Y0226175D02*
X0058433Y0226175D01*
X0058433Y0225177D02*
X0074565Y0225177D01*
X0073619Y0224178D02*
X0058433Y0224178D01*
X0058433Y0223180D02*
X0073205Y0223180D01*
X0073183Y0222181D02*
X0058433Y0222181D01*
X0058433Y0221183D02*
X0060340Y0221183D01*
X0059630Y0220184D02*
X0058433Y0220184D01*
X0058433Y0219186D02*
X0059630Y0219186D01*
X0059630Y0218187D02*
X0058433Y0218187D01*
X0058433Y0217189D02*
X0059148Y0217189D01*
X0063121Y0221183D02*
X0064944Y0221183D01*
X0064234Y0220184D02*
X0064119Y0220184D01*
X0067725Y0221183D02*
X0068120Y0221183D01*
X0058433Y0233165D02*
X0089283Y0233165D01*
X0089283Y0232167D02*
X0088629Y0232167D01*
X0089283Y0234164D02*
X0058433Y0234164D01*
X0058433Y0235162D02*
X0089283Y0235162D01*
X0089283Y0236161D02*
X0058433Y0236161D01*
X0058433Y0237159D02*
X0089283Y0237159D01*
X0089283Y0238158D02*
X0058433Y0238158D01*
X0058433Y0239156D02*
X0089283Y0239156D01*
X0089224Y0240155D02*
X0058433Y0240155D01*
X0058433Y0241153D02*
X0088482Y0241153D01*
X0088183Y0242152D02*
X0058433Y0242152D01*
X0058433Y0243150D02*
X0088193Y0243150D01*
X0088607Y0244149D02*
X0058433Y0244149D01*
X0058433Y0245147D02*
X0079231Y0245147D01*
X0078485Y0246146D02*
X0058433Y0246146D01*
X0058433Y0247144D02*
X0078183Y0247144D01*
X0078190Y0248143D02*
X0058433Y0248143D01*
X0058433Y0249141D02*
X0078604Y0249141D01*
X0079518Y0250140D02*
X0058433Y0250140D01*
X0058433Y0251138D02*
X0094283Y0251138D01*
X0094283Y0250140D02*
X0083148Y0250140D01*
X0083435Y0245147D02*
X0089526Y0245147D01*
X0094283Y0252137D02*
X0058433Y0252137D01*
X0058433Y0253135D02*
X0094283Y0253135D01*
X0094283Y0254134D02*
X0066276Y0254134D01*
X0069676Y0288100D02*
X0072203Y0288100D01*
X0072991Y0288100D01*
X0076106Y0289234D01*
X0078645Y0291365D01*
X0080303Y0294235D01*
X0080303Y0294235D01*
X0080878Y0297500D01*
X0080303Y0300765D01*
X0078645Y0303635D01*
X0078645Y0303635D01*
X0076106Y0305766D01*
X0076106Y0305766D01*
X0072991Y0306900D01*
X0069676Y0306900D01*
X0066561Y0305766D01*
X0066561Y0305766D01*
X0064021Y0303635D01*
X0062364Y0300765D01*
X0062364Y0300765D01*
X0061788Y0297500D01*
X0062364Y0294235D01*
X0064021Y0291365D01*
X0064021Y0291365D01*
X0066561Y0289234D01*
X0069676Y0288100D01*
X0066979Y0289082D02*
X0058433Y0289082D01*
X0058433Y0290080D02*
X0065552Y0290080D01*
X0066561Y0289234D02*
X0066561Y0289234D01*
X0064362Y0291079D02*
X0058433Y0291079D01*
X0058433Y0292077D02*
X0063610Y0292077D01*
X0063033Y0293076D02*
X0058433Y0293076D01*
X0058433Y0294074D02*
X0062457Y0294074D01*
X0062364Y0294235D02*
X0062364Y0294235D01*
X0062216Y0295073D02*
X0058433Y0295073D01*
X0058433Y0296071D02*
X0062040Y0296071D01*
X0061864Y0297070D02*
X0058433Y0297070D01*
X0058433Y0298068D02*
X0061889Y0298068D01*
X0061788Y0297500D02*
X0061788Y0297500D01*
X0062065Y0299067D02*
X0058433Y0299067D01*
X0058433Y0300065D02*
X0062241Y0300065D01*
X0062537Y0301064D02*
X0058433Y0301064D01*
X0058433Y0302062D02*
X0063113Y0302062D01*
X0063690Y0303061D02*
X0058433Y0303061D01*
X0058433Y0304059D02*
X0064527Y0304059D01*
X0064021Y0303635D02*
X0064021Y0303635D01*
X0064021Y0303635D01*
X0065717Y0305058D02*
X0058433Y0305058D01*
X0058433Y0306056D02*
X0067358Y0306056D01*
X0075309Y0306056D02*
X0097690Y0306056D01*
X0097690Y0305058D02*
X0076950Y0305058D01*
X0078140Y0304059D02*
X0097690Y0304059D01*
X0097690Y0303061D02*
X0078977Y0303061D01*
X0079553Y0302062D02*
X0098462Y0302062D01*
X0097690Y0307055D02*
X0058433Y0307055D01*
X0058433Y0308053D02*
X0097690Y0308053D01*
X0097690Y0309052D02*
X0058433Y0309052D01*
X0058433Y0310050D02*
X0097690Y0310050D01*
X0114205Y0302062D02*
X0133113Y0302062D01*
X0132537Y0301064D02*
X0080130Y0301064D01*
X0080303Y0300765D02*
X0080303Y0300765D01*
X0080426Y0300065D02*
X0132241Y0300065D01*
X0132065Y0299067D02*
X0080602Y0299067D01*
X0080778Y0298068D02*
X0131889Y0298068D01*
X0131788Y0297500D02*
X0131788Y0297500D01*
X0131864Y0297070D02*
X0080802Y0297070D01*
X0080878Y0297500D02*
X0080878Y0297500D01*
X0080626Y0296071D02*
X0132040Y0296071D01*
X0132216Y0295073D02*
X0080450Y0295073D01*
X0080210Y0294074D02*
X0132457Y0294074D01*
X0132364Y0294235D02*
X0132364Y0294235D01*
X0133033Y0293076D02*
X0079633Y0293076D01*
X0079057Y0292077D02*
X0133610Y0292077D01*
X0134362Y0291079D02*
X0078305Y0291079D01*
X0078645Y0291365D02*
X0078645Y0291365D01*
X0078645Y0291365D01*
X0077115Y0290080D02*
X0135552Y0290080D01*
X0136561Y0289234D02*
X0136561Y0289234D01*
X0136979Y0289082D02*
X0075688Y0289082D01*
X0076106Y0289234D02*
X0076106Y0289234D01*
X0072991Y0288100D02*
X0072991Y0288100D01*
X0114976Y0303061D02*
X0133690Y0303061D01*
X0134021Y0303635D02*
X0134021Y0303635D01*
X0134021Y0303635D01*
X0134527Y0304059D02*
X0114976Y0304059D01*
X0114976Y0305058D02*
X0135717Y0305058D01*
X0137358Y0306056D02*
X0114976Y0306056D01*
X0165121Y0221183D02*
X0166944Y0221183D01*
X0166234Y0220184D02*
X0166119Y0220184D01*
X0169725Y0221183D02*
X0170120Y0221183D01*
X0178106Y0187234D02*
X0178106Y0187234D01*
X0154233Y0184238D02*
X0058433Y0184238D01*
X0058433Y0183239D02*
X0154233Y0183239D01*
X0154233Y0182241D02*
X0058433Y0182241D01*
X0058433Y0181242D02*
X0154233Y0181242D01*
X0154233Y0180244D02*
X0058433Y0180244D01*
X0058433Y0179245D02*
X0154233Y0179245D01*
X0154233Y0178247D02*
X0058433Y0178247D01*
X0058433Y0177248D02*
X0154233Y0177248D01*
X0154233Y0176250D02*
X0058433Y0176250D01*
X0058433Y0175251D02*
X0094130Y0175251D01*
X0093443Y0174253D02*
X0058433Y0174253D01*
X0058433Y0173254D02*
X0093183Y0173254D01*
X0093232Y0172256D02*
X0058433Y0172256D01*
X0058433Y0171257D02*
X0093646Y0171257D01*
X0094283Y0170259D02*
X0058433Y0170259D01*
X0058433Y0169260D02*
X0094283Y0169260D01*
X0094283Y0168262D02*
X0066880Y0168262D01*
X0067142Y0167263D02*
X0094283Y0167263D01*
X0094283Y0166265D02*
X0067142Y0166265D01*
X0067142Y0165266D02*
X0094283Y0165266D01*
X0094283Y0164268D02*
X0067142Y0164268D01*
X0067142Y0163269D02*
X0094283Y0163269D01*
X0094283Y0162271D02*
X0067142Y0162271D01*
X0067142Y0161272D02*
X0094283Y0161272D01*
X0094283Y0160274D02*
X0067142Y0160274D01*
X0067142Y0159275D02*
X0094283Y0159275D01*
X0094283Y0158277D02*
X0067142Y0158277D01*
X0067142Y0157278D02*
X0094283Y0157278D01*
X0094283Y0156280D02*
X0067142Y0156280D01*
X0067142Y0155281D02*
X0094283Y0155281D01*
X0094283Y0154283D02*
X0067142Y0154283D01*
X0067142Y0153284D02*
X0094283Y0153284D01*
X0094283Y0152286D02*
X0066428Y0152286D01*
X0058433Y0151287D02*
X0094283Y0151287D01*
X0094283Y0150289D02*
X0058433Y0150289D01*
X0058433Y0149290D02*
X0094283Y0149290D01*
X0094283Y0148292D02*
X0082825Y0148292D01*
X0079841Y0148292D02*
X0058433Y0148292D01*
X0058433Y0147293D02*
X0078672Y0147293D01*
X0078253Y0146295D02*
X0058433Y0146295D01*
X0058433Y0145296D02*
X0078183Y0145296D01*
X0078422Y0144298D02*
X0058433Y0144298D01*
X0058433Y0143299D02*
X0079080Y0143299D01*
X0083587Y0143299D02*
X0089859Y0143299D01*
X0088679Y0142301D02*
X0058433Y0142301D01*
X0058433Y0141302D02*
X0088256Y0141302D01*
X0088183Y0140303D02*
X0058433Y0140303D01*
X0058433Y0139305D02*
X0088419Y0139305D01*
X0089072Y0138306D02*
X0058433Y0138306D01*
X0058433Y0137308D02*
X0089283Y0137308D01*
X0089283Y0136309D02*
X0058433Y0136309D01*
X0058433Y0135311D02*
X0089283Y0135311D01*
X0089283Y0134312D02*
X0058433Y0134312D01*
X0058433Y0133314D02*
X0089283Y0133314D01*
X0089283Y0132315D02*
X0058433Y0132315D01*
X0058433Y0131317D02*
X0089283Y0131317D01*
X0089283Y0130318D02*
X0088331Y0130318D01*
X0086833Y0130318D02*
X0085833Y0130318D01*
X0085833Y0130686D02*
X0085116Y0130572D01*
X0084337Y0130319D01*
X0083608Y0129947D01*
X0082946Y0129466D01*
X0082367Y0128888D01*
X0081886Y0128225D01*
X0081514Y0127496D01*
X0081261Y0126718D01*
X0081148Y0126000D01*
X0085833Y0126000D01*
X0085833Y0130686D01*
X0085833Y0129320D02*
X0086833Y0129320D01*
X0086833Y0128321D02*
X0085833Y0128321D01*
X0085833Y0127323D02*
X0086833Y0127323D01*
X0086833Y0126324D02*
X0085833Y0126324D01*
X0085833Y0125326D02*
X0058433Y0125326D01*
X0058433Y0126324D02*
X0081199Y0126324D01*
X0081458Y0127323D02*
X0058433Y0127323D01*
X0058433Y0128321D02*
X0081956Y0128321D01*
X0082799Y0129320D02*
X0058433Y0129320D01*
X0058433Y0130318D02*
X0084336Y0130318D01*
X0081254Y0124327D02*
X0058433Y0124327D01*
X0058433Y0123329D02*
X0074931Y0123329D01*
X0073709Y0122330D02*
X0058433Y0122330D01*
X0058433Y0121332D02*
X0073268Y0121332D01*
X0073183Y0120333D02*
X0058433Y0120333D01*
X0058433Y0119335D02*
X0060492Y0119335D01*
X0059630Y0118336D02*
X0058433Y0118336D01*
X0058433Y0117338D02*
X0059630Y0117338D01*
X0059630Y0116339D02*
X0058433Y0116339D01*
X0058433Y0115341D02*
X0059300Y0115341D01*
X0062969Y0119335D02*
X0065095Y0119335D01*
X0064234Y0118336D02*
X0063967Y0118336D01*
X0067573Y0119335D02*
X0068348Y0119335D01*
X0070907Y0119335D02*
X0070969Y0119335D01*
X0077735Y0123329D02*
X0081604Y0123329D01*
X0098383Y0138306D02*
X0109072Y0138306D01*
X0108419Y0139305D02*
X0098383Y0139305D01*
X0098383Y0140303D02*
X0108183Y0140303D01*
X0108256Y0141302D02*
X0098383Y0141302D01*
X0098383Y0142301D02*
X0108679Y0142301D01*
X0109859Y0143299D02*
X0098383Y0143299D01*
X0098383Y0144298D02*
X0112232Y0144298D01*
X0113230Y0145296D02*
X0098383Y0145296D01*
X0098383Y0146295D02*
X0114229Y0146295D01*
X0114283Y0147293D02*
X0098383Y0147293D01*
X0098383Y0148292D02*
X0114283Y0148292D01*
X0114283Y0149290D02*
X0098383Y0149290D01*
X0098383Y0150289D02*
X0114283Y0150289D01*
X0114283Y0151287D02*
X0098383Y0151287D01*
X0098383Y0152286D02*
X0114283Y0152286D01*
X0114283Y0153284D02*
X0098383Y0153284D01*
X0098383Y0154283D02*
X0114283Y0154283D01*
X0114283Y0155281D02*
X0112778Y0155281D01*
X0113008Y0155511D02*
X0113008Y0165394D01*
X0111865Y0166537D01*
X0100801Y0166537D01*
X0099659Y0165394D01*
X0099659Y0155511D01*
X0100801Y0154369D01*
X0102417Y0154369D01*
X0111865Y0154369D01*
X0113008Y0155511D01*
X0113008Y0156280D02*
X0114283Y0156280D01*
X0114283Y0157278D02*
X0113008Y0157278D01*
X0113008Y0158277D02*
X0114283Y0158277D01*
X0114283Y0159275D02*
X0113008Y0159275D01*
X0113008Y0160274D02*
X0114283Y0160274D01*
X0114283Y0161272D02*
X0113008Y0161272D01*
X0113008Y0162271D02*
X0114283Y0162271D01*
X0114283Y0163269D02*
X0113008Y0163269D01*
X0113008Y0164268D02*
X0114283Y0164268D01*
X0114283Y0165266D02*
X0113008Y0165266D01*
X0112137Y0166265D02*
X0114283Y0166265D01*
X0114283Y0167263D02*
X0098383Y0167263D01*
X0098383Y0166265D02*
X0100529Y0166265D01*
X0099659Y0165266D02*
X0098383Y0165266D01*
X0098383Y0164268D02*
X0099659Y0164268D01*
X0099659Y0163269D02*
X0098383Y0163269D01*
X0098383Y0162271D02*
X0099659Y0162271D01*
X0099659Y0161272D02*
X0098383Y0161272D01*
X0098383Y0160274D02*
X0099659Y0160274D01*
X0099659Y0159275D02*
X0098383Y0159275D01*
X0098383Y0158277D02*
X0099659Y0158277D01*
X0099659Y0157278D02*
X0098383Y0157278D01*
X0098383Y0156280D02*
X0099659Y0156280D01*
X0099889Y0155281D02*
X0098383Y0155281D01*
X0098383Y0168262D02*
X0114117Y0168262D01*
X0113437Y0169260D02*
X0098383Y0169260D01*
X0098383Y0170259D02*
X0113183Y0170259D01*
X0113237Y0171257D02*
X0099021Y0171257D01*
X0099435Y0172256D02*
X0113651Y0172256D01*
X0114752Y0173254D02*
X0099483Y0173254D01*
X0099224Y0174253D02*
X0154233Y0174253D01*
X0154233Y0175251D02*
X0098537Y0175251D01*
X0117915Y0173254D02*
X0154233Y0173254D01*
X0154233Y0172256D02*
X0119016Y0172256D01*
X0119429Y0171257D02*
X0139759Y0171257D01*
X0138652Y0170259D02*
X0119483Y0170259D01*
X0119229Y0169260D02*
X0138239Y0169260D01*
X0138183Y0168262D02*
X0118550Y0168262D01*
X0118383Y0167263D02*
X0138436Y0167263D01*
X0139114Y0166265D02*
X0118383Y0166265D01*
X0118383Y0165266D02*
X0139283Y0165266D01*
X0139283Y0164268D02*
X0118383Y0164268D01*
X0118383Y0163269D02*
X0139283Y0163269D01*
X0139205Y0162271D02*
X0118383Y0162271D01*
X0118383Y0161272D02*
X0138206Y0161272D01*
X0141009Y0158277D02*
X0145525Y0158277D01*
X0145525Y0159275D02*
X0142008Y0159275D01*
X0143006Y0160274D02*
X0145525Y0160274D01*
X0145525Y0161272D02*
X0143383Y0161272D01*
X0143383Y0162271D02*
X0145525Y0162271D01*
X0145525Y0163269D02*
X0143383Y0163269D01*
X0143383Y0164268D02*
X0145525Y0164268D01*
X0145525Y0165266D02*
X0143383Y0165266D01*
X0143553Y0166265D02*
X0145525Y0166265D01*
X0145525Y0167263D02*
X0144231Y0167263D01*
X0144483Y0168262D02*
X0145786Y0168262D01*
X0144428Y0169260D02*
X0154233Y0169260D01*
X0154233Y0170259D02*
X0144014Y0170259D01*
X0142908Y0171257D02*
X0154233Y0171257D01*
X0145525Y0157278D02*
X0140011Y0157278D01*
X0145525Y0156280D02*
X0128383Y0156280D01*
X0128383Y0155281D02*
X0145525Y0155281D01*
X0145525Y0154283D02*
X0128383Y0154283D01*
X0128383Y0153284D02*
X0145525Y0153284D01*
X0146239Y0152286D02*
X0128383Y0152286D01*
X0124283Y0152286D02*
X0118383Y0152286D01*
X0118383Y0153284D02*
X0124283Y0153284D01*
X0124283Y0154283D02*
X0118383Y0154283D01*
X0118383Y0155281D02*
X0124283Y0155281D01*
X0124283Y0156280D02*
X0118383Y0156280D01*
X0118383Y0157278D02*
X0124283Y0157278D01*
X0124283Y0158277D02*
X0118383Y0158277D01*
X0118383Y0159275D02*
X0125209Y0159275D01*
X0126208Y0160274D02*
X0118383Y0160274D01*
X0118383Y0151287D02*
X0124283Y0151287D01*
X0122968Y0150289D02*
X0118383Y0150289D01*
X0118383Y0149290D02*
X0122133Y0149290D01*
X0122133Y0148292D02*
X0118383Y0148292D01*
X0118383Y0147293D02*
X0122133Y0147293D01*
X0122133Y0146295D02*
X0118383Y0146295D01*
X0118383Y0145296D02*
X0122133Y0145296D01*
X0122133Y0144298D02*
X0118030Y0144298D01*
X0117031Y0143299D02*
X0122133Y0143299D01*
X0122133Y0142301D02*
X0116033Y0142301D01*
X0115034Y0141302D02*
X0122377Y0141302D01*
X0124283Y0140303D02*
X0114483Y0140303D01*
X0114248Y0139305D02*
X0124283Y0139305D01*
X0124283Y0138306D02*
X0113595Y0138306D01*
X0126333Y0143500D02*
X0126333Y0147500D01*
X0130533Y0147293D02*
X0131172Y0147293D01*
X0130753Y0146295D02*
X0130533Y0146295D01*
X0130533Y0145296D02*
X0130683Y0145296D01*
X0130533Y0144298D02*
X0130922Y0144298D01*
X0130533Y0143299D02*
X0131580Y0143299D01*
X0131783Y0142301D02*
X0130533Y0142301D01*
X0130289Y0141302D02*
X0131783Y0141302D01*
X0131783Y0140303D02*
X0128383Y0140303D01*
X0128383Y0139305D02*
X0131783Y0139305D01*
X0131241Y0138306D02*
X0128383Y0138306D01*
X0121388Y0123329D02*
X0121279Y0123329D01*
X0120800Y0122330D02*
X0121866Y0122330D01*
X0122865Y0121332D02*
X0119802Y0121332D01*
X0117971Y0120333D02*
X0124696Y0120333D01*
X0148052Y0129320D02*
X0154233Y0129320D01*
X0154233Y0130318D02*
X0149051Y0130318D01*
X0150049Y0131317D02*
X0154233Y0131317D01*
X0154233Y0132315D02*
X0150883Y0132315D01*
X0151102Y0133314D02*
X0154233Y0133314D01*
X0154233Y0134312D02*
X0151751Y0134312D01*
X0151983Y0135311D02*
X0154233Y0135311D01*
X0154233Y0136309D02*
X0151908Y0136309D01*
X0151480Y0137308D02*
X0154233Y0137308D01*
X0154233Y0138306D02*
X0150289Y0138306D01*
X0147377Y0138306D02*
X0145289Y0138306D01*
X0160433Y0106354D02*
X0199690Y0106354D01*
X0199690Y0105356D02*
X0160433Y0105356D01*
X0160433Y0104357D02*
X0199690Y0104357D01*
X0199690Y0103359D02*
X0160433Y0103359D01*
X0138888Y0084387D02*
X0073779Y0084387D01*
X0072991Y0084100D02*
X0076106Y0085234D01*
X0078645Y0087365D01*
X0080303Y0090235D01*
X0080303Y0090235D01*
X0080878Y0093500D01*
X0080303Y0096765D01*
X0078645Y0099635D01*
X0078645Y0099635D01*
X0076106Y0101766D01*
X0076106Y0101766D01*
X0072991Y0102900D01*
X0069676Y0102900D01*
X0066561Y0101766D01*
X0066561Y0101766D01*
X0064021Y0099635D01*
X0062364Y0096765D01*
X0062364Y0096765D01*
X0061788Y0093500D01*
X0062364Y0090235D01*
X0064021Y0087365D01*
X0064021Y0087365D01*
X0066561Y0085234D01*
X0069676Y0084100D01*
X0072203Y0084100D01*
X0072991Y0084100D01*
X0072991Y0084100D01*
X0076106Y0085234D02*
X0076106Y0085234D01*
X0076286Y0085385D02*
X0136380Y0085385D01*
X0135190Y0086384D02*
X0077476Y0086384D01*
X0078645Y0087365D02*
X0078645Y0087365D01*
X0078645Y0087365D01*
X0078655Y0087382D02*
X0134011Y0087382D01*
X0133435Y0088381D02*
X0079232Y0088381D01*
X0079808Y0089379D02*
X0132858Y0089379D01*
X0132339Y0090378D02*
X0080328Y0090378D01*
X0080504Y0091376D02*
X0132163Y0091376D01*
X0131987Y0092375D02*
X0080680Y0092375D01*
X0080856Y0093373D02*
X0131811Y0093373D01*
X0131942Y0094372D02*
X0080725Y0094372D01*
X0080878Y0093500D02*
X0080878Y0093500D01*
X0080549Y0095370D02*
X0132118Y0095370D01*
X0132294Y0096369D02*
X0080372Y0096369D01*
X0080303Y0096765D02*
X0080303Y0096765D01*
X0079955Y0097368D02*
X0132712Y0097368D01*
X0117548Y0071406D02*
X0154233Y0071406D01*
X0160433Y0028470D02*
X0186803Y0028470D01*
X0184953Y0027472D02*
X0160433Y0027472D01*
X0160433Y0026473D02*
X0184066Y0026473D01*
X0183507Y0025475D02*
X0160433Y0025475D01*
X0160433Y0024476D02*
X0183223Y0024476D01*
X0219548Y0071406D02*
X0256233Y0071406D01*
X0262433Y0084387D02*
X0272888Y0084387D01*
X0273676Y0084100D02*
X0274463Y0084100D01*
X0276991Y0084100D01*
X0280106Y0085234D01*
X0282645Y0087365D01*
X0284303Y0090235D01*
X0284303Y0090235D01*
X0284878Y0093500D01*
X0284303Y0096765D01*
X0282645Y0099635D01*
X0282645Y0099635D01*
X0280106Y0101766D01*
X0280106Y0101766D01*
X0276991Y0102900D01*
X0273676Y0102900D01*
X0270561Y0101766D01*
X0268021Y0099635D01*
X0266364Y0096765D01*
X0265788Y0093500D01*
X0266364Y0090235D01*
X0268021Y0087365D01*
X0268021Y0087365D01*
X0270561Y0085234D01*
X0273676Y0084100D01*
X0270561Y0085234D02*
X0270561Y0085234D01*
X0270380Y0085385D02*
X0262433Y0085385D01*
X0262433Y0086384D02*
X0269190Y0086384D01*
X0268011Y0087382D02*
X0262433Y0087382D01*
X0262433Y0088381D02*
X0267435Y0088381D01*
X0266858Y0089379D02*
X0262433Y0089379D01*
X0262433Y0090378D02*
X0266339Y0090378D01*
X0266364Y0090235D02*
X0266364Y0090235D01*
X0266163Y0091376D02*
X0262433Y0091376D01*
X0262433Y0092375D02*
X0265987Y0092375D01*
X0265811Y0093373D02*
X0262433Y0093373D01*
X0262433Y0094372D02*
X0265942Y0094372D01*
X0265788Y0093500D02*
X0265788Y0093500D01*
X0266118Y0095370D02*
X0262433Y0095370D01*
X0262433Y0096369D02*
X0266294Y0096369D01*
X0266712Y0097368D02*
X0262433Y0097368D01*
X0262433Y0098366D02*
X0267289Y0098366D01*
X0267865Y0099365D02*
X0262433Y0099365D01*
X0262433Y0100363D02*
X0268889Y0100363D01*
X0268021Y0099635D02*
X0268021Y0099635D01*
X0270079Y0101362D02*
X0262433Y0101362D01*
X0262433Y0102360D02*
X0272192Y0102360D01*
X0273676Y0102900D02*
X0273676Y0102900D01*
X0278474Y0102360D02*
X0301690Y0102360D01*
X0301690Y0101362D02*
X0280588Y0101362D01*
X0281778Y0100363D02*
X0301690Y0100363D01*
X0301690Y0099365D02*
X0282802Y0099365D01*
X0283378Y0098366D02*
X0302158Y0098366D01*
X0301690Y0103359D02*
X0262433Y0103359D01*
X0262433Y0104357D02*
X0301690Y0104357D01*
X0301690Y0105356D02*
X0262433Y0105356D01*
X0262433Y0106354D02*
X0301690Y0106354D01*
X0284303Y0096765D02*
X0284303Y0096765D01*
X0284372Y0096369D02*
X0336294Y0096369D01*
X0336118Y0095370D02*
X0284549Y0095370D01*
X0284725Y0094372D02*
X0335942Y0094372D01*
X0335788Y0093500D02*
X0335788Y0093500D01*
X0335811Y0093373D02*
X0284856Y0093373D01*
X0284878Y0093500D02*
X0284878Y0093500D01*
X0284680Y0092375D02*
X0335987Y0092375D01*
X0336163Y0091376D02*
X0284504Y0091376D01*
X0284328Y0090378D02*
X0336339Y0090378D01*
X0336364Y0090235D02*
X0336364Y0090235D01*
X0336858Y0089379D02*
X0283808Y0089379D01*
X0283232Y0088381D02*
X0337435Y0088381D01*
X0338011Y0087382D02*
X0282655Y0087382D01*
X0282645Y0087365D02*
X0282645Y0087365D01*
X0282645Y0087365D01*
X0281476Y0086384D02*
X0339190Y0086384D01*
X0340380Y0085385D02*
X0280286Y0085385D01*
X0280106Y0085234D02*
X0280106Y0085234D01*
X0277779Y0084387D02*
X0342888Y0084387D01*
X0340561Y0085234D02*
X0340561Y0085234D01*
X0336712Y0097368D02*
X0283955Y0097368D01*
X0321971Y0120333D02*
X0328696Y0120333D01*
X0326865Y0121332D02*
X0323802Y0121332D01*
X0324800Y0122330D02*
X0325866Y0122330D01*
X0325388Y0123329D02*
X0325279Y0123329D01*
X0352052Y0129320D02*
X0358233Y0129320D01*
X0358233Y0130318D02*
X0353051Y0130318D01*
X0354049Y0131317D02*
X0358233Y0131317D01*
X0358233Y0132315D02*
X0354883Y0132315D01*
X0355102Y0133314D02*
X0358233Y0133314D01*
X0358233Y0134312D02*
X0355751Y0134312D01*
X0355983Y0135311D02*
X0358233Y0135311D01*
X0358233Y0136309D02*
X0355908Y0136309D01*
X0355480Y0137308D02*
X0358233Y0137308D01*
X0358233Y0138306D02*
X0354289Y0138306D01*
X0351377Y0138306D02*
X0349289Y0138306D01*
X0288803Y0028470D02*
X0262433Y0028470D01*
X0262433Y0027472D02*
X0286953Y0027472D01*
X0286066Y0026473D02*
X0262433Y0026473D01*
X0262433Y0025475D02*
X0285507Y0025475D01*
X0285223Y0024476D02*
X0262433Y0024476D01*
X0098158Y0098366D02*
X0079378Y0098366D01*
X0078802Y0099365D02*
X0097690Y0099365D01*
X0097690Y0100363D02*
X0077778Y0100363D01*
X0076588Y0101362D02*
X0097690Y0101362D01*
X0097690Y0102360D02*
X0074474Y0102360D01*
X0068192Y0102360D02*
X0058433Y0102360D01*
X0058433Y0101362D02*
X0066079Y0101362D01*
X0064889Y0100363D02*
X0058433Y0100363D01*
X0058433Y0099365D02*
X0063865Y0099365D01*
X0064021Y0099635D02*
X0064021Y0099635D01*
X0064021Y0099635D01*
X0063289Y0098366D02*
X0058433Y0098366D01*
X0058433Y0097368D02*
X0062712Y0097368D01*
X0062294Y0096369D02*
X0058433Y0096369D01*
X0058433Y0095370D02*
X0062118Y0095370D01*
X0061942Y0094372D02*
X0058433Y0094372D01*
X0058433Y0093373D02*
X0061811Y0093373D01*
X0061788Y0093500D02*
X0061788Y0093500D01*
X0061987Y0092375D02*
X0058433Y0092375D01*
X0058433Y0091376D02*
X0062163Y0091376D01*
X0062339Y0090378D02*
X0058433Y0090378D01*
X0058433Y0089379D02*
X0062858Y0089379D01*
X0062364Y0090235D02*
X0062364Y0090235D01*
X0063435Y0088381D02*
X0058433Y0088381D01*
X0058433Y0087382D02*
X0064011Y0087382D01*
X0065190Y0086384D02*
X0058433Y0086384D01*
X0058433Y0085385D02*
X0066380Y0085385D01*
X0066561Y0085234D02*
X0066561Y0085234D01*
X0068888Y0084387D02*
X0058433Y0084387D01*
X0058433Y0103359D02*
X0097690Y0103359D01*
X0097690Y0104357D02*
X0058433Y0104357D01*
X0058433Y0105356D02*
X0097690Y0105356D01*
X0097690Y0106354D02*
X0058433Y0106354D01*
X0058433Y0048440D02*
X0094283Y0048440D01*
X0094283Y0047442D02*
X0058433Y0047442D01*
X0058433Y0046443D02*
X0080208Y0046443D01*
X0078823Y0045445D02*
X0058433Y0045445D01*
X0058433Y0044446D02*
X0078316Y0044446D01*
X0078183Y0043448D02*
X0058433Y0043448D01*
X0058433Y0042449D02*
X0078359Y0042449D01*
X0078928Y0041451D02*
X0058433Y0041451D01*
X0058433Y0040452D02*
X0080460Y0040452D01*
X0082207Y0040452D02*
X0088831Y0040452D01*
X0088319Y0039454D02*
X0058433Y0039454D01*
X0058433Y0038455D02*
X0088183Y0038455D01*
X0088356Y0037457D02*
X0058433Y0037457D01*
X0058433Y0036458D02*
X0088920Y0036458D01*
X0089283Y0035460D02*
X0058433Y0035460D01*
X0058433Y0034461D02*
X0089283Y0034461D01*
X0089283Y0033463D02*
X0058433Y0033463D01*
X0058433Y0032464D02*
X0089283Y0032464D01*
X0089283Y0031466D02*
X0058433Y0031466D01*
X0058433Y0030467D02*
X0089283Y0030467D01*
X0089283Y0029469D02*
X0058433Y0029469D01*
X0058433Y0028470D02*
X0084803Y0028470D01*
X0085833Y0028470D02*
X0086833Y0028470D01*
X0086833Y0027472D02*
X0085833Y0027472D01*
X0085833Y0026473D02*
X0086833Y0026473D01*
X0086833Y0025475D02*
X0085833Y0025475D01*
X0085833Y0024476D02*
X0086833Y0024476D01*
X0085833Y0023478D02*
X0058433Y0023478D01*
X0058433Y0024476D02*
X0081223Y0024476D01*
X0081507Y0025475D02*
X0058433Y0025475D01*
X0058433Y0026473D02*
X0082066Y0026473D01*
X0082953Y0027472D02*
X0058433Y0027472D01*
X0058433Y0022479D02*
X0081230Y0022479D01*
X0081526Y0021481D02*
X0077369Y0021481D01*
X0075298Y0021481D02*
X0058433Y0021481D01*
X0058433Y0020482D02*
X0073861Y0020482D01*
X0073331Y0019484D02*
X0058433Y0019484D01*
X0058433Y0018485D02*
X0073183Y0018485D01*
X0073301Y0017487D02*
X0073344Y0017487D01*
X0071071Y0017487D02*
X0070805Y0017487D01*
X0068576Y0017487D02*
X0067421Y0017487D01*
X0065247Y0017487D02*
X0062817Y0017487D01*
X0063816Y0016488D02*
X0064249Y0016488D01*
X0060643Y0017487D02*
X0058433Y0017487D01*
X0058433Y0016488D02*
X0059645Y0016488D01*
X0059630Y0015490D02*
X0058433Y0015490D01*
X0058433Y0014491D02*
X0059630Y0014491D01*
X0059452Y0013493D02*
X0058433Y0013493D01*
X0058433Y0012494D02*
X0058453Y0012494D01*
X0087864Y0028470D02*
X0089283Y0028470D01*
X0094283Y0046443D02*
X0082459Y0046443D01*
X0072991Y0186100D02*
X0072991Y0186100D01*
D14*
X0096333Y0173000D02*
X0096333Y0145500D01*
X0081333Y0145500D01*
X0091333Y0140500D02*
X0091333Y0123000D01*
X0088833Y0120500D01*
X0076333Y0120500D01*
X0096333Y0125500D02*
X0096333Y0135500D01*
X0126333Y0135500D01*
X0126333Y0147500D01*
X0126333Y0157500D01*
X0127833Y0159000D01*
X0138833Y0159000D01*
X0141333Y0161500D01*
X0141333Y0168500D01*
X0133833Y0145500D02*
X0133833Y0138000D01*
X0131333Y0135500D01*
X0126333Y0135500D01*
X0118833Y0130500D02*
X0116333Y0128000D01*
X0116333Y0125500D01*
X0118833Y0130500D02*
X0146333Y0130500D01*
X0148833Y0133000D01*
X0148833Y0135500D01*
X0143833Y0135500D02*
X0143833Y0135000D01*
X0141833Y0133000D01*
X0108833Y0133000D01*
X0106333Y0130500D01*
X0106333Y0125500D01*
X0096333Y0135500D02*
X0096333Y0145500D01*
X0111333Y0140500D02*
X0116333Y0145500D01*
X0116333Y0170500D01*
X0088833Y0222500D02*
X0076333Y0222500D01*
X0088833Y0222500D02*
X0091333Y0225000D01*
X0091333Y0242500D01*
X0096333Y0247500D02*
X0081333Y0247500D01*
X0096333Y0247500D02*
X0096333Y0237500D01*
X0126333Y0237500D01*
X0126333Y0249500D01*
X0126333Y0259500D01*
X0127833Y0261000D01*
X0138833Y0261000D01*
X0141333Y0263500D01*
X0141333Y0270500D01*
X0133833Y0247500D02*
X0133833Y0240000D01*
X0131333Y0237500D01*
X0126333Y0237500D01*
X0118833Y0232500D02*
X0116333Y0230000D01*
X0116333Y0227500D01*
X0118833Y0232500D02*
X0146333Y0232500D01*
X0148833Y0235000D01*
X0148833Y0237500D01*
X0143833Y0237500D02*
X0143833Y0237000D01*
X0141833Y0235000D01*
X0108833Y0235000D01*
X0106333Y0232500D01*
X0106333Y0227500D01*
X0096333Y0227500D02*
X0096333Y0237500D01*
X0096333Y0247500D02*
X0096333Y0275000D01*
X0116333Y0272500D02*
X0116333Y0247500D01*
X0111333Y0242500D01*
X0178333Y0222500D02*
X0190833Y0222500D01*
X0193333Y0225000D01*
X0193333Y0242500D01*
X0198333Y0247500D02*
X0183333Y0247500D01*
X0198333Y0247500D02*
X0198333Y0237500D01*
X0228333Y0237500D01*
X0228333Y0249500D01*
X0228333Y0259500D01*
X0229833Y0261000D01*
X0240833Y0261000D01*
X0243333Y0263500D01*
X0243333Y0270500D01*
X0235833Y0247500D02*
X0235833Y0240000D01*
X0233333Y0237500D01*
X0228333Y0237500D01*
X0220833Y0232500D02*
X0218333Y0230000D01*
X0218333Y0227500D01*
X0220833Y0232500D02*
X0248333Y0232500D01*
X0250833Y0235000D01*
X0250833Y0237500D01*
X0245833Y0237500D02*
X0245833Y0237000D01*
X0243833Y0235000D01*
X0210833Y0235000D01*
X0208333Y0232500D01*
X0208333Y0227500D01*
X0198333Y0227500D02*
X0198333Y0237500D01*
X0198333Y0247500D02*
X0198333Y0275000D01*
X0218333Y0272500D02*
X0218333Y0247500D01*
X0213333Y0242500D01*
X0280333Y0222500D02*
X0292833Y0222500D01*
X0295333Y0225000D01*
X0295333Y0242500D01*
X0300333Y0247500D02*
X0285333Y0247500D01*
X0300333Y0247500D02*
X0300333Y0237500D01*
X0330333Y0237500D01*
X0330333Y0249500D01*
X0330333Y0259500D01*
X0331833Y0261000D01*
X0342833Y0261000D01*
X0345333Y0263500D01*
X0345333Y0270500D01*
X0337833Y0247500D02*
X0337833Y0240000D01*
X0335333Y0237500D01*
X0330333Y0237500D01*
X0322833Y0232500D02*
X0320333Y0230000D01*
X0320333Y0227500D01*
X0322833Y0232500D02*
X0350333Y0232500D01*
X0352833Y0235000D01*
X0352833Y0237500D01*
X0347833Y0237500D02*
X0347833Y0237000D01*
X0345833Y0235000D01*
X0312833Y0235000D01*
X0310333Y0232500D01*
X0310333Y0227500D01*
X0300333Y0227500D02*
X0300333Y0237500D01*
X0300333Y0247500D02*
X0300333Y0275000D01*
X0320333Y0272500D02*
X0320333Y0247500D01*
X0315333Y0242500D01*
X0300333Y0173000D02*
X0300333Y0145500D01*
X0285333Y0145500D01*
X0295333Y0140500D02*
X0295333Y0123000D01*
X0292833Y0120500D01*
X0280333Y0120500D01*
X0300333Y0125500D02*
X0300333Y0135500D01*
X0330333Y0135500D01*
X0330333Y0147500D01*
X0330333Y0157500D01*
X0331833Y0159000D01*
X0342833Y0159000D01*
X0345333Y0161500D01*
X0345333Y0168500D01*
X0337833Y0145500D02*
X0337833Y0138000D01*
X0335333Y0135500D01*
X0330333Y0135500D01*
X0322833Y0130500D02*
X0320333Y0128000D01*
X0320333Y0125500D01*
X0322833Y0130500D02*
X0350333Y0130500D01*
X0352833Y0133000D01*
X0352833Y0135500D01*
X0347833Y0135500D02*
X0347833Y0135000D01*
X0345833Y0133000D01*
X0312833Y0133000D01*
X0310333Y0130500D01*
X0310333Y0125500D01*
X0300333Y0135500D02*
X0300333Y0145500D01*
X0315333Y0140500D02*
X0320333Y0145500D01*
X0320333Y0170500D01*
X0250833Y0135500D02*
X0250833Y0133000D01*
X0248333Y0130500D01*
X0220833Y0130500D01*
X0218333Y0128000D01*
X0218333Y0125500D01*
X0208333Y0125500D02*
X0208333Y0130500D01*
X0210833Y0133000D01*
X0243833Y0133000D01*
X0245833Y0135000D01*
X0245833Y0135500D01*
X0235833Y0138000D02*
X0235833Y0145500D01*
X0235833Y0138000D02*
X0233333Y0135500D01*
X0228333Y0135500D01*
X0228333Y0147500D01*
X0228333Y0157500D01*
X0229833Y0159000D01*
X0240833Y0159000D01*
X0243333Y0161500D01*
X0243333Y0168500D01*
X0218333Y0170500D02*
X0218333Y0145500D01*
X0213333Y0140500D01*
X0198333Y0135500D02*
X0198333Y0125500D01*
X0193333Y0123000D02*
X0193333Y0140500D01*
X0198333Y0135500D02*
X0228333Y0135500D01*
X0198333Y0135500D02*
X0198333Y0145500D01*
X0183333Y0145500D01*
X0198333Y0145500D02*
X0198333Y0173000D01*
X0193333Y0123000D02*
X0190833Y0120500D01*
X0178333Y0120500D01*
X0198333Y0071000D02*
X0198333Y0043500D01*
X0183333Y0043500D01*
X0193333Y0038500D02*
X0193333Y0021000D01*
X0190833Y0018500D01*
X0178333Y0018500D01*
X0198333Y0023500D02*
X0198333Y0033500D01*
X0228333Y0033500D01*
X0228333Y0045500D01*
X0228333Y0055500D01*
X0229833Y0057000D01*
X0240833Y0057000D01*
X0243333Y0059500D01*
X0243333Y0066500D01*
X0235833Y0043500D02*
X0235833Y0036000D01*
X0233333Y0033500D01*
X0228333Y0033500D01*
X0220833Y0028500D02*
X0218333Y0026000D01*
X0218333Y0023500D01*
X0220833Y0028500D02*
X0248333Y0028500D01*
X0250833Y0031000D01*
X0250833Y0033500D01*
X0245833Y0033500D02*
X0245833Y0033000D01*
X0243833Y0031000D01*
X0210833Y0031000D01*
X0208333Y0028500D01*
X0208333Y0023500D01*
X0198333Y0033500D02*
X0198333Y0043500D01*
X0213333Y0038500D02*
X0218333Y0043500D01*
X0218333Y0068500D01*
X0280333Y0018500D02*
X0292833Y0018500D01*
X0295333Y0021000D01*
X0295333Y0038500D01*
X0300333Y0043500D02*
X0285333Y0043500D01*
X0300333Y0043500D02*
X0300333Y0033500D01*
X0330333Y0033500D01*
X0330333Y0045500D01*
X0330333Y0055500D01*
X0331833Y0057000D01*
X0342833Y0057000D01*
X0345333Y0059500D01*
X0345333Y0066500D01*
X0337833Y0043500D02*
X0337833Y0036000D01*
X0335333Y0033500D01*
X0330333Y0033500D01*
X0322833Y0028500D02*
X0320333Y0026000D01*
X0320333Y0023500D01*
X0322833Y0028500D02*
X0350333Y0028500D01*
X0352833Y0031000D01*
X0352833Y0033500D01*
X0347833Y0033500D02*
X0347833Y0033000D01*
X0345833Y0031000D01*
X0312833Y0031000D01*
X0310333Y0028500D01*
X0310333Y0023500D01*
X0300333Y0023500D02*
X0300333Y0033500D01*
X0300333Y0043500D02*
X0300333Y0071000D01*
X0320333Y0068500D02*
X0320333Y0043500D01*
X0315333Y0038500D01*
X0148833Y0033500D02*
X0148833Y0031000D01*
X0146333Y0028500D01*
X0118833Y0028500D01*
X0116333Y0026000D01*
X0116333Y0023500D01*
X0106333Y0023500D02*
X0106333Y0028500D01*
X0108833Y0031000D01*
X0141833Y0031000D01*
X0143833Y0033000D01*
X0143833Y0033500D01*
X0133833Y0036000D02*
X0131333Y0033500D01*
X0126333Y0033500D01*
X0126333Y0045500D01*
X0126333Y0055500D01*
X0127833Y0057000D01*
X0138833Y0057000D01*
X0141333Y0059500D01*
X0141333Y0066500D01*
X0133833Y0043500D02*
X0133833Y0036000D01*
X0126333Y0033500D02*
X0096333Y0033500D01*
X0096333Y0043500D01*
X0081333Y0043500D01*
X0091333Y0038500D02*
X0091333Y0021000D01*
X0088833Y0018500D01*
X0076333Y0018500D01*
X0096333Y0023500D02*
X0096333Y0033500D01*
X0096333Y0043500D02*
X0096333Y0071000D01*
X0116333Y0068500D02*
X0116333Y0043500D01*
X0111333Y0038500D01*
D15*
X0111333Y0038500D03*
X0121133Y0043500D03*
X0133833Y0043500D03*
X0138633Y0043500D03*
X0133833Y0050500D03*
X0141333Y0066500D03*
X0116333Y0068500D03*
X0096333Y0071000D03*
X0091333Y0063500D03*
X0081333Y0043500D03*
X0091333Y0038500D03*
X0076333Y0018500D03*
X0143833Y0033500D03*
X0148833Y0033500D03*
X0178333Y0018500D03*
X0193333Y0038500D03*
X0183333Y0043500D03*
X0193333Y0063500D03*
X0198333Y0071000D03*
X0218333Y0068500D03*
X0235833Y0050500D03*
X0235833Y0043500D03*
X0240633Y0043500D03*
X0245833Y0033500D03*
X0250833Y0033500D03*
X0223133Y0043500D03*
X0213333Y0038500D03*
X0243333Y0066500D03*
X0285333Y0043500D03*
X0295333Y0038500D03*
X0315333Y0038500D03*
X0325133Y0043500D03*
X0337833Y0043500D03*
X0342633Y0043500D03*
X0337833Y0050500D03*
X0345333Y0066500D03*
X0320333Y0068500D03*
X0300333Y0071000D03*
X0295333Y0063500D03*
X0280333Y0018500D03*
X0347833Y0033500D03*
X0352833Y0033500D03*
X0280333Y0120500D03*
X0295333Y0140500D03*
X0285333Y0145500D03*
X0295333Y0165500D03*
X0300333Y0173000D03*
X0320333Y0170500D03*
X0337833Y0152500D03*
X0337833Y0145500D03*
X0342633Y0145500D03*
X0347833Y0135500D03*
X0352833Y0135500D03*
X0325133Y0145500D03*
X0315333Y0140500D03*
X0345333Y0168500D03*
X0280333Y0222500D03*
X0295333Y0242500D03*
X0285333Y0247500D03*
X0295333Y0267500D03*
X0300333Y0275000D03*
X0320333Y0272500D03*
X0337833Y0254500D03*
X0337833Y0247500D03*
X0342633Y0247500D03*
X0347833Y0237500D03*
X0352833Y0237500D03*
X0325133Y0247500D03*
X0315333Y0242500D03*
X0345333Y0270500D03*
X0250833Y0237500D03*
X0245833Y0237500D03*
X0240633Y0247500D03*
X0235833Y0247500D03*
X0235833Y0254500D03*
X0223133Y0247500D03*
X0213333Y0242500D03*
X0193333Y0242500D03*
X0183333Y0247500D03*
X0193333Y0267500D03*
X0198333Y0275000D03*
X0218333Y0272500D03*
X0243333Y0270500D03*
X0178333Y0222500D03*
X0148833Y0237500D03*
X0143833Y0237500D03*
X0138633Y0247500D03*
X0133833Y0247500D03*
X0133833Y0254500D03*
X0121133Y0247500D03*
X0111333Y0242500D03*
X0091333Y0242500D03*
X0081333Y0247500D03*
X0091333Y0267500D03*
X0096333Y0275000D03*
X0116333Y0272500D03*
X0141333Y0270500D03*
X0076333Y0222500D03*
X0096333Y0173000D03*
X0091333Y0165500D03*
X0081333Y0145500D03*
X0091333Y0140500D03*
X0111333Y0140500D03*
X0121133Y0145500D03*
X0133833Y0145500D03*
X0138633Y0145500D03*
X0133833Y0152500D03*
X0141333Y0168500D03*
X0116333Y0170500D03*
X0143833Y0135500D03*
X0148833Y0135500D03*
X0178333Y0120500D03*
X0193333Y0140500D03*
X0183333Y0145500D03*
X0193333Y0165500D03*
X0198333Y0173000D03*
X0218333Y0170500D03*
X0235833Y0152500D03*
X0235833Y0145500D03*
X0240633Y0145500D03*
X0245833Y0135500D03*
X0250833Y0135500D03*
X0223133Y0145500D03*
X0213333Y0140500D03*
X0243333Y0168500D03*
X0076333Y0120500D03*
M02*
