G75*
%MOIN*%
%OFA0B0*%
%FSLAX25Y25*%
%IPPOS*%
%LPD*%
%AMOC8*
5,1,8,0,0,1.08239X$1,22.5*
%
%ADD10R,0.03937X0.04331*%
%ADD11R,0.13000X0.08800*%
%ADD12R,0.07874X0.04724*%
%ADD13R,0.05315X0.02362*%
%ADD14R,0.04331X0.03937*%
%ADD15R,0.03543X0.01496*%
D10*
X0086333Y0055154D03*
X0086333Y0061846D03*
X0086333Y0070154D03*
X0086333Y0076846D03*
X0126333Y0076846D03*
X0126333Y0070154D03*
X0126333Y0061846D03*
X0126333Y0055154D03*
X0133833Y0055154D03*
X0133833Y0061846D03*
X0141333Y0061846D03*
X0141333Y0055154D03*
X0188333Y0055154D03*
X0188333Y0061846D03*
X0188333Y0070154D03*
X0188333Y0076846D03*
X0228333Y0076846D03*
X0228333Y0070154D03*
X0228333Y0061846D03*
X0228333Y0055154D03*
X0235833Y0055154D03*
X0235833Y0061846D03*
X0243333Y0061846D03*
X0243333Y0055154D03*
X0290333Y0055154D03*
X0290333Y0061846D03*
X0290333Y0070154D03*
X0290333Y0076846D03*
X0330333Y0076846D03*
X0330333Y0070154D03*
X0330333Y0061846D03*
X0330333Y0055154D03*
X0337833Y0055154D03*
X0337833Y0061846D03*
X0345333Y0061846D03*
X0345333Y0055154D03*
X0345333Y0157154D03*
X0345333Y0163846D03*
X0337833Y0163846D03*
X0337833Y0157154D03*
X0330333Y0157154D03*
X0330333Y0163846D03*
X0330333Y0172154D03*
X0330333Y0178846D03*
X0290333Y0178846D03*
X0290333Y0172154D03*
X0290333Y0163846D03*
X0290333Y0157154D03*
X0243333Y0157154D03*
X0243333Y0163846D03*
X0235833Y0163846D03*
X0235833Y0157154D03*
X0228333Y0157154D03*
X0228333Y0163846D03*
X0228333Y0172154D03*
X0228333Y0178846D03*
X0188333Y0178846D03*
X0188333Y0172154D03*
X0188333Y0163846D03*
X0188333Y0157154D03*
X0141333Y0157154D03*
X0141333Y0163846D03*
X0133833Y0163846D03*
X0133833Y0157154D03*
X0126333Y0157154D03*
X0126333Y0163846D03*
X0126333Y0172154D03*
X0126333Y0178846D03*
X0086333Y0178846D03*
X0086333Y0172154D03*
X0086333Y0163846D03*
X0086333Y0157154D03*
X0086333Y0259154D03*
X0086333Y0265846D03*
X0086333Y0274154D03*
X0086333Y0280846D03*
X0126333Y0280846D03*
X0126333Y0274154D03*
X0126333Y0265846D03*
X0126333Y0259154D03*
X0133833Y0259154D03*
X0133833Y0265846D03*
X0141333Y0265846D03*
X0141333Y0259154D03*
X0188333Y0259154D03*
X0188333Y0265846D03*
X0188333Y0274154D03*
X0188333Y0280846D03*
X0228333Y0280846D03*
X0228333Y0274154D03*
X0228333Y0265846D03*
X0228333Y0259154D03*
X0235833Y0259154D03*
X0235833Y0265846D03*
X0243333Y0265846D03*
X0243333Y0259154D03*
X0290333Y0259154D03*
X0290333Y0265846D03*
X0290333Y0274154D03*
X0290333Y0280846D03*
X0330333Y0280846D03*
X0330333Y0274154D03*
X0330333Y0265846D03*
X0330333Y0259154D03*
X0337833Y0259154D03*
X0337833Y0265846D03*
X0345333Y0265846D03*
X0345333Y0259154D03*
D11*
X0310333Y0277500D03*
X0208333Y0277500D03*
X0106333Y0277500D03*
X0106333Y0175500D03*
X0208333Y0175500D03*
X0310333Y0175500D03*
X0310333Y0073500D03*
X0208333Y0073500D03*
X0106333Y0073500D03*
D12*
X0061865Y0022476D03*
X0061865Y0044524D03*
X0061865Y0124476D03*
X0061865Y0146524D03*
X0061865Y0226476D03*
X0061865Y0248524D03*
X0150802Y0248524D03*
X0163865Y0248524D03*
X0163865Y0226476D03*
X0150802Y0226476D03*
X0150802Y0146524D03*
X0163865Y0146524D03*
X0163865Y0124476D03*
X0150802Y0124476D03*
X0150802Y0044524D03*
X0163865Y0044524D03*
X0163865Y0022476D03*
X0150802Y0022476D03*
X0252802Y0022476D03*
X0265865Y0022476D03*
X0265865Y0044524D03*
X0252802Y0044524D03*
X0252802Y0124476D03*
X0265865Y0124476D03*
X0265865Y0146524D03*
X0252802Y0146524D03*
X0252802Y0226476D03*
X0265865Y0226476D03*
X0265865Y0248524D03*
X0252802Y0248524D03*
X0354802Y0248524D03*
X0354802Y0226476D03*
X0354802Y0146524D03*
X0354802Y0124476D03*
X0354802Y0044524D03*
X0354802Y0022476D03*
D13*
X0340333Y0027594D03*
X0340333Y0031531D03*
X0340333Y0035469D03*
X0340333Y0039406D03*
X0280333Y0039406D03*
X0280333Y0035469D03*
X0280333Y0031531D03*
X0280333Y0027594D03*
X0238333Y0027594D03*
X0238333Y0031531D03*
X0238333Y0035469D03*
X0238333Y0039406D03*
X0178333Y0039406D03*
X0178333Y0035469D03*
X0178333Y0031531D03*
X0178333Y0027594D03*
X0136333Y0027594D03*
X0136333Y0031531D03*
X0136333Y0035469D03*
X0136333Y0039406D03*
X0076333Y0039406D03*
X0076333Y0035469D03*
X0076333Y0031531D03*
X0076333Y0027594D03*
X0076333Y0129594D03*
X0076333Y0133531D03*
X0076333Y0137469D03*
X0076333Y0141406D03*
X0136333Y0141406D03*
X0136333Y0137469D03*
X0136333Y0133531D03*
X0136333Y0129594D03*
X0178333Y0129594D03*
X0178333Y0133531D03*
X0178333Y0137469D03*
X0178333Y0141406D03*
X0238333Y0141406D03*
X0238333Y0137469D03*
X0238333Y0133531D03*
X0238333Y0129594D03*
X0280333Y0129594D03*
X0280333Y0133531D03*
X0280333Y0137469D03*
X0280333Y0141406D03*
X0340333Y0141406D03*
X0340333Y0137469D03*
X0340333Y0133531D03*
X0340333Y0129594D03*
X0340333Y0231594D03*
X0340333Y0235531D03*
X0340333Y0239469D03*
X0340333Y0243406D03*
X0280333Y0243406D03*
X0280333Y0239469D03*
X0280333Y0235531D03*
X0280333Y0231594D03*
X0238333Y0231594D03*
X0238333Y0235531D03*
X0238333Y0239469D03*
X0238333Y0243406D03*
X0178333Y0243406D03*
X0178333Y0239469D03*
X0178333Y0235531D03*
X0178333Y0231594D03*
X0136333Y0231594D03*
X0136333Y0235531D03*
X0136333Y0239469D03*
X0136333Y0243406D03*
X0076333Y0243406D03*
X0076333Y0239469D03*
X0076333Y0235531D03*
X0076333Y0231594D03*
D14*
X0095487Y0247500D03*
X0102180Y0247500D03*
X0109987Y0247500D03*
X0116680Y0247500D03*
X0197487Y0247500D03*
X0204180Y0247500D03*
X0211987Y0247500D03*
X0218680Y0247500D03*
X0299487Y0247500D03*
X0306180Y0247500D03*
X0313987Y0247500D03*
X0320680Y0247500D03*
X0320680Y0145500D03*
X0313987Y0145500D03*
X0306180Y0145500D03*
X0299487Y0145500D03*
X0218680Y0145500D03*
X0211987Y0145500D03*
X0204180Y0145500D03*
X0197487Y0145500D03*
X0116680Y0145500D03*
X0109987Y0145500D03*
X0102180Y0145500D03*
X0095487Y0145500D03*
X0095487Y0043500D03*
X0102180Y0043500D03*
X0109987Y0043500D03*
X0116680Y0043500D03*
X0197487Y0043500D03*
X0204180Y0043500D03*
X0211987Y0043500D03*
X0218680Y0043500D03*
X0299487Y0043500D03*
X0306180Y0043500D03*
X0313987Y0043500D03*
X0320680Y0043500D03*
D15*
X0319487Y0050382D03*
X0319487Y0052941D03*
X0319487Y0055500D03*
X0319487Y0058059D03*
X0319487Y0060618D03*
X0301180Y0060618D03*
X0301180Y0058059D03*
X0301180Y0055500D03*
X0301180Y0052941D03*
X0301180Y0050382D03*
X0217487Y0050382D03*
X0217487Y0052941D03*
X0217487Y0055500D03*
X0217487Y0058059D03*
X0217487Y0060618D03*
X0199180Y0060618D03*
X0199180Y0058059D03*
X0199180Y0055500D03*
X0199180Y0052941D03*
X0199180Y0050382D03*
X0115487Y0050382D03*
X0115487Y0052941D03*
X0115487Y0055500D03*
X0115487Y0058059D03*
X0115487Y0060618D03*
X0097180Y0060618D03*
X0097180Y0058059D03*
X0097180Y0055500D03*
X0097180Y0052941D03*
X0097180Y0050382D03*
X0097180Y0152382D03*
X0097180Y0154941D03*
X0097180Y0157500D03*
X0097180Y0160059D03*
X0097180Y0162618D03*
X0115487Y0162618D03*
X0115487Y0160059D03*
X0115487Y0157500D03*
X0115487Y0154941D03*
X0115487Y0152382D03*
X0199180Y0152382D03*
X0199180Y0154941D03*
X0199180Y0157500D03*
X0199180Y0160059D03*
X0199180Y0162618D03*
X0217487Y0162618D03*
X0217487Y0160059D03*
X0217487Y0157500D03*
X0217487Y0154941D03*
X0217487Y0152382D03*
X0301180Y0152382D03*
X0301180Y0154941D03*
X0301180Y0157500D03*
X0301180Y0160059D03*
X0301180Y0162618D03*
X0319487Y0162618D03*
X0319487Y0160059D03*
X0319487Y0157500D03*
X0319487Y0154941D03*
X0319487Y0152382D03*
X0319487Y0254382D03*
X0319487Y0256941D03*
X0319487Y0259500D03*
X0319487Y0262059D03*
X0319487Y0264618D03*
X0301180Y0264618D03*
X0301180Y0262059D03*
X0301180Y0259500D03*
X0301180Y0256941D03*
X0301180Y0254382D03*
X0217487Y0254382D03*
X0217487Y0256941D03*
X0217487Y0259500D03*
X0217487Y0262059D03*
X0217487Y0264618D03*
X0199180Y0264618D03*
X0199180Y0262059D03*
X0199180Y0259500D03*
X0199180Y0256941D03*
X0199180Y0254382D03*
X0115487Y0254382D03*
X0115487Y0256941D03*
X0115487Y0259500D03*
X0115487Y0262059D03*
X0115487Y0264618D03*
X0097180Y0264618D03*
X0097180Y0262059D03*
X0097180Y0259500D03*
X0097180Y0256941D03*
X0097180Y0254382D03*
M02*
